<svg width="11" height="15" viewBox="0 0 11 15" fill="none" xmlns="http://www.w3.org/2000/svg">
<path d="M4.33878 12.4301C4.36746 12.4301 4.39393 12.4345 4.4204 12.4433V6.66613C4.39614 6.67716 4.36746 6.68157 4.33878 6.68157H1.58584C1.55717 6.68157 1.52849 6.67716 1.50423 6.66613V12.4433C1.5307 12.4345 1.55717 12.4301 1.58584 12.4301H4.33878ZM4.7129 13.5858H1.14974C1.02776 13.5858 0.928711 13.685 0.928711 13.8068V14.3163C0.928711 14.4383 1.02776 14.5374 1.14974 14.5374H4.7129C4.83467 14.5374 4.93349 14.4381 4.93349 14.3166V13.8066C4.93349 13.6848 4.83467 13.5858 4.7129 13.5858ZM4.4204 12.6657C4.41776 12.646 4.40801 12.6279 4.39297 12.6149C4.37794 12.6019 4.35866 12.5949 4.33878 12.5951H1.58584C1.54393 12.5951 1.50864 12.626 1.50423 12.6657L1.40937 13.4201H4.51525L4.4204 12.6657ZM1.58628 6.51657H4.33834C4.35161 6.5165 4.36467 6.51325 4.37642 6.5071C4.38817 6.50094 4.39827 6.49205 4.40588 6.48118C4.41348 6.47031 4.41837 6.45778 4.42013 6.44463C4.42189 6.43148 4.42047 6.4181 4.41599 6.40561L3.94261 5.10767C3.93679 5.09174 3.92623 5.07798 3.91234 5.06823C3.89846 5.05849 3.88192 5.05324 3.86496 5.05319H2.05967C2.04267 5.05319 2.02608 5.05842 2.01216 5.06817C1.99823 5.07792 1.98763 5.0917 1.9818 5.10767L1.50842 6.40561C1.50403 6.41812 1.5027 6.43149 1.50451 6.44461C1.50633 6.45774 1.51124 6.47024 1.51885 6.48109C1.52647 6.49194 1.53655 6.50081 1.54828 6.50698C1.56001 6.51315 1.57303 6.51644 1.58628 6.51657ZM3.86452 4.88841C3.8932 4.88841 3.92187 4.89282 3.94834 4.90385V3.47664C3.92187 3.48988 3.8932 3.49429 3.86452 3.49429H2.06011C2.03143 3.49429 2.00275 3.48988 1.97628 3.47885V4.90385C2.00275 4.89282 2.03143 4.88841 2.06011 4.88841H3.86452ZM2.06011 3.32841H3.86452C3.87683 3.32835 3.88898 3.32555 3.90007 3.32021C3.91116 3.31487 3.92092 3.30711 3.92864 3.29752C3.93635 3.28792 3.94183 3.27672 3.94467 3.26474C3.9475 3.25276 3.94763 3.2403 3.94503 3.22826L3.4304 0.840613C3.37415 0.579436 3.15467 0.462524 2.96209 0.462524C2.76974 0.462524 2.55025 0.579436 2.49378 0.840613L1.97937 3.22804C1.97673 3.24012 1.97683 3.25263 1.97968 3.26467C1.98252 3.2767 1.98803 3.28794 1.9958 3.29755C2.00358 3.30717 2.01341 3.31491 2.02458 3.32021C2.03575 3.32552 2.04797 3.32824 2.06033 3.32819M9.47651 12.4301C9.50518 12.4301 9.53165 12.4345 9.55812 12.4433V6.66613C9.53386 6.67716 9.50518 6.68157 9.47651 6.68157H6.72356C6.69489 6.68157 6.66621 6.67716 6.64195 6.66613V12.4433C6.66842 12.4345 6.69489 12.4301 6.72356 12.4301H9.47651ZM9.8504 13.5858H6.28746C6.16548 13.5858 6.06643 13.685 6.06643 13.8068V14.3163C6.06643 14.4383 6.1657 14.5374 6.28746 14.5374H9.85062C9.97239 14.5374 10.0714 14.4381 10.0714 14.3166V13.8066C10.0714 13.6848 9.97239 13.5855 9.85084 13.5855M9.55834 12.6657C9.5557 12.646 9.54595 12.6279 9.53091 12.6149C9.51588 12.6019 9.4966 12.5949 9.47673 12.5951H6.72378C6.68187 12.5951 6.64658 12.626 6.64217 12.6657L6.54731 13.4201H9.6532L9.55834 12.6657ZM6.72378 6.51657H9.47584C9.48911 6.5165 9.50217 6.51325 9.51392 6.5071C9.52567 6.50094 9.53577 6.49205 9.54338 6.48118C9.55098 6.47031 9.55587 6.45778 9.55763 6.44463C9.55939 6.43148 9.55797 6.4181 9.55349 6.40561L9.08011 5.10767C9.07429 5.09174 9.06373 5.07798 9.04984 5.06823C9.03596 5.05849 9.01942 5.05324 9.00246 5.05319H7.19717C7.18017 5.05319 7.16358 5.05842 7.14966 5.06817C7.13573 5.07792 7.12513 5.0917 7.1193 5.10767L6.64592 6.40561C6.64153 6.41812 6.6402 6.43149 6.64201 6.44461C6.64383 6.45774 6.64874 6.47024 6.65635 6.48109C6.66397 6.49194 6.67405 6.50081 6.68578 6.50698C6.69751 6.51315 6.71053 6.51644 6.72378 6.51657ZM9.00224 4.88841C9.03092 4.88841 9.05959 4.89282 9.08606 4.90385V3.47664C9.05959 3.48988 9.03092 3.49429 9.00224 3.49429H7.19783C7.16915 3.49429 7.14048 3.48988 7.11401 3.47885V4.90385C7.14048 4.89282 7.16915 4.88841 7.19783 4.88841H9.00224ZM7.19783 3.32841H9.00202C9.01435 3.32839 9.02652 3.32561 9.03764 3.32028C9.04876 3.31495 9.05855 3.3072 9.06629 3.2976C9.07403 3.288 9.07953 3.27679 9.08237 3.2648C9.08522 3.2528 9.08535 3.24031 9.08276 3.22826L8.56812 0.840613C8.51187 0.579436 8.29239 0.462524 8.09981 0.462524C7.90746 0.462524 7.68798 0.579436 7.6315 0.840613L7.11687 3.22804C7.11423 3.24012 7.11433 3.25263 7.11718 3.26467C7.12002 3.2767 7.12553 3.28794 7.1333 3.29755C7.14108 3.30717 7.15091 3.31491 7.16208 3.32021C7.17325 3.32552 7.18546 3.32846 7.19783 3.32841Z" fill="white"/>
</svg>
