<svg width="26" height="23" viewBox="0 0 26 23" fill="none" xmlns="http://www.w3.org/2000/svg">
<g clip-path="url(#clip0_1496_85)">
<path d="M26.0008 8.5C25.9984 10.621 25.1548 12.6545 23.6551 14.1543C22.1553 15.6541 20.1218 16.4977 18.0008 16.5H8.00078V21.5C8.00094 21.6979 7.94238 21.8914 7.8325 22.056C7.72263 22.2206 7.5664 22.3489 7.38357 22.4246C7.20075 22.5004 6.99956 22.5202 6.80548 22.4815C6.61139 22.4429 6.43314 22.3475 6.29328 22.2075L0.293286 16.2075C0.20031 16.1146 0.126551 16.0043 0.0762267 15.8829C0.0259024 15.7615 0 15.6314 0 15.5C0 15.3686 0.0259024 15.2385 0.0762267 15.1171C0.126551 14.9957 0.20031 14.8854 0.293286 14.7925L6.29328 8.7925C6.43314 8.65249 6.61139 8.55712 6.80548 8.51847C6.99956 8.47982 7.20075 8.49962 7.38357 8.57538C7.5664 8.65113 7.72263 8.77942 7.8325 8.94402C7.94238 9.10861 8.00094 9.3021 8.00078 9.5V14.5H18.0008C19.5921 14.5 21.1182 13.8679 22.2434 12.7426C23.3686 11.6174 24.0008 10.0913 24.0008 8.5C24.0008 6.9087 23.3686 5.38258 22.2434 4.25736C21.1182 3.13214 19.5921 2.5 18.0008 2.5H7.00078C6.73557 2.5 6.48121 2.39464 6.29368 2.20711C6.10614 2.01957 6.00078 1.76522 6.00078 1.5C6.00078 1.23478 6.10614 0.98043 6.29368 0.792893C6.48121 0.605357 6.73557 0.5 7.00078 0.5H18.0008C20.1218 0.502316 22.1553 1.34591 23.6551 2.8457C25.1548 4.34549 25.9984 6.37898 26.0008 8.5Z" fill="#FFB800"/>
</g>
<defs>
<clipPath id="clip0_1496_85">
<rect width="26" height="23" fill="white"/>
</clipPath>
</defs>
</svg>
