<svg width="28" height="38" viewBox="0 0 28 38" fill="none" xmlns="http://www.w3.org/2000/svg">
<path d="M14.6875 5.875C14.6875 4.83665 14.9954 3.82162 15.5723 2.95826C16.1492 2.0949 16.9691 1.42199 17.9284 1.02463C18.8877 0.627275 19.9433 0.523307 20.9617 0.72588C21.9801 0.928452 22.9156 1.42847 23.6498 2.16269C24.384 2.89692 24.8841 3.83238 25.0866 4.85078C25.2892 5.86918 25.1852 6.92478 24.7879 7.88409C24.3905 8.8434 23.7176 9.66334 22.8542 10.2402C21.9909 10.8171 20.9759 11.125 19.9375 11.125C18.5451 11.125 17.2098 10.5719 16.2252 9.58731C15.2406 8.60275 14.6875 7.26739 14.6875 5.875ZM26.5 20.3125C22.6659 20.3125 21.7553 18.9081 20.4953 16.9656C19.8965 16.0403 19.2173 14.9969 18.1722 14.0863C17.7718 13.7363 17.3312 13.435 16.8597 13.1889C16.7 13.1067 16.5252 13.058 16.346 13.0461C16.1668 13.0341 15.9871 13.059 15.8179 13.1193C15.6488 13.1796 15.4938 13.2739 15.3626 13.3965C15.2313 13.5191 15.1266 13.6674 15.055 13.832L5.60828 35.5391C5.46985 35.8583 5.4638 36.2194 5.59147 36.543C5.71914 36.8667 5.97008 37.1264 6.28914 37.2651C6.45396 37.338 6.63227 37.3754 6.8125 37.375C7.06828 37.3751 7.31853 37.3005 7.53247 37.1603C7.74641 37.0201 7.91472 36.8204 8.01672 36.5859L13.5276 23.9088L18.625 27.5509V36.0625C18.625 36.4106 18.7633 36.7444 19.0094 36.9906C19.2556 37.2367 19.5894 37.375 19.9375 37.375C20.2856 37.375 20.6194 37.2367 20.8656 36.9906C21.1117 36.7444 21.25 36.4106 21.25 36.0625V26.875C21.25 26.6661 21.2001 26.4602 21.1045 26.2744C21.009 26.0887 20.8704 25.9284 20.7004 25.807L14.5973 21.4478L16.7957 16.393C17.3814 16.987 17.826 17.6727 18.2936 18.393C19.552 20.3355 20.9629 22.5126 25.1842 22.8817V36.0625C25.1842 36.4106 25.3225 36.7444 25.5686 36.9906C25.8148 37.2367 26.1486 37.375 26.4967 37.375C26.8448 37.375 27.1787 37.2367 27.4248 36.9906C27.6709 36.7444 27.8092 36.4106 27.8092 36.0625V21.625C27.8092 21.2775 27.6714 20.9441 27.426 20.6981C27.1805 20.452 26.8475 20.3134 26.5 20.3125ZM6.8125 22.9375C7.06958 22.9377 7.32106 22.8624 7.53572 22.7209C7.75038 22.5795 7.91877 22.3781 8.02 22.1418L11.9575 12.9543C12.0944 12.6345 12.0987 12.2734 11.9695 11.9503C11.8403 11.6273 11.5881 11.3688 11.2684 11.2316L6.67469 9.26289C6.35486 9.12599 5.99375 9.12166 5.67074 9.25087C5.34772 9.38007 5.08921 9.63224 4.95203 9.95196L1.01453 19.1395C0.877623 19.4593 0.873298 19.8204 1.0025 20.1434C1.13171 20.4664 1.38388 20.7249 1.70359 20.8621L6.29734 22.8309C6.4601 22.9008 6.63534 22.9371 6.8125 22.9375Z" fill="white"/>
</svg>
