<svg width="40" height="29" viewBox="0 0 40 29" fill="none" xmlns="http://www.w3.org/2000/svg">
<path d="M38.6325 23.5875L22.1869 11.25L26.0358 8.3625C26.1991 8.24042 26.3318 8.08196 26.4232 7.89971C26.5146 7.71745 26.5623 7.5164 26.5625 7.3125C26.5625 5.57202 25.8711 3.90282 24.6404 2.67211C23.4096 1.4414 21.7405 0.75 20 0.75C18.2595 0.75 16.5903 1.4414 15.3596 2.67211C14.1289 3.90282 13.4375 5.57202 13.4375 7.3125C13.4375 7.6606 13.5757 7.99444 13.8219 8.24058C14.068 8.48672 14.4019 8.625 14.75 8.625C15.0981 8.625 15.4319 8.48672 15.678 8.24058C15.9242 7.99444 16.0625 7.6606 16.0625 7.3125C16.0651 6.3239 16.4396 5.37246 17.1114 4.64722C17.7832 3.92198 18.7033 3.476 19.6888 3.39788C20.6744 3.31977 21.6532 3.61524 22.4309 4.22559C23.2086 4.83594 23.7282 5.7165 23.8866 6.69234L1.36739 23.5875C0.92697 23.9178 0.601548 24.3782 0.437153 24.9036C0.272758 25.429 0.277711 25.9928 0.451312 26.5153C0.624912 27.0377 0.958373 27.4923 1.40453 27.8149C1.85068 28.1374 2.38695 28.3115 2.93747 28.3125H37.0625C37.6134 28.3125 38.1504 28.1392 38.5973 27.817C39.0443 27.4949 39.3785 27.0403 39.5528 26.5176C39.727 25.9949 39.7323 25.4307 39.5681 24.9048C39.4038 24.3789 39.0782 23.9181 38.6375 23.5875H38.6325ZM4.36973 25.6875C7.79372 23.4874 13.6819 20.4375 20 20.4375C26.318 20.4375 32.2062 23.4874 35.6302 25.6875H4.36973Z" fill="#ff1155"/>
</svg>
