<svg width="30" height="34" viewBox="0 0 30 34" fill="none" xmlns="http://www.w3.org/2000/svg">
<path d="M26.9766 3.5625H23.4246L21.1786 1.32141C21.0566 1.19956 20.9118 1.10294 20.7525 1.03707C20.5932 0.9712 20.4224 0.937365 20.25 0.9375H9.75C9.57759 0.937365 9.40684 0.9712 9.24751 1.03707C9.08818 1.10294 8.94339 1.19956 8.82141 1.32141L6.57539 3.5625H3.02344C2.37076 3.5625 1.74481 3.82178 1.28329 4.28329C0.821777 4.74481 0.5625 5.37076 0.5625 6.02344V31.2891C0.5625 31.9417 0.821777 32.5677 1.28329 33.0292C1.74481 33.4907 2.37076 33.75 3.02344 33.75H13.0312C13.2053 33.75 13.3722 33.6809 13.4953 33.5578C13.6184 33.4347 13.6875 33.2678 13.6875 33.0938V14.1068C13.6825 13.7676 13.8061 13.4391 14.0335 13.1874C14.2609 12.9357 14.5751 12.7794 14.913 12.75C15.0926 12.7381 15.2726 12.7632 15.4421 12.8238C15.6115 12.8844 15.7666 12.9792 15.8979 13.1023C16.0291 13.2254 16.1336 13.3741 16.205 13.5393C16.2763 13.7045 16.3129 13.8826 16.3125 14.0625V33.0938C16.3125 33.2678 16.3816 33.4347 16.5047 33.5578C16.6278 33.6809 16.7947 33.75 16.9688 33.75H26.9766C27.6292 33.75 28.2552 33.4907 28.7167 33.0292C29.1782 32.5677 29.4375 31.9417 29.4375 31.2891V6.02344C29.4375 5.37076 29.1782 4.74481 28.7167 4.28329C28.2552 3.82178 27.6292 3.5625 26.9766 3.5625ZM8.19797 14.5678C8.10201 14.6467 7.98564 14.6967 7.86237 14.7121C7.73911 14.7274 7.61402 14.7075 7.50164 14.6546C7.38927 14.6016 7.29422 14.5179 7.22754 14.4131C7.16087 14.3083 7.12531 14.1867 7.125 14.0625V6.73055L9.62531 4.23023L13.4759 10.0069L8.19797 14.5678ZM22.875 14.0625C22.8753 14.1874 22.8399 14.3098 22.7731 14.4152C22.7063 14.5207 22.6107 14.605 22.4977 14.658C22.3866 14.7116 22.2625 14.7322 22.1401 14.7174C22.0176 14.7025 21.902 14.6529 21.807 14.5744L16.5241 10.0102L20.3747 4.23352L22.875 6.73055V14.0625Z" fill="white"/>
</svg>
