<svg width="32" height="39" viewBox="0 0 32 39" fill="none" xmlns="http://www.w3.org/2000/svg">
<path d="M11.4062 5.40625C11.4062 4.49769 11.6756 3.60954 12.1804 2.8541C12.6852 2.09866 13.4026 1.50987 14.242 1.16218C15.0814 0.81449 16.005 0.723519 16.8961 0.90077C17.7873 1.07802 18.6058 1.51553 19.2482 2.15798C19.8907 2.80043 20.3282 3.61896 20.5054 4.51006C20.6827 5.40116 20.5917 6.32481 20.244 7.1642C19.8963 8.0036 19.3075 8.72105 18.5521 9.22582C17.7967 9.73058 16.9085 10 16 10C14.7816 10 13.6132 9.51602 12.7517 8.65452C11.8902 7.79303 11.4062 6.62459 11.4062 5.40625ZM30.3423 22.5967L22.9185 14.1803C22.4874 13.6915 21.9572 13.3 21.3632 13.0319C20.7692 12.7637 20.1249 12.625 19.4732 12.625H12.5268C11.875 12.625 11.2307 12.7637 10.6367 13.0319C10.0427 13.3 9.51252 13.6915 9.08144 14.1803L1.65761 22.5967C1.17556 23.09 0.906976 23.7531 0.909936 24.4428C0.912897 25.1324 1.18716 25.7932 1.67343 26.2823C2.1597 26.7714 2.81892 27.0494 3.50856 27.0564C4.1982 27.0633 4.86287 26.7985 5.35886 26.3193L9.60152 22.9117L6.36949 35.1967C6.0883 35.828 6.06737 36.5446 6.31124 37.1912C6.55512 37.8378 7.04413 38.3622 7.67216 38.6505C8.30019 38.9388 9.01658 38.9678 9.66588 38.7313C10.3152 38.4947 10.845 38.0117 11.1404 37.387L16 29.0313L20.8529 37.3984C21.1483 38.0232 21.6782 38.5062 22.3275 38.7428C22.9768 38.9793 23.6932 38.9503 24.3212 38.662C24.9492 38.3736 25.4382 37.8493 25.6821 37.2027C25.926 36.5561 25.9051 35.8395 25.6239 35.2082L22.3984 22.9117L26.6476 26.3193C27.1436 26.7985 27.8083 27.0633 28.4979 27.0564C29.1876 27.0494 29.8468 26.7714 30.333 26.2823C30.8193 25.7932 31.0936 25.1324 31.0965 24.4428C31.0995 23.7531 30.8309 23.09 30.3489 22.5967H30.3423Z" fill="#ff1155"/>
</svg>
