<svg width="15" height="15" viewBox="0 0 15 15" fill="none" xmlns="http://www.w3.org/2000/svg">
<path d="M13.6875 2.375H10.875V1.8125C10.875 1.36495 10.6972 0.935725 10.3807 0.619257C10.0643 0.30279 9.63505 0.125 9.1875 0.125H5.8125C5.36495 0.125 4.93572 0.30279 4.61926 0.619257C4.30279 0.935725 4.125 1.36495 4.125 1.8125V2.375H1.3125C1.16332 2.375 1.02024 2.43426 0.914753 2.53975C0.809263 2.64524 0.75 2.78832 0.75 2.9375C0.75 3.08668 0.809263 3.22976 0.914753 3.33525C1.02024 3.44074 1.16332 3.5 1.3125 3.5H1.875V13.625C1.875 13.9234 1.99353 14.2095 2.2045 14.4205C2.41548 14.6315 2.70163 14.75 3 14.75H12C12.2984 14.75 12.5845 14.6315 12.7955 14.4205C13.0065 14.2095 13.125 13.9234 13.125 13.625V3.5H13.6875C13.8367 3.5 13.9798 3.44074 14.0852 3.33525C14.1907 3.22976 14.25 3.08668 14.25 2.9375C14.25 2.78832 14.1907 2.64524 14.0852 2.53975C13.9798 2.43426 13.8367 2.375 13.6875 2.375ZM6.375 10.8125C6.375 10.9617 6.31574 11.1048 6.21025 11.2102C6.10476 11.3157 5.96168 11.375 5.8125 11.375C5.66332 11.375 5.52024 11.3157 5.41475 11.2102C5.30926 11.1048 5.25 10.9617 5.25 10.8125V6.3125C5.25 6.16332 5.30926 6.02024 5.41475 5.91475C5.52024 5.80926 5.66332 5.75 5.8125 5.75C5.96168 5.75 6.10476 5.80926 6.21025 5.91475C6.31574 6.02024 6.375 6.16332 6.375 6.3125V10.8125ZM9.75 10.8125C9.75 10.9617 9.69074 11.1048 9.58525 11.2102C9.47976 11.3157 9.33668 11.375 9.1875 11.375C9.03832 11.375 8.89524 11.3157 8.78975 11.2102C8.68426 11.1048 8.625 10.9617 8.625 10.8125V6.3125C8.625 6.16332 8.68426 6.02024 8.78975 5.91475C8.89524 5.80926 9.03832 5.75 9.1875 5.75C9.33668 5.75 9.47976 5.80926 9.58525 5.91475C9.69074 6.02024 9.75 6.16332 9.75 6.3125V10.8125ZM9.75 2.375H5.25V1.8125C5.25 1.66332 5.30926 1.52024 5.41475 1.41475C5.52024 1.30926 5.66332 1.25 5.8125 1.25H9.1875C9.33668 1.25 9.47976 1.30926 9.58525 1.41475C9.69074 1.52024 9.75 1.66332 9.75 1.8125V2.375Z" fill="white"/>
</svg>
