<svg width="40" height="28" viewBox="0 0 40 28" fill="none" xmlns="http://www.w3.org/2000/svg">
<path d="M39.9065 10.1953L37.6096 4.45312C37.4146 3.96703 37.0781 3.55072 36.6437 3.25818C36.2093 2.96564 35.697 2.81037 35.1733 2.8125H29.5V1.5C29.5 1.1519 29.3617 0.818064 29.1156 0.571923C28.8694 0.325781 28.5356 0.1875 28.1875 0.1875H3.25C2.55381 0.1875 1.88613 0.464062 1.39384 0.956345C0.901562 1.44863 0.625 2.11631 0.625 2.8125V21.1875C0.625 21.8837 0.901562 22.5514 1.39384 23.0437C1.88613 23.5359 2.55381 23.8125 3.25 23.8125H6.03906C6.32821 24.9418 6.98498 25.9427 7.90584 26.6575C8.82671 27.3723 9.95928 27.7603 11.125 27.7603C12.2907 27.7603 13.4233 27.3723 14.3442 26.6575C15.265 25.9427 15.9218 24.9418 16.2109 23.8125H24.4141C24.7032 24.9418 25.36 25.9427 26.2808 26.6575C27.2017 27.3723 28.3343 27.7603 29.5 27.7603C30.6657 27.7603 31.7983 27.3723 32.7192 26.6575C33.64 25.9427 34.2968 24.9418 34.5859 23.8125H37.375C38.0712 23.8125 38.7389 23.5359 39.2312 23.0437C39.7234 22.5514 40 21.8837 40 21.1875V10.6875C40.0002 10.519 39.9685 10.352 39.9065 10.1953ZM11.125 25.125C10.6058 25.125 10.0983 24.971 9.66663 24.6826C9.23495 24.3942 8.8985 23.9842 8.69982 23.5045C8.50114 23.0249 8.44915 22.4971 8.55044 21.9879C8.65172 21.4787 8.90173 21.011 9.26885 20.6438C9.63596 20.2767 10.1037 20.0267 10.6129 19.9254C11.1221 19.8242 11.6499 19.8761 12.1295 20.0748C12.6092 20.2735 13.0192 20.6099 13.3076 21.0416C13.596 21.4733 13.75 21.9808 13.75 22.5C13.75 23.1962 13.4734 23.8639 12.9812 24.3562C12.4889 24.8484 11.8212 25.125 11.125 25.125ZM3.25 13.3125V2.8125H26.875V13.3125H3.25ZM29.5 25.125C28.9808 25.125 28.4733 24.971 28.0416 24.6826C27.6099 24.3942 27.2735 23.9842 27.0748 23.5045C26.8761 23.0249 26.8242 22.4971 26.9254 21.9879C27.0267 21.4787 27.2767 21.011 27.6438 20.6438C28.011 20.2767 28.4787 20.0267 28.9879 19.9254C29.4971 19.8242 30.0249 19.8761 30.5045 20.0748C30.9842 20.2735 31.3942 20.6099 31.6826 21.0416C31.971 21.4733 32.125 21.9808 32.125 22.5C32.125 23.1962 31.8484 23.8639 31.3562 24.3562C30.8639 24.8484 30.1962 25.125 29.5 25.125ZM29.5 9.375V5.4375H35.1733L36.7483 9.375H29.5Z" fill="white"/>
</svg>
