<svg width="171" height="37" viewBox="0 0 171 37" fill="none" xmlns="http://www.w3.org/2000/svg">
<path d="M44.2883 29.9416C45.0261 29.9895 45.7143 29.9623 46.4026 29.9662C47.0961 29.9701 47.7896 29.9662 48.4818 29.9662C49.1753 29.9662 49.8688 29.9662 50.561 29.9662C51.2427 29.9662 51.9258 29.9662 52.6076 29.9662C53.3011 29.9662 53.9946 29.9662 54.6868 29.9662C55.3803 29.9662 56.0737 29.9662 56.7659 29.9662C57.4568 29.9662 58.1464 29.9662 58.8906 29.9662C58.4912 32.1523 58.0866 34.3021 57.678 36.4415C57.4243 36.5076 35.8155 36.5232 35.433 36.4596C35.3745 36.2353 35.4629 36.0175 35.502 35.8036C35.8741 33.7938 36.2566 31.7853 36.6365 29.7769C37.1778 26.9127 37.7203 24.0472 38.259 21.1816C38.8536 18.0205 39.443 14.858 40.0376 11.6969C40.5099 9.18017 40.9848 6.66474 41.4597 4.14931C41.677 2.99662 41.8956 1.84523 42.1142 0.693833C42.122 0.652341 42.1363 0.612146 42.1454 0.579731C42.2534 0.479892 42.3783 0.504527 42.4941 0.504527C57.4959 0.504527 72.4976 0.504527 87.4993 0.504527C87.6698 0.504527 87.8441 0.477299 88.0315 0.556392C87.6269 2.71396 87.2235 4.86504 86.815 7.04335H72.9972C72.8593 7.30657 71.5816 14.2966 71.6076 14.6532H84.9205C84.5068 16.8561 84.1048 19.0046 83.6962 21.1816H70.3651C69.8355 24.1055 69.3125 27.0008 68.792 29.8754C68.9 29.9792 69.0015 29.9584 69.0965 29.9584C72.9413 29.961 76.7873 29.9623 80.6321 29.9636C81.2384 29.9636 81.8447 29.9636 82.4524 29.9636C82.5695 29.9636 82.6905 29.9467 82.8297 30.0258C82.4276 32.1717 82.0243 34.3228 81.6209 36.4778H59.9588C59.886 36.3468 59.9289 36.2314 59.9497 36.1173C60.4155 33.633 60.8826 31.1487 61.3497 28.6631C61.8285 26.1153 62.3034 23.5661 62.7836 21.0183C63.2454 18.5651 63.7112 16.1145 64.1744 13.6613C64.5674 11.5789 64.9577 9.49525 65.3493 7.41289C65.3688 7.30786 65.3962 7.20284 65.3532 7.09133C65.1945 6.99408 65.0162 7.03298 64.8484 7.03298C61.5228 7.03039 58.1971 7.03039 54.8728 7.03039C52.8691 7.03039 50.8654 7.03039 48.8617 7.03039C48.7433 7.03039 48.6236 7.01353 48.4558 7.07058C48.189 8.2907 47.99 9.54971 47.7571 10.8022C47.5242 12.0587 47.3017 13.3164 47.074 14.5806C47.2418 14.683 47.4084 14.6519 47.5645 14.6519C50.5219 14.6545 53.478 14.6545 56.4355 14.6532C58.0709 14.6532 59.7064 14.6519 61.3419 14.6506C61.4486 14.6506 61.5579 14.6376 61.6581 14.6804C61.6802 14.9358 60.6237 20.698 60.4611 21.179H45.877C45.3474 24.099 44.8244 26.984 44.2883 29.9364V29.9416Z" fill="#ff1155"/>
<path d="M108.759 6.31336C108.213 7.94191 107.679 9.53026 107.145 11.1225C106.955 11.1108 106.81 11.0343 106.663 10.9747C105.024 10.3108 103.318 10.1384 101.566 10.2551C100.916 10.2992 100.271 10.3458 99.6309 10.4612C98.6017 10.6479 97.6623 11.0577 96.8049 11.6373C95.7327 12.3634 94.753 13.201 94.0751 14.32C93.4714 15.3158 92.9458 16.3543 92.5658 17.4604C92.3928 17.966 92.3316 18.4899 92.3382 19.0189C92.3499 19.9239 92.3941 20.829 92.6036 21.7132C92.9328 23.1045 93.6223 24.2896 94.7218 25.2232C95.1173 25.559 95.5428 25.8585 95.9331 26.1995C96.4757 26.6728 97.1158 26.8919 97.8119 27.0073C98.2322 27.0773 98.6485 27.1085 99.0727 27.0825C99.7857 27.0384 100.497 26.997 101.206 26.9555C101.745 25.913 102.273 24.89 102.802 23.8669C103.859 21.8183 104.929 19.7761 105.97 17.7184C107.166 15.3534 108.412 13.0143 109.532 10.6116C110.361 8.83527 111.196 7.06151 112.029 5.28774C112.06 5.22031 112.098 5.15548 112.153 5.05046C114.616 5.06602 117.09 5.13863 119.552 5.09714C119.663 5.40573 122.997 31.5818 123 32.1056H116.778C116.595 29.9027 116.413 27.7101 116.228 25.4955H108.469C107.474 27.8527 106.479 30.2113 105.494 32.5452C105.337 32.597 105.218 32.5789 105.101 32.5789C102.512 32.5789 99.9236 32.5918 97.3357 32.5737C96.3404 32.5672 95.345 32.5218 94.3562 32.3857C94.0634 32.3455 93.785 32.2664 93.5144 32.1549C91.5952 31.3614 89.9571 30.162 88.4895 28.7176C88.0471 28.2832 87.688 27.7853 87.407 27.2342C87.0348 26.5042 86.6862 25.7639 86.3713 25.0092C85.9562 24.0147 85.7507 22.9723 85.6635 21.9051C85.5295 20.2649 85.6297 18.6351 85.9406 17.0208C86.1722 15.8149 86.6094 14.683 87.2677 13.6431C87.8324 12.7498 88.3594 11.8343 88.9644 10.9656C90.0846 9.35781 91.5028 8.06249 93.1605 7.02131C93.8813 6.56879 94.6841 6.30299 95.4803 6.02681C97.2173 5.42518 99.0102 5.09714 100.846 4.97266C102.323 4.87282 103.789 4.93636 105.249 5.16586C106.165 5.30978 107.019 5.65598 107.88 5.97365C108.162 6.07738 108.442 6.18888 108.765 6.31336H108.759ZM115.059 11.3857C114.845 11.2872 114.635 11.317 114.402 11.3507C113.113 14.4237 111.824 17.4928 110.522 20.5917H115.815C115.575 17.507 115.303 14.4496 115.058 11.3857H115.059Z" fill="#ff1155"/>
<path d="M18.3885 21.6588H8.78637C8.01221 25.1143 7.24065 28.5542 6.46649 32.0097H0C2.00891 23.0397 4.01261 14.0905 6.02022 5.12177H30.183C28.5619 12.3543 26.9433 19.5725 25.3169 26.8271H35.2977C34.9776 28.5736 34.6237 30.2722 34.3206 31.9422C34.2828 31.9824 34.2763 31.9915 34.2672 31.998C34.2581 32.0045 34.249 32.0097 34.2386 32.0123C34.1852 32.0213 34.1332 32.0356 34.0799 32.0356C28.6647 32.0356 23.2495 32.0356 17.8343 32.0343C17.803 32.0343 17.7731 32.02 17.7419 32.011C17.7328 32.0084 17.7263 31.9967 17.6989 31.9708C19.311 24.7771 20.9257 17.5693 22.5338 10.3951C22.5078 10.3458 22.5039 10.3355 22.4961 10.3277C22.4883 10.3199 22.4779 10.3108 22.4688 10.3108C18.8413 10.2628 15.2138 10.3056 11.5876 10.2888C11.5135 10.2888 11.4393 10.2966 11.33 10.303C10.8733 12.3478 10.4167 14.39 9.94955 16.4762H19.3956C19.056 18.2254 18.7242 19.933 18.3898 21.6614L18.3885 21.6588Z" fill="#ff1155"/>
<path d="M138.473 18.115C138.853 18.175 139.198 18.33 139.508 18.58C139.828 18.83 140.078 19.14 140.258 19.51C140.448 19.88 140.543 20.275 140.543 20.695C140.543 21.225 140.408 21.705 140.138 22.135C139.868 22.555 139.473 22.89 138.953 23.14C138.443 23.38 137.838 23.5 137.138 23.5H133.238V13.045H136.988C137.698 13.045 138.303 13.165 138.803 13.405C139.303 13.635 139.678 13.95 139.928 14.35C140.178 14.75 140.303 15.2 140.303 15.7C140.303 16.32 140.133 16.835 139.793 17.245C139.463 17.645 139.023 17.935 138.473 18.115ZM134.603 17.56H136.898C137.538 17.56 138.033 17.41 138.383 17.11C138.733 16.81 138.908 16.395 138.908 15.865C138.908 15.335 138.733 14.92 138.383 14.62C138.033 14.32 137.528 14.17 136.868 14.17H134.603V17.56ZM137.018 22.375C137.698 22.375 138.228 22.215 138.608 21.895C138.988 21.575 139.178 21.13 139.178 20.56C139.178 19.98 138.978 19.525 138.578 19.195C138.178 18.855 137.643 18.685 136.973 18.685H134.603V22.375H137.018ZM148.618 21.175H144.058L143.218 23.5H141.778L145.558 13.105H147.133L150.898 23.5H149.458L148.618 21.175ZM148.228 20.065L146.338 14.785L144.448 20.065H148.228ZM160.765 23.5H159.4L153.91 15.175V23.5H152.545V13.03H153.91L159.4 21.34V13.03H160.765V23.5ZM168.762 23.5L164.457 18.73V23.5H163.092V13.045H164.457V17.89L168.777 13.045H170.502L165.762 18.28L170.547 23.5H168.762Z" fill="white"/>
</svg>
