<svg width="283" height="61" viewBox="0 0 283 61" fill="none" xmlns="http://www.w3.org/2000/svg">
<path d="M0 61L21.7727 0H30.9437L9.17093 61H0Z" fill="url(#paint0_radial_31_975)"/>
<path d="M21.0047 61L42.7774 0H51.9484L30.1756 61H21.0047Z" fill="url(#paint1_radial_31_975)"/>
<path d="M42.0094 61L63.7821 0H72.953L51.1803 61H42.0094Z" fill="url(#paint2_radial_31_975)"/>
<path d="M63.0141 61L84.7868 0H93.9577L72.185 61H63.0141Z" fill="url(#paint3_radial_31_975)"/>
<path d="M84.0188 61L105.792 0H114.962L93.1897 61H84.0188Z" fill="url(#paint4_radial_31_975)"/>
<path d="M105.023 61L126.796 0H135.967L114.194 61H105.023Z" fill="url(#paint5_radial_31_975)"/>
<path d="M126.028 61L147.801 0H156.972L135.199 61H126.028Z" fill="url(#paint6_radial_31_975)"/>
<path d="M147.033 61L168.806 0H177.977L156.204 61H147.033Z" fill="url(#paint7_radial_31_975)"/>
<path d="M168.038 61L189.81 0H198.981L177.209 61H168.038Z" fill="url(#paint8_radial_31_975)"/>
<path d="M189.042 61L210.815 0H219.986L198.213 61H189.042Z" fill="url(#paint9_radial_31_975)"/>
<path d="M210.047 61L231.82 0H240.991L219.218 61H210.047Z" fill="url(#paint10_radial_31_975)"/>
<path d="M231.052 61L252.824 0H261.995L240.223 61H231.052Z" fill="url(#paint11_radial_31_975)"/>
<path d="M252.056 61L273.829 0H283L261.227 61H252.056Z" fill="url(#paint12_radial_31_975)"/>
<defs>
<radialGradient id="paint0_radial_31_975" cx="0" cy="0" r="1" gradientUnits="userSpaceOnUse" gradientTransform="translate(141.5 30.5) rotate(90) scale(35.6615 165.446)">
<stop stop-color="white"/>
<stop offset="1" stop-color="white" stop-opacity="0"/>
</radialGradient>
<radialGradient id="paint1_radial_31_975" cx="0" cy="0" r="1" gradientUnits="userSpaceOnUse" gradientTransform="translate(141.5 30.5) rotate(90) scale(35.6615 165.446)">
<stop stop-color="white"/>
<stop offset="1" stop-color="white" stop-opacity="0"/>
</radialGradient>
<radialGradient id="paint2_radial_31_975" cx="0" cy="0" r="1" gradientUnits="userSpaceOnUse" gradientTransform="translate(141.5 30.5) rotate(90) scale(35.6615 165.446)">
<stop stop-color="white"/>
<stop offset="1" stop-color="white" stop-opacity="0"/>
</radialGradient>
<radialGradient id="paint3_radial_31_975" cx="0" cy="0" r="1" gradientUnits="userSpaceOnUse" gradientTransform="translate(141.5 30.5) rotate(90) scale(35.6615 165.446)">
<stop stop-color="white"/>
<stop offset="1" stop-color="white" stop-opacity="0"/>
</radialGradient>
<radialGradient id="paint4_radial_31_975" cx="0" cy="0" r="1" gradientUnits="userSpaceOnUse" gradientTransform="translate(141.5 30.5) rotate(90) scale(35.6615 165.446)">
<stop stop-color="white"/>
<stop offset="1" stop-color="white" stop-opacity="0"/>
</radialGradient>
<radialGradient id="paint5_radial_31_975" cx="0" cy="0" r="1" gradientUnits="userSpaceOnUse" gradientTransform="translate(141.5 30.5) rotate(90) scale(35.6615 165.446)">
<stop stop-color="white"/>
<stop offset="1" stop-color="white" stop-opacity="0"/>
</radialGradient>
<radialGradient id="paint6_radial_31_975" cx="0" cy="0" r="1" gradientUnits="userSpaceOnUse" gradientTransform="translate(141.5 30.5) rotate(90) scale(35.6615 165.446)">
<stop stop-color="white"/>
<stop offset="1" stop-color="white" stop-opacity="0"/>
</radialGradient>
<radialGradient id="paint7_radial_31_975" cx="0" cy="0" r="1" gradientUnits="userSpaceOnUse" gradientTransform="translate(141.5 30.5) rotate(90) scale(35.6615 165.446)">
<stop stop-color="white"/>
<stop offset="1" stop-color="white" stop-opacity="0"/>
</radialGradient>
<radialGradient id="paint8_radial_31_975" cx="0" cy="0" r="1" gradientUnits="userSpaceOnUse" gradientTransform="translate(141.5 30.5) rotate(90) scale(35.6615 165.446)">
<stop stop-color="white"/>
<stop offset="1" stop-color="white" stop-opacity="0"/>
</radialGradient>
<radialGradient id="paint9_radial_31_975" cx="0" cy="0" r="1" gradientUnits="userSpaceOnUse" gradientTransform="translate(141.5 30.5) rotate(90) scale(35.6615 165.446)">
<stop stop-color="white"/>
<stop offset="1" stop-color="white" stop-opacity="0"/>
</radialGradient>
<radialGradient id="paint10_radial_31_975" cx="0" cy="0" r="1" gradientUnits="userSpaceOnUse" gradientTransform="translate(141.5 30.5) rotate(90) scale(35.6615 165.446)">
<stop stop-color="white"/>
<stop offset="1" stop-color="white" stop-opacity="0"/>
</radialGradient>
<radialGradient id="paint11_radial_31_975" cx="0" cy="0" r="1" gradientUnits="userSpaceOnUse" gradientTransform="translate(141.5 30.5) rotate(90) scale(35.6615 165.446)">
<stop stop-color="white"/>
<stop offset="1" stop-color="white" stop-opacity="0"/>
</radialGradient>
<radialGradient id="paint12_radial_31_975" cx="0" cy="0" r="1" gradientUnits="userSpaceOnUse" gradientTransform="translate(141.5 30.5) rotate(90) scale(35.6615 165.446)">
<stop stop-color="white"/>
<stop offset="1" stop-color="white" stop-opacity="0"/>
</radialGradient>
</defs>
</svg>
