<svg width="16" height="20" viewBox="0 0 16 20" fill="none" xmlns="http://www.w3.org/2000/svg">
<path d="M7.97841 16.5307C5.62315 16.5307 3.2679 16.5307 0.912638 16.5307C0.823198 16.5307 0.733758 16.5332 0.644318 16.5294C0.263302 16.5114 0.0307579 16.2775 0.00809974 15.8727C-0.00382562 15.6593 -0.00203682 15.4441 0.00988854 15.2308C0.0319504 14.8446 0.210235 14.5593 0.538778 14.4031C2.05091 13.6841 2.69786 12.3186 2.88271 10.657C2.96738 9.89617 2.90954 9.11673 2.91848 8.34629C2.93816 6.75658 3.45751 5.38535 4.5445 4.30905C6.00536 2.86263 7.72559 2.42761 9.60264 3.1113C11.4874 3.79821 12.615 5.26583 12.9853 7.38244C13.0419 7.70566 13.0461 8.04236 13.0544 8.37328C13.0723 9.1328 13.0467 9.89552 13.0956 10.6525C13.1695 11.7924 13.6114 12.7736 14.3281 13.6121C14.6018 13.9321 14.9279 14.1776 15.3042 14.3324C15.7871 14.5316 16.0042 14.9005 15.9773 15.4499C15.9696 15.6099 15.9833 15.7724 15.9684 15.9312C15.9362 16.2724 15.7192 16.496 15.4025 16.5249C15.3036 16.5339 15.204 16.5307 15.1044 16.5307C12.7295 16.5307 10.3539 16.5307 7.97901 16.5307H7.97841Z" fill="white"/>
<path d="M5.77818 17.1205H10.187C10.1858 17.9501 9.86977 18.5869 9.26695 19.0412C8.52578 19.5996 7.725 19.6484 6.93077 19.187C6.19259 18.7578 5.8235 18.058 5.77818 17.1205Z" fill="white"/>
<path d="M6.87174 2.35886C6.73281 1.70601 6.92063 1.18746 7.37141 0.891235C7.80967 0.603365 8.37254 0.650272 8.76012 1.00818C9.12921 1.3481 9.26635 1.89043 9.08628 2.35243C8.35704 2.21042 7.61886 2.21235 6.87174 2.3595V2.35886Z" fill="white"/>
<path d="M3.56663 0.814126C3.54814 0.849468 3.52191 0.931716 3.47122 0.99019C3.411 1.05894 3.3311 1.10842 3.25895 1.16497C2.08371 2.08127 1.19169 3.24817 0.587672 4.67017C0.559051 4.73828 0.535797 4.81025 0.500617 4.87386C0.416543 5.02679 0.305041 5.07691 0.179229 5.02744C0.0414907 4.97346 -0.0217136 4.83402 0.0182363 4.6631C0.0301616 4.6117 0.0516273 4.56222 0.0719004 4.51403C0.726602 2.91918 1.72297 1.62697 3.04549 0.62714C3.11644 0.573164 3.19992 0.523686 3.28399 0.507622C3.43068 0.479349 3.55768 0.60722 3.56663 0.814769V0.814126Z" fill="white"/>
<path d="M15.9994 4.80318C15.9571 4.85651 15.9034 4.95997 15.8217 5.01716C15.7174 5.08977 15.6071 5.039 15.5337 4.93619C15.486 4.86937 15.4544 4.78904 15.4216 4.71129C14.8122 3.25395 13.9005 2.06456 12.6949 1.13541C12.6305 1.08593 12.5625 1.03902 12.5071 0.978624C12.4123 0.875813 12.3962 0.751797 12.4707 0.627782C12.5452 0.503124 12.6591 0.472923 12.7837 0.523044C12.8475 0.548746 12.9054 0.594369 12.962 0.637421C14.2732 1.63533 15.263 2.91918 15.9165 4.50182C15.941 4.56029 15.9606 4.62069 15.9809 4.68109C15.9875 4.70101 15.9875 4.72286 16 4.80382L15.9994 4.80318Z" fill="white"/>
<path d="M4.4968 2.3293C4.45268 2.38199 4.3853 2.48223 4.30063 2.56062C4.01621 2.826 3.71212 3.06761 3.44141 3.34777C2.88509 3.92286 2.45757 4.60077 2.13022 5.35258C2.09265 5.43932 2.06045 5.53121 2.01096 5.6096C1.92868 5.7394 1.78975 5.7741 1.67169 5.70342C1.55303 5.63209 1.50771 5.51964 1.5417 5.37892C1.55899 5.3076 1.59119 5.23948 1.62041 5.17201C2.14512 3.94278 2.91669 2.93138 3.93572 2.14103C4.00727 2.08577 4.08359 2.02729 4.16588 1.99966C4.33343 1.94376 4.49263 2.07741 4.49621 2.3293H4.4968Z" fill="white"/>
<path d="M14.4849 5.48623C14.4259 5.56012 14.3776 5.65715 14.3024 5.70727C14.2011 5.77538 14.0848 5.74583 14.0085 5.6443C13.9536 5.57105 13.9166 5.48109 13.8797 5.39434C13.3961 4.26407 12.6836 3.33749 11.7498 2.60689C11.686 2.55677 11.6168 2.50986 11.565 2.44689C11.4743 2.3383 11.4725 2.21235 11.5524 2.09476C11.6252 1.98745 11.7313 1.9579 11.844 2.00288C11.9168 2.03179 11.9835 2.0832 12.0473 2.13267C13.0765 2.92817 13.8528 3.94857 14.3805 5.18872C14.4175 5.27483 14.4437 5.36607 14.4861 5.48623H14.4849Z" fill="white"/>
</svg>
