<svg width="9" height="9" viewBox="0 0 9 9" fill="none" xmlns="http://www.w3.org/2000/svg">
<path d="M8.3538 0.0805804C8.42448 0.00989582 8.484 -0.0142857 8.53237 0.00803572C8.58073 0.0303571 8.60491 0.089881 8.60491 0.186607V8.40089C8.60491 8.49762 8.58073 8.55714 8.53237 8.57946C8.484 8.60179 8.42448 8.57761 8.3538 8.50692L4.39174 4.54487C4.36198 4.51138 4.3378 4.47604 4.3192 4.43884V8.40089C4.3192 8.49762 4.29501 8.55714 4.24665 8.57946C4.19829 8.60179 4.13876 8.57761 4.06808 8.50692L0.106027 4.54487C0.0353423 4.47418 0 4.39048 0 4.29375C0 4.19702 0.0353423 4.11332 0.106027 4.04263L4.06808 0.0805804C4.13876 0.00989582 4.19829 -0.0142857 4.24665 0.00803572C4.29501 0.0303571 4.3192 0.089881 4.3192 0.186607V4.14866C4.3378 4.10774 4.36198 4.0724 4.39174 4.04263L8.3538 0.0805804Z" fill="white"/>
</svg>
