<svg width="19" height="17" viewBox="0 0 19 17" fill="none" xmlns="http://www.w3.org/2000/svg">
<path d="M14.7493 4.07877H11.2551C10.9996 4.06432 6.54764 3.76088 2.30809 0.31855C2.10336 0.152088 1.85382 0.045646 1.58877 0.0117279C1.32372 -0.0221903 1.05418 0.0178242 0.81181 0.127071C0.569439 0.236317 0.364303 0.410259 0.220501 0.628461C0.0766991 0.846664 0.000203447 1.10007 0 1.3589V14.9582C3.64248e-05 15.2171 0.0764112 15.4706 0.220148 15.689C0.363884 15.9073 0.569009 16.0814 0.811413 16.1907C1.05382 16.3001 1.32343 16.3402 1.58855 16.3063C1.85368 16.2724 2.1033 16.1659 2.30809 15.9994C5.62405 13.3068 9.06819 12.535 10.5352 12.3191V15.0152C10.5349 15.2393 10.5918 15.46 10.7009 15.6576C10.8099 15.8553 10.9678 16.0238 11.1603 16.1482L12.126 16.7712C12.3127 16.8918 12.5265 16.9674 12.7495 16.9916C12.9725 17.0157 13.1983 16.9878 13.4079 16.9102C13.6175 16.8325 13.8048 16.7074 13.9542 16.5452C14.1036 16.3831 14.2106 16.1886 14.2664 15.9782L15.2998 12.2078C16.368 12.0807 17.3455 11.5628 18.0319 10.7602C18.7182 9.95764 19.0614 8.93124 18.991 7.89152C18.9206 6.8518 18.4419 5.87756 17.6532 5.16861C16.8645 4.45965 15.8255 4.06971 14.7493 4.07877ZM12.9056 15.6288V15.6382L11.9399 15.0152V12.2384H13.8362L12.9056 15.6288ZM14.7493 10.8784H11.9399V5.4387H14.7493C15.4944 5.4387 16.209 5.72525 16.7358 6.23533C17.2627 6.7454 17.5587 7.43721 17.5587 8.15856C17.5587 8.87992 17.2627 9.57173 16.7358 10.0818C16.209 10.5919 15.4944 10.8784 14.7493 10.8784Z" fill="#292929"/>
</svg>
