<svg width="14" height="12" viewBox="0 0 14 12" fill="none" xmlns="http://www.w3.org/2000/svg">
<path fill-rule="evenodd" clip-rule="evenodd" d="M9.40846 1.2973C8.33803 -0.432434 5.66197 -0.432434 4.59154 1.2973L0.376738 8.10811C-0.693687 9.83784 0.644345 12 2.7852 12H11.2148C13.3557 12 14.6937 9.83784 13.6233 8.10811L9.40846 1.2973ZM7.63361 7.58857L7.85281 2.85406H5.82525L6.04444 7.58857H7.63361ZM6.0554 9.86193C6.26729 10.0333 6.53763 10.1189 6.86643 10.1189C7.18792 10.1189 7.45095 10.0333 7.65553 9.86193C7.86742 9.68401 7.97337 9.46657 7.97337 9.20958C7.97337 8.946 7.86742 8.72526 7.65553 8.54734C7.45095 8.36942 7.18792 8.28047 6.86643 8.28047C6.53763 8.28047 6.26729 8.36942 6.0554 8.54734C5.85082 8.72526 5.74853 8.946 5.74853 9.20958C5.74853 9.46657 5.85082 9.68401 6.0554 9.86193Z" fill="#ff1155"/>
</svg>
