<svg width="10" height="10" viewBox="0 0 10 10" fill="none" xmlns="http://www.w3.org/2000/svg">
<path d="M5.00157 1.19075e-07C4.13825 -0.000188251 3.28959 0.223119 2.53819 0.648187C1.78679 1.07325 1.15824 1.6856 0.713743 2.42563C0.269241 3.16565 0.0239213 4.00814 0.00166263 4.87109C-0.0205961 5.73404 0.180964 6.58805 0.586725 7.35L0.0409991 8.98702C-0.00420489 9.12255 -0.0107651 9.268 0.022054 9.40705C0.054873 9.54611 0.125774 9.67327 0.226811 9.7743C0.327848 9.87533 0.455027 9.94622 0.594094 9.97904C0.733161 10.0119 0.878621 10.0053 1.01417 9.9601L2.65135 9.41442C3.32197 9.77108 4.06505 9.97029 4.82416 9.99692C5.58328 10.0236 6.33849 9.87692 7.03247 9.56814C7.72645 9.25936 8.34096 8.79655 8.82935 8.21485C9.31774 7.63314 9.66717 6.94783 9.85114 6.21093C10.0351 5.47403 10.0487 4.7049 9.89105 3.96194C9.73335 3.21898 9.40845 2.5217 8.941 1.92304C8.47356 1.32437 7.87586 0.840058 7.19327 0.506853C6.51069 0.173648 5.76116 0.000311649 5.00157 1.19075e-07ZM6.54018 6.15385H3.46296C3.36095 6.15385 3.26311 6.11332 3.19097 6.0412C3.11884 5.96907 3.07831 5.87124 3.07831 5.76923C3.07831 5.66722 3.11884 5.5694 3.19097 5.49727C3.26311 5.42514 3.36095 5.38462 3.46296 5.38462H6.54018C6.6422 5.38462 6.74003 5.42514 6.81217 5.49727C6.88431 5.5694 6.92483 5.66722 6.92483 5.76923C6.92483 5.87124 6.88431 5.96907 6.81217 6.0412C6.74003 6.11332 6.6422 6.15385 6.54018 6.15385ZM6.54018 4.61538H3.46296C3.36095 4.61538 3.26311 4.57486 3.19097 4.50273C3.11884 4.4306 3.07831 4.33278 3.07831 4.23077C3.07831 4.12876 3.11884 4.03093 3.19097 3.95881C3.26311 3.88668 3.36095 3.84615 3.46296 3.84615H6.54018C6.6422 3.84615 6.74003 3.88668 6.81217 3.95881C6.88431 4.03093 6.92483 4.12876 6.92483 4.23077C6.92483 4.33278 6.88431 4.4306 6.81217 4.50273C6.74003 4.57486 6.6422 4.61538 6.54018 4.61538Z" fill="#03a3bb"/>
</svg>
