<svg width="16" height="20" viewBox="0 0 16 20" fill="none" xmlns="http://www.w3.org/2000/svg">
<path d="M13.8965 12.0359C13.7996 12.0359 13.7066 11.9928 13.6381 11.9163C13.5696 11.8398 13.5311 11.736 13.5311 11.6278V8.53522C13.5304 7.04354 13.0584 5.59993 12.1981 4.45867C11.3379 3.31741 10.1446 2.55171 8.82837 2.29636C9.01774 2.05212 9.12039 1.73885 9.11688 1.41582C9.12132 1.19134 9.07683 0.969036 8.98723 0.76802C8.89762 0.567005 8.7656 0.393306 8.60253 0.261917C8.43946 0.130527 8.25023 0.0453718 8.05114 0.0137804C7.85205 -0.017811 7.64906 0.00510523 7.45967 0.0805661C7.27027 0.156027 7.10014 0.281753 6.96393 0.446937C6.82772 0.612122 6.72952 0.811829 6.67778 1.02881C6.62604 1.24578 6.62231 1.47353 6.66691 1.69247C6.71152 1.91141 6.80312 2.11498 6.93383 2.28561C5.60894 2.53218 4.40535 3.29555 3.53719 4.43993C2.66903 5.5843 2.1926 7.03546 2.19267 8.53522V11.6707C2.19267 11.7816 2.17296 11.8915 2.13466 11.9938C2.09636 12.0961 2.04025 12.1889 1.96957 12.2668C1.89889 12.3448 1.81506 12.4062 1.72294 12.4477C1.63082 12.4891 1.53224 12.5098 1.43293 12.5084C1.05201 12.5112 0.687559 12.6821 0.419106 12.9838C0.150653 13.2856 -8.46476e-06 13.6937 3.56699e-10 14.1191V15.4506C3.56699e-10 15.6101 0.0567366 15.763 0.157734 15.8758C0.258732 15.9885 0.395715 16.0519 0.538548 16.0519H5.18354C5.14224 16.2455 5.11967 16.4435 5.11622 16.6425C5.09399 17.0632 5.14901 17.4846 5.27791 17.8808C5.40681 18.2769 5.60686 18.6394 5.86578 18.9461C6.12471 19.2527 6.43704 19.4971 6.7836 19.6641C7.13016 19.8311 7.50364 19.9172 7.8811 19.9172C8.25856 19.9172 8.63204 19.8311 8.9786 19.6641C9.32516 19.4971 9.63749 19.2527 9.89641 18.9461C10.1553 18.6394 10.3554 18.2769 10.4843 17.8808C10.6132 17.4846 10.6682 17.0632 10.646 16.6425C10.641 16.4442 10.6217 16.2467 10.5883 16.0519H15.1852C15.328 16.0519 15.465 15.9885 15.566 15.8758C15.667 15.763 15.7237 15.6101 15.7237 15.4506V14.1191C15.7289 13.8476 15.6854 13.5776 15.5958 13.3251C15.5063 13.0725 15.3725 12.8426 15.2023 12.6485C15.0322 12.4545 14.829 12.3003 14.6048 12.1951C14.3805 12.0899 14.1397 12.0358 13.8965 12.0359Z" fill="#111111"/>
</svg>
