<svg width="38" height="29" viewBox="0 0 38 29" fill="none" xmlns="http://www.w3.org/2000/svg">
<path d="M37.2164 28.2332H0L1.26822 20.8527H35.9482L37.2164 28.2332Z" fill="black" fill-opacity="0.2"/>
<path d="M37.2164 28.2332H0L1.26822 20.8527H35.9482L37.2164 28.2332Z" fill="#1CCD78"/>
<path d="M33.5013 5.35096H3.70288L4.62241 0H32.5818L33.5013 5.35096Z" fill="black" fill-opacity="0.2"/>
<path d="M33.5013 5.35096H3.70288L4.62241 0H32.5818L33.5013 5.35096Z" fill="#1CCD78"/>
<path d="M34.7356 12.5194H2.62292L3.65509 6.51532H33.7035L34.7356 12.5194Z" fill="black" fill-opacity="0.2"/>
<path d="M34.7356 12.5194H2.62292L3.65509 6.51532H33.7035L34.7356 12.5194Z" fill="#1CCD78"/>
<path d="M35.8156 19.6882H1.38867L2.41929 13.6841H34.785L35.8156 19.6882Z" fill="black" fill-opacity="0.2"/>
<path d="M35.8156 19.6882H1.38867L2.41929 13.6841H34.785L35.8156 19.6882Z" fill="#1CCD78"/>
</svg>
