<svg width="36" height="36" viewBox="0 0 36 36" fill="none" xmlns="http://www.w3.org/2000/svg">
<g filter="url(#filter0_d_2449_1871)">
<path fill-rule="evenodd" clip-rule="evenodd" d="M18.3333 23.0667C21.2788 23.0667 23.6667 20.6789 23.6667 17.7334C23.6667 14.7878 21.2788 12.4 18.3333 12.4C15.3878 12.4 13 14.7878 13 17.7334C13 20.6789 15.3878 23.0667 18.3333 23.0667ZM18.6381 15.0362C18.6381 14.7838 18.4334 14.5791 18.181 14.5791C17.9285 14.5791 17.7238 14.7838 17.7238 15.0362V18.3341L19.6863 20.2966C19.8648 20.4751 20.1542 20.4751 20.3328 20.2966C20.5113 20.1181 20.5113 19.8286 20.3328 19.6501L18.6381 17.9555V15.0362Z" fill="white"/>
</g>
<defs>
<filter id="filter0_d_2449_1871" x="0.911111" y="0.311135" width="34.8444" height="34.8444" filterUnits="userSpaceOnUse" color-interpolation-filters="sRGB">
<feFlood flood-opacity="0" result="BackgroundImageFix"/>
<feColorMatrix in="SourceAlpha" type="matrix" values="0 0 0 0 0 0 0 0 0 0 0 0 0 0 0 0 0 0 127 0" result="hardAlpha"/>
<feOffset/>
<feGaussianBlur stdDeviation="6.04444"/>
<feComposite in2="hardAlpha" operator="out"/>
<feColorMatrix type="matrix" values="0 0 0 0 1 0 0 0 0 1 0 0 0 0 1 0 0 0 0.31 0"/>
<feBlend mode="normal" in2="BackgroundImageFix" result="effect1_dropShadow_2449_1871"/>
<feBlend mode="normal" in="SourceGraphic" in2="effect1_dropShadow_2449_1871" result="shape"/>
</filter>
</defs>
</svg>
