<svg width="16" height="16" viewBox="0 0 16 16" fill="none" xmlns="http://www.w3.org/2000/svg">
<path d="M0.361119 4.28569C0.361119 3.2434 0.662833 2.4274 1.26626 1.83769C1.8834 1.24797 2.67198 0.953117 3.63198 0.953117C4.59198 0.953117 5.37369 1.24797 5.97712 1.83769C6.59426 2.4274 6.90283 3.2434 6.90283 4.28569C6.90283 5.34169 6.59426 6.16455 5.97712 6.75426C5.37369 7.34397 4.59198 7.63883 3.63198 7.63883C2.67198 7.63883 1.8834 7.34397 1.26626 6.75426C0.662833 6.16455 0.361119 5.34169 0.361119 4.28569ZM13.568 1.19997L5.4834 15.6H2.68569L10.7497 1.19997H13.568ZM3.6114 2.68112C2.85712 2.68112 2.47998 3.21597 2.47998 4.28569C2.47998 5.36912 2.85712 5.91083 3.6114 5.91083C3.98169 5.91083 4.26969 5.78055 4.4754 5.51997C4.68112 5.24569 4.78398 4.83426 4.78398 4.28569C4.78398 3.21597 4.39312 2.68112 3.6114 2.68112ZM9.39198 12.4937C9.39198 11.4377 9.69369 10.6217 10.2971 10.0457C10.9143 9.45597 11.7028 9.16112 12.6628 9.16112C13.6228 9.16112 14.3977 9.45597 14.9874 10.0457C15.5908 10.6217 15.8925 11.4377 15.8925 12.4937C15.8925 13.5497 15.5908 14.3725 14.9874 14.9623C14.3977 15.552 13.6228 15.8468 12.6628 15.8468C11.6891 15.8468 10.9005 15.552 10.2971 14.9623C9.69369 14.3725 9.39198 13.5497 9.39198 12.4937ZM12.6423 10.8891C11.8605 10.8891 11.4697 11.424 11.4697 12.4937C11.4697 13.5771 11.8605 14.1188 12.6423 14.1188C13.4103 14.1188 13.7943 13.5771 13.7943 12.4937C13.7943 11.424 13.4103 10.8891 12.6423 10.8891Z" fill="white"/>
</svg>
