<svg width="12" height="9" viewBox="0 0 12 9" fill="none" xmlns="http://www.w3.org/2000/svg">
<path d="M9.70416 0.725499C8.97777 0.387308 8.19131 0.141847 7.37208 2.50906e-05C7.3649 -0.000204336 7.35775 0.00114193 7.35115 0.00396925C7.34454 0.00679657 7.33864 0.0110363 7.33385 0.0163893C7.23554 0.196394 7.12085 0.430946 7.04439 0.610951C6.17546 0.480038 5.29178 0.480038 4.42285 0.610951C4.34639 0.425491 4.23169 0.196394 4.12792 0.0163893C4.12246 0.0054799 4.10608 2.50906e-05 4.08969 2.50906e-05C3.27046 0.141847 2.48946 0.387308 1.75761 0.725499C1.75215 0.725499 1.74669 0.730954 1.74123 0.736409C0.25569 2.95647 -0.153926 5.11653 0.0481512 7.25477C0.0481512 7.26568 0.0536127 7.27659 0.0645358 7.28204C1.04761 8.00206 1.99246 8.43844 2.92638 8.72753C2.94277 8.73299 2.95915 8.72753 2.96462 8.71662C3.18308 8.41662 3.37969 8.10024 3.549 7.76751C3.55992 7.74569 3.549 7.72387 3.52715 7.71842C3.21585 7.59841 2.92092 7.45659 2.63146 7.29295C2.60962 7.28204 2.60961 7.24931 2.626 7.23295C2.68608 7.18931 2.74615 7.14022 2.80623 7.09658C2.81715 7.08567 2.83354 7.08567 2.84446 7.09113C4.72323 7.94751 6.74946 7.94751 8.60639 7.09113C8.61731 7.08567 8.6337 7.08567 8.64462 7.09658C8.7047 7.14567 8.76477 7.18931 8.82485 7.2384C8.8467 7.25477 8.8467 7.28749 8.81939 7.2984C8.53539 7.4675 8.235 7.60387 7.9237 7.72387C7.90185 7.72933 7.89639 7.7566 7.90185 7.77296C8.07662 8.1057 8.27324 8.42207 8.48624 8.72208C8.50262 8.72753 8.519 8.73299 8.53539 8.72753C9.47477 8.43844 10.4196 8.00206 11.4027 7.28204C11.4136 7.27659 11.4191 7.26568 11.4191 7.25477C11.6594 4.78379 11.0204 2.6401 9.726 0.736409C9.72054 0.730954 9.71508 0.725499 9.70416 0.725499ZM3.833 5.9511C3.27046 5.9511 2.80077 5.4329 2.80077 4.7947C2.80077 4.1565 3.25954 3.63831 3.833 3.63831C4.41192 3.63831 4.87069 4.16196 4.86523 4.7947C4.86523 5.4329 4.40646 5.9511 3.833 5.9511ZM7.6397 5.9511C7.07716 5.9511 6.60746 5.4329 6.60746 4.7947C6.60746 4.1565 7.06623 3.63831 7.6397 3.63831C8.21862 3.63831 8.67739 4.16196 8.67193 4.7947C8.67193 5.4329 8.21862 5.9511 7.6397 5.9511Z" fill="#fff"/>
</svg>
