<svg width="9" height="10" viewBox="0 0 9 10" fill="none" xmlns="http://www.w3.org/2000/svg">
  <path
    d="M4.79483 8.91848C5.29803 8.71422 5.65691 8.39165 5.79812 7.87357C5.83839 7.72047 5.85858 7.563 5.85819 7.40494C5.86287 6.11163 5.85039 4.81833 5.8656 3.52502C5.87223 2.95445 5.41506 2.73078 4.95632 2.93276C4.19488 3.26788 3.41277 3.5585 2.63885 3.86661C2.57398 3.89431 2.50641 3.91559 2.43718 3.93013C1.94411 4.02447 1.69017 4.4543 1.86883 4.91913C2.10795 5.5403 2.36579 6.15423 2.60101 6.77654C2.73247 7.12459 2.84403 7.48063 2.94779 7.83781C3.10148 8.36845 3.44749 8.71079 3.96786 8.9143C3.4272 8.9143 2.88616 8.9181 2.34512 8.90821C2.29519 8.90821 2.24409 8.81996 2.20001 8.76785C2.18674 8.75226 2.19181 8.71802 2.19572 8.69177C2.27022 8.18929 2.08337 7.75793 1.84971 7.32239C1.36172 6.41442 0.907276 5.4897 0.430986 4.57602C0.366232 4.45164 0.377155 4.38089 0.477406 4.28351C1.24587 3.53757 2.00575 2.78289 2.7746 2.03582C2.8807 1.93236 2.9279 1.82775 2.91737 1.68473C2.91054 1.5518 2.91054 1.41863 2.91737 1.2857C2.92166 1.15029 2.98797 1.07877 3.13698 1.07953C3.96916 1.08232 4.80133 1.08232 5.6335 1.07953C5.77393 1.07953 5.83284 1.15029 5.84454 1.27543C5.84726 1.29423 5.84726 1.31331 5.84454 1.33211C5.74585 1.76575 5.97483 2.04571 6.28026 2.32643C6.94925 2.9457 7.5882 3.59615 8.24666 4.22835C8.37773 4.3535 8.40269 4.44973 8.31415 4.61786C7.77349 5.64908 7.26093 6.69324 6.70935 7.71913C6.55332 8.01203 6.57087 8.3034 6.56658 8.60352C6.5619 8.91582 6.55722 8.92229 6.23852 8.92115C5.75599 8.91696 5.27541 8.91848 4.79483 8.91848Z"
    fill="white" />
  <path
    d="M3.05161 6.87575C2.84409 6.35538 2.65256 5.87077 2.45752 5.3797C3.24548 5.34927 3.52166 4.61398 3.05747 4.10427L4.71687 3.4386C4.90411 3.86044 5.08511 3.9757 5.45998 3.91826V6.51552C5.0855 6.19144 4.67747 6.00619 4.18129 6.08074C3.68511 6.1553 3.32389 6.41814 3.05161 6.87575Z"
    fill="white" />
  <path
    d="M7.42042 2.90371L6.96207 2.45524C7.00108 2.45904 7.05257 2.47997 7.07363 2.46323C7.13995 2.41074 7.22498 2.3514 7.24254 2.28064C7.25346 2.2369 7.15165 2.11784 7.10562 2.1205C7.0276 2.12469 6.94725 2.19049 6.886 2.24869C6.86143 2.2719 6.886 2.34303 6.886 2.39248L6.26733 1.8219C6.44326 1.64921 6.58174 1.49059 6.74362 1.36012C6.84277 1.28018 6.96909 1.2395 7.09756 1.24612C7.22602 1.25274 7.34724 1.30619 7.43719 1.39587C7.79658 1.73492 8.14974 2.0798 8.49665 2.43052C8.59203 2.52783 8.64525 2.65727 8.64525 2.79188C8.64525 2.9265 8.59203 3.05593 8.49665 3.15325C8.37104 3.28904 8.23179 3.41267 8.08472 3.55531L7.47035 2.9505C7.60726 3.00642 7.72702 2.97637 7.76135 2.83639C7.77578 2.77705 7.70596 2.68195 7.64861 2.62984C7.62092 2.60435 7.49765 2.62071 7.48166 2.65076C7.44148 2.72493 7.43836 2.81813 7.42042 2.90371Z"
    fill="white" />
  <path
    d="M1.80329 2.45226L1.34065 2.90644C1.32349 2.82085 1.32154 2.72766 1.28253 2.65272C1.26654 2.62191 1.14171 2.60213 1.11831 2.6261C1.06057 2.6843 0.987239 2.78206 1.00128 2.84444C1.03639 2.98708 1.16395 2.99925 1.29501 2.95057L0.648648 3.54206C0.507048 3.39561 0.331511 3.23928 0.191082 3.05593C0.0557237 2.87981 0.0966822 2.59947 0.265588 2.42792C0.61276 2.07873 0.964614 1.73334 1.32622 1.39594C1.53959 1.19547 1.84386 1.20156 2.06464 1.39594C2.2039 1.51842 2.33497 1.64965 2.48593 1.7923L1.88599 2.37428C1.86687 2.30353 1.86687 2.21681 1.82318 2.16736C1.79867 2.14536 1.76897 2.12961 1.73671 2.12151C1.70445 2.11342 1.67064 2.11322 1.63828 2.12095C1.60652 2.13822 1.57904 2.1621 1.5578 2.19089C1.53656 2.21969 1.52209 2.25269 1.51541 2.28756C1.50917 2.33815 1.56534 2.41689 1.61644 2.44656C1.66754 2.47623 1.73971 2.45226 1.80329 2.45226Z"
    fill="white" />
  <path
    d="M0.429067 5.39801L1.41285 7.31438C1.50569 7.49354 1.58371 7.68374 1.69332 7.85567C1.83648 8.07857 1.80606 8.31213 1.79435 8.54721C1.36526 8.61073 1.35707 8.60617 1.17958 8.25964C0.806666 7.53158 0.436089 6.79934 0.0541988 6.07433C-0.0277183 5.91876 -0.0238175 5.80806 0.114661 5.69395C0.218423 5.61064 0.312043 5.51175 0.429067 5.39801Z"
    fill="white" />
  <path
    d="M6.97116 8.57648C6.93567 8.28701 6.95985 8.04927 7.08624 7.81077C7.48529 7.05875 7.8664 6.29761 8.25648 5.54064C8.27911 5.4969 8.30914 5.45658 8.35088 5.38849C8.47766 5.51858 8.60443 5.62927 8.70195 5.76012C8.74525 5.81718 8.76632 5.9332 8.73589 5.9933C8.32982 6.80504 7.91087 7.61107 7.49933 8.42053C7.37568 8.66473 7.16074 8.53008 6.97116 8.57648Z"
    fill="white" />
  <path
    d="M4.38809 6.44478C5.00988 6.44821 5.46979 6.90923 5.46628 7.52507C5.46476 7.66447 5.43491 7.80219 5.37844 7.93026C5.32197 8.05833 5.24001 8.1742 5.1373 8.27117C5.0346 8.36814 4.91318 8.44428 4.78009 8.49518C4.647 8.54608 4.50488 8.57073 4.36196 8.5677C3.76396 8.56314 3.29157 8.08614 3.29352 7.49008C3.29547 6.89402 3.77293 6.44136 4.38809 6.44478ZM4.38185 6.78485C4.18475 6.78464 3.99559 6.86056 3.85575 6.996C3.71591 7.13144 3.63676 7.31538 3.63563 7.50757C3.63563 7.89443 3.99255 8.23791 4.38731 8.2303C4.58082 8.22391 4.76456 8.14592 4.90122 8.01217C5.03787 7.87842 5.11717 7.69895 5.12301 7.51024C5.12337 7.4151 5.10446 7.32084 5.06738 7.23284C5.03029 7.14485 4.97575 7.06486 4.9069 6.99747C4.83804 6.93008 4.75621 6.8766 4.66611 6.84011C4.57601 6.80363 4.47941 6.78485 4.38185 6.78485Z"
    fill="white" />
  <path
    d="M2.93142 9.31244H5.8149C5.89916 9.67799 5.68461 9.98229 5.31521 9.9899C4.69108 10.0033 4.06773 10.0033 3.44516 9.9899C3.0816 9.98268 2.88968 9.72097 2.93142 9.31244Z"
    fill="white" />
  <path
    d="M3.31573 0.684609C3.24434 0.273795 3.44719 0.0158945 3.85521 0.00600457C4.19887 -0.00274426 4.54332 -0.00122272 4.88698 0.00600457C5.30944 0.0136122 5.51384 0.264285 5.44479 0.686511L3.31573 0.684609Z"
    fill="white" />
  <path
    d="M2.89673 4.63796C2.89542 4.70521 2.87382 4.7706 2.83463 4.82596C2.79544 4.88132 2.74039 4.92419 2.67636 4.94923C2.61233 4.97426 2.54216 4.98034 2.4746 4.96672C2.40705 4.95309 2.34511 4.92036 2.29652 4.87261C2.24793 4.82487 2.21484 4.76422 2.20138 4.69824C2.18793 4.63226 2.19471 4.56388 2.22087 4.50164C2.24703 4.4394 2.29141 4.38605 2.34848 4.34826C2.40555 4.31046 2.47277 4.2899 2.54175 4.28915C2.58875 4.28863 2.63537 4.29732 2.67885 4.3147C2.72234 4.33208 2.76181 4.35779 2.79491 4.39032C2.82801 4.42285 2.85408 4.46153 2.87157 4.50407C2.88906 4.54661 2.89762 4.59214 2.89673 4.63796ZM2.82378 4.65165C2.69778 4.56264 2.63303 4.48542 2.5554 4.46945C2.52994 4.46288 2.50317 4.46281 2.47768 4.46926C2.45219 4.47571 2.42883 4.48846 2.40986 4.50627C2.39088 4.52409 2.37694 4.54637 2.36936 4.57096C2.36178 4.59556 2.36084 4.62165 2.3666 4.64671C2.3787 4.71327 2.47973 4.80342 2.54838 4.81027C2.61704 4.81712 2.69154 4.73191 2.82378 4.65165Z"
    fill="white" />
  <path
    d="M5.286 3.63329C5.20798 3.51157 5.12451 3.43891 5.13543 3.38338C5.14791 3.32023 5.24387 3.2723 5.30355 3.21753C5.35739 3.27725 5.44749 3.33164 5.45413 3.39707C5.46115 3.45337 5.3726 3.51879 5.286 3.63329Z"
    fill="white" />
  <path
    d="M4.73393 7.50612C4.73292 7.57434 4.71122 7.64074 4.67156 7.69695C4.63189 7.75316 4.57605 7.79665 4.51107 7.82194C4.44608 7.84723 4.37487 7.85319 4.30642 7.83906C4.23797 7.82493 4.17534 7.79135 4.12644 7.74255C4.07754 7.69376 4.04456 7.63193 4.03165 7.56487C4.01875 7.49781 4.0265 7.42853 4.05392 7.36576C4.08135 7.303 4.12723 7.24956 4.18577 7.21219C4.24431 7.17482 4.31289 7.15519 4.38285 7.15579C4.42981 7.15524 4.47639 7.16399 4.51977 7.18151C4.56316 7.19903 4.60245 7.22495 4.63527 7.25769C4.66809 7.29044 4.69375 7.32935 4.71071 7.37205C4.72767 7.41475 4.73556 7.46036 4.73393 7.50612Z"
    fill="white" />
</svg>