<svg width="8" height="11" viewBox="0 0 8 11" fill="none" xmlns="http://www.w3.org/2000/svg">
<path d="M7.11111 0H0.888889C0.653141 0 0.427048 0.0927158 0.260349 0.257751C0.0936505 0.422786 0 0.646622 0 0.880018V10.5602C3.94652e-05 10.6387 0.0213042 10.7158 0.0615877 10.7835C0.101871 10.8511 0.159705 10.9068 0.229089 10.9449C0.298472 10.9829 0.376877 11.0019 0.456166 10.9998C0.535455 10.9978 0.612739 10.9747 0.68 10.9331L4 8.87883L7.32056 10.9331C7.38781 10.9746 7.46503 10.9975 7.54424 10.9995C7.62345 11.0015 7.70175 10.9825 7.77105 10.9445C7.84034 10.9064 7.89811 10.8508 7.93836 10.7832C7.97862 10.7156 7.9999 10.6387 8 10.5602V0.880018C8 0.646622 7.90635 0.422786 7.73965 0.257751C7.57295 0.0927158 7.34686 0 7.11111 0ZM4.235 7.98726C4.16436 7.94355 4.08274 7.92038 3.99944 7.92038C3.91615 7.92038 3.83453 7.94355 3.76389 7.98726L0.888889 9.76655V8.16381L4 6.23877L7.11111 8.16381V9.76655L4.235 7.98726Z" fill="#03a3bb"/>
</svg>
