<svg width="9" height="10" viewBox="0 0 9 10" fill="none" xmlns="http://www.w3.org/2000/svg">
<path d="M0.00162888 5.1878C0.00162888 6.53069 0.00162888 7.87359 0.00162888 9.21649C0.00162888 9.81246 0.18996 10 0.784507 10H6.83309C7.39395 10 7.60634 9.79162 7.60703 9.22969C7.60703 7.36676 7.60703 5.50315 7.60703 3.64022C7.6106 3.49607 7.58383 3.35279 7.52849 3.21988C7.47315 3.08696 7.39052 2.96744 7.28604 2.86922C6.56067 2.1459 5.84103 1.41796 5.12711 0.685387C5.03376 0.583937 4.92003 0.503816 4.79355 0.450389C4.66707 0.396961 4.53075 0.371461 4.39372 0.375595C3.17988 0.383236 1.96604 0.375595 0.750828 0.379763C0.192021 0.379763 0.00162888 0.571473 0.000941277 1.12854C-0.000433922 2.48255 -0.000204086 3.83564 0.00162888 5.1878ZM2.74617 4.90996H4.73327L5.69554 3.97641L5.93061 4.27578L5.02951 5.22461V7.11462L5.96085 8.07109C5.84401 8.18014 5.77665 8.24335 5.67148 8.3406L4.75457 7.42997H2.67744L1.92136 8.35032L1.64643 8.06206L2.53997 7.12713V5.0843L1.63062 4.28968L1.93924 3.97224L2.74617 4.90996ZM4.80475 2.13155L4.76557 2.20101C4.69684 2.20587 4.6336 2.2149 4.56762 2.2149C3.65208 2.2149 2.73655 2.21837 1.81826 2.2149C1.68108 2.2196 1.54412 2.20033 1.41342 2.15794C1.14536 2.05653 0.943283 1.8801 0.92335 1.53627H4.16965L4.80475 2.13155Z" fill="white"/>
<path d="M5.6653 0.75207L7.56716 2.69696C7.80498 2.45662 8.0373 2.26839 8.20158 2.03222C8.2655 1.93984 8.23319 1.68909 8.15071 1.5974C7.69638 1.09451 7.22143 0.611065 6.73686 0.138736C6.53066 -0.0599201 6.37944 -0.0383872 6.16774 0.159574C6.02546 0.292938 5.89281 0.437415 5.75534 0.576335C5.71946 0.63165 5.68929 0.690536 5.6653 0.75207Z" fill="white"/>
<path d="M4.58274 5.3552H2.99705V6.96737H4.58274V5.3552Z" fill="white"/>
</svg>
