<svg width="44" height="112" viewBox="0 0 44 112" fill="none" xmlns="http://www.w3.org/2000/svg">
<mask id="path-1-inside-1_7_140" fill="white">
<path d="M32.8911 111.942C38.3488 102.625 41.8887 92.3112 43.3026 81.6065C44.7165 70.9018 43.9758 60.0225 41.1242 49.6082C38.2726 39.1939 33.3675 29.4549 26.6975 20.9637C20.0274 12.4726 11.727 5.4007 2.28426 0.163944L0.39179 3.57639C9.37965 8.56087 17.2802 15.2921 23.6289 23.3742C29.9777 31.4563 34.6464 40.7261 37.3607 50.6387C40.0749 60.5513 40.7799 70.9065 39.4341 81.0955C38.0883 91.2845 34.719 101.102 29.5241 109.97L32.8911 111.942Z"/>
</mask>
<path d="M32.8911 111.942C38.3488 102.625 41.8887 92.3112 43.3026 81.6065C44.7165 70.9018 43.9758 60.0225 41.1242 49.6082C38.2726 39.1939 33.3675 29.4549 26.6975 20.9637C20.0274 12.4726 11.727 5.4007 2.28426 0.163944L0.39179 3.57639C9.37965 8.56087 17.2802 15.2921 23.6289 23.3742C29.9777 31.4563 34.6464 40.7261 37.3607 50.6387C40.0749 60.5513 40.7799 70.9065 39.4341 81.0955C38.0883 91.2845 34.719 101.102 29.5241 109.97L32.8911 111.942Z" stroke="#67A4FF" stroke-width="42" stroke-linecap="round" stroke-linejoin="round" stroke-dasharray="42 84 126 168" mask="url(#path-1-inside-1_7_140)"/>
</svg>
