<svg width="13" height="12" viewBox="0 0 13 12" fill="none" xmlns="http://www.w3.org/2000/svg">
  <path
    d="M6.50936 1.76552C6.58328 1.76404 6.65277 1.72664 6.69631 1.66236C6.82759 1.46858 6.95079 1.26571 7.10573 1.10105C8.49714 -0.362339 10.6311 -0.364735 11.9824 1.08346C12.3042 1.42691 12.5598 1.83539 12.7344 2.28544C12.909 2.73548 12.9993 3.21822 13 3.70591C13.0007 4.1936 12.9118 4.67663 12.7384 5.12725C12.5651 5.57786 12.3106 5.98719 11.9898 6.33169C10.3405 8.13734 8.6666 9.9174 7.00018 11.7055C6.63226 12.1053 6.36022 12.0957 5.98412 11.6911C4.33554 9.92166 2.68943 8.14986 1.0458 6.37566C-0.335204 4.87549 -0.347096 2.55405 1.00195 1.09785C2.37106 -0.380734 4.51541 -0.365537 5.93135 1.14184C6.07659 1.2961 6.19177 1.48269 6.31368 1.66252C6.35905 1.72945 6.43237 1.76707 6.50936 1.76552Z"
    fill="white" />
</svg>