<svg width="20" height="13" viewBox="0 0 20 13" fill="none" xmlns="http://www.w3.org/2000/svg">
<path d="M9.4936 0.00411711C11.094 4.33581 11.0948 8.6398 9.48969 13C7.67915 12.8955 5.85065 13.2375 4.08853 12.5249C1.2376 11.3721 -0.449535 8.3524 0.105031 5.33264C0.372024 3.84605 1.14219 2.50042 2.28281 1.52761C3.42343 0.554801 4.86307 0.0157434 6.35366 0.00332458C7.38469 -0.00459298 8.42508 0.00411711 9.4936 0.00411711Z" fill="white" fill-opacity="0.55"/>
<path d="M10.7964 0.00252844C11.2987 0.00252844 11.7408 0.00807073 12.1821 0.00252844C12.5468 -0.00301385 12.7616 0.180674 12.878 0.517962C13.643 2.69785 13.9818 5.00794 13.8755 7.31915C13.8012 9.04771 13.4737 10.7555 12.9038 12.3864C12.7273 12.8892 12.5914 12.9897 12.0805 12.9929C11.6666 12.9929 11.2526 12.9929 10.7964 12.9929C12.286 8.65484 12.2899 4.35164 10.7964 0.00252844Z" fill="white" fill-opacity="0.55"/>
<path d="M17.6168 9.02698C17.0583 9.02698 16.5007 9.03173 15.943 9.02698C15.5118 9.02302 15.2361 8.77599 15.2345 8.4102C15.233 8.04441 15.5087 7.78867 15.9375 7.7855C17.0539 7.77864 18.1698 7.77864 19.2852 7.7855C19.7203 7.7855 19.9882 8.03965 19.9882 8.40624C19.9882 8.77282 19.7171 9.02223 19.2852 9.02698C18.7353 9.03173 18.1776 9.02698 17.6168 9.02698Z" fill="white" fill-opacity="0.55"/>
<path d="M17.6168 3.96449C18.1745 3.96449 18.733 3.95974 19.2907 3.96449C19.725 3.96449 19.9936 4.21072 19.9999 4.57889C20.0061 4.94706 19.732 5.2028 19.2969 5.20596C18.181 5.21388 17.0651 5.21388 15.9492 5.20596C15.5173 5.20596 15.24 4.94864 15.2384 4.58681C15.2384 4.20914 15.5196 3.96686 15.9797 3.96369C16.5233 3.96132 17.0701 3.96449 17.6168 3.96449Z" fill="white" fill-opacity="0.55"/>
<path d="M16.7576 1.37703C16.1984 1.37703 15.6383 1.38257 15.0791 1.37703C14.6675 1.37069 14.4003 1.12762 14.3925 0.777661C14.3839 0.414245 14.6643 0.156925 15.0955 0.155342C16.214 0.150591 17.3336 0.150591 18.4541 0.155342C18.8954 0.155342 19.1571 0.392873 19.1516 0.773708C19.1462 1.15454 18.8962 1.37306 18.4401 1.3786C17.8761 1.38177 17.3161 1.37703 16.7576 1.37703Z" fill="white" fill-opacity="0.55"/>
<path d="M16.8357 11.6152C17.3825 11.6152 17.9293 11.6089 18.476 11.6152C18.9001 11.6216 19.147 11.8527 19.1524 12.2154C19.1579 12.5938 18.8994 12.8345 18.458 12.8369C17.3395 12.8417 16.22 12.8417 15.0994 12.8369C14.6682 12.8369 14.3886 12.5812 14.3964 12.217C14.4019 11.867 14.6698 11.6208 15.0799 11.6152C15.6641 11.6089 16.246 11.6152 16.8357 11.6152Z" fill="white" fill-opacity="0.55"/>
</svg>
