<svg width="14" height="9" viewBox="0 0 14 9" fill="none" xmlns="http://www.w3.org/2000/svg">
<path d="M6.51338 0.00263668C7.53833 2.77675 7.53883 5.53311 6.51088 8.32548C5.35137 8.25855 4.18035 8.4776 3.05186 8.02125C1.22605 7.28297 0.14558 5.34905 0.500736 3.41514C0.671724 2.4631 1.16495 1.60132 1.89543 0.978314C2.62591 0.355306 3.54789 0.0100824 4.50249 0.00212913C5.16278 -0.00294144 5.82908 0.00263668 6.51338 0.00263668Z" fill="white"/>
<path d="M7.34775 0.00161927C7.66939 0.00161927 7.95251 0.00516867 8.23514 0.00161927C8.46874 -0.00193014 8.6063 0.115708 8.68083 0.331714C9.17078 1.72776 9.38774 3.20719 9.31961 4.68734C9.27204 5.79435 9.06232 6.88804 8.69734 7.93251C8.58429 8.25449 8.49725 8.31889 8.17011 8.32092C7.90499 8.32092 7.63987 8.32092 7.34775 8.32092C8.30166 5.54275 8.30417 2.78689 7.34775 0.00161927Z" fill="white"/>
<path d="M11.7157 5.78107C11.358 5.78107 11.0009 5.78411 10.6437 5.78107C10.3676 5.77854 10.191 5.62033 10.19 5.38607C10.189 5.15181 10.3656 4.98803 10.6402 4.986C11.3552 4.98161 12.0698 4.98161 12.7841 4.986C13.0628 4.986 13.2343 5.14877 13.2343 5.38353C13.2343 5.6183 13.0608 5.77803 12.7841 5.78107C12.432 5.78411 12.0748 5.78107 11.7157 5.78107Z" fill="white"/>
<path d="M11.7157 2.53894C12.0728 2.53894 12.4305 2.5359 12.7876 2.53894C13.0658 2.53894 13.2378 2.69664 13.2418 2.93242C13.2458 3.1682 13.0703 3.33198 12.7916 3.33401C12.077 3.33908 11.3623 3.33908 10.6477 3.33401C10.3711 3.33401 10.1935 3.16921 10.1925 2.93749C10.1925 2.69562 10.3726 2.54046 10.6672 2.53844C11.0154 2.53691 11.3655 2.53894 11.7157 2.53894Z" fill="white"/>
<path d="M11.1654 0.881877C10.8073 0.881877 10.4486 0.885426 10.0905 0.881877C9.82684 0.87782 9.65576 0.72215 9.65076 0.498031C9.64526 0.265291 9.82483 0.100498 10.101 0.0994843C10.8173 0.096442 11.5343 0.096442 12.2519 0.0994843C12.5345 0.0994843 12.7021 0.251605 12.6986 0.495499C12.6951 0.739394 12.535 0.879336 12.2429 0.882886C11.8817 0.884914 11.5231 0.881877 11.1654 0.881877Z" fill="white"/>
<path d="M11.2154 7.43864C11.5656 7.43864 11.9158 7.43458 12.2659 7.43864C12.5375 7.4427 12.6956 7.59075 12.6991 7.82299C12.7026 8.06536 12.537 8.21951 12.2544 8.22103C11.5381 8.22407 10.8211 8.22407 10.1035 8.22103C9.82734 8.22103 9.64826 8.05725 9.65326 7.824C9.65676 7.59988 9.82834 7.44219 10.091 7.43864C10.4651 7.43458 10.8378 7.43864 11.2154 7.43864Z" fill="white"/>
</svg>
