<svg width="18" height="18" viewBox="0 0 18 18" fill="none" xmlns="http://www.w3.org/2000/svg">
<path fill-rule="evenodd" clip-rule="evenodd" d="M9 0C9.45187 0 9.81818 0.366312 9.81818 0.818182V2.50519C12.779 2.87439 15.1256 5.22105 15.4948 8.18182H17.1818C17.6337 8.18182 18 8.54813 18 9C18 9.45187 17.6337 9.81818 17.1818 9.81818H15.4948C15.1256 12.779 12.779 15.1256 9.81818 15.4948V17.1818C9.81818 17.6337 9.45187 18 9 18C8.54813 18 8.18182 17.6337 8.18182 17.1818V15.4948C5.22105 15.1256 2.87439 12.779 2.50519 9.81818H0.818182C0.366312 9.81818 0 9.45187 0 9C0 8.54813 0.366312 8.18182 0.818182 8.18182H2.50519C2.87439 5.22105 5.22105 2.87439 8.18182 2.50519V0.818182C8.18182 0.366312 8.54813 0 9 0ZM9 4.09091C6.28878 4.09091 4.09091 6.28878 4.09091 9C4.09091 11.7112 6.28878 13.9091 9 13.9091C11.7112 13.9091 13.9091 11.7112 13.9091 9C13.9091 6.28878 11.7112 4.09091 9 4.09091ZM9 7.36364C8.09626 7.36364 7.36364 8.09626 7.36364 9C7.36364 9.90374 8.09626 10.6364 9 10.6364C9.90374 10.6364 10.6364 9.90374 10.6364 9C10.6364 8.09626 9.90374 7.36364 9 7.36364ZM5.72727 9C5.72727 7.19252 7.19252 5.72727 9 5.72727C10.8075 5.72727 12.2727 7.19252 12.2727 9C12.2727 10.8075 10.8075 12.2727 9 12.2727C7.19252 12.2727 5.72727 10.8075 5.72727 9Z" fill="white"/>
</svg>
