<svg width="12" height="12" viewBox="0 0 12 12" fill="none" xmlns="http://www.w3.org/2000/svg">
<path fill-rule="evenodd" clip-rule="evenodd" d="M0.860982 11.7428C0.638811 11.787 0.416584 11.8311 0.194001 11.8743C0.0565958 11.9013 -0.0232477 11.8474 0.00599766 11.703C0.0938873 11.2404 0.185801 10.7783 0.281737 10.3169C0.319802 10.134 0.438175 10.05 0.628964 10.0412C0.988262 10.024 1.35545 9.69952 1.41255 9.34487C1.43483 9.207 1.48729 9.14897 1.62655 9.12576C1.95939 9.07052 2.04248 8.95772 2.03273 8.62999C2.0253 8.39649 2.15575 8.27905 2.39667 8.3004C2.69005 8.325 2.83581 8.17228 2.83906 7.88261C2.84166 7.7567 2.88535 7.63509 2.96347 7.53631C3.07622 7.40417 3.20549 7.286 3.34437 7.15904C3.40161 7.10671 3.46049 7.05288 3.52052 6.99597C3.41823 6.89438 3.31985 6.79916 3.22468 6.70704C3.06806 6.55545 2.92014 6.41227 2.77779 6.26299C2.27598 5.73658 2.22027 4.94139 2.66545 4.37412C3.67711 3.08424 4.69714 1.80101 5.72551 0.524441C6.19111 -0.0539632 6.97516 -0.162123 7.60463 0.24081C7.79786 0.364509 7.98872 0.491611 8.17954 0.618695C8.37471 0.748667 8.56984 0.87862 8.76747 1.0049C9.42973 1.42279 10.0115 1.95629 10.485 2.57996C10.8431 3.05557 11.169 3.55615 11.4941 4.05543C11.5399 4.12581 11.5858 4.19617 11.6316 4.26643C12.0573 4.91864 11.9283 5.70315 11.3146 6.19336C10.0696 7.18522 8.82271 8.17553 7.57399 9.16429C6.9357 9.66935 6.14144 9.62247 5.56118 9.04824C5.4112 8.90016 5.26577 8.74753 5.1129 8.5871C5.04197 8.51266 4.96944 8.43655 4.89411 8.35843C4.8341 8.42026 4.77706 8.481 4.72144 8.54022C4.5921 8.67796 4.47049 8.80748 4.33706 8.92337C4.24501 8.99831 4.13077 9.04075 4.01212 9.04406C3.70342 9.04453 3.55905 9.181 3.58319 9.49342C3.60083 9.72923 3.47921 9.85643 3.24292 9.84714C2.94583 9.836 2.80517 9.9307 2.76293 10.2185C2.73786 10.3866 2.67566 10.452 2.50576 10.4757C2.19753 10.5189 1.84241 10.9148 1.84241 11.2152C1.84148 11.4524 1.73425 11.5717 1.51235 11.6144C1.2951 11.6566 1.07807 11.6997 0.860982 11.7428ZM6.29218 8.36849L3.57795 5.65782L5.60503 3.63678L5.95697 4.07277C5.98235 4.049 6.0043 4.02865 6.02391 4.01048C6.06127 3.97585 6.09013 3.9491 6.11802 3.92157C6.26331 3.77776 6.30022 3.73752 6.32199 3.71378C6.3514 3.68171 6.35323 3.67972 6.55727 3.49326C6.81153 3.25744 7.14814 3.13014 7.4952 3.13858C7.84226 3.14701 8.17226 3.2905 8.41471 3.5384C8.66064 3.78251 8.8017 4.11252 8.80803 4.45857C8.81436 4.80461 8.68547 5.13954 8.44864 5.39244C8.31478 5.53919 8.17214 5.678 8.02597 5.82024C7.96855 5.87611 7.91059 5.93251 7.85241 5.99013L8.26226 6.39619L6.29218 8.36849ZM7.34283 5.48526L6.44011 4.59089C6.63223 4.39408 6.69032 4.32689 6.73287 4.27767C6.78389 4.21866 6.81256 4.18549 7.02321 3.98566C7.28378 3.73879 7.67418 3.76451 7.92389 4.00507C8.04955 4.12159 8.1241 4.28284 8.13138 4.45384C8.13867 4.62484 8.07809 4.79182 7.96279 4.91855C7.82383 5.07023 7.6669 5.2051 7.51226 5.33801C7.45513 5.38712 7.39831 5.43595 7.34283 5.48526Z" fill="white"/>
</svg>
