<svg width="54" height="85" viewBox="0 0 54 85" fill="none" xmlns="http://www.w3.org/2000/svg">
<path d="M51.6489 84.8585C53.9941 76.1061 54.5924 66.9774 53.4097 57.9937C52.227 49.01 49.2864 40.3472 44.7558 32.5C40.2251 24.6528 34.1933 17.7747 27.0045 12.2586C19.8158 6.7425 11.611 2.69633 2.85851 0.351118L0.384805 9.58312C7.9249 11.6035 14.9932 15.0892 21.1862 19.8412C27.3792 24.5933 32.5755 30.5186 36.4786 37.2788C40.3816 44.0391 42.9149 51.5019 43.9338 59.2412C44.9527 66.9805 44.4372 74.8447 42.4169 82.3848L51.6489 84.8585Z" fill="url(#paint0_linear_900_668)"/>
<defs>
<linearGradient id="paint0_linear_900_668" x1="57" y1="70" x2="43" y2="101" gradientUnits="userSpaceOnUse">
<stop stop-color="#0085FF"/>
<stop offset="1" stop-color="#0085FF" stop-opacity="0"/>
</linearGradient>
</defs>
</svg>
