<svg width="190" height="140" viewBox="0 0 190 140" fill="none" xmlns="http://www.w3.org/2000/svg">
<path d="M10.8507 139.09C3.26171 124.605 -0.460103 108.407 0.045416 92.0631C0.550935 75.7189 5.26667 59.7819 13.7363 45.7942C22.2059 31.8066 34.1427 20.2419 48.3914 12.2193C62.6402 4.19675 78.7185 -0.0121098 95.0705 2.61705e-05C111.423 0.0121621 127.495 4.24489 141.731 12.2886C155.968 20.3323 167.888 31.9147 176.337 45.9149C184.786 59.9151 189.478 75.8591 189.959 92.204C190.44 108.549 186.694 124.741 179.084 139.214L142.587 120.023C146.894 111.832 149.014 102.668 148.742 93.4176C148.469 84.1673 145.814 75.1438 141.032 67.2205C136.251 59.2971 129.505 52.7421 121.447 48.1898C113.39 43.6375 104.294 41.242 95.0399 41.2352C85.7855 41.2283 76.6861 43.6103 68.6221 48.1506C60.558 52.691 53.8025 59.2359 49.0091 67.1522C44.2158 75.0684 41.5469 84.0879 41.2608 93.3379C40.9747 102.588 43.0811 111.755 47.3761 119.952L10.8507 139.09Z" fill="url(#paint0_radial_11_311)" fill-opacity="0.75"/>
<path d="M45.3693 119.31L11.4939 137.059C4.4865 123.147 1.06263 107.696 1.5447 92.1095C2.04224 76.0233 6.68351 60.3379 15.0194 46.5711C23.3553 32.8044 35.1036 21.4223 49.1273 13.5264C63.1511 5.63049 78.9756 1.48808 95.0694 1.50003C111.163 1.51197 126.982 5.67786 140.994 13.5946C155.006 21.5113 166.737 32.9108 175.052 46.6899C183.368 60.4691 187.986 76.1613 188.46 92.2482C188.918 107.835 185.472 123.281 178.444 137.183L144.595 119.384C148.564 111.31 150.506 102.382 150.241 93.3735C149.961 83.8651 147.231 74.5899 142.316 66.4455C137.401 58.301 130.467 51.5632 122.185 46.8839C113.903 42.2045 104.554 39.7422 95.041 39.7352C85.5285 39.7281 76.1751 42.1765 67.8861 46.8436C59.5971 51.5106 52.6531 58.2381 47.726 66.3753C42.799 74.5124 40.0556 83.7835 39.7616 93.2915C39.483 102.299 41.4116 111.231 45.3693 119.31Z" stroke="url(#paint1_radial_11_311)" stroke-opacity="0.55" stroke-width="3"/>
<defs>
<radialGradient id="paint0_radial_11_311" cx="0" cy="0" r="1" gradientUnits="userSpaceOnUse" gradientTransform="translate(95 95) rotate(-135) scale(92.631)">
<stop offset="0.565" stop-color="#03a3bb"/>
<stop offset="0.8849" stop-color="#03a3bb" stop-opacity="0"/>
<stop offset="0.885" stop-color="#03a3bb"/>
</radialGradient>
<radialGradient id="paint1_radial_11_311" cx="0" cy="0" r="1" gradientUnits="userSpaceOnUse" gradientTransform="translate(95 95) rotate(-90) scale(95 95)">
<stop offset="0.585482" stop-color="white" stop-opacity="0"/>
<stop offset="0.603182" stop-color="white" stop-opacity="0"/>
<stop offset="0.66513" stop-color="white" stop-opacity="0.289295"/>
<stop offset="1" stop-color="white"/>
</radialGradient>
</defs>
</svg>
