<svg width="54" height="85" viewBox="0 0 54 85" fill="none" xmlns="http://www.w3.org/2000/svg">
<path d="M2.35112 84.8585C0.00590475 76.1061 -0.592421 66.9774 0.590304 57.9937C1.77303 49.01 4.71364 40.3472 9.24425 32.5C13.7749 24.6528 19.8067 17.7747 26.9955 12.2586C34.1842 6.7425 42.389 2.69633 51.1415 0.351118L53.6152 9.58312C46.0751 11.6035 39.0068 15.0892 32.8138 19.8412C26.6208 24.5933 21.4245 30.5186 17.5214 37.2788C13.6184 44.0391 11.0851 51.5019 10.0662 59.2412C9.04731 66.9805 9.56276 74.8447 11.5831 82.3848L2.35112 84.8585Z" fill="url(#paint0_linear_900_666)"/>
<defs>
<linearGradient id="paint0_linear_900_666" x1="-6" y1="60.5" x2="11" y2="101" gradientUnits="userSpaceOnUse">
<stop stop-color="#FFF385"/>
<stop offset="1" stop-color="#999250" stop-opacity="0"/>
</linearGradient>
</defs>
</svg>
