<svg width="12" height="15" viewBox="0 0 12 15" fill="none" xmlns="http://www.w3.org/2000/svg">
  <path
    d="M2.58335 5.22511C2.58335 4.41694 2.52634 3.60876 2.5954 2.8027C2.73514 1.18636 4.19276 0.0127516 5.98607 0.000102004C7.77939 -0.0125476 9.29965 1.15263 9.39923 2.77038C9.49921 4.41906 9.49921 6.07122 9.39923 7.7199C9.35373 8.497 8.95765 9.22654 8.29799 9.74831C7.63832 10.2701 6.76898 10.5415 5.88086 10.5028C3.98235 10.4136 2.58817 9.12823 2.5697 7.4381C2.56167 6.7002 2.5697 5.96231 2.5697 5.22511H2.58335Z"
    fill="#B13E3E" />
  <path
    d="M6.86707 12.7046C6.86707 13.1965 6.87108 13.6547 6.86707 14.1101C6.86064 14.6456 6.52897 14.9899 6.0198 14.9998C5.49859 15.0103 5.14523 14.654 5.1364 14.1038C5.1364 13.6484 5.1364 13.1902 5.1364 12.7193C4.89547 12.6673 4.68024 12.6216 4.46421 12.5717C3.21418 12.2815 2.10458 11.646 1.30038 10.7597C0.496185 9.87336 0.0403341 8.78361 0.000603415 7.65243C-0.0162616 7.1338 0.321841 6.77048 0.833413 6.75291C1.34498 6.73534 1.69433 7.07477 1.72967 7.60395C1.85415 9.46696 3.19853 10.8366 5.24642 11.1922C7.69827 11.6139 10.1389 9.95257 10.265 7.77332C10.265 7.70304 10.265 7.63276 10.2746 7.56249C10.3156 7.06353 10.685 6.73253 11.1757 6.75361C11.6664 6.7747 12.0229 7.12678 11.9988 7.62363C11.9185 9.23084 11.1885 10.5597 9.76624 11.5872C8.93664 12.1852 7.96892 12.5345 6.86707 12.7046Z"
    fill="#B13E3E" />
</svg>