<svg width="11" height="11" viewBox="0 0 11 11" fill="none" xmlns="http://www.w3.org/2000/svg">
<path d="M8.25 4.125V4.8125C8.25 6.32883 7.01633 7.5625 5.5 7.5625C3.98367 7.5625 2.75 6.32883 2.75 4.8125V4.125H1.375V4.8125C1.375 6.85238 2.86481 8.5465 4.8125 8.8754V11H6.1875V8.87544C8.1354 8.54667 9.625 6.85251 9.625 4.8125V4.125H8.25Z" 
fill="#FFFFFF"/>
<path d="M5.5 6.875C6.63733 6.875 7.5625 5.94983 7.5625 4.8125V2.0625C7.5625 0.925169 6.63733 0 5.5 0C4.36267 0 3.4375 0.925169 3.4375 2.0625V4.8125C3.4375 5.94983 4.36267 6.875 5.5 6.875Z" 
fill="#FFFFFF"/>
</svg>
