<svg width="15" height="15" viewBox="0 0 15 15" fill="none" xmlns="http://www.w3.org/2000/svg">
<path d="M12.8714 14.621C12.5293 14.963 11.9747 14.963 11.6326 14.621L7.62247 10.6108L3.48989 14.7434C3.1478 15.0855 2.59316 15.0855 2.25107 14.7434L0.256568 12.7489C-0.0855227 12.4068 -0.0855226 11.8522 0.256568 11.5101L4.38916 7.37753L0.379042 3.36741C0.0369515 3.02532 0.0369513 2.47068 0.379042 2.12859L2.12859 0.379041C2.47068 0.0369509 3.02532 0.0369503 3.36741 0.379041L7.37753 4.38916L11.5101 0.256568C11.8522 -0.0855225 12.4068 -0.0855227 12.7489 0.256568L14.7434 2.25107C15.0855 2.59316 15.0855 3.1478 14.7434 3.48989L10.6108 7.62247L14.621 11.6326C14.963 11.9747 14.963 12.5293 14.621 12.8714L12.8714 14.621Z" fill="white"/>
</svg>
