<svg width="70" height="51" viewBox="0 0 70 51" fill="none" xmlns="http://www.w3.org/2000/svg">
<path d="M46.4963 5.46305C46.3971 5.37556 46.2873 5.31207 46.1685 5.25787C45.8195 5.09992 45.4569 4.9861 45.0807 4.92184C44.8346 4.88003 44.6681 5.01939 44.5394 5.21451C44.4841 5.2989 44.4395 5.39182 44.3819 5.49557C44.2661 5.32988 44.1185 5.20832 43.9898 5.06895C43.74 4.7995 43.5977 4.4596 43.4478 4.12666C43.3123 3.82392 43.2608 3.49486 43.1654 3.17896C42.9709 2.53864 42.7672 1.90141 42.528 1.27658C42.4758 1.13876 42.369 1.05591 42.2532 0.983131C41.7854 0.688135 41.2759 0.504633 40.7437 0.374556C40.1094 0.218928 39.4621 0.145373 38.8141 0.0981422C38.2214 0.0547831 37.6264 0.0470404 37.0321 0.0269095C36.3243 0.00368139 35.6165 -0.00328703 34.9087 0.00135859C34.2009 -0.00328703 33.4931 0.00368139 32.7853 0.0269095C32.191 0.0470404 31.596 0.0547831 31.0033 0.0981422C30.3553 0.145373 29.708 0.218928 29.0736 0.374556C28.5415 0.504633 28.032 0.688135 27.5642 0.983131C27.4483 1.05591 27.3416 1.13876 27.2894 1.27658C27.0501 1.90141 26.8465 2.53864 26.652 3.17896C26.5566 3.49486 26.5051 3.82392 26.3696 4.12666C26.2197 4.4596 26.0774 4.7995 25.8276 5.06895C25.6989 5.20832 25.5513 5.32988 25.4354 5.49557C25.3779 5.39182 25.3332 5.2989 25.278 5.21451C25.1493 5.01939 24.9827 4.88003 24.7367 4.92184C24.3605 4.9861 23.9979 5.09992 23.6489 5.25787C23.53 5.31207 23.4203 5.37556 23.3211 5.46305C23.2666 5.51183 23.259 5.55054 23.2939 5.61016C23.3809 5.75882 23.4672 5.90825 23.5679 6.0484C23.6655 6.18389 23.7874 6.29461 23.9449 6.34185C24.1531 6.40379 24.3423 6.51838 24.5565 6.56174C24.6398 6.57877 24.6474 6.61361 24.6073 6.68717C24.3696 7.11999 24.225 7.58997 24.1357 8.07234C24.0516 8.52993 23.9063 8.96662 23.7473 9.39788C23.6398 9.68823 23.5898 9.97936 23.5944 10.2813C23.6035 10.8729 23.5989 11.4652 23.6315 12.0559C23.6565 12.5081 23.6973 12.9595 23.7397 13.4101C23.7488 13.5077 23.8011 13.6091 23.7511 13.7028C23.7102 13.7787 23.7057 13.8546 23.7079 13.9351C23.7117 14.0412 23.714 14.1472 23.7148 14.2533C23.7276 15.7322 23.7329 17.2118 23.7299 18.6907C23.7291 18.8641 23.717 19.0383 23.742 19.211C23.7874 19.5238 24.0577 19.7739 24.3658 19.7762C24.9101 19.7801 25.4544 19.7646 25.9979 19.7816C26.2394 19.7893 26.4824 19.588 26.5195 19.3465C26.5301 19.2799 26.5429 19.2141 26.5505 19.1467C26.5566 19.0995 26.5732 19.0708 26.624 19.0662C26.8881 19.0414 27.0131 18.8842 27.0115 18.5737C27.0108 18.1936 27.0115 17.8142 27.0108 17.4348C27.0108 17.3055 27.0115 17.3039 27.1334 17.3063C27.6777 17.3171 28.222 17.3303 28.7655 17.3411C28.8829 17.3434 29.004 17.3341 29.0979 17.2567C29.1675 17.2002 29.2356 17.1863 29.3212 17.1863C30.6952 17.1762 32.0699 17.2118 33.4446 17.1638C33.9329 17.1468 34.4204 17.129 34.9087 17.1104C35.397 17.129 35.8845 17.1468 36.3728 17.1638C37.7475 17.2118 39.1222 17.1762 40.4962 17.1863C40.5817 17.1863 40.6499 17.2002 40.7195 17.2567C40.8134 17.3341 40.9345 17.3434 41.0518 17.3411C41.5954 17.3303 42.1397 17.3171 42.684 17.3063C42.8058 17.3039 42.8066 17.3055 42.8066 17.4348C42.8066 17.8142 42.8066 18.1936 42.8066 18.5737C42.8051 18.8842 42.93 19.0414 43.1942 19.0662C43.2449 19.0708 43.2616 19.0995 43.2676 19.1467C43.2752 19.2141 43.2881 19.2799 43.2987 19.3465C43.3358 19.588 43.5788 19.7893 43.8202 19.7816C44.3638 19.7646 44.9081 19.7801 45.4524 19.7762C45.7605 19.7739 46.0307 19.5238 46.0761 19.211C46.1011 19.0383 46.089 18.8641 46.0882 18.6907C46.0852 17.2118 46.0905 15.7322 46.1034 14.2533C46.1041 14.1472 46.1064 14.0412 46.1102 13.9351C46.1125 13.8546 46.1079 13.7787 46.0671 13.7028C46.0171 13.6091 46.0693 13.5077 46.0784 13.4101C46.1208 12.9595 46.1617 12.5081 46.1867 12.0559C46.2192 11.4652 46.2147 10.8729 46.2238 10.2813C46.2283 9.97936 46.1783 9.68823 46.0708 9.39788C45.9119 8.96662 45.7665 8.52993 45.6825 8.07234C45.5932 7.58997 45.4486 7.11999 45.2109 6.68717C45.1707 6.61361 45.1783 6.57877 45.2616 6.56174C45.4758 6.51838 45.6651 6.40379 45.8733 6.34185C46.0307 6.29461 46.1526 6.18389 46.2502 6.0484C46.3509 5.90825 46.4372 5.75882 46.5243 5.61016C46.5591 5.55054 46.5515 5.51183 46.497 5.46305H46.4963ZM43.1692 6.12815C43.1692 6.12815 43.17 6.13124 43.17 6.13202C43.2706 6.12737 43.3706 6.12428 43.4713 6.11808C43.7423 6.10182 43.9754 6.20015 44.1881 6.36198C44.4342 6.5478 44.5682 6.80641 44.659 7.09831C44.7665 7.44828 44.8422 7.80521 44.9119 8.1637C44.9459 8.34023 44.9595 8.52064 44.9452 8.70104C44.9391 8.7715 44.9096 8.7986 44.8414 8.78776C44.6272 8.75137 44.4115 8.73201 44.1942 8.7204C44.1382 8.7173 44.092 8.69175 44.0534 8.65149C43.9361 8.52993 43.824 8.40372 43.7491 8.24887C43.6219 7.98871 43.4069 7.84625 43.1427 7.7696C42.8611 7.6883 42.5734 7.64029 42.2873 7.583C41.8906 7.50402 41.4977 7.40182 41.1033 7.31123C41.0587 7.30116 41.042 7.27561 41.0299 7.23535C40.9799 7.07585 40.9444 6.91326 40.9224 6.74756C40.9088 6.64846 40.9398 6.56406 41.0087 6.4936C41.1715 6.32636 41.3857 6.27293 41.5999 6.25203C42.1223 6.20015 42.6461 6.16841 43.1692 6.12815ZM27.2212 3.90522C27.2659 3.51654 27.281 3.12321 27.3696 2.73995C27.4476 2.40159 27.5846 2.08801 27.8337 1.85186C28.0138 1.68152 28.2349 1.55454 28.4567 1.44072C28.8344 1.24638 29.2409 1.16199 29.6565 1.09385C30.2402 0.997842 30.8292 0.945192 31.4158 0.885574C32.1797 0.807372 32.945 0.746205 33.7119 0.719106C34.1108 0.704395 34.5097 0.692781 34.9087 0.687361C35.3076 0.692781 35.7066 0.704395 36.1055 0.719106C36.8724 0.746205 37.6377 0.807372 38.4015 0.885574C38.9882 0.945192 39.5772 0.997842 40.1608 1.09385C40.5764 1.16199 40.983 1.24638 41.3607 1.44072C41.5825 1.55454 41.8036 1.68152 41.9837 1.85186C42.2328 2.08801 42.3698 2.40159 42.4478 2.73995C42.5363 3.12321 42.5515 3.51654 42.5962 3.90522C42.6491 4.37443 42.3721 4.73137 41.9111 4.8026C41.6287 4.84596 41.3418 4.85835 41.0579 4.89396C40.1366 5.0101 39.2078 5.02326 38.2819 5.08676C37.5825 5.13476 36.88 5.11385 36.1782 5.11076C35.755 5.10844 35.3319 5.10843 34.9087 5.10069C34.4855 5.10843 34.0624 5.10844 33.6392 5.11076C32.9374 5.11385 32.2349 5.13476 31.5354 5.08676C30.6096 5.02326 29.6808 5.0101 28.7595 4.89396C28.4756 4.85835 28.1887 4.84596 27.9063 4.8026C27.4453 4.73137 27.1682 4.37443 27.2212 3.90522ZM31.8443 8.3441C31.8458 8.0615 31.9783 7.92213 32.2546 7.92213C33.1396 7.92058 34.0237 7.92135 34.9087 7.92135C35.7936 7.92135 36.6778 7.92058 37.5628 7.92213C37.8391 7.92213 37.9716 8.0615 37.9731 8.3441C37.9738 8.50438 37.964 8.6662 37.9761 8.82647C37.9965 9.10444 37.7975 9.29258 37.5287 9.28561C37.2244 9.27787 36.9186 9.2802 36.6135 9.2802C36.0457 9.2802 35.4772 9.27942 34.9087 9.27942C34.3402 9.27942 33.7717 9.2802 33.2039 9.2802C32.8988 9.2802 32.593 9.27787 32.2887 9.28561C32.0199 9.29258 31.8208 9.10444 31.8413 8.82647C31.8534 8.6662 31.8435 8.50438 31.8443 8.3441ZM24.9055 8.1637C24.9752 7.80521 25.0509 7.44828 25.1584 7.09831C25.2492 6.80641 25.3832 6.5478 25.6292 6.36198C25.842 6.20015 26.0751 6.10182 26.3461 6.11808C26.4468 6.12428 26.5467 6.12737 26.6474 6.13202C26.6474 6.13124 26.6474 6.1297 26.6474 6.12815C27.1705 6.16841 27.6944 6.20015 28.2167 6.25203C28.4309 6.27293 28.6452 6.32636 28.8079 6.4936C28.8768 6.56406 28.9079 6.64846 28.8942 6.74756C28.8723 6.91326 28.8367 7.07585 28.7867 7.23535C28.7746 7.27561 28.758 7.30116 28.7133 7.31123C28.3189 7.40182 27.926 7.50402 27.5293 7.583C27.2432 7.64029 26.9555 7.6883 26.6739 7.7696C26.4097 7.84625 26.1947 7.98871 26.0675 8.24887C25.9926 8.40372 25.8806 8.52993 25.7632 8.65149C25.7246 8.69175 25.6784 8.7173 25.6224 8.7204C25.4052 8.73201 25.1894 8.75137 24.9752 8.78776C24.907 8.7986 24.8775 8.7715 24.8715 8.70104C24.8571 8.52064 24.8707 8.34023 24.9048 8.1637H24.9055ZM45.7219 12.8767C45.8422 12.9611 45.9414 13.0695 46.008 13.205C46.0231 13.2359 46.0489 13.27 46.0201 13.3017C45.9868 13.3381 45.9565 13.2994 45.9285 13.2839C45.8816 13.2584 45.8392 13.2228 45.7907 13.2011C45.4592 13.0524 45.1132 12.9688 44.7498 12.9626C43.7521 12.9456 42.7551 12.9262 41.7581 12.9115C41.1768 12.9022 40.5946 12.8991 40.0125 12.8937C38.3115 12.8767 36.6105 12.8534 34.9087 12.8403C33.2069 12.8534 31.5059 12.8767 29.8049 12.8937C29.2228 12.8991 28.6406 12.9022 28.0592 12.9115C27.0623 12.9262 26.0653 12.9456 25.0675 12.9626C24.7042 12.9688 24.3582 13.0524 24.0266 13.2011C23.9782 13.2228 23.9358 13.2584 23.8889 13.2839C23.8609 13.2994 23.8306 13.3381 23.7973 13.3017C23.7685 13.27 23.7942 13.2359 23.8094 13.205C23.876 13.0695 23.9752 12.9611 24.0955 12.8767C24.3726 12.6808 24.683 12.5863 25.0153 12.5375C25.7602 12.4284 26.5089 12.4524 27.2568 12.4384C28.7542 12.4098 30.2516 12.416 31.7489 12.3966C32.8019 12.3835 33.8557 12.3827 34.9087 12.3757C35.9617 12.3827 37.0155 12.3835 38.0685 12.3966C39.5658 12.416 41.0632 12.4098 42.5606 12.4384C43.3085 12.4524 44.0572 12.4284 44.8021 12.5375C45.1344 12.5863 45.4448 12.6808 45.7219 12.8767Z" fill="white"/>
<path d="M1.08777 49.4081L18.1101 18.6083H19.173L13.3216 49.4081H1.08777ZM68.7304 49.4081H56.4966L50.6452 18.6083H51.7081L68.7304 49.4081Z" fill="url(#paint0_linear_2587_2192)" stroke="white" stroke-width="1.28332"/>
<defs>
<linearGradient id="paint0_linear_2587_2192" x1="33.3002" y1="50.0013" x2="48.9182" y2="-49.0837" gradientUnits="userSpaceOnUse">
<stop stop-color="white"/>
<stop offset="1" stop-color="white" stop-opacity="0"/>
</linearGradient>
</defs>
</svg>
