<svg width="190" height="140" viewBox="0 0 190 140" fill="none" xmlns="http://www.w3.org/2000/svg">
<path fill-rule="evenodd" clip-rule="evenodd" d="M0.51905 85.0832L41.7955 89.4156C42.3299 84.3244 43.5951 79.3087 45.5754 74.5276C47.5558 69.7466 50.2078 65.3054 53.43 61.3274L21.1797 35.2041C15.4577 42.2681 10.7482 50.1549 7.23149 58.6451C3.71476 67.1352 1.468 76.0421 0.51905 85.0832ZM68.0056 3.91597L79.7988 43.7083C84.707 42.2537 89.8251 41.5032 95.0001 41.5032C100.175 41.5032 105.293 42.2537 110.201 43.7083L121.994 3.91597C113.278 1.3328 104.19 0 95.0001 0C85.8104 0 76.7217 1.3328 68.0056 3.91597ZM123.159 4.2691L110.857 43.9072C115.746 45.4246 120.419 47.644 124.721 50.519C129.024 53.394 132.863 56.8615 136.136 60.7979L168.049 34.2637C162.237 27.2735 155.42 21.1159 147.779 16.0104C140.138 10.9049 131.841 6.96365 123.159 4.2691ZM168.82 35.2041L136.57 61.3274C139.792 65.3054 142.444 69.7466 144.425 74.5276C146.405 79.3087 147.67 84.3244 148.205 89.4156L189.481 85.0833C188.532 76.0421 186.285 67.1352 182.769 58.6451C179.252 50.1549 174.542 42.2681 168.82 35.2041Z" fill="black" fill-opacity="0.2"/>
<path fill-rule="evenodd" clip-rule="evenodd" d="M0.51905 85.0832L41.7955 89.4156C42.3299 84.3244 43.5951 79.3087 45.5754 74.5276C47.5558 69.7466 50.2078 65.3054 53.43 61.3274L21.1797 35.2041C15.4577 42.2681 10.7482 50.1549 7.23149 58.6451C3.71476 67.1352 1.468 76.0421 0.51905 85.0832ZM68.0056 3.91597L79.7988 43.7083C84.707 42.2537 89.8251 41.5032 95.0001 41.5032C100.175 41.5032 105.293 42.2537 110.201 43.7083L121.994 3.91597C113.278 1.3328 104.19 0 95.0001 0C85.8104 0 76.7217 1.3328 68.0056 3.91597ZM123.159 4.2691L110.857 43.9072C115.746 45.4246 120.419 47.644 124.721 50.519C129.024 53.394 132.863 56.8615 136.136 60.7979L168.049 34.2637C162.237 27.2735 155.42 21.1159 147.779 16.0104C140.138 10.9049 131.841 6.96365 123.159 4.2691ZM168.82 35.2041L136.57 61.3274C139.792 65.3054 142.444 69.7466 144.425 74.5276C146.405 79.3087 147.67 84.3244 148.205 89.4156L189.481 85.0833C188.532 76.0421 186.285 67.1352 182.769 58.6451C179.252 50.1549 174.542 42.2681 168.82 35.2041Z" fill="url(#paint0_radial_15_317)" fill-opacity="0.35"/>
<path d="M21.9514 34.2637C27.7634 27.2735 34.58 21.1159 42.2209 16.0104C49.8618 10.9049 58.1593 6.96365 66.8415 4.2691L79.1433 43.9072C74.2541 45.4246 69.5816 47.644 65.2788 50.519C60.976 53.394 57.1375 56.8615 53.8646 60.7979L21.9514 34.2637Z" fill="black" fill-opacity="0.2"/>
<path d="M21.9514 34.2637C27.7634 27.2735 34.58 21.1159 42.2209 16.0104C49.8618 10.9049 58.1593 6.96365 66.8415 4.2691L79.1433 43.9072C74.2541 45.4246 69.5816 47.644 65.2788 50.519C60.976 53.394 57.1375 56.8615 53.8646 60.7979L21.9514 34.2637Z" fill="url(#paint1_radial_15_317)" fill-opacity="0.35"/>
<path d="M10.9325 139.245C6.69857 131.201 3.61825 122.547 1.82544 113.534C0.0326282 104.52 -0.433303 95.3464 0.399813 86.2939L41.7283 90.0974C41.2592 95.1951 41.5216 100.361 42.5311 105.437C43.5407 110.512 45.2753 115.386 47.6596 119.916L10.9325 139.245Z" fill="black" fill-opacity="0.2"/>
<path d="M10.9325 139.245C6.69857 131.201 3.61825 122.547 1.82544 113.534C0.0326282 104.52 -0.433303 95.3464 0.399813 86.2939L41.7283 90.0974C41.2592 95.1951 41.5216 100.361 42.5311 105.437C43.5407 110.512 45.2753 115.386 47.6596 119.916L10.9325 139.245Z" fill="url(#paint2_radial_15_317)" fill-opacity="0.35"/>
<path d="M189.6 86.2939C190.433 95.3464 189.967 104.521 188.175 113.534C186.382 122.547 183.302 131.201 179.068 139.245L142.341 119.916C144.725 115.386 146.459 110.512 147.469 105.437C148.479 100.361 148.741 95.1951 148.272 90.0974L189.6 86.2939Z" fill="black" fill-opacity="0.2"/>
<path d="M189.6 86.2939C190.433 95.3464 189.967 104.521 188.175 113.534C186.382 122.547 183.302 131.201 179.068 139.245L142.341 119.916C144.725 115.386 146.459 110.512 147.469 105.437C148.479 100.361 148.741 95.1951 148.272 90.0974L189.6 86.2939Z" fill="url(#paint3_radial_15_317)" fill-opacity="0.35"/>
<defs>
<radialGradient id="paint0_radial_15_317" cx="0" cy="0" r="1" gradientUnits="userSpaceOnUse" gradientTransform="translate(95 96.5) rotate(-90) scale(106 106)">
<stop offset="0.56" stop-opacity="0.83"/>
<stop offset="0.805" stop-color="#03a3bb"/>
<stop offset="1" stop-color="#03a3bb"/>
</radialGradient>
<radialGradient id="paint1_radial_15_317" cx="0" cy="0" r="1" gradientUnits="userSpaceOnUse" gradientTransform="translate(95 96.5) rotate(-90) scale(106 106)">
<stop offset="0.56" stop-opacity="0.83"/>
<stop offset="0.805" stop-color="#03a3bb"/>
<stop offset="1" stop-color="#03a3bb"/>
</radialGradient>
<radialGradient id="paint2_radial_15_317" cx="0" cy="0" r="1" gradientUnits="userSpaceOnUse" gradientTransform="translate(95 96.5) rotate(-90) scale(106 106)">
<stop offset="0.56" stop-opacity="0.83"/>
<stop offset="0.805" stop-color="#03a3bb"/>
<stop offset="1" stop-color="#03a3bb"/>
</radialGradient>
<radialGradient id="paint3_radial_15_317" cx="0" cy="0" r="1" gradientUnits="userSpaceOnUse" gradientTransform="translate(95 96.5) rotate(-90) scale(106 106)">
<stop offset="0.56" stop-opacity="0.83"/>
<stop offset="0.805" stop-color="#03a3bb"/>
<stop offset="1" stop-color="#03a3bb"/>
</radialGradient>
</defs>
</svg>
