<svg width="125" height="10" viewBox="0 0 125 10" fill="none" xmlns="http://www.w3.org/2000/svg">
<path d="M85 0.5H96V9.5H85V0.5ZM99 0.5H110V9.5H99V0.5ZM113 0.5H124V9.5H113V0.5ZM0.5 0.5H11.5V9.5H0.5V0.5ZM14.5 0.5H25.5V9.5H14.5V0.5ZM28.5 0.5H39.5V9.5H28.5V0.5ZM42.5 0.5H53.5V9.5H42.5V0.5ZM56.5 0.5H67.5V9.5H56.5V0.5ZM70.5 0.5H81.5V9.5H70.5V0.5Z" fill="black" fill-opacity="0.2"/>
<path d="M85 0.5H96V9.5H85V0.5ZM99 0.5H110V9.5H99V0.5ZM113 0.5H124V9.5H113V0.5ZM0.5 0.5H11.5V9.5H0.5V0.5ZM14.5 0.5H25.5V9.5H14.5V0.5ZM28.5 0.5H39.5V9.5H28.5V0.5ZM42.5 0.5H53.5V9.5H42.5V0.5ZM56.5 0.5H67.5V9.5H56.5V0.5ZM70.5 0.5H81.5V9.5H70.5V0.5Z" fill="url(#paint0_linear_2592_2201)"/>
<path d="M85 0.5H96V9.5H85V0.5ZM99 0.5H110V9.5H99V0.5ZM113 0.5H124V9.5H113V0.5ZM0.5 0.5H11.5V9.5H0.5V0.5ZM14.5 0.5H25.5V9.5H14.5V0.5ZM28.5 0.5H39.5V9.5H28.5V0.5ZM42.5 0.5H53.5V9.5H42.5V0.5ZM56.5 0.5H67.5V9.5H56.5V0.5ZM70.5 0.5H81.5V9.5H70.5V0.5Z" stroke="#EF3333"/>
<defs>
<linearGradient id="paint0_linear_2592_2201" x1="58" y1="46" x2="102.5" y2="-62.5" gradientUnits="userSpaceOnUse">
<stop stop-color="#EF3333"/>
<stop offset="1" stop-color="#EF3333"/>
</linearGradient>
</defs>
</svg>
