<svg width="35" height="37" viewBox="0 0 35 37" fill="none" xmlns="http://www.w3.org/2000/svg">
<g filter="url(#filter0_d_2449_1866)">
<path d="M17.0408 17.4264V16.3216C16.4178 15.9959 16.2185 15.5138 16.3926 14.9654C16.4656 14.7427 16.6139 14.5505 16.8133 14.4198C17.0128 14.2892 17.2517 14.2277 17.4916 14.2454C17.7218 14.262 17.9408 14.3485 18.1176 14.4926C18.2944 14.6367 18.4201 14.8312 18.4769 15.0485C18.5998 15.5655 18.3729 15.9921 17.7997 16.3056V17.4052C17.8147 17.4165 17.822 17.4264 17.8273 17.4254C18.3594 17.3432 18.4987 17.674 18.6346 18.0833C19.248 19.9189 19.8845 21.7488 20.5133 23.5782C20.5356 23.6435 20.5617 23.7084 20.5883 23.7845C20.9337 23.7845 21.2713 23.7845 21.609 23.7845C21.8731 23.7845 22.0361 23.9179 22.0443 24.1271C22.0511 24.3446 21.8823 24.4884 21.609 24.4889C18.8205 24.4889 16.0322 24.4889 13.2441 24.4889C12.9665 24.4889 12.7972 24.3479 12.8001 24.1322C12.803 23.9165 12.9718 23.7854 13.2533 23.784C13.5832 23.784 13.9126 23.784 14.2599 23.784C14.526 23.0077 14.792 22.2389 15.0542 21.4701C15.4634 20.2765 15.8728 19.083 16.2823 17.8897C16.4274 17.4696 16.4507 17.4536 16.9165 17.4395C16.9503 17.4372 16.989 17.4311 17.0408 17.4264ZM17.4195 21.5805L15.3633 23.7652H19.4782L17.4195 21.5805ZM16.9542 18.1501C16.7965 18.6101 16.6398 19.0664 16.4787 19.5354L17.421 20.5302L18.3623 19.5378L17.8844 18.1529L16.9542 18.1501ZM15.4344 22.5796L15.4707 22.5989L16.9261 21.0551L16.2141 20.3033C15.9437 21.0937 15.6898 21.838 15.4344 22.5824V22.5796ZM18.623 20.3023L17.9129 21.0542L19.367 22.5951L19.4032 22.5758C19.1483 21.8376 18.8944 21.0946 18.623 20.3051V20.3023ZM17.4287 14.9508C17.3346 14.9506 17.2441 14.9862 17.1766 15.0499C17.109 15.1137 17.0698 15.2005 17.0673 15.292C17.0648 15.3834 17.0991 15.4722 17.1631 15.5393C17.227 15.6065 17.3154 15.6467 17.4094 15.6514C17.5035 15.6516 17.594 15.616 17.6615 15.5523C17.729 15.4886 17.7682 15.4017 17.7708 15.3103C17.7733 15.2189 17.7389 15.1301 17.675 15.0629C17.6111 14.9958 17.5227 14.9555 17.4287 14.9508Z" fill="white"/>
<path d="M14.8544 12.4C14.9797 12.494 15.1146 12.5513 15.1596 12.6472C15.2046 12.7431 15.1785 12.885 15.15 12.9982C15.133 13.0659 15.0532 13.119 14.9986 13.1768C14.4578 13.7563 14.1574 14.51 14.1552 15.2921C14.1531 16.0743 14.4494 16.8295 14.9869 17.4118L15.0194 17.4466C15.2472 17.6895 15.2723 17.9019 15.0919 18.0575C14.9115 18.213 14.7122 18.1674 14.4897 17.933C13.8056 17.2175 13.4259 16.2767 13.427 15.3002C13.4282 14.3236 13.8101 13.3837 14.496 12.6698C14.5893 12.572 14.7146 12.5039 14.8544 12.4Z" fill="white"/>
<path d="M21.4097 15.3521C21.4019 16.339 21.0227 17.2436 20.2802 18.0025C20.1351 18.1505 19.9668 18.1985 19.7829 18.08C19.6286 17.9814 19.5938 17.83 19.6523 17.666C19.6817 17.6021 19.7233 17.544 19.7747 17.495C20.9975 16.1632 20.9966 14.4404 19.7709 13.1054C19.5885 12.9061 19.5774 12.6909 19.7467 12.5476C19.916 12.4043 20.1099 12.4339 20.2995 12.6195C20.9961 13.3046 21.4039 14.2863 21.4097 15.3521Z" fill="white"/>
<path d="M14.8796 15.2971C14.8756 14.6797 15.1155 14.0843 15.55 13.6336C15.7464 13.4249 15.9461 13.3986 16.1183 13.5448C16.2905 13.6909 16.2804 13.8916 16.0922 14.1012C15.4349 14.8333 15.4373 15.7656 16.098 16.5077C16.277 16.7083 16.2881 16.8991 16.13 17.0476C15.9631 17.2036 15.7575 17.1797 15.5601 16.9804C15.1204 16.5243 14.8769 15.922 14.8796 15.2971Z" fill="white"/>
<path d="M19.9585 15.3305C19.9559 15.9479 19.7095 16.5408 19.2702 16.987C19.0854 17.1787 18.8832 17.1999 18.7183 17.0551C18.5534 16.9104 18.5587 16.7121 18.7318 16.5161C19.4047 15.7534 19.409 14.8418 18.7386 14.0918C18.5611 13.892 18.5509 13.6994 18.7106 13.5518C18.8784 13.3972 19.0854 13.4198 19.2794 13.6232C19.7276 14.0837 19.9716 14.6969 19.9585 15.3305Z" fill="white"/>
</g>
<defs>
<filter id="filter0_d_2449_1866" x="0.71116" y="0.311135" width="33.4222" height="36.2666" filterUnits="userSpaceOnUse" color-interpolation-filters="sRGB">
<feFlood flood-opacity="0" result="BackgroundImageFix"/>
<feColorMatrix in="SourceAlpha" type="matrix" values="0 0 0 0 0 0 0 0 0 0 0 0 0 0 0 0 0 0 127 0" result="hardAlpha"/>
<feOffset/>
<feGaussianBlur stdDeviation="6.04444"/>
<feComposite in2="hardAlpha" operator="out"/>
<feColorMatrix type="matrix" values="0 0 0 0 1 0 0 0 0 1 0 0 0 0 1 0 0 0 0.31 0"/>
<feBlend mode="normal" in2="BackgroundImageFix" result="effect1_dropShadow_2449_1866"/>
<feBlend mode="normal" in="SourceGraphic" in2="effect1_dropShadow_2449_1866" result="shape"/>
</filter>
</defs>
</svg>
