<svg width="18" height="18" viewBox="0 0 18 18" fill="none" xmlns="http://www.w3.org/2000/svg">
<path d="M9.00283 2.14335e-07C7.44885 -0.000338851 5.92126 0.401615 4.56874 1.16674C3.21621 1.93186 2.08484 3.03408 1.28474 4.36613C0.484633 5.69817 0.0430584 7.21465 0.00299274 8.76796C-0.0370729 10.3213 0.325736 11.8585 1.0561 13.23L0.0737985 16.1766C-0.0075688 16.4206 -0.0193771 16.6824 0.0396971 16.9327C0.0987714 17.183 0.226394 17.4119 0.40826 17.5937C0.590126 17.7756 0.819048 17.9032 1.06937 17.9623C1.31969 18.0213 1.58152 18.0095 1.82551 17.9282L4.77242 16.946C5.97955 17.5879 7.31708 17.9465 8.68349 17.9945C10.0499 18.0424 11.4093 17.7785 12.6584 17.2227C13.9076 16.6668 15.0137 15.8338 15.8928 14.7867C16.7719 13.7397 17.4009 12.5061 17.732 11.1797C18.0632 9.85325 18.0877 8.46883 17.8039 7.13149C17.52 5.79416 16.9352 4.53906 16.0938 3.46147C15.2524 2.38387 14.1765 1.5121 12.9479 0.912336C11.7192 0.312567 10.3701 0.000560968 9.00283 2.14335e-07ZM11.7723 11.0769H6.23333C6.0497 11.0769 5.87359 11.004 5.74375 10.8742C5.6139 10.7443 5.54096 10.5682 5.54096 10.3846C5.54096 10.201 5.6139 10.0249 5.74375 9.89508C5.87359 9.76525 6.0497 9.69231 6.23333 9.69231H11.7723C11.956 9.69231 12.1321 9.76525 12.2619 9.89508C12.3918 10.0249 12.4647 10.201 12.4647 10.3846C12.4647 10.5682 12.3918 10.7443 12.2619 10.8742C12.1321 11.004 11.956 11.0769 11.7723 11.0769ZM11.7723 8.30769H6.23333C6.0497 8.30769 5.87359 8.23475 5.74375 8.10492C5.6139 7.97509 5.54096 7.799 5.54096 7.61539C5.54096 7.43177 5.6139 7.25568 5.74375 7.12585C5.87359 6.99602 6.0497 6.92308 6.23333 6.92308H11.7723C11.956 6.92308 12.1321 6.99602 12.2619 7.12585C12.3918 7.25568 12.4647 7.43177 12.4647 7.61539C12.4647 7.799 12.3918 7.97509 12.2619 8.10492C12.1321 8.23475 11.956 8.30769 11.7723 8.30769Z" fill="#292929"/>
</svg>
