<svg width="14" height="13" viewBox="0 0 14 13" fill="none" xmlns="http://www.w3.org/2000/svg">
<path d="M1.82777 7.85531C1.42162 7.55643 1.40153 7.35652 1.7048 7.05175C2.05657 6.69946 2.39952 6.33785 2.76598 6.00173C2.8816 5.89491 3.05455 5.83465 3.21133 5.79349C3.3681 5.75233 3.55428 5.7685 3.72085 5.73567C3.82865 5.71722 3.92989 5.67133 4.01481 5.6024C4.22695 5.4118 4.41949 5.19964 4.62477 5.0007C4.83739 4.7954 5.01671 4.78805 5.22052 4.99189C6.29575 6.06298 7.36901 7.13635 8.44032 8.21202C8.64413 8.41683 8.63629 8.59469 8.43493 8.80783C8.32274 8.9264 8.21838 9.05821 8.08708 9.15081C7.74413 9.39286 7.64027 9.73144 7.65301 10.1234C7.66134 10.3797 7.55992 10.5703 7.37375 10.7442C7.03423 11.0617 6.71333 11.3993 6.38361 11.7276C6.07838 12.0314 5.88143 12.0123 5.57376 11.6017C5.66831 11.5277 5.78393 11.4596 5.87065 11.3655C6.26896 10.9324 6.28464 10.3018 5.87506 9.87941C5.11371 9.09545 4.34045 8.3221 3.55526 7.55937C3.12608 7.14289 2.49015 7.16494 2.05167 7.57799C1.97061 7.66505 1.89579 7.75772 1.82777 7.85531Z" fill="white"/>
<path d="M7.71668 2.61062C7.55256 2.45971 7.41048 2.33673 7.27575 2.20541C6.98473 1.91682 6.98767 1.76443 7.28457 1.47045C7.67161 1.08304 8.05865 0.696282 8.44569 0.31018C8.75974 -0.00242562 8.93464 0.00884389 9.24624 0.389556C9.01254 0.618866 8.77346 0.849155 8.53927 1.08434C8.01799 1.60911 8.01456 2.2451 8.53388 2.76693C9.24134 3.47903 9.95091 4.18884 10.6626 4.89637C11.1854 5.41623 11.8213 5.41525 12.345 4.89637C12.5758 4.66657 12.7987 4.42844 13.0197 4.19962C13.3989 4.42844 13.4376 4.67196 13.1583 4.95271C12.7504 5.36397 12.3408 5.77359 11.9296 6.18158C11.6719 6.43735 11.5063 6.43637 11.2466 6.17472C11.1089 6.03605 10.9806 5.88857 10.8135 5.70728C10.6577 5.87534 10.5298 6.0194 10.3951 6.1561C10.0566 6.49908 9.71755 6.84207 9.37313 7.17672C9.17716 7.36634 8.98119 7.37271 8.79256 7.18701C7.9414 6.34229 7.09333 5.49414 6.24837 4.64256C6.0524 4.44657 6.06661 4.25352 6.27434 4.04479C6.74026 3.57441 7.21059 3.11285 7.71668 2.61062ZM9.46229 4.92724C9.4378 4.82924 9.44074 4.76848 9.4133 4.7381C9.17765 4.49312 8.9513 4.23735 8.68527 4.03205C8.61521 3.97815 8.38641 4.05312 8.285 4.13592C8.14635 4.24862 8.15321 4.43726 8.27667 4.5769C8.45577 4.78673 8.65317 4.98021 8.86654 5.15508C8.95326 5.22171 9.13551 5.22612 9.24428 5.183C9.34373 5.14234 9.40546 5.0022 9.46229 4.92724Z" fill="white"/>
<path d="M11.5122 4.58423C11.4024 4.52102 11.2892 4.4828 11.2133 4.40735C10.4817 3.68479 9.75397 2.95783 9.03019 2.22646C8.82687 2.02214 8.82981 1.83448 9.03362 1.63016C9.52126 1.13691 10.0112 0.646935 10.5034 0.160224C10.7204 -0.0538956 10.8988 -0.0538956 11.1168 0.163164C11.8353 0.876898 12.5513 1.59275 13.2646 2.31073C13.4905 2.53759 13.489 2.71399 13.2646 2.94281C12.7822 3.42919 12.296 3.91263 11.8061 4.39314C11.7302 4.46908 11.6224 4.51465 11.5122 4.58423Z" fill="white"/>
<path d="M5.46499 10.6252C5.40277 10.7281 5.36113 10.8383 5.28568 10.9152C4.79575 11.4166 4.29962 11.9135 3.79728 12.4057C3.59886 12.6017 3.41612 12.6017 3.22014 12.4057C2.48395 11.6757 1.75069 10.9425 1.02037 10.2062C0.835178 10.0191 0.834198 9.83254 1.01743 9.64668C1.52108 9.13482 2.02913 8.62687 2.5416 8.12285C2.71846 7.9494 2.90855 7.94548 3.08443 8.11893C3.83566 8.85945 4.58018 9.60454 5.31801 10.3542C5.38219 10.4213 5.41012 10.5228 5.46499 10.6252Z" fill="white"/>
</svg>
