<svg width="13" height="12" viewBox="0 0 13 12" fill="none" xmlns="http://www.w3.org/2000/svg">
  <path
    d="M0.905425 7.50942C0.51712 7.22369 0.497915 7.03259 0.787856 6.74124C1.12417 6.40446 1.45205 6.05878 1.80242 5.73745C1.91296 5.63534 2.0783 5.57773 2.22819 5.53838C2.37808 5.49904 2.55607 5.51449 2.71533 5.48311C2.8184 5.46548 2.91519 5.4216 2.99637 5.35571C3.19919 5.1735 3.38327 4.97068 3.57953 4.78051C3.78282 4.58425 3.95426 4.57722 4.14911 4.77208C5.1771 5.796 6.20321 6.82212 7.22745 7.85042C7.42231 8.04621 7.41481 8.21624 7.2223 8.41999C7.11503 8.53335 7.01526 8.65935 6.88973 8.74788C6.56185 8.97927 6.46255 9.30293 6.47473 9.67765C6.48269 9.92263 6.38573 10.1048 6.20774 10.2711C5.88314 10.5746 5.57633 10.8974 5.2611 11.2112C4.96928 11.5016 4.78099 11.4833 4.48683 11.0908C4.57723 11.0201 4.68777 10.955 4.77068 10.8651C5.15149 10.451 5.16648 9.84815 4.7749 9.44439C4.047 8.69495 3.3077 7.95565 2.55701 7.22651C2.14669 6.82836 1.53871 6.84944 1.11949 7.2443C1.04199 7.32753 0.970456 7.41612 0.905425 7.50942Z"
    fill="white" fill-opacity="0.25" />
  <path
    d="M6.5356 2.49567C6.37869 2.3514 6.24285 2.23383 6.11404 2.1083C5.83581 1.83241 5.83862 1.68674 6.12247 1.4057C6.49251 1.03535 6.86255 0.665623 7.23259 0.296522C7.53283 -0.00231883 7.70005 0.00845447 7.99796 0.372403C7.77453 0.591615 7.54595 0.811764 7.32205 1.0366C6.82367 1.53826 6.82039 2.14624 7.3169 2.64509C7.99327 3.32583 8.67168 4.00439 9.35211 4.68077C9.85189 5.17774 10.4599 5.1768 10.9606 4.68077C11.1812 4.46109 11.3943 4.23344 11.6056 4.0147C11.9681 4.23344 12.0051 4.46624 11.7381 4.73463C11.3481 5.12778 10.9565 5.51936 10.5634 5.90938C10.317 6.15389 10.1587 6.15295 9.91044 5.90283C9.77882 5.77027 9.6561 5.62928 9.49638 5.45597C9.34742 5.61663 9.22517 5.75434 9.09636 5.88503C8.77269 6.21291 8.44856 6.54079 8.11927 6.86071C7.93191 7.04198 7.74455 7.04807 7.56422 6.87055C6.75045 6.06302 5.93964 5.25222 5.1318 4.43813C4.94444 4.25077 4.95803 4.06622 5.15663 3.86668C5.60208 3.41702 6.05175 2.97578 6.5356 2.49567ZM8.20452 4.71028C8.1811 4.61659 8.18391 4.55851 8.15768 4.52947C7.93238 4.29527 7.71598 4.05076 7.46164 3.8545C7.39465 3.80298 7.17591 3.87465 7.07895 3.95381C6.94639 4.06154 6.95295 4.24187 7.07099 4.37537C7.24222 4.57595 7.43095 4.76092 7.63494 4.92808C7.71785 4.99179 7.8921 4.996 7.99608 4.95478C8.09117 4.9159 8.15019 4.78194 8.20452 4.71028Z"
    fill="white" fill-opacity="0.25" />
  <path
    d="M10.1643 4.38237C10.0594 4.32195 9.9512 4.28541 9.8786 4.21328C9.17912 3.52254 8.48339 2.82759 7.7914 2.12842C7.59701 1.9331 7.59982 1.7537 7.79468 1.55838C8.26089 1.08685 8.7293 0.618449 9.19988 0.153169C9.40739 -0.0515224 9.57788 -0.0515224 9.78632 0.15598C10.4733 0.838285 11.1578 1.52262 11.8398 2.20899C12.0557 2.42586 12.0543 2.59448 11.8398 2.81323C11.3786 3.27819 10.9138 3.74035 10.4454 4.1997C10.3728 4.2723 10.2697 4.31586 10.1643 4.38237Z"
    fill="white" fill-opacity="0.25" />
  <path
    d="M4.38284 10.1573C4.32336 10.2557 4.28354 10.3611 4.21141 10.4346C3.74301 10.9139 3.26867 11.3889 2.7884 11.8595C2.5987 12.0468 2.42399 12.0468 2.23662 11.8595C1.53277 11.1616 0.83173 10.4607 0.133498 9.75682C-0.0435577 9.57789 -0.0444945 9.39959 0.130688 9.22191C0.612205 8.73258 1.09794 8.24701 1.58789 7.76518C1.75698 7.59936 1.93872 7.59561 2.10688 7.76143C2.82509 8.46934 3.53691 9.18162 4.24232 9.89828C4.30368 9.96245 4.33038 10.0594 4.38284 10.1573Z"
    fill="white" fill-opacity="0.25" />
</svg>