<svg width="11" height="12" viewBox="0 0 11 12" fill="none" xmlns="http://www.w3.org/2000/svg">
  <path
    d="M10.9936 3.25229C10.9011 5.05676 10.6085 6.81328 9.80358 8.44759C8.94551 10.1905 7.6413 11.4126 5.77767 11.9616C5.59461 12.0128 5.40133 12.0128 5.21827 11.9616C3.06569 11.3233 1.70462 9.82527 0.885382 7.76651C0.223337 6.10305 -0.00320214 4.3564 3.41141e-05 2.57356C3.41141e-05 2.21539 0.201607 2.01515 0.581636 1.9752C1.54113 1.87913 2.47642 1.61164 3.34447 1.18507C3.96491 0.878134 4.55761 0.510566 5.15169 0.150988C5.47116 -0.0421966 5.53033 -0.0591156 5.83593 0.153341C7.14938 1.06568 8.56686 1.73689 10.1563 1.93525C10.9663 2.03631 11.0232 2.28119 10.9945 2.96933C10.9904 3.06427 10.9936 3.15828 10.9936 3.25229Z"
    fill="white" />
</svg>