<svg width="181" height="113" viewBox="0 0 181 113" fill="none" xmlns="http://www.w3.org/2000/svg">
  <mask id="path-1-inside-1_11_183" fill="white">
    <path
      d="M7.45453 112.752C5.04059 113.399 2.54761 111.968 2.02225 109.525C-0.571672 97.4614 -0.67456 84.9783 1.73879 72.8451C4.44678 59.2304 10.2504 46.4212 18.7006 35.4083C27.1508 24.3953 38.0212 15.4739 50.4708 9.33402C62.9205 3.19415 76.6157 0.000461541 90.497 5.00131e-08C104.378 -0.000461441 118.074 3.19232 130.524 9.33135C142.974 15.4704 153.845 24.3911 162.296 35.4035C170.747 46.4159 176.551 59.2247 179.26 72.8392C181.674 84.9722 181.572 97.4553 178.979 109.519C178.454 111.962 175.961 113.393 173.547 112.746V112.746C171.133 112.1 169.713 109.621 170.225 107.174C172.467 96.4546 172.527 85.3767 170.384 74.6052C167.946 62.3522 162.722 50.8243 155.116 40.9132C147.51 31.002 137.726 22.9734 126.521 17.4482C115.316 11.9231 102.99 9.04959 90.4973 9.05C78.0041 9.05042 65.6784 11.9247 54.4738 17.4506C43.2691 22.9765 33.4858 31.0058 25.8805 40.9175C18.2753 50.8291 13.0521 62.3574 10.6149 74.6106C8.4724 85.3821 8.5334 96.4601 10.7761 107.18C11.2879 109.626 9.86846 112.105 7.45453 112.752V112.752Z" />
  </mask>
  <path
    d="M7.45453 112.752C5.04059 113.399 2.54761 111.968 2.02225 109.525C-0.571672 97.4614 -0.67456 84.9783 1.73879 72.8451C4.44678 59.2304 10.2504 46.4212 18.7006 35.4083C27.1508 24.3953 38.0212 15.4739 50.4708 9.33402C62.9205 3.19415 76.6157 0.000461541 90.497 5.00131e-08C104.378 -0.000461441 118.074 3.19232 130.524 9.33135C142.974 15.4704 153.845 24.3911 162.296 35.4035C170.747 46.4159 176.551 59.2247 179.26 72.8392C181.674 84.9722 181.572 97.4553 178.979 109.519C178.454 111.962 175.961 113.393 173.547 112.746V112.746C171.133 112.1 169.713 109.621 170.225 107.174C172.467 96.4546 172.527 85.3767 170.384 74.6052C167.946 62.3522 162.722 50.8243 155.116 40.9132C147.51 31.002 137.726 22.9734 126.521 17.4482C115.316 11.9231 102.99 9.04959 90.4973 9.05C78.0041 9.05042 65.6784 11.9247 54.4738 17.4506C43.2691 22.9765 33.4858 31.0058 25.8805 40.9175C18.2753 50.8291 13.0521 62.3574 10.6149 74.6106C8.4724 85.3821 8.5334 96.4601 10.7761 107.18C11.2879 109.626 9.86846 112.105 7.45453 112.752V112.752Z"
    fill="url(#paint0_linear_11_183)" stroke="#03a3bb" stroke-opacity="0.25" stroke-width="2"
    mask="url(#path-1-inside-1_11_183)" />
  <defs>
    <linearGradient id="paint0_linear_11_183" x1="90.5" y1="0" x2="17.6108" y2="169.749" gradientUnits="userSpaceOnUse">
      <stop stop-color="#03a3bb" />
      <stop offset="1" stop-color="#082427" />
    </linearGradient>
  </defs>
</svg>