<svg width="20" height="15" viewBox="0 0 20 15" fill="none" xmlns="http://www.w3.org/2000/svg">
<path d="M7.68433 14.9987C7.32372 15.0011 7.01683 14.8831 6.76167 14.6267C6.38913 14.2528 6.00863 13.8872 5.63161 13.5177C5.28543 13.1784 4.93875 12.8387 4.59256 12.4989C4.23743 12.1508 3.88229 11.8028 3.52766 11.4542C3.15859 11.0916 2.79053 10.7274 2.42047 10.3652C2.10612 10.0576 1.78928 9.75198 1.47444 9.44487C1.12577 9.10461 0.780581 8.76191 0.429922 8.42361C0.235941 8.2369 0.0807557 8.03168 0.0285299 7.76259C-0.0301619 7.4628 -0.00181073 7.17811 0.146411 6.90512C0.219527 6.77009 0.322984 6.66236 0.431414 6.55658C0.811916 6.18512 1.19192 5.81221 1.57193 5.44026C1.77237 5.2443 1.96934 5.04443 2.17327 4.85237C2.35233 4.68419 2.57516 4.59791 2.81739 4.56671C3.22027 4.51504 3.57342 4.62228 3.86389 4.90697C4.57068 5.60113 5.27647 6.29578 5.98276 6.99043C6.31104 7.31363 6.63633 7.63926 6.9666 7.96002C7.18694 8.17353 7.40778 8.38705 7.62265 8.60592C7.64802 8.63225 7.6699 8.64638 7.70422 8.61226C7.9947 8.32416 8.28667 8.03753 8.57863 7.75089C8.86314 7.47157 9.14864 7.19273 9.43315 6.91341C9.79823 6.55512 10.1623 6.19585 10.5274 5.83804C10.9601 5.41443 11.3943 4.99179 11.8271 4.56817C12.1499 4.2518 12.4712 3.93348 12.794 3.61711C13.1243 3.29342 13.456 2.97169 13.7868 2.6485C14.0768 2.36527 14.3657 2.08205 14.6552 1.79834C15.0332 1.42737 15.4098 1.05397 15.7898 0.684947C15.9425 0.536755 16.0867 0.380763 16.2543 0.247195C16.4428 0.0975405 16.6607 0.0297816 16.897 0.00638278C17.164 -0.0199409 17.4132 0.0356313 17.646 0.164325C17.7903 0.24427 17.9012 0.362239 18.0186 0.473383C18.1822 0.627913 18.3374 0.79073 18.5025 0.943797C18.6333 1.06469 18.7502 1.19972 18.881 1.31964C19.1088 1.52877 19.3158 1.75788 19.546 1.96457C19.7783 2.17321 19.9449 2.42133 19.9947 2.73429C20.0076 2.81619 19.9937 2.89516 19.9872 2.97559C19.9738 3.14182 19.941 3.30269 19.8703 3.45624C19.8012 3.6059 19.7017 3.73654 19.5858 3.8511C18.7796 4.64568 17.9698 5.43636 17.1611 6.22851C16.4707 6.90464 15.7808 7.58028 15.0904 8.2564C14.2076 9.12167 13.3242 9.98694 12.4413 10.8522C11.5858 11.6902 10.7308 12.5281 9.87532 13.3656C9.46448 13.7683 9.05613 14.1729 8.6418 14.5721C8.45976 14.7481 8.25831 14.8992 8.00216 14.9621C7.89721 14.9875 7.79176 15.0026 7.68383 14.9996L7.68433 14.9987Z" fill="#111111"/>
</svg>
