<svg width="16" height="13" viewBox="0 0 10 15" fill="none" xmlns="http://www.w3.org/2000/svg">
<path d="M4.99619 13.7102C3.52013 13.7102 2.04343 13.7102 0.567378 13.709C0.497335 13.709 0.471631 13.722 0.472916 13.7919C0.478699 14.0288 0.478057 14.2652 0.476129 14.5021C0.476129 14.552 0.494122 14.5632 0.54553 14.5632C2.54916 14.5615 4.55343 14.5615 6.55706 14.5609C6.60783 14.5609 6.65795 14.5609 6.70808 14.5732C6.8019 14.5961 6.87772 14.6814 6.88286 14.7707C6.888 14.8566 6.83146 14.9365 6.74021 14.9724C6.68301 14.9947 6.62261 15 6.56092 15C4.53287 15 2.50482 15 0.477414 15C0.379739 15 0.285276 14.9877 0.200453 14.9418C0.0552251 14.863 0.00124662 14.7378 0.000604021 14.5897C0.000604021 14.2846 -0.00132378 13.9795 0.00253182 13.6744C0.00574483 13.4163 0.165753 13.274 0.44914 13.2734C0.902174 13.2723 1.35521 13.2717 1.80824 13.274C1.87636 13.274 1.89949 13.2599 1.89949 13.1935C1.89756 12.3393 1.89885 11.4846 1.90078 10.6304C1.90078 10.5751 1.88214 10.5546 1.82238 10.5451C1.67587 10.5216 1.53064 10.4899 1.38541 10.4605C1.08467 10.3988 0.931091 10.2248 0.926592 9.942C0.926592 9.932 0.924665 9.92201 0.926592 9.9126C0.936874 9.85029 0.915026 9.82384 0.840484 9.83207C0.766585 9.83971 0.6914 9.83559 0.616859 9.83559C0.240294 9.83677 0.013456 9.63043 0.013456 9.28711C0.013456 8.68631 0.013456 8.0861 0.013456 7.4853C0.013456 7.16609 0.238366 6.95916 0.587299 6.95681C0.675335 6.95681 0.763372 6.95328 0.850765 6.95916C0.917596 6.96328 0.931091 6.93918 0.929163 6.88333C0.922737 6.68287 0.990853 6.51356 1.18492 6.40187C1.26717 6.35425 1.36035 6.33309 1.45417 6.31427C1.57883 6.289 1.7035 6.26313 1.8288 6.24079C1.87828 6.23197 1.90206 6.21492 1.90013 6.16437C1.89564 6.03974 1.89499 5.91511 1.89821 5.79107C1.90013 5.73405 1.87636 5.72112 1.81917 5.72229C1.64438 5.72699 1.49272 5.68408 1.39698 5.53535C1.36163 5.48068 1.34685 5.42072 1.34621 5.36075C1.34364 5.08034 1.33786 4.79934 1.34942 4.51893C1.35842 4.29789 1.51264 4.17679 1.76969 4.16209C1.9072 4.15445 1.9072 4.15445 1.92519 4.03335C2.10255 2.83116 2.83705 2.0493 4.07277 1.64661C4.1351 1.62663 4.15502 1.60311 4.15309 1.54374C4.14281 1.26803 4.13189 0.991731 4.15309 0.716609C4.18458 0.311569 4.55986 0 5.0039 0C5.44344 0 5.81615 0.309806 5.84892 0.711318C5.87141 0.988791 5.86113 1.26744 5.85342 1.5455C5.85213 1.59841 5.86755 1.62427 5.92475 1.64015C6.70229 1.85413 7.27485 2.30326 7.68869 2.93463C7.92323 3.29264 8.05433 3.68004 8.0871 4.09508C8.09095 4.14622 8.11023 4.16386 8.16421 4.15974C8.21755 4.15622 8.27024 4.16209 8.32293 4.1715C8.53242 4.20912 8.65966 4.34433 8.65709 4.54127C8.65452 4.80992 8.65195 5.07799 8.65773 5.34664C8.66287 5.57062 8.49579 5.70936 8.22397 5.72053C8.146 5.72366 8.1068 5.76089 8.10638 5.83222C8.10638 5.94451 8.10638 6.05679 8.10381 6.16907C8.10252 6.21375 8.11794 6.23197 8.16935 6.24079C8.32872 6.26842 8.48808 6.29781 8.64488 6.33544C8.93726 6.40657 9.07478 6.57235 9.07928 6.84923C9.0812 6.95152 9.05486 6.95328 9.19687 6.95505C9.32154 6.95681 9.44748 6.94211 9.57086 6.96857C9.81312 7.0203 9.98856 7.20901 9.98984 7.43533C9.99305 8.07258 9.9937 8.70983 9.98984 9.34649C9.98791 9.6075 9.76557 9.81325 9.4809 9.82913C9.38001 9.83442 9.27848 9.83618 9.17759 9.83089C9.10241 9.82736 9.06964 9.845 9.07863 9.91907C9.08377 9.96434 9.07863 10.012 9.07028 10.0572C9.03108 10.2565 8.90513 10.3882 8.69179 10.4405C8.52471 10.4811 8.35506 10.5128 8.18542 10.5416C8.12244 10.5522 8.10316 10.5728 8.10316 10.631C8.10573 11.4416 8.10638 12.2517 8.10702 13.0624C8.10702 13.1065 8.11152 13.1512 8.10445 13.1941C8.09352 13.2623 8.12501 13.2746 8.19248 13.2746C8.65066 13.2717 9.10948 13.2711 9.56765 13.2717C9.77907 13.2717 9.92879 13.371 9.98342 13.5427C9.99884 13.5903 10.0001 13.6391 10.0001 13.6879C10.0001 13.9883 9.99948 14.2887 9.99819 14.5885C9.99691 14.8377 9.83497 14.9959 9.5638 14.9971C8.96939 15.0006 8.37498 14.9988 7.78122 14.9971C7.70604 14.9971 7.63214 14.9859 7.57494 14.933C7.51197 14.8754 7.48048 14.8072 7.50426 14.7272C7.52868 14.6438 7.58587 14.5867 7.68226 14.5667C7.72724 14.5573 7.77222 14.5591 7.81721 14.5591C8.36085 14.5591 8.90449 14.5573 9.44813 14.5597C9.51367 14.5597 9.52781 14.5421 9.52717 14.4844C9.52396 14.2552 9.5246 14.0253 9.52974 13.796C9.53167 13.7261 9.51303 13.7061 9.43399 13.7067C8.54399 13.7096 7.65399 13.7085 6.76398 13.7085C6.17536 13.7085 5.58609 13.7085 4.99747 13.7085L4.99619 13.7102ZM2.38016 9.49581C2.38016 10.7309 2.38016 11.966 2.37887 13.2011C2.37887 13.2599 2.39622 13.2746 2.45855 13.274C2.74387 13.2711 3.02854 13.2705 3.31386 13.2728C3.37233 13.2728 3.38904 13.2605 3.39033 13.2041C3.40382 12.4892 3.39418 11.7738 3.39547 11.0584C3.39547 10.9584 3.3929 10.8579 3.40189 10.7585C3.41153 10.6545 3.50278 10.581 3.61459 10.5751C3.76882 10.5669 3.86585 10.6692 3.86392 10.8338C3.85428 11.6321 3.85685 12.4298 3.86199 13.2282C3.86199 13.267 3.8787 13.274 3.91276 13.274C4.17944 13.274 4.44548 13.274 4.71216 13.274C4.75585 13.274 4.77192 13.2611 4.77192 13.2182C4.76935 12.5909 4.76806 11.9637 4.76742 11.3364C4.76742 11.2853 4.76871 11.2335 4.77513 11.183C4.79055 11.0678 4.88309 10.9913 5.00454 10.9872C5.10864 10.9843 5.21339 11.0631 5.23716 11.1653C5.24294 11.1912 5.2423 11.2188 5.2423 11.2453C5.2423 11.8972 5.2423 12.5486 5.23973 13.2005C5.23973 13.2617 5.26222 13.274 5.32263 13.2734C5.57067 13.2705 5.81807 13.2699 6.06612 13.2723C6.12524 13.2723 6.14066 13.2582 6.1413 13.2029C6.1548 12.4875 6.14516 11.7726 6.14644 11.0572C6.14644 10.9572 6.14387 10.8567 6.15287 10.7574C6.16251 10.6504 6.2589 10.5769 6.37457 10.5745C6.49088 10.5722 6.58405 10.6421 6.60719 10.7468C6.61875 10.7979 6.61169 10.8491 6.61169 10.9002C6.60847 11.6592 6.60397 12.4187 6.6149 13.1776C6.61618 13.274 6.61683 13.2734 6.72029 13.2734C6.99211 13.2734 7.26393 13.2699 7.53575 13.274C7.60772 13.2752 7.62764 13.2605 7.62764 13.1923C7.62507 11.7838 7.62571 10.3753 7.62571 8.96673C7.62571 8.68867 7.62443 8.41002 7.62571 8.13196C7.62635 7.9991 7.7266 7.90093 7.85769 7.89622C7.98428 7.89152 8.09352 7.98969 8.10316 8.11961C8.10702 8.17311 8.10638 8.22719 8.10638 8.28069C8.10638 8.87149 8.10573 9.4623 8.10316 10.0531C8.10316 10.1095 8.11537 10.126 8.18027 10.1101C8.28502 10.0843 8.39298 10.0643 8.50029 10.0484C8.58062 10.0366 8.60696 10.0025 8.60696 9.92671C8.60375 9.0649 8.60503 8.20309 8.60503 7.34186C8.60503 7.17079 8.60375 7.00031 8.60503 6.82924C8.60503 6.78398 8.59026 6.75929 8.53563 6.75047C8.41804 6.73166 8.30108 6.70638 8.18477 6.6811C8.1218 6.66758 8.09931 6.68345 8.10188 6.74577C8.10766 6.8751 8.10895 7.00443 8.10509 7.13376C8.10252 7.23487 8.03312 7.30424 7.92388 7.33069C7.82427 7.3548 7.72724 7.31894 7.66877 7.23605C7.63535 7.18961 7.62507 7.13846 7.62507 7.0832C7.62635 6.66347 7.62507 6.24373 7.62507 5.8234C7.62507 5.72229 7.62507 5.72229 7.51775 5.72229C7.32305 5.72229 7.12898 5.72229 6.93427 5.72229C5.45243 5.72229 3.97124 5.72229 2.4894 5.72229C2.417 5.72229 2.3808 5.75698 2.3808 5.82634C2.3808 7.04911 2.3808 8.27246 2.3808 9.49522L2.38016 9.49581ZM5.00068 5.27728C5.08872 5.27728 5.17676 5.27728 5.26479 5.27728C6.21327 5.27728 7.16175 5.27551 8.11023 5.27728C8.16935 5.27728 8.18799 5.26376 8.1867 5.20791C8.1822 5.02978 8.18156 4.85166 8.18413 4.67354C8.18477 4.61887 8.17385 4.59829 8.10573 4.59829C6.79483 4.60064 5.48392 4.60005 4.17301 4.59947C4.13317 4.59947 4.09269 4.60064 4.05349 4.59476C3.94039 4.57713 3.85557 4.49071 3.853 4.39548C3.85043 4.29554 3.93011 4.20148 4.03871 4.17503C4.09076 4.16209 4.14345 4.16033 4.19679 4.16033C5.31299 4.16033 6.42983 4.16033 7.54603 4.16209C7.61671 4.16209 7.63021 4.14446 7.62185 4.08391C7.58266 3.80114 7.4959 3.53131 7.36032 3.27442C6.87644 2.35617 5.7159 1.80945 4.59713 1.97053C4.0355 2.05107 3.5574 2.28092 3.15706 2.64481C2.71752 3.04456 2.45341 3.52661 2.38273 4.09449C2.37694 4.14387 2.38337 4.16503 2.44506 4.16268C2.55944 4.15857 2.67447 4.16033 2.78885 4.16151C2.88203 4.16268 2.97521 4.15269 3.0671 4.17797C3.16542 4.20501 3.23674 4.28731 3.23867 4.37725C3.2406 4.46661 3.17313 4.55361 3.07674 4.58359C3.02533 4.59947 2.97263 4.60123 2.91866 4.60064C2.58001 4.59947 2.242 4.60064 1.90335 4.59653C1.83973 4.59594 1.81338 4.60711 1.81595 4.67119C1.82174 4.84696 1.82366 5.02273 1.81981 5.1985C1.81852 5.26258 1.83523 5.2808 1.9072 5.2808C2.93858 5.27845 3.96931 5.27904 5.00068 5.27904V5.27728ZM1.90142 8.39944C1.90142 8.39944 1.89949 8.39944 1.89885 8.39944C1.89885 7.84567 1.89885 7.29131 1.89949 6.73754C1.89949 6.69462 1.89242 6.67405 1.83716 6.6858C1.72856 6.70873 1.61932 6.73225 1.50879 6.74459C1.42011 6.75517 1.3989 6.79338 1.39955 6.8704C1.40276 7.54174 1.40147 8.21249 1.40212 8.88384C1.40212 9.23303 1.40533 9.58163 1.40212 9.93083C1.40147 10.0043 1.42846 10.0355 1.50558 10.0466C1.6161 10.0631 1.72599 10.0831 1.8333 10.109C1.89692 10.1242 1.90399 10.1048 1.90399 10.0537C1.9027 9.50227 1.9027 8.95027 1.9027 8.39885L1.90142 8.39944ZM0.931733 8.40414C0.931733 8.40414 0.930448 8.40414 0.929805 8.40414C0.929805 8.35064 0.929805 8.29656 0.929805 8.24306C0.929163 7.97735 0.927878 7.71104 0.926592 7.44533C0.926592 7.41711 0.934304 7.38595 0.880325 7.38889C0.787148 7.3936 0.693971 7.39712 0.600794 7.39301C0.519183 7.38948 0.494122 7.4224 0.494764 7.49236C0.496692 7.68047 0.494122 7.868 0.494122 8.05612C0.494122 8.47351 0.495407 8.89089 0.493479 9.30769C0.493479 9.36824 0.509544 9.39881 0.582158 9.39646C0.680476 9.39352 0.779437 9.39469 0.877755 9.39763C0.92595 9.39881 0.933661 9.38058 0.933661 9.34061C0.931733 9.02845 0.932376 8.71571 0.932376 8.40355L0.931733 8.40414ZM9.07606 8.39473C9.07606 8.7016 9.07735 9.00905 9.07478 9.31592C9.07478 9.37471 9.08891 9.40057 9.15896 9.39528C9.23286 9.3894 9.30804 9.39234 9.38258 9.39234C9.50661 9.39175 9.50918 9.3894 9.50918 9.27888C9.50918 8.69866 9.50918 8.11843 9.50918 7.53821C9.50918 7.50882 9.50725 7.48001 9.50596 7.45062C9.50403 7.40888 9.48154 7.39124 9.43463 7.39242C9.33889 7.39418 9.24314 7.39477 9.14739 7.39007C9.08891 7.38772 9.0767 7.40947 9.0767 7.45885C9.07863 7.77101 9.07799 8.08258 9.07799 8.39473H9.07606ZM5.3856 1.1434C5.3856 1.1434 5.38367 1.1434 5.38239 1.1434C5.38239 1.07521 5.38303 1.00702 5.38239 0.938823C5.38175 0.87063 5.38496 0.802438 5.37147 0.734833C5.33676 0.560825 5.17804 0.43796 4.9904 0.4409C4.80405 0.444427 4.65432 0.566703 4.63312 0.744827C4.6042 0.989967 4.62476 1.23687 4.61769 1.4826C4.61641 1.53139 4.65047 1.52493 4.68067 1.52257C4.89594 1.50729 5.11121 1.50611 5.32648 1.52434C5.37082 1.52786 5.38753 1.51493 5.38624 1.47261C5.38303 1.36267 5.38496 1.25333 5.38496 1.1434H5.3856Z" fill="white"/>
<path d="M5.00261 10.4723C3.75018 10.4746 2.73423 9.54284 2.7323 8.39179C2.73102 7.25368 3.75275 6.32133 5.00261 6.3178C6.33858 6.31369 7.29991 7.35538 7.26842 8.40825C7.23115 9.66217 6.19142 10.4505 5.00197 10.4723H5.00261ZM5.04695 6.75694C4.09205 6.72284 3.26245 7.43063 3.2104 8.30479C3.15385 9.25596 3.98152 9.98374 4.92421 10.0361C5.77566 10.0831 6.75884 9.45348 6.79418 8.4494C6.82631 7.53939 6.02371 6.75517 5.04631 6.75694H5.04695Z" fill="white"/>
<path d="M5.00647 9.50521C4.83618 9.50521 4.66525 9.50345 4.49496 9.50521C4.37158 9.50698 4.27969 9.46288 4.218 9.36412C4.04449 9.08724 3.87035 8.81094 3.69492 8.53464C3.63259 8.43647 3.63451 8.34476 3.69749 8.246C3.86714 7.98146 4.03421 7.71516 4.19743 7.44709C4.26876 7.32952 4.37093 7.27896 4.51616 7.28014C4.84389 7.28308 5.17162 7.28249 5.49934 7.27896C5.63557 7.27779 5.72875 7.32599 5.7988 7.43475C5.97358 7.70517 6.1368 7.98205 6.30966 8.25364C6.37135 8.35064 6.37071 8.43882 6.30966 8.53523C6.1368 8.80977 5.96651 9.08548 5.79751 9.36177C5.73518 9.46347 5.64393 9.5105 5.51669 9.50815C5.3464 9.50521 5.17547 9.50756 5.00518 9.50756C5.00518 9.50639 5.00518 9.50521 5.00518 9.50462L5.00647 9.50521ZM5.00775 7.71633V7.71751C4.88245 7.71751 4.75778 7.71751 4.63247 7.71751C4.59585 7.71751 4.56886 7.72104 4.54765 7.75631C4.43005 7.94972 4.30989 8.14254 4.18779 8.33359C4.15888 8.37886 4.15823 8.41354 4.18844 8.45999C4.30732 8.64164 4.42299 8.82505 4.53351 9.0114C4.5605 9.05726 4.58942 9.07548 4.6434 9.07489C4.8908 9.07313 5.1382 9.07254 5.38624 9.07195C5.42159 9.07195 5.44151 9.06196 5.46014 9.03139C5.58095 8.83681 5.70433 8.64281 5.82964 8.45058C5.85663 8.40884 5.85342 8.37768 5.82707 8.33712C5.70498 8.14842 5.58545 7.95854 5.4685 7.76748C5.44601 7.73044 5.42095 7.71457 5.37532 7.71575C5.25258 7.7181 5.13049 7.71633 5.00775 7.71633Z" fill="white"/>
</svg>
