<svg width="14" height="16" viewBox="0 0 14 16" fill="none" xmlns="http://www.w3.org/2000/svg">
<path d="M13.6562 4.10212L13.5861 4.14315L13.3908 4.24915L13.1221 4.39275L6.99499 7.71108L4.3412 6.27331L10.495 2.97208L10.7654 2.82847L11.0341 2.68315L13.6562 4.10212ZM10.3181 2.29679L10.0494 2.44039L9.77897 2.584L3.62518 5.88694L0.874583 4.39446L0.607535 4.25086L0.408917 4.14315L0.340486 4.10383L7 0.5L10.3181 2.29679ZM14 4.68851V11.8945L7.3288 15.5V8.30431L13.4993 4.96376L13.7496 4.82699L13.9015 4.74493L14 4.68851ZM6.66118 8.30431V15.5L0 11.8945V4.69193L0.0884597 4.74322H0.0901288L0.250358 4.83041L0.500715 4.96547L6.66118 8.30431Z" fill="white"/>
</svg>
