<svg width="16" height="13" viewBox="0 0 15 12" fill="none" xmlns="http://www.w3.org/2000/svg">
<path d="M5.74396 0C7.49899 0 9.25402 0 11.0091 0C11.294 0 11.4738 0.183438 11.4844 0.486697C11.4856 0.515109 11.4844 0.542902 11.4844 0.571314C11.4844 3.93187 11.4832 7.29243 11.4856 10.6536C11.4856 11.1218 11.6248 11.5492 11.8822 11.9333C11.8927 11.9494 11.9157 11.963 11.9057 11.9852C11.8951 12.0087 11.8704 11.9951 11.8528 11.9951C9.57777 11.9957 7.30275 11.9963 5.02831 11.997C4.09351 11.997 3.15871 11.997 2.2239 11.9982C1.61637 11.9988 1.08757 11.7864 0.66159 11.3318C0.22386 10.8636 -0.000586406 10.2997 1.15059e-06 9.63574C0.00293894 6.60562 0.00176382 3.57611 0.00117626 0.54599C0.00117626 0.471256 0.00763939 0.397758 0.0287914 0.326112C0.0869596 0.127851 0.237374 0.00555873 0.434793 0.00123527C0.557005 -0.00123527 0.678629 0.00123527 0.800841 0.00123527C2.44835 0.00123527 4.09586 0.00123527 5.74337 0.00123527V0H5.74396ZM5.73926 5.5402C6.83035 5.53958 7.92144 5.53958 9.01254 5.53958C9.10537 5.53958 9.1982 5.54205 9.29045 5.53711C9.51607 5.52537 9.6894 5.34317 9.69763 5.10662C9.70233 4.97321 9.70057 4.8398 9.70057 4.70701C9.70057 4.20981 9.7035 3.71261 9.69821 3.2148C9.69528 2.95724 9.51431 2.7738 9.26871 2.76639C9.14415 2.76269 9.01959 2.76639 8.89561 2.76639C7.16761 2.76639 5.4396 2.76639 3.71101 2.76639C3.21041 2.76639 2.7104 2.76516 2.2098 2.76886C1.93659 2.77133 1.75856 2.96651 1.75856 3.25124C1.75856 3.85899 1.75856 4.46613 1.75856 5.07388C1.75856 5.21285 1.81203 5.32588 1.9078 5.41976C2.02296 5.5334 2.16574 5.5402 2.31145 5.5402C3.45366 5.5402 4.59587 5.5402 5.73867 5.5402H5.73926ZM5.73514 6.45553V6.458C4.98366 6.458 4.23159 6.458 3.4801 6.458C3.05295 6.458 2.62579 6.45615 2.19864 6.46109C1.96009 6.46356 1.77384 6.65009 1.75973 6.88788C1.74505 7.13061 1.90016 7.33567 2.13577 7.37643C2.2051 7.38816 2.27678 7.38569 2.34729 7.38569C4.57531 7.38569 6.80332 7.38569 9.03193 7.38569C9.11712 7.38569 9.2029 7.38755 9.2881 7.38322C9.62066 7.36469 9.8122 6.983 9.63946 6.68282C9.54251 6.51421 9.39386 6.45492 9.21231 6.45553C8.05305 6.45677 6.89381 6.45615 5.73456 6.45615L5.73514 6.45553ZM5.73808 9.23181C6.82624 9.23119 7.91498 9.23119 9.00313 9.23119C9.09597 9.23119 9.1888 9.23304 9.28105 9.22934C9.52371 9.21884 9.69998 9.02367 9.69939 8.76982C9.69939 8.51103 9.52136 8.31277 9.27811 8.30412C9.1512 8.2998 9.02429 8.30412 8.89737 8.30412C7.22813 8.30412 5.55888 8.30412 3.88963 8.30412C3.32616 8.30412 2.76211 8.30288 2.19864 8.30721C1.96009 8.30906 1.77384 8.4962 1.75973 8.73399C1.74505 8.97672 1.90016 9.18116 2.13636 9.22254C2.19864 9.23366 2.26268 9.23181 2.32614 9.23181C3.46365 9.23181 4.60057 9.23181 5.73808 9.23181Z" fill="white"/>
<path d="M12.3634 6.26407C12.3634 4.83115 12.3634 3.39823 12.3634 1.96532C12.3634 1.88708 12.3998 1.84776 12.4727 1.84735C13.156 1.84673 13.8393 1.84611 14.5226 1.8455C14.8088 1.8455 14.988 2.0277 14.9997 2.33034C15.0003 2.34825 14.9997 2.36616 14.9997 2.38408C14.9997 5.10106 14.9997 7.81804 14.9997 10.535C14.9997 10.9871 14.8658 11.3793 14.5279 11.6702C14.1084 12.0316 13.6372 12.0933 13.1425 11.8685C12.673 11.6548 12.4321 11.2583 12.3751 10.7308C12.3622 10.6135 12.3622 10.4955 12.3622 10.3775C12.3622 9.00637 12.3622 7.6346 12.3622 6.26345L12.3634 6.26407Z" fill="white"/>
<path d="M5.72457 4.61065C4.72161 4.61065 3.71806 4.61065 2.7151 4.61189C2.65458 4.61189 2.63578 4.59521 2.63696 4.53036C2.64048 4.29442 2.63696 4.05849 2.63872 3.82317C2.63931 3.69099 2.61169 3.69408 2.75858 3.69408C3.51535 3.69408 4.27213 3.69408 5.02831 3.69408C6.26336 3.69408 7.4984 3.69408 8.73345 3.69223C8.80513 3.69223 8.81923 3.71755 8.81864 3.78426C8.81629 4.03008 8.81688 4.27651 8.81982 4.52233C8.82099 4.59027 8.80513 4.61498 8.73403 4.61436C7.73107 4.61189 6.72753 4.61251 5.72457 4.61251V4.61065Z" fill="white"/>
</svg>
