<svg width="16" height="13" viewBox="0 0 16 13" fill="none" xmlns="http://www.w3.org/2000/svg">
<path d="M15.7864 2.0849C15.6432 1.95857 15.3608 1.95716 15.1835 2.08279C14.9841 2.22393 14.8028 2.39049 14.606 2.53587C14.3611 2.71725 14.1236 2.91062 13.8847 3.10118C13.5997 3.32772 13.3173 3.55779 13.0329 3.78434C12.8181 3.95513 12.602 4.12521 12.3845 4.29247C12.2567 4.39128 12.1376 4.50631 11.9911 4.57124C11.6425 4.72368 11.2691 4.59594 11.053 4.25507C10.4963 3.37642 9.94156 2.49635 9.38484 1.6177C9.1018 1.17167 8.81743 0.727049 8.53305 0.281724C8.46212 0.170216 8.35907 0.0883495 8.248 0.0403589C8.14562 -0.00339731 8.02451 -0.00692604 7.91009 0.00789461C7.75485 0.0276555 7.62304 0.100347 7.52066 0.224558C7.34936 0.432753 7.22424 0.676235 7.07502 0.901368C6.90841 1.15261 6.75518 1.41374 6.59392 1.66922C6.39853 1.97904 6.1998 2.28675 6.00375 2.59586C5.88799 2.77865 5.77491 2.96426 5.65915 3.14705C5.46243 3.45758 5.26303 3.76528 5.06831 4.07652C4.99672 4.19085 4.93516 4.31929 4.83746 4.40328C4.52297 4.67358 4.20715 4.73498 3.84381 4.4682C3.48717 4.20637 3.14391 3.92337 2.79529 3.64883C2.28073 3.24232 1.76684 2.8344 1.25229 2.42789C1.09839 2.30651 0.945826 2.183 0.786574 2.07008C0.745089 2.04115 0.710294 1.98045 0.658771 1.9868C0.594535 1.99527 0.531637 1.9868 0.468739 1.99316C0.166964 2.01997 -0.032436 2.3178 0.00436597 2.58951C0.0264471 2.75465 0.0532122 2.92121 0.0759625 3.08565C0.107411 3.31149 0.141537 3.53874 0.173655 3.76458C0.20778 4.00029 0.244582 4.23743 0.278708 4.47385C0.310157 4.69404 0.342275 4.91565 0.373724 5.13513C0.407849 5.37085 0.444651 5.60798 0.478776 5.84441C0.510225 6.0646 0.543012 6.2855 0.574461 6.50569C0.607918 6.73859 0.64472 6.97289 0.678176 7.20649C0.710294 7.42951 0.741743 7.65394 0.77453 7.87695C0.809994 8.11902 0.838097 8.36321 0.883598 8.60387C0.921069 8.80218 0.945826 9.00332 0.971922 9.20375C0.980621 9.27009 1.00872 9.29197 1.07028 9.29126C1.20344 9.29056 1.3366 9.29903 1.46975 9.29903C5.79967 9.29903 10.1296 9.29903 14.4595 9.29903C14.4923 9.29903 14.5257 9.29409 14.5585 9.29126C14.697 9.30679 14.8362 9.3075 14.9754 9.30185C15.0149 9.3075 15.0169 9.27574 15.0269 9.24821C15.0537 9.17482 15.0349 9.0986 15.045 9.02379C15.0838 8.93698 15.0778 8.841 15.0932 8.74925C15.1072 8.66598 15.1387 8.5827 15.1233 8.49518C15.1346 8.45072 15.1507 8.40626 15.1574 8.36109C15.1982 8.07809 15.2364 7.79438 15.2772 7.51138C15.3474 7.02935 15.4217 6.54803 15.492 6.06672C15.5776 5.48024 15.6586 4.89306 15.7449 4.30729C15.8245 3.76458 15.9061 3.22186 15.9898 2.67985C16.0266 2.43989 15.965 2.24017 15.787 2.08349L15.7864 2.0849Z" fill="white"/>
<path d="M15.0229 11.0076C15.0229 10.8792 15.0075 10.7493 15.0162 10.6244C15.0242 10.515 14.9861 10.5214 14.9158 10.5214C12.612 10.5221 10.3076 10.5221 8.00377 10.5221C5.73275 10.5221 3.46241 10.5221 1.1914 10.5221C1.13853 10.5221 1.08567 10.5171 1.03348 10.52C0.995342 10.5221 0.963893 10.5376 0.967907 10.5898C0.974599 10.6717 0.983966 10.7529 0.983966 10.8347C0.985974 11.2885 0.985305 11.743 0.985305 12.1968C0.985305 12.3415 1.00872 12.4798 1.08434 12.6047C1.2302 12.8461 1.43161 12.9887 1.70796 12.9964C1.86922 13.0007 2.03048 13 2.19174 13C5.7187 13 9.24567 13 12.7726 13C13.2705 13 13.7676 13 14.2654 12.9964C14.3832 12.9957 14.5017 12.9774 14.606 12.9181C14.8971 12.7522 15.0262 12.4869 15.0236 12.1418C15.0209 11.7642 15.0236 11.3859 15.0229 11.0083V11.0076Z" fill="white"/>
</svg>
