<svg width="16" height="13" viewBox="0 0 14 14" fill="none" xmlns="http://www.w3.org/2000/svg">
<path fill-rule="evenodd" clip-rule="evenodd" d="M13.8998 5.83264C13.3232 2.46365 10.4136 0.00164795 6.89953 0C5.36169 0.0188293 3.88769 0.528564 2.60595 1.56525C0.0544343 3.62918 -0.66749 7.04483 0.635489 9.89264C0.808951 10.2719 0.854483 10.6409 0.748892 11.0422C0.577383 11.6935 0.416006 12.3471 0.25463 13.0009L0.204947 13.2019C0.0871491 13.6793 0.324454 13.9142 0.804923 13.7959C1.55907 13.6106 2.31212 13.4216 3.06554 13.2322C3.3966 13.1491 3.71325 13.1843 4.02184 13.3279C5.35107 13.9473 6.73754 14.1416 8.18737 13.8982C11.9712 13.2633 14.5493 9.62589 13.8998 5.83264ZM4.09093 8.18182C4.69335 8.18182 5.18175 7.69339 5.18175 7.09091C5.18175 6.4884 4.69335 6 4.09093 6C3.48839 6 2.99999 6.4884 2.99999 7.09091C2.99999 7.69339 3.48839 8.18182 4.09093 8.18182ZM8.09081 7.09091C8.09081 7.69339 7.60241 8.18182 6.99999 8.18182C6.39745 8.18182 5.90905 7.69339 5.90905 7.09091C5.90905 6.4884 6.39745 6 6.99999 6C7.60241 6 8.09081 6.4884 8.09081 7.09091ZM9.90917 8.18182C10.5116 8.18182 11 7.69339 11 7.09091C11 6.4884 10.5116 6 9.90917 6C9.30663 6 8.81823 6.4884 8.81823 7.09091C8.81823 7.69339 9.30663 8.18182 9.90917 8.18182Z" fill="white"/>
</svg>
