<svg width="14" height="16" viewBox="0 0 14 16" fill="none" xmlns="http://www.w3.org/2000/svg">
<path fill-rule="evenodd" clip-rule="evenodd" d="M2.94598 1.34583C4.04966 0.601583 5.35048 0.203964 6.68165 0.203964C8.01282 0.203964 9.31365 0.601583 10.4173 1.34583C11.521 2.09008 12.3772 3.14703 12.8762 4.38115C13.3751 5.61527 13.4941 6.9703 13.2178 8.27248C12.9816 9.38542 12.466 10.4164 11.7235 11.2701C11.7939 11.4494 11.8411 11.6379 11.8632 11.8311C11.9108 12.2478 11.8398 12.6696 11.6582 13.0478C11.4767 13.426 11.1921 13.7452 10.8371 13.9687C10.697 14.0569 10.5483 14.1288 10.3937 14.1835V15.0536C10.3937 15.4636 10.0613 15.796 9.65128 15.796H3.71203C3.30201 15.796 2.96963 15.4636 2.96963 15.0536V14.1835C2.81505 14.1288 2.66628 14.0569 2.52621 13.9687C2.17124 13.7452 1.8866 13.426 1.70507 13.0478C1.52354 12.6696 1.45251 12.2478 1.50015 11.8311C1.52223 11.6379 1.5694 11.4494 1.63977 11.2701C0.897335 10.4164 0.381666 9.38542 0.145518 8.27248C-0.130783 6.9703 -0.0118286 5.61527 0.487129 4.38115C0.986087 3.14703 1.8423 2.09008 2.94598 1.34583ZM6.68165 1.68878C5.6463 1.68878 4.63455 1.99803 3.77613 2.57689C2.91771 3.15576 2.25177 3.97783 1.86369 4.9377C1.47561 5.89757 1.38309 6.95148 1.59799 7.96429C1.81289 8.97709 2.32542 9.90262 3.06985 10.6222C3.34539 10.8885 3.37293 11.3208 3.13342 11.62C3.04602 11.7291 2.99123 11.8608 2.97536 11.9997C2.95948 12.1386 2.98315 12.2792 3.04366 12.4053C3.10417 12.5313 3.19905 12.6377 3.31738 12.7122C3.4357 12.7867 3.57267 12.8263 3.71249 12.8264C4.12233 12.8267 4.45444 13.159 4.45444 13.5688V14.3112H8.90887V13.5688C8.90887 13.159 9.24097 12.8267 9.65081 12.8264C9.79064 12.8263 9.9276 12.7867 10.0459 12.7122C10.1643 12.6377 10.2591 12.5313 10.3196 12.4053C10.3802 12.2792 10.4038 12.1386 10.388 11.9997C10.3721 11.8608 10.3173 11.7291 10.2299 11.62C9.99037 11.3208 10.0179 10.8885 10.2935 10.6222C11.0379 9.90262 11.5504 8.97709 11.7653 7.96429C11.9802 6.95148 11.8877 5.89757 11.4996 4.9377C11.1115 3.97783 10.4456 3.15576 9.58718 2.57689C8.72876 1.99803 7.71701 1.68878 6.68165 1.68878ZM2.96963 7.62956C2.96963 6.80953 3.6344 6.14475 4.45444 6.14475C5.27448 6.14475 5.93925 6.80953 5.93925 7.62956C5.93925 8.4496 5.27448 9.11438 4.45444 9.11438C3.6344 9.11438 2.96963 8.4496 2.96963 7.62956ZM7.42406 7.62956C7.42406 6.80953 8.08883 6.14475 8.90887 6.14475C9.72891 6.14475 10.3937 6.80953 10.3937 7.62956C10.3937 8.4496 9.72891 9.11438 8.90887 9.11438C8.08883 9.11438 7.42406 8.4496 7.42406 7.62956ZM6.68165 9.85678C6.96286 9.85678 7.21992 10.0157 7.34568 10.2672L7.71688 11.0096C7.83195 11.2397 7.81966 11.513 7.68438 11.7319C7.54911 11.9508 7.31016 12.084 7.05286 12.084H6.31045C6.05315 12.084 5.81419 11.9508 5.67892 11.7319C5.54365 11.513 5.53135 11.2397 5.64642 11.0096L6.01763 10.2672C6.14338 10.0157 6.40045 9.85678 6.68165 9.85678Z" fill="white"/>
</svg>
