<svg width="16" height="13" viewBox="0 0 12 12" fill="none" xmlns="http://www.w3.org/2000/svg">
<path d="M8.8322 0C9.18496 0.00141022 9.54946 0.0596992 9.90222 0.183328C10.1836 0.282044 10.2625 0.598402 10.0633 0.822627C10.0065 0.886557 9.94074 0.942966 9.88015 1.00361C9.42733 1.45628 8.97499 1.90991 8.52077 2.36164C8.47521 2.40677 8.45877 2.44673 8.4738 2.51395C8.53204 2.77672 8.5823 3.0409 8.63303 3.30508C8.64008 3.34222 8.65558 3.35773 8.69175 3.36478C8.97264 3.42072 9.25354 3.47713 9.53349 3.53589C9.57248 3.54388 9.5908 3.52554 9.61334 3.50298C10.1249 2.99013 10.6369 2.47775 11.1493 1.96537C11.2794 1.83516 11.4302 1.7844 11.6073 1.8582C11.7172 1.90379 11.7844 1.99076 11.8201 2.10169C11.9558 2.5257 12.038 2.95864 11.9826 3.40427C11.8417 4.54419 11.2813 5.40348 10.2479 5.92856C9.73829 6.18757 9.19106 6.28863 8.62035 6.24633C8.44749 6.23363 8.27604 6.20167 8.10788 6.15889C8.07641 6.1509 8.0534 6.1556 8.02944 6.17957C7.47188 6.74037 6.91385 7.3007 6.35535 7.86008C5.81188 8.40443 5.26794 8.9483 4.72307 9.49171C4.69582 9.51897 4.68408 9.54576 4.6869 9.58384C4.75876 10.6382 3.95554 11.7466 2.74272 11.9648C1.54587 12.1801 0.353711 11.3866 0.0690593 10.1954C-0.0370979 9.75213 -0.0248851 9.31308 0.13529 8.89377C0.466914 8.02743 1.09164 7.4939 2.01465 7.32984C2.14946 7.30587 2.28709 7.30916 2.42378 7.3148C2.45994 7.31621 2.48578 7.30493 2.51161 7.27907C3.61217 6.1791 4.7132 5.07913 5.81517 3.98057C5.84617 3.95002 5.85134 3.92229 5.84194 3.88233C5.7682 3.56926 5.7278 3.2529 5.7527 2.93043C5.85369 1.62645 6.68556 0.587591 7.83873 0.185679C8.15392 0.0756817 8.47896 0.0169226 8.83313 0H8.8322ZM2.35191 10.437C2.78452 10.4361 3.134 10.0892 3.13165 9.66281C3.12977 9.21624 2.78828 8.8698 2.3505 8.87027C1.91319 8.87027 1.56653 9.21248 1.56512 9.64589C1.56325 10.0929 1.90661 10.438 2.35144 10.437H2.35191Z" fill="white"/>
<path d="M8.37845 7.01066C8.46582 7.01818 8.55318 7.02712 8.64102 7.03323C8.67719 7.03605 8.70256 7.05391 8.72651 7.07835C8.80777 7.16015 8.88998 7.241 8.96983 7.32373C8.99613 7.351 9.02338 7.36275 9.06189 7.36275C9.33715 7.36134 9.61241 7.36416 9.88766 7.36087C10.0779 7.35852 10.2226 7.42997 10.3212 7.5959C10.5453 7.97337 10.7726 8.34849 10.9971 8.72596C11.2926 9.22188 11.5866 9.71875 11.8816 10.2147C11.9187 10.2767 11.9516 10.3402 11.9751 10.4093C12.0117 10.516 11.9897 10.6128 11.9324 10.705C11.9056 10.7482 11.8708 10.7853 11.8347 10.8215C11.5016 11.1544 11.1691 11.4867 10.836 11.8195C10.8238 11.8317 10.8111 11.8439 10.798 11.8562C10.6214 12.0221 10.472 12.0409 10.2634 11.9192C9.97879 11.7532 9.69461 11.5863 9.41184 11.4171C8.80824 11.0547 8.20183 10.697 7.60106 10.3298C7.43102 10.226 7.35492 10.0835 7.35633 9.88986C7.35821 9.61439 7.35633 9.33893 7.35727 9.06347C7.35727 9.02868 7.34929 9.0033 7.32251 8.97745C7.17126 8.83031 7.02424 8.67942 6.87346 8.53182C6.84011 8.49938 6.8434 8.48199 6.87581 8.45002C7.346 7.98136 7.81478 7.51129 8.28309 7.04028C8.31222 7.01113 8.34228 7.00643 8.37798 7.01066H8.37845Z" fill="white"/>
<path d="M0.00987839 2.27985C0.0117573 1.98512 0.106171 1.72188 0.306273 1.50611C0.682051 1.10091 1.07145 0.708399 1.47635 0.332341C1.95077 -0.107647 2.6267 -0.0977751 3.10159 0.343623C3.33927 0.564087 3.56286 0.799123 3.79255 1.02758C4.19792 1.43137 4.60141 1.83704 5.00678 2.24037C5.03919 2.2728 5.05047 2.30101 5.04013 2.34754C4.96639 2.67753 4.96169 3.01364 4.96873 3.34927C4.97061 3.44281 4.98377 3.53589 4.99363 3.62896C4.99739 3.66751 4.98471 3.69383 4.95652 3.7211C4.85647 3.81699 4.75642 3.91288 4.66248 4.01489C4.62255 4.05861 4.60329 4.04968 4.56759 4.01348C4.18806 3.63084 3.80711 3.25008 3.42664 2.86838C3.04757 2.48809 2.66757 2.10875 2.28944 1.72752C2.1969 1.63444 2.09826 1.56299 1.95829 1.56816C1.792 1.57427 1.66894 1.65042 1.59895 1.79803C1.52802 1.94751 1.55151 2.09417 1.66189 2.21733C1.75818 2.32498 1.86387 2.42369 1.96627 2.5257C2.64784 3.20825 3.3294 3.89032 4.01238 4.57193C4.04902 4.60859 4.04808 4.6288 4.01144 4.665C3.66948 5.00486 3.3294 5.34661 2.9898 5.68929C2.96255 5.71655 2.94705 5.71702 2.92075 5.68976C2.84465 5.61126 2.76621 5.5351 2.6887 5.45801C1.94325 4.71248 1.19828 3.966 0.452826 3.22094C0.275271 3.04372 0.1259 2.84958 0.0554414 2.60326C0.0249095 2.4975 0.00987839 2.38985 0.0108178 2.27938L0.00987839 2.27985Z" fill="white"/>
</svg>
