<svg width="16" height="13" viewBox="0 0 18 12" fill="none" xmlns="http://www.w3.org/2000/svg">
<path d="M3.52286 7.23665C2.56826 6.6934 1.95852 5.91206 1.78775 4.82975C1.62616 3.80528 1.88188 2.88142 2.57743 2.11014C3.83607 0.713447 5.90187 0.601108 7.28796 1.96427C8.07347 2.73639 8.385 3.70552 8.22174 4.79538C8.05847 5.88523 7.46289 6.69424 6.4808 7.23162C6.84315 7.3557 7.17468 7.4957 7.48621 7.6793C8.71737 8.40699 9.52453 9.45828 9.87688 10.8558C9.92853 11.0612 9.96435 11.2691 9.991 11.4787C10.0376 11.8476 9.9052 11.9985 9.52703 11.9985C7.55368 11.9985 5.57951 11.9985 3.60616 11.9985C2.57076 11.9985 1.53619 11.9993 0.500791 11.9993C0.418325 11.9993 0.335859 12.0052 0.25506 11.9767C0.0801326 11.9147 -0.0106629 11.7956 0.000998924 11.6061C0.0226566 11.2515 0.0892955 10.9044 0.201749 10.5674C0.739025 8.95863 1.80441 7.86374 3.38709 7.27773C3.42541 7.26348 3.46539 7.25342 3.52286 7.23665Z" fill="white"/>
<path d="M10.6013 10.3146C10.673 10.076 10.7034 9.82846 10.6868 9.58384C10.684 9.54576 10.6957 9.51897 10.7229 9.4917C11.2678 8.9483 11.8118 8.40442 12.3552 7.86008C12.9137 7.30069 13.4718 6.74037 14.0293 6.17957C14.0533 6.1556 14.0763 6.1509 14.1078 6.15889C14.2759 6.20166 14.4474 6.23363 14.6202 6.24632C15.1909 6.28863 15.7382 6.18756 16.2478 5.92855C17.2812 5.40348 17.8416 4.54419 17.9825 3.40426C18.0379 2.95863 17.9557 2.5257 17.82 2.10169C17.7843 1.99075 17.7171 1.90379 17.6072 1.85819C17.4301 1.78439 17.2793 1.83516 17.1492 1.96537C16.6367 2.47775 16.1247 2.99013 15.6132 3.50298C15.5907 3.52554 15.5724 3.54387 15.5334 3.53588C15.2534 3.47712 14.9725 3.42071 14.6916 3.36478C14.6555 3.35773 14.64 3.34221 14.6329 3.30508L14.6247 3.26254C14.5768 3.01258 14.5288 2.76257 14.4737 2.51394C14.4586 2.44672 14.4751 2.40677 14.5206 2.36164C14.851 2.03307 15.1804 1.7035 15.5097 1.37403L15.88 1.0036C15.9021 0.981557 15.9248 0.960073 15.9475 0.938582C15.9872 0.900959 16.027 0.86331 16.0632 0.822623C16.2624 0.598399 16.1835 0.28204 15.9021 0.183325C15.5496 0.0597966 15.1854 0.00150194 14.8329 0C14.4788 0.0169273 14.1538 0.0756859 13.8386 0.185675C12.6854 0.587587 11.8536 1.62645 11.7526 2.93043C11.7277 3.2529 11.7681 3.56926 11.8418 3.88233C11.8512 3.92228 11.846 3.95002 11.815 3.98057C10.7131 5.07913 9.61205 6.1791 8.51149 7.27907C8.48566 7.30493 8.45982 7.31621 8.42365 7.3148C8.28907 7.30924 8.15357 7.30597 8.02075 7.32875C9.24441 8.05527 10.1096 9.05713 10.6013 10.3146Z" fill="white"/>
<path d="M8.83286 5.60092C8.93341 5.32965 9.00684 5.04158 9.05294 4.73703C9.10959 4.36136 9.11963 3.99626 9.084 3.6445C9.39322 3.95374 9.70259 4.26288 10.0123 4.57192C10.0489 4.60859 10.048 4.6288 10.0113 4.665C9.66936 5.00486 9.32928 5.3466 8.98967 5.68929C8.96243 5.71655 8.94693 5.71702 8.92062 5.68976C8.89165 5.65986 8.86233 5.63031 8.83286 5.60092Z" fill="white"/>
<path d="M8.45641 1.89575C8.29319 1.65074 8.09961 1.41835 7.87622 1.20016C7.6534 0.982695 7.41339 0.792907 7.15999 0.632351C7.26435 0.531254 7.36975 0.431227 7.47623 0.332338C7.95065 -0.10765 8.62658 -0.0977787 9.10147 0.343619C9.26623 0.496447 9.42422 0.656276 9.58216 0.816062C9.65206 0.886774 9.72196 0.957491 9.79243 1.02758C9.98316 1.21757 10.1735 1.40798 10.3638 1.59836C10.5779 1.81257 10.7921 2.02684 11.0067 2.24036C11.0391 2.2728 11.0503 2.301 11.04 2.34754C10.9663 2.67753 10.9616 3.01363 10.9686 3.34926C10.9701 3.42176 10.9783 3.49398 10.9865 3.56613C10.9889 3.58707 10.9913 3.60802 10.9935 3.62896C10.9973 3.6675 10.9846 3.69383 10.9564 3.72109C10.8563 3.81699 10.7563 3.91288 10.6624 4.01489C10.6224 4.0586 10.6032 4.04967 10.5675 4.01348C10.3019 3.74571 10.0356 3.47887 9.76927 3.21199L9.0473 2.48836C8.8502 2.29095 8.65311 2.09355 8.45641 1.89575Z" fill="white"/>
<path d="M14.4648 7.01841C14.5234 7.02377 14.5821 7.02913 14.6409 7.03322C14.6771 7.03604 14.7024 7.05391 14.7264 7.07835L14.8016 7.15369C14.858 7.21009 14.9144 7.26646 14.9697 7.32373C14.996 7.35099 15.0233 7.36274 15.0618 7.36274C15.1743 7.36217 15.2868 7.3623 15.3993 7.36243C15.562 7.36262 15.7249 7.36281 15.8875 7.36086C16.0778 7.35851 16.2225 7.42996 16.3211 7.5959C16.439 7.79457 16.5579 7.9926 16.6767 8.19066C16.7837 8.3689 16.8907 8.54716 16.997 8.72595C17.1648 9.0075 17.332 9.28934 17.4993 9.57114L17.4999 9.57221C17.6271 9.78644 17.7542 10.0006 17.8815 10.2147C17.9186 10.2767 17.9515 10.3402 17.975 10.4093C18.0116 10.516 17.9895 10.6128 17.9322 10.705C17.9055 10.7482 17.8707 10.7853 17.8345 10.8215L16.8359 11.8195C16.8237 11.8317 16.811 11.8439 16.7979 11.8562C16.6213 12.0221 16.4719 12.0409 16.2633 11.9192C15.9787 11.7532 15.6945 11.5863 15.4117 11.4171C15.2105 11.2963 15.009 11.176 14.8075 11.0558C14.4045 10.8152 14.0015 10.5746 13.6009 10.3298C13.4309 10.226 13.3548 10.0835 13.3562 9.88985C13.3573 9.73245 13.3571 9.57504 13.357 9.41763C13.3569 9.29958 13.3567 9.18152 13.3571 9.06347C13.3571 9.02868 13.3492 9.0033 13.3224 8.97744C13.2421 8.89929 13.1629 8.82009 13.0838 8.74087C13.0139 8.67096 12.944 8.601 12.8733 8.53181C12.84 8.49938 12.8433 8.48199 12.8757 8.45002C13.3459 7.98136 13.8147 7.51129 14.283 7.04027C14.3121 7.01113 14.3422 7.00643 14.3779 7.01066C14.4066 7.01314 14.436 7.01578 14.4648 7.01841Z" fill="white"/>
</svg>
