<svg width="16" height="13" viewBox="0 0 16 13" fill="none" xmlns="http://www.w3.org/2000/svg">
<path d="M7.81055 1.98598C7.19743 1.83975 6.89583 1.38609 6.93719 0.938623C6.99563 0.309796 7.5062 -0.0110756 8.03055 0.000291821C8.51741 0.0111426 9.0142 0.341315 9.06492 0.944823C9.10021 1.3649 8.82563 1.863 8.17336 1.97874C8.17336 1.98443 8.17225 1.99011 8.17225 1.99528C8.22849 1.99528 8.28473 1.99373 8.34042 1.99528C8.67676 2.00458 9.01144 2.03972 9.34722 2.064C9.73098 2.0919 10.1092 2.15597 10.4819 2.24123C10.8569 2.327 11.223 2.44068 11.572 2.59982C11.7551 2.68301 11.9365 2.77033 12.1228 2.84577C12.3555 2.94033 12.5953 3.0168 12.8561 3.01163C12.9637 3.00957 13.0596 2.9641 13.1644 2.95324C13.3292 2.93619 13.483 2.87987 13.6336 2.81632C13.9898 2.66596 14.3724 2.7786 14.5191 3.09482C14.6569 3.39347 14.5919 3.74225 14.2235 3.89933C13.9468 4.01713 13.6656 4.12461 13.3502 4.14631C13.4185 4.26877 13.4847 4.38503 13.5492 4.50232C13.8293 5.01282 14.1072 5.52384 14.3884 6.03331C14.6602 6.52572 14.9348 7.01659 15.2077 7.50849C15.2888 7.65472 15.3687 7.80146 15.4459 7.94975C15.4685 7.99316 15.4978 8.00866 15.5474 8.00556C15.6042 8.00194 15.6621 8.00452 15.7189 8.00452C15.9521 8.00452 16.0486 8.14093 15.9769 8.35123C15.8027 8.8607 15.4393 9.21722 14.9591 9.48539C14.5268 9.72669 14.0592 9.87757 13.563 9.93854C13.2647 9.97523 12.9681 10.0357 12.6626 10.0145C12.5226 10.0047 12.388 9.96541 12.2491 9.95921C12.0352 9.94991 11.8267 9.91167 11.6216 9.85897C11.1359 9.73393 10.6821 9.54481 10.2928 9.24099C9.96862 8.98833 9.73539 8.67469 9.63394 8.28561C9.59203 8.12492 9.68962 8.01021 9.86551 8.00504C9.92506 8.00349 9.98516 7.99884 10.0442 8.00607C10.1186 8.01486 10.1577 7.98334 10.1892 7.92599C10.2978 7.72551 10.4092 7.52606 10.5194 7.32661C10.6606 7.07188 10.8023 6.81766 10.944 6.56344C11.1756 6.1475 11.4116 5.73414 11.6376 5.31612C11.8328 4.95495 12.0357 4.59791 12.2342 4.2388C12.2794 4.15716 12.2789 4.15044 12.1785 4.14734C11.9298 4.13856 11.6889 4.08741 11.4485 4.03677C11.3498 4.0161 11.2517 3.98355 11.1552 3.951C10.8348 3.84352 10.5178 3.72778 10.198 3.61876C10.0375 3.56399 9.87433 3.51593 9.70727 3.4777C9.51925 3.43481 9.33289 3.40329 9.13881 3.40588C9.07926 3.40691 9.07209 3.42344 9.07264 3.47046C9.07374 3.98303 9.07319 4.49612 9.07319 5.00869C9.07319 6.97577 9.07319 8.94285 9.07264 10.9099C9.07264 10.9621 9.0765 10.9864 9.14542 10.9993C9.41614 11.05 9.66867 11.1388 9.85724 11.3435C9.94325 11.437 10.0067 11.5403 10.0635 11.6519C10.1158 11.7553 10.1291 11.8596 10.1302 11.9681C10.1307 12.0172 10.1577 12.0152 10.1963 12.0152C10.5602 12.0162 10.9263 11.9966 11.288 12.026C11.7622 12.0648 12.1559 12.3862 12.2529 12.8186C12.2937 12.9995 12.2904 13 12.0991 13C9.34116 13 6.58266 13 3.8247 13C3.73538 13 3.73207 13 3.74034 12.9163C3.77673 12.5515 3.97192 12.2833 4.30991 12.103C4.43948 12.0338 4.57677 12.0126 4.72509 12.0152C4.97927 12.0203 5.23345 12.0126 5.48764 12.0126C5.58137 12.0126 5.6751 12.0177 5.76938 12.0198C5.86863 12.0224 5.87029 12.0219 5.87745 11.9309C5.90778 11.5651 6.11013 11.3037 6.44261 11.1254C6.57273 11.0556 6.72105 11.0298 6.86606 11.0019C6.91072 10.9936 6.93002 10.9838 6.93002 10.9353C6.92836 8.8266 6.92892 6.71794 6.92892 4.60927C6.92892 4.2295 6.92726 3.84972 6.93002 3.46995C6.93002 3.41466 6.91293 3.40536 6.85724 3.40536C6.49168 3.40536 6.14983 3.50457 5.81184 3.61876C5.64643 3.67508 5.48102 3.73191 5.31726 3.79134C5.08072 3.87659 4.84253 3.95823 4.59938 4.02333C4.35788 4.08792 4.11086 4.13443 3.85779 4.14528C3.72435 4.15096 3.72435 4.15664 3.78666 4.26825C4.11803 4.86659 4.44941 5.46493 4.78133 6.06327C4.96549 6.39603 5.14579 6.73034 5.33491 7.06051C5.49149 7.33385 5.6365 7.61286 5.79089 7.88723C5.80136 7.90635 5.81515 7.92392 5.82452 7.94304C5.84878 7.99212 5.88683 8.01021 5.94527 8.00607C6.00923 8.00142 6.07374 8.00401 6.1377 8.00556C6.31248 8.00969 6.41614 8.1275 6.37258 8.28561C6.29208 8.57703 6.14266 8.83435 5.91991 9.05395C5.54939 9.41926 5.0923 9.64712 4.58504 9.79851C4.38434 9.85845 4.1842 9.92511 3.97412 9.93957C3.69844 9.95869 3.42882 10.0274 3.14872 10.0176C2.96898 10.0114 2.79474 9.97523 2.6172 9.96179C2.42036 9.94732 2.22738 9.91632 2.03771 9.86724C1.84198 9.81608 1.64845 9.75976 1.46098 9.68587C1.22996 9.59493 1.01327 9.48074 0.810915 9.34278C0.439843 9.09012 0.163607 8.76976 0.0290729 8.3533C-0.000701073 8.26133 -0.0282696 8.16677 0.0588469 8.08151C0.11233 8.02933 0.174635 8.00711 0.248518 8.00556C0.32185 8.00452 0.395183 8.00297 0.468515 8.00607C0.511522 8.00814 0.533576 7.99316 0.552874 7.9575C0.735378 7.62165 0.920087 7.28682 1.10424 6.952C1.25036 6.68538 1.39592 6.41825 1.54313 6.15215C1.69972 5.86899 1.85962 5.58739 2.01621 5.30424C2.22132 4.93376 2.42477 4.56225 2.63044 4.19178C2.65139 4.15406 2.64422 4.14528 2.60066 4.14269C2.42533 4.13287 2.25606 4.08947 2.09506 4.03212C1.96438 3.98562 1.8315 3.93756 1.71185 3.86367C1.46153 3.70866 1.38875 3.487 1.43948 3.22606C1.48634 2.9827 1.65727 2.83544 1.90814 2.77395C2.06087 2.73623 2.21415 2.75018 2.35696 2.8158C2.61996 2.93619 2.90061 2.99561 3.18952 3.00853C3.37975 3.01732 3.56501 2.96255 3.74145 2.89744C4.0436 2.78583 4.32645 2.63392 4.62695 2.51921C4.85466 2.43189 5.08734 2.35749 5.32553 2.29548C5.52844 2.24278 5.73189 2.19421 5.93755 2.15907C6.33619 2.0919 6.73814 2.04953 7.1434 2.03041C7.3667 2.02008 7.58946 1.99476 7.81276 1.98598H7.81055ZM11.1998 8.00556C11.239 8.00556 11.2638 8.00556 11.2886 8.00556C11.5797 8.00556 11.8703 8.00556 12.1614 8.00556C12.892 8.00556 13.6225 8.00556 14.3531 8.00556C14.4242 8.00556 14.4292 8.00039 14.3917 7.9451C14.3448 7.87638 14.3073 7.80301 14.2665 7.73119C14.1072 7.44959 13.9473 7.16798 13.7869 6.88638C13.6452 6.63681 13.5023 6.38828 13.3601 6.13871C13.2267 5.90465 13.0943 5.67006 12.9609 5.436C12.9135 5.35229 12.8655 5.26859 12.812 5.17558C12.2728 6.12218 11.7396 7.05793 11.1998 8.00556ZM3.19118 5.17765C2.65249 6.12218 2.11821 7.05896 1.58008 8.00246H4.80118C4.26359 7.05896 3.72987 6.12269 3.19118 5.17765Z" fill="white"/>
</svg>
