<svg width="16" height="13" viewBox="0 0 12 12" fill="none" xmlns="http://www.w3.org/2000/svg">
<path d="M5.9933 11.9994C4.4215 11.9994 2.84913 11.9988 1.27733 12C1.0067 12 0.7937 11.8996 0.658667 11.6448C0.602168 11.5385 0.589739 11.4209 0.589739 11.3015C0.589739 9.78994 0.589739 8.27836 0.589739 6.76678C0.589739 6.35755 0.589174 5.94833 0.590304 5.53851C0.590304 5.48446 0.579569 5.44051 0.546234 5.39656C0.288034 5.0586 0.110062 4.68026 0.0343538 4.25203C-0.0136703 3.98 -0.0176252 3.71451 0.0631683 3.44308C0.304984 2.63294 0.533805 1.81924 0.763756 1.00554C0.81291 0.830925 0.862629 0.6569 0.913478 0.482875C0.979582 0.256583 1.11744 0.106316 1.33101 0.0296971C1.40389 0.00296971 1.4779 0.00178183 1.55305 0.00178183C4.51416 0.00118788 7.47527 0.00237577 10.4364 0C10.7793 0 11.0002 0.206098 11.0878 0.506632C11.3579 1.43081 11.6053 2.36211 11.885 3.28331C11.9116 3.37003 11.9336 3.45793 11.9596 3.54524C12.0251 3.76678 11.9986 3.98891 11.9664 4.21164C11.9291 4.46941 11.8545 4.71471 11.737 4.94457C11.6539 5.10731 11.5539 5.25995 11.4432 5.40368C11.4121 5.44348 11.4019 5.48149 11.4019 5.53019C11.4025 7.45872 11.4031 9.38725 11.4025 11.3152C11.4025 11.6585 11.2166 11.9079 10.9059 11.9852C10.8618 11.9958 10.8177 11.9964 10.7731 11.9964C9.17984 11.9964 7.58657 11.9964 5.9933 11.9964V12V11.9994ZM5.99443 10.7355C7.36001 10.7355 8.72559 10.7355 10.0912 10.7355C10.1121 10.7355 10.1335 10.7337 10.1544 10.7355C10.1957 10.7397 10.2081 10.7206 10.2025 10.6791C10.1985 10.65 10.2002 10.6203 10.2002 10.5906C10.2002 9.25896 10.2002 7.92734 10.2002 6.59572C10.2002 6.49713 10.2002 6.39854 10.2025 6.29994C10.2036 6.25361 10.1906 6.2352 10.1454 6.24946C10.1234 6.25599 10.0991 6.25599 10.0759 6.26074C9.8019 6.31538 9.52788 6.32667 9.25047 6.28212C8.70751 6.19481 8.24761 5.94001 7.86511 5.529C7.79053 5.44882 7.80805 5.44942 7.72951 5.53079C7.11424 6.17224 6.38088 6.42883 5.52605 6.25955C5.02265 6.15977 4.59721 5.90141 4.24522 5.51059C4.20906 5.4708 4.18872 5.46189 4.14635 5.50643C3.50735 6.18769 2.74122 6.43655 1.84797 6.24411C1.80051 6.23401 1.78243 6.23698 1.78356 6.29697C1.79938 7.14037 1.78865 7.98377 1.79091 8.82716C1.7926 9.42883 1.79091 10.0305 1.79091 10.6322C1.79091 10.7361 1.78921 10.7361 1.89034 10.7361C3.25818 10.7361 4.62603 10.7361 5.99443 10.7361V10.7355Z" fill="white"/>
</svg>
