<svg width="16" height="13" viewBox="0 0 18 12" fill="none" xmlns="http://www.w3.org/2000/svg">
<path d="M10.8476 11.0845C10.9057 11.3124 10.9503 11.5548 10.9848 11.8244C10.9898 11.8631 10.9976 11.9246 10.9996 12H13.9058V7.81176H17.9999V4.21176H13.9058V0H10.094V4.21176H9.10216C9.09611 4.3843 9.07974 4.55948 9.05297 4.73703C8.90304 5.72746 8.46415 6.54359 7.74268 7.17452C7.82627 7.21719 7.90805 7.26258 7.98711 7.30888C8.25137 7.46386 8.49909 7.63155 8.73014 7.81176H10.094V9.30816C10.4307 9.84094 10.6824 10.4338 10.8476 11.0845Z" fill="white"/>
<path d="M3.52286 7.23666C2.56826 6.69341 1.95852 5.91206 1.78775 4.82975C1.62616 3.80529 1.88188 2.88143 2.57743 2.11014C3.83607 0.71345 5.90187 0.601112 7.28796 1.96427C8.07347 2.73639 8.385 3.70552 8.22174 4.79538C8.05847 5.88524 7.46289 6.69424 6.4808 7.23163C6.84315 7.3557 7.17468 7.49571 7.48621 7.67931C8.71737 8.407 9.52453 9.45829 9.87688 10.8558C9.92853 11.0612 9.96435 11.2691 9.991 11.4787C10.0376 11.8476 9.9052 11.9985 9.52703 11.9985C7.55368 11.9985 5.57951 11.9985 3.60616 11.9985C2.57076 11.9985 1.53619 11.9993 0.500791 11.9993C0.418325 11.9993 0.335859 12.0052 0.25506 11.9767C0.0801326 11.9147 -0.0106629 11.7956 0.000998924 11.6061C0.0226566 11.2515 0.0892955 10.9044 0.201749 10.5674C0.739025 8.95863 1.80441 7.86374 3.38709 7.27774C3.42541 7.26348 3.46539 7.25343 3.52286 7.23666Z" fill="white"/>
</svg>
