<svg width="16" height="13" viewBox="0 0 12 13" fill="none" xmlns="http://www.w3.org/2000/svg">
<path d="M1.96096 0.0544621C1.98677 0.0718133 2.00855 0.0861026 2.02979 0.100902C3.23612 0.929933 4.51882 1.00648 5.86334 0.44665C5.94884 0.411183 6.01067 0.408121 6.09805 0.44665C7.48075 1.05292 8.78226 0.915899 9.99667 0.0462969C10.0752 -0.00983939 10.1139 -0.0223425 10.19 0.0506347C10.7691 0.607149 11.3528 1.15958 11.938 1.71048C12.005 1.77351 12.0219 1.81689 11.9684 1.90262C11.4778 2.68802 11.2108 3.54103 11.1597 4.45095C11.1318 4.95031 11.2753 5.42772 11.4307 5.89876C11.5845 6.36418 11.7964 6.81301 11.8974 7.29323C12.112 8.31313 11.8375 9.21386 11.1145 9.98675C10.6548 10.4785 10.1152 10.8903 9.54983 11.2661C9.18151 11.5109 8.74892 11.641 8.32683 11.7811C7.74718 11.9732 7.19093 12.2161 6.6414 12.4728C6.40212 12.5846 6.19564 12.7425 6.04213 12.9536C5.99804 13.0143 5.97922 13.0163 5.93244 12.9546C5.7472 12.7106 5.48856 12.5583 5.21353 12.4157C4.57017 12.0824 3.85556 11.9209 3.19392 11.6303C2.24218 11.2123 1.42622 10.6293 0.749786 9.87754C0.213427 9.28148 -0.0226243 8.5665 0.00184116 7.788C0.0182411 7.27154 0.172024 6.7755 0.356725 6.28992C0.510239 5.88651 0.64816 5.47901 0.743065 5.0585C0.871038 4.4905 0.789307 3.93373 0.651118 3.38028C0.52879 2.89036 0.336561 2.42443 0.0827655 1.98249C0.038405 1.90543 0.0432443 1.86128 0.110188 1.79826C0.702199 1.242 1.29018 0.681657 1.8795 0.122591C1.90423 0.099116 1.93219 0.0784476 1.96096 0.0544621ZM3.94347 6.50018C3.94347 7.45654 3.94509 8.41264 3.94105 9.369C3.94052 9.47157 3.96364 9.50781 4.07924 9.50551C4.44192 9.49837 4.8046 9.49862 5.16728 9.50551C5.28128 9.50755 5.31892 9.48459 5.31784 9.36747C5.31139 8.67903 5.3173 7.99034 5.31193 7.30191C5.31112 7.19372 5.33344 7.16004 5.45603 7.16029C5.94346 7.1608 6.43169 7.18683 6.91751 7.1136C7.5563 7.0174 8.01738 6.70482 8.26419 6.1307C8.41636 5.77679 8.4419 5.4045 8.40426 5.02813C8.34135 4.39584 7.823 3.73215 7.12076 3.60278C6.8831 3.5589 6.64435 3.52547 6.40266 3.51475C5.62837 3.48081 4.85354 3.50659 4.07897 3.4951C3.96337 3.49332 3.94052 3.52904 3.94105 3.63136C3.94509 4.58772 3.94347 5.54382 3.94347 6.50018Z" fill="white"/>
<path d="M5.28719 5.35194C5.28719 5.09244 5.28719 4.83319 5.28719 4.57369C5.28719 4.52546 5.28128 4.48055 5.35898 4.48285C5.70795 4.4928 6.05799 4.46167 6.40588 4.50887C6.71829 4.55123 6.99897 4.82757 7.03688 5.12382C7.05435 5.26008 7.05543 5.39685 7.02559 5.5303C6.9288 5.96536 6.69114 6.13478 6.19349 6.18964C5.92787 6.21899 5.6566 6.20062 5.38801 6.20955C5.3001 6.21235 5.28477 6.17842 5.28585 6.10442C5.28988 5.85359 5.28746 5.60277 5.28746 5.35168L5.28719 5.35194Z" fill="white"/>
</svg>
