<svg width="16" height="13" viewBox="0 0 16 13" fill="none" xmlns="http://www.w3.org/2000/svg">
<path id="Vector (Stroke)" fill-rule="evenodd" clip-rule="evenodd" d="M14.6687 0.935086C14.8519 1.0743 14.9594 1.29114 14.9594 1.5212V10.3557C14.9594 10.579 14.8581 10.7902 14.6839 10.93C14.5097 11.0697 14.2815 11.1228 14.0635 11.0744L7.99594 9.72601C7.89111 10.0778 7.72153 10.4071 7.49573 10.6969C7.25756 11.0026 6.96151 11.2584 6.62448 11.4497C6.28746 11.641 5.91606 11.764 5.53149 11.8117C5.14691 11.8595 4.7567 11.831 4.38313 11.728C4.00956 11.6249 3.65995 11.4493 3.35425 11.2111C3.04855 10.9729 2.79276 10.6769 2.60147 10.3399C2.41019 10.0029 2.28716 9.63145 2.23941 9.24688C2.20641 8.98114 2.20981 8.7127 2.24906 8.44893L0.811792 8.12953C0.474949 8.05468 0.235291 7.75592 0.235291 7.41086V5.20224C0.235291 4.87153 0.455811 4.5814 0.774456 4.49289L14.0262 0.811853C14.2478 0.750278 14.4856 0.795869 14.6687 0.935086ZM3.69369 8.76995C3.68613 8.8682 3.6884 8.96719 3.7006 9.06545C3.72453 9.25814 3.78617 9.44422 3.88201 9.61309C3.97785 9.78195 4.10601 9.93028 4.25918 10.0496C4.41235 10.1689 4.58752 10.2569 4.77469 10.3086C4.96186 10.3602 5.15737 10.3745 5.35006 10.3505C5.54274 10.3266 5.72883 10.265 5.89769 10.1691C6.06656 10.0733 6.21489 9.94513 6.33422 9.79197C6.4258 9.67442 6.49892 9.54392 6.55131 9.40498L3.69369 8.76995ZM1.7077 5.76182V6.82029L13.487 9.43792V2.48979L1.7077 5.76182Z" fill="white"/>
</svg>
