<svg width="15" height="16" viewBox="0 0 15 16" fill="none" xmlns="http://www.w3.org/2000/svg">
<path d="M7.53166 16C6.47377 15.9914 5.44904 15.9724 4.43056 15.8519C3.59037 15.7525 2.7638 15.5925 1.99359 15.2267C0.881926 14.6987 0.29331 13.8081 0.0899834 12.6456C-0.261418 10.6359 0.4447 8.93542 1.71439 7.40493C2.36157 6.62479 3.13509 5.98814 4.0589 5.53118C4.21545 5.4537 4.33443 5.45083 4.49539 5.54409C5.2726 5.99459 6.11795 6.24961 7.02371 6.26791C8.10444 6.28943 9.08939 5.97917 9.9749 5.37766C10.1042 5.28978 10.204 5.2697 10.3547 5.33821C12.3544 6.2489 13.8473 7.63807 14.6521 9.66713C14.9988 10.5409 15.0669 11.4498 14.942 12.3791C14.8496 13.0656 14.6584 13.7102 14.2249 14.2686C13.7353 14.8988 13.0609 15.2608 12.3043 15.4989C11.5842 15.7256 10.842 15.8307 10.0909 15.8971C9.22826 15.9731 8.36339 15.9892 7.53166 15.9996V16ZM8.69711 9.51863C8.75862 9.51863 8.8205 9.51254 8.88091 9.52007C9.01057 9.53621 9.02457 9.47703 8.99436 9.3748C8.80098 8.72236 8.44405 8.21877 7.71915 8.05593C7.62007 8.03369 7.59686 7.98563 7.60091 7.89488C7.60791 7.73384 7.60275 7.57207 7.60275 7.41066C7.60275 7.34933 7.60496 7.30055 7.51324 7.28764C7.02077 7.21841 6.96994 7.25607 6.96994 7.72343C6.96994 7.74747 6.96625 7.77186 6.97067 7.79517C6.99756 7.93972 6.93826 8.00141 6.7876 8.03333C6.35848 8.12444 6.00634 8.34359 5.75955 8.70263C5.18714 9.53585 5.51792 10.5341 6.48004 10.8744C6.68005 10.9451 6.88927 10.9921 7.0948 11.048C7.42374 11.1374 7.76225 11.1962 8.06466 11.3648C8.42821 11.5674 8.52951 11.8841 8.48641 12.2651C8.44663 12.6198 8.25436 12.8597 7.90922 12.9824C7.66758 13.0681 7.41674 13.066 7.16516 13.061C6.65021 13.0502 6.22219 12.7356 6.05681 12.2643C6.01334 12.1399 6.07928 11.9552 5.93231 11.8988C5.81002 11.8519 5.65384 11.8874 5.51276 11.8863C5.49434 11.8863 5.47593 11.8881 5.45751 11.8863C5.37132 11.8795 5.35548 11.9229 5.36506 11.9968C5.45898 12.7224 5.79528 13.297 6.53308 13.529C6.88485 13.6399 7.04876 13.7744 6.97178 14.1331C6.9611 14.1829 6.96146 14.2486 7.04545 14.2471C7.22262 14.2443 7.42632 14.3059 7.56776 14.2213C7.66795 14.1614 7.58876 13.9648 7.60202 13.8303C7.60275 13.8242 7.60312 13.8181 7.60202 13.8124C7.58065 13.6994 7.63627 13.6575 7.74641 13.642C8.05471 13.599 8.33944 13.491 8.59176 13.3128C9.12881 12.9336 9.30267 12.4078 9.22384 11.7873C9.15717 11.2622 8.81571 10.9534 8.34386 10.7514C8.14127 10.6646 7.93021 10.6036 7.71768 10.5455C7.35265 10.4462 6.97693 10.3787 6.63806 10.2023C6.33675 10.0455 6.18941 9.79697 6.21078 9.46913C6.23398 9.11619 6.39274 8.8418 6.7504 8.70514C7.46425 8.43255 8.10407 8.70945 8.35749 9.40888C8.3877 9.49281 8.42637 9.52473 8.51257 9.51899C8.57371 9.51469 8.63522 9.51827 8.69674 9.51827L8.69711 9.51863Z" fill="white"/>
<path d="M3.95245 3.11797C4.2567 3.28153 4.54954 3.43038 4.89173 3.48669C5.37684 3.56668 5.7846 3.42823 6.14521 3.12263C6.28408 3.00499 6.41815 2.88267 6.56954 2.77973C6.70878 2.68504 6.83991 2.67966 6.96515 2.79982C7.04802 2.87909 7.13348 2.95692 7.20936 3.04229C7.6068 3.48777 8.06687 3.59573 8.62712 3.36976C8.80393 3.29839 8.96453 3.20047 9.10818 3.0778C9.65628 2.61044 10.2501 2.19688 10.7911 1.7166C10.709 1.9623 10.5665 2.17392 10.4158 2.38052C9.92775 3.05126 9.65554 3.79014 9.67285 4.61905C9.67469 4.708 9.64486 4.75894 9.57266 4.80987C8.21568 5.76288 6.32312 5.8339 4.89321 4.98311C4.82911 4.94509 4.7757 4.90886 4.76613 4.82314C4.69688 4.20334 4.41362 3.67572 4.01691 3.19831C3.99481 3.17177 3.97382 3.14451 3.95245 3.11761V3.11797Z" fill="white"/>
<path d="M6.99277 0.000314094C7.24877 -0.00183799 7.46057 0.088191 7.66095 0.209784C7.86501 0.333529 8.06245 0.473056 8.21236 0.653472C8.44147 0.928939 8.7251 0.943645 9.04261 0.879441C9.33545 0.820259 9.62423 0.743142 9.92149 0.701536C10.1075 0.67571 10.2876 0.677863 10.4674 0.723056C10.6364 0.765739 10.6486 0.802325 10.5392 0.934678C10.2909 1.23489 9.98153 1.47234 9.68059 1.71768C9.33729 1.99781 8.98994 2.27328 8.64406 2.55054C8.54903 2.62694 8.447 2.69114 8.33023 2.73346C8.07276 2.82744 7.91953 2.79014 7.74714 2.58569C7.61785 2.43253 7.47678 2.29157 7.3066 2.18145C6.97509 1.9666 6.6329 1.94759 6.28187 2.1359C6.08664 2.24064 5.91868 2.37945 5.75771 2.52758C5.40815 2.84968 5.08511 2.90168 4.65194 2.68899C4.07732 2.40706 3.69866 1.93181 3.36089 1.41854C3.30637 1.33604 3.36494 1.31488 3.42019 1.28762C3.67177 1.16352 3.94324 1.12119 4.22097 1.11079C4.5337 1.09895 4.84679 1.09286 5.15915 1.07815C5.47703 1.06309 5.73672 0.945797 5.9172 0.674276C6.03065 0.503544 6.17615 0.355767 6.34338 0.231305C6.53971 0.0874736 6.75482 -0.00614217 6.99277 0.000314094Z" fill="white"/>
<path d="M11.2593 4.68756C11.5964 4.74961 11.9249 4.81776 12.2369 4.94868C12.6307 5.11439 12.978 5.34394 13.2723 5.64775C13.4189 5.79947 13.4274 5.99136 13.2999 6.13197C13.1802 6.26432 13.0495 6.28118 12.9202 6.17106C12.1945 5.55377 11.393 5.05234 10.5094 4.67751C10.4232 4.64093 10.3779 4.59753 10.3878 4.50642C10.3981 4.41137 10.3602 4.30843 10.4862 4.24351C11.4715 3.73634 12.466 3.65312 13.4782 4.16532C13.7224 4.2887 13.8086 4.47881 13.7066 4.67106C13.6042 4.86403 13.4001 4.90743 13.1497 4.78297C12.5334 4.47701 11.9036 4.43074 11.2597 4.68756H11.2593Z" fill="white"/>
</svg>
