<svg width="17" height="17" viewBox="0 0 17 17" fill="none" xmlns="http://www.w3.org/2000/svg">
<path fill-rule="evenodd" clip-rule="evenodd" d="M16.7869 0.713487C16.918 1.10523 16.7068 1.52913 16.3151 1.6603L14.6384 2.22168C14.3259 2.32577 14.0593 2.53516 13.8841 2.81405C13.7089 3.09295 13.636 3.42404 13.6778 3.75073L13.6789 3.75941C13.8047 4.84112 12.9628 5.81311 11.8513 5.81311H11.567C11.2739 5.81311 11.0361 6.01536 10.9853 6.2822L10.9843 6.28761L10.8272 7.0805C10.7469 7.48575 10.3533 7.74918 9.94804 7.66889C9.5428 7.58861 9.27937 7.19501 9.35965 6.78977L9.51625 5.99931C9.70596 5.01105 10.5745 4.31707 11.567 4.31707H11.8513C12.0552 4.31707 12.2152 4.13877 12.1932 3.93506C12.1089 3.26638 12.2587 2.58905 12.6173 2.01824C12.9768 1.44591 13.5239 1.01619 14.1651 0.802479C14.1649 0.802534 14.1653 0.802423 14.1651 0.802479L15.8401 0.241665C16.2318 0.110501 16.6557 0.321742 16.7869 0.713487ZM7.57009 0.257048C7.95334 0.102814 8.38905 0.288467 8.54329 0.671715L8.79184 1.28934C9.22103 2.37493 8.54055 3.58081 7.39543 3.78215C7.38754 3.78354 7.37962 3.7848 7.37168 3.78594C7.23043 3.80612 7.10133 3.9421 7.10133 4.1151V4.69108C7.10133 5.1042 6.76643 5.4391 6.35331 5.4391C5.9402 5.4391 5.6053 5.1042 5.6053 4.69108V4.1151C5.6053 3.23136 6.24623 2.44405 7.14352 2.30738C7.35489 2.2657 7.47851 2.03933 7.40118 1.84093L7.15542 1.23025C7.00119 0.846998 7.18684 0.411282 7.57009 0.257048ZM10.0934 0.950981C10.0934 0.537861 10.4283 0.202962 10.8414 0.202962H10.8489C11.262 0.202962 11.5969 0.537861 11.5969 0.950981C11.5969 1.3641 11.262 1.699 10.8489 1.699H10.8414C10.4283 1.699 10.0934 1.3641 10.0934 0.950981ZM1.8652 1.699C1.8652 1.28588 2.2001 0.950981 2.61322 0.950981H2.6207C3.03382 0.950981 3.36872 1.28588 3.36872 1.699C3.36872 2.11212 3.03382 2.44702 2.6207 2.44702H2.61322C2.2001 2.44702 1.8652 2.11212 1.8652 1.699ZM15.3295 5.4391C15.3295 5.02598 15.6644 4.69108 16.0776 4.69108H16.085C16.4982 4.69108 16.8331 5.02598 16.8331 5.4391C16.8331 5.85222 16.4982 6.18712 16.085 6.18712H16.0776C15.6644 6.18712 15.3295 5.85222 15.3295 5.4391ZM3.19892 7.81448C3.26547 7.57821 3.38537 7.34918 3.58033 7.15423C3.91448 6.82007 4.34873 6.70641 4.74797 6.70396C5.14261 6.70155 5.55449 6.80461 5.94889 6.96259C6.74038 7.27962 7.60247 7.87445 8.37828 8.65026C9.15409 9.42607 9.74892 10.2882 10.066 11.0797C10.2239 11.4741 10.327 11.8859 10.3246 12.2806C10.3221 12.6798 10.2085 13.1141 9.87432 13.4482C9.76694 13.5556 9.64923 13.6402 9.52567 13.7057C9.4781 13.7362 9.42631 13.7618 9.37073 13.7815L1.36693 16.6165C1.09501 16.7128 0.791932 16.6441 0.588032 16.4401C0.384132 16.236 0.315751 15.9329 0.412294 15.661L3.19892 7.81448ZM3.85649 10.4332L2.34757 14.682L6.60084 13.1755C6.08456 12.855 5.56346 12.4393 5.07637 11.9522C4.591 11.4668 4.17648 10.9477 3.85649 10.4332ZM8.81412 12.388C8.81999 12.3711 8.82818 12.3357 8.82857 12.2714C8.82942 12.1322 8.79037 11.9185 8.67719 11.6359C8.45191 11.0735 7.98829 10.376 7.32042 9.70812C6.65256 9.04026 5.95503 8.57664 5.39261 8.35136C5.11005 8.23818 4.89639 8.19912 4.75714 8.19998C4.69802 8.20034 4.66331 8.20729 4.64498 8.21297L4.63219 8.24898C4.62891 8.26863 4.6263 8.2954 4.62608 8.33104C4.62523 8.47029 4.66428 8.68395 4.77746 8.96651C5.00274 9.52893 5.46636 10.2265 6.13423 10.8943C6.80209 11.5622 7.49962 12.0258 8.06204 12.2511C8.3446 12.3643 8.55826 12.4033 8.69751 12.4025C8.76182 12.4021 8.79724 12.3939 8.81412 12.388ZM13.2464 9.63311C13.4477 8.488 14.6536 7.80753 15.7392 8.23672L15.7435 8.2384L16.3568 8.48526C16.7401 8.63949 16.9257 9.07521 16.7715 9.45846C16.6173 9.84171 16.1815 10.0274 15.7983 9.87313L15.1892 9.62798C15.1887 9.62777 15.1881 9.62756 15.1876 9.62736C14.9882 9.54967 14.7606 9.67486 14.7206 9.88811C14.5769 10.7724 13.808 11.4233 12.9134 11.4233H12.3375C11.9243 11.4233 11.5894 11.0884 11.5894 10.6752C11.5894 10.2621 11.9243 9.92721 12.3375 9.92721H12.9134C13.0779 9.92721 13.2193 9.80468 13.2442 9.64653L13.2464 9.63311ZM15.3295 14.4153C15.3295 14.0022 15.6644 13.6673 16.0776 13.6673H16.085C16.4982 13.6673 16.8331 14.0022 16.8331 14.4153C16.8331 14.8284 16.4982 15.1633 16.085 15.1633H16.0776C15.6644 15.1633 15.3295 14.8284 15.3295 14.4153Z" fill="#111111"/>
</svg>
