<svg width="31" height="18" viewBox="0 0 31 18" fill="none" xmlns="http://www.w3.org/2000/svg">
<path fill-rule="evenodd" clip-rule="evenodd" d="M25.1657 15.6237L24.37 16.6304C24.3081 16.7276 24.2214 16.9748 24.37 17.1868C24.5185 17.3987 24.7679 17.4341 24.874 17.4252L28.0836 16.286C28.2692 16.18 28.7255 15.8038 29.065 15.1468L30.6831 12.5769C30.7096 12.3473 30.63 11.9358 30.0995 12.1265C29.569 12.3173 28.6583 13.0008 28.2692 13.3187L25.8289 14.8363L25.1657 15.6237Z" fill="white"/>
<path d="M2.16811 1.68813L0.788784 3.09228C0.492179 3.38869 0.909337 3.70163 1.23972 3.70163C1.60295 3.70163 2.78704 3.45436 3.33523 3.35722L2.38368 2.67486L2.27421 2.59636C3.18492 2.28727 5.07 1.58961 5.32465 1.27168L5.43075 1.3185L5.90821 1.52917L6.57135 0.469433C6.58903 0.275148 6.47586 -0.0869292 5.88168 0.0190445L2.16811 1.68813Z" fill="white"/>
<path d="M3.33523 3.35722L7.73847 5.8211L9.19737 6.69539L18.4813 11.9146L20.0198 12.7889L25.0862 15.5798L25.7228 14.7833L28.1631 13.2628L5.90821 1.52917L5.43075 1.3185C5.43075 1.33476 5.39538 1.38238 5.3777 1.40415C5.22916 1.6161 3.40597 2.30493 2.51294 2.62285L2.38368 2.67486L3.33523 3.35722Z" fill="white"/>
<path fill-rule="evenodd" clip-rule="evenodd" d="M9.14432 6.70716L7.68542 5.83877L5.90821 6.43045L5.65073 6.50734L6.2022 6.94852L6.86396 7.49999C7.08455 7.38969 7.30514 7.33123 7.73847 7.33123L8.32203 7.11928L9.14432 6.70716Z" fill="white"/>
<path fill-rule="evenodd" clip-rule="evenodd" d="M19.9494 12.8117L18.4448 11.9561L16.7133 12.535L16.4558 12.6119L17.0073 13.0531L17.669 13.6046C17.8896 13.4943 18.1102 13.4358 18.5435 13.4358L19.1271 13.2238L19.9494 12.8117Z" fill="white"/>
</svg>
