<svg width="31" height="37" viewBox="0 0 31 37" fill="none" xmlns="http://www.w3.org/2000/svg">
<path d="M27.834 30H2.83398C1.45306 30 0.333984 31.1194 0.333984 32.5C0.333984 34.8013 2.19922 36.6666 4.50055 36.6666H26.1671C28.4684 36.6666 30.334 34.8013 30.334 32.5C30.334 31.1194 29.2146 30 27.834 30Z" fill="white"/>
<path d="M8.2441 14.9438C8.26912 13.1232 9.75502 11.662 11.5757 11.6666H19.0922C20.9324 11.6687 22.4235 13.1598 22.4256 15L23.2938 28.3334H26.9575L26.1671 13.3334C26.164 10.5731 23.9274 8.33649 21.1671 8.33343H20.3339V6.66656H22.0005C22.9206 6.66565 23.6662 5.9201 23.6671 5V3.33343C23.6649 1.49323 22.1738 0.00213623 20.3339 0H10.3339C8.49373 0.00213623 7.00264 1.49323 7.00051 3.33343V5C7.00142 5.9201 7.74697 6.66565 8.66707 6.66656H10.3339V8.33343H9.50051C6.75545 8.33069 4.52278 10.5444 4.50203 13.2895L3.71041 28.3334H7.33345L8.2441 14.9438ZM12.0005 6.66656H18.6671V8.33343H12.0005V6.66656Z" fill="white"/>
<path d="M19.0923 13.3334H11.5758C10.6557 13.3344 9.91015 14.0799 9.90923 15L9.00439 28.3334H21.6237L20.7604 15.0537C20.7704 14.6036 20.5995 14.1681 20.2861 13.8446C19.9727 13.5214 19.5427 13.3371 19.0923 13.3334Z" fill="white"/>
</svg>
