<svg width="30" height="31" viewBox="0 0 30 31" fill="none" xmlns="http://www.w3.org/2000/svg">
<path fill-rule="evenodd" clip-rule="evenodd" d="M30 21.3793C26.33 25.6063 23.014 27.6983 15 31C6.98601 27.6983 3.67004 25.6063 0 21.3793V4.27586C6.19783 3.3951 9.46084 2.51341 15 0C20.5392 2.51341 23.8022 3.3951 30 4.27586V21.3793ZM27 20.0517C24.064 23.3243 21.4112 24.9438 15 27.5C8.58881 24.9438 5.93603 23.3243 3 20.0517V6.81035C7.95826 6.12847 10.5687 5.44587 15 3.5C19.4313 5.44587 22.0417 6.12847 27 6.81035V20.0517Z" fill="white"/>
<path d="M7.9766 18.1163H10.6643V19.4767C10.6643 19.7657 10.3708 20 10.0087 20H8.63213C8.27009 20 7.9766 19.7657 7.9766 19.4767V18.1163Z" fill="white"/>
<path d="M19.3172 18.1163H22.0048V19.4767C22.0048 19.7657 21.7113 20 21.3493 20H19.9727C19.6107 20 19.3172 19.7657 19.3172 19.4767V18.1163Z" fill="white"/>
<path d="M9.74652 12.0465C9.74652 11.4685 10.3335 11 11.0576 11H18.9894C19.7135 11 20.3005 11.4685 20.3005 12.0465V12.2035H9.74652V12.0465Z" fill="white"/>
<path d="M6.6 14.0872C6.6 13.7982 6.89349 13.564 7.25553 13.564H8.23881C8.60085 13.564 8.89434 13.7982 8.89434 14.0872V14.8198H7.25553C6.89349 14.8198 6.6 14.5855 6.6 14.2965V14.0872Z" fill="white"/>
<path d="M23.4 14.0912C23.4 13.8022 23.1065 13.5679 22.7445 13.5679H21.7612C21.3992 13.5679 21.1057 13.8022 21.1057 14.0912V14.8237H22.7445C23.1065 14.8237 23.4 14.5894 23.4 14.3005V14.0912Z" fill="white"/>
<path d="M8.89441 13.9302L9.74652 12.1977L11.2607 12.1977L10.0743 14.8198H8.89434L8.89441 13.9302Z" fill="white"/>
<path d="M21.1055 13.9342L20.3005 12.2035L18.7392 12.2016L19.9256 14.8237L21.1057 14.8237L21.1055 13.9342Z" fill="white"/>
<path fill-rule="evenodd" clip-rule="evenodd" d="M7.9766 14.8198H22.0048V18.1163H7.9766V14.8198ZM9.81207 15.6047H11.4509C11.8129 15.6047 12.1064 15.8389 12.1064 16.1279V16.1802C12.1064 16.4692 11.8129 16.7035 11.4509 16.7035H9.81207C9.45004 16.7035 9.15655 16.4692 9.15655 16.1802V16.1279C9.15655 15.8389 9.45004 15.6047 9.81207 15.6047ZM20.1694 15.6047H18.5306C18.1685 15.6047 17.875 15.8389 17.875 16.1279V16.1802C17.875 16.4692 18.1685 16.7035 18.5306 16.7035H20.1694C20.5314 16.7035 20.8249 16.4692 20.8249 16.1802V16.1279C20.8249 15.8389 20.5314 15.6047 20.1694 15.6047Z" fill="white"/>
</svg>
