<svg width="30" height="17" viewBox="0 0 30 17" fill="none" xmlns="http://www.w3.org/2000/svg">
<path fill-rule="evenodd" clip-rule="evenodd" d="M0 8.5C0 13.1944 2.94062 17 6.56805 17C9.316 17 11.6698 14.8161 12.6496 11.7162C12.9632 10.7241 13.1361 9.63818 13.1361 8.5C13.1361 7.36182 12.9632 6.27589 12.6496 5.28378C11.6698 2.18393 9.316 0 6.56805 0C2.94062 0 0 3.80558 0 8.5ZM6.39053 13.7838C8.74346 13.7838 10.6509 11.3153 10.6509 8.27027C10.6509 5.22524 8.74346 2.75676 6.39053 2.75676C4.0376 2.75676 2.13018 5.22524 2.13018 8.27027C2.13018 11.3153 4.0376 13.7838 6.39053 13.7838Z" fill="white"/>
<path fill-rule="evenodd" clip-rule="evenodd" d="M12.6496 5.28378C12.9632 6.27589 13.1361 7.36182 13.1361 8.5C13.1361 9.63818 12.9632 10.7241 12.6496 11.7162C22.3433 10.2459 28.2556 14.6261 30 17V0C30 5.51351 18.4331 5.81982 12.6496 5.28378ZM14.2012 7.58108L13.8462 6.2027C24.6391 6.93784 28.7574 4.21171 29.4675 2.75676V7.58108H14.2012Z" fill="white"/>
<path d="M10.6509 8.27027C10.6509 11.3153 8.74346 13.7838 6.39053 13.7838C4.0376 13.7838 2.13018 11.3153 2.13018 8.27027C2.13018 5.22524 4.0376 2.75676 6.39053 2.75676C8.74346 2.75676 10.6509 5.22524 10.6509 8.27027Z" fill="white"/>
</svg>
