<svg width="30" height="24" viewBox="0 0 30 24" fill="none" xmlns="http://www.w3.org/2000/svg">
<path fill-rule="evenodd" clip-rule="evenodd" d="M0 0.341807V19.5686C0 19.7648 0.200432 19.8302 0.468284 19.8302C0.736136 19.8302 4.1209 20.0264 4.28145 22.6423C7.06885 23.6668 15.2527 25.1012 25.6887 22.6423C25.6441 21.9447 26.0098 20.4057 27.8294 19.8302H29.5688C29.7692 19.8302 29.9702 19.6994 29.9702 19.4378C29.9702 19.4118 29.9708 19.2048 29.972 18.8529L29.972 18.8484C29.9822 15.6565 30.0306 0.636091 29.9702 0.341807C29.903 0.0148248 29.5007 -0.0890277 29.0336 0.0802179C24.6183 2.26013 12.7908 5.312 0.802772 0.0802179C0.411692 -0.0439459 0 0.014826 0 0.341807ZM8.69643 5.18121H6.42191C6.12634 5.18121 5.88673 5.41545 5.88673 5.70439C5.88673 5.99334 6.12634 6.22757 6.42191 6.22757H8.69643C8.99201 6.22757 9.23162 5.99334 9.23162 5.70439C9.23162 5.41545 8.99201 5.18121 8.69643 5.18121ZM21.2732 5.18121H23.5477C23.8433 5.18121 24.0829 5.41545 24.0829 5.70439C24.0829 5.99334 23.8433 6.22757 23.5477 6.22757H21.2732C20.9776 6.22757 20.738 5.99334 20.738 5.70439C20.738 5.41545 20.9776 5.18121 21.2732 5.18121ZM18.1959 5.18121H11.7737C11.4782 5.18121 11.2385 5.41545 11.2385 5.70439V7.47012V19.5686C11.2385 19.8302 12.3089 19.8302 12.3089 19.5686V6.22757H17.6607V19.5686C17.6607 19.8302 18.7311 19.8302 18.7311 19.5686V6.22757V5.70439C18.7311 5.41545 18.4915 5.18121 18.1959 5.18121Z" fill="white"/>
</svg>
