<svg width="14" height="12" viewBox="0 0 14 12" fill="none" xmlns="http://www.w3.org/2000/svg">
<path d="M6.03937 12C6.70351 12 7.24191 11.4627 7.24191 10.8C7.24191 10.1373 6.70351 9.59999 6.03937 9.59999C5.37523 9.59999 4.83683 10.1373 4.83683 10.8C4.83683 11.4627 5.37523 12 6.03937 12Z" fill="black"/>
<path d="M10.0746 12C10.7387 12 11.2771 11.4627 11.2771 10.8C11.2771 10.1373 10.7387 9.59999 10.0746 9.59999C9.41041 9.59999 8.87202 10.1373 8.87202 10.8C8.87202 11.4627 9.41041 12 10.0746 12Z" fill="black"/>
<path d="M0.400844 0.800024H2.07245L4.00767 7.56035L3.85588 7.86328C3.45621 8.66008 4.03639 9.6 4.93159 9.6H11.6779C11.8995 9.6 12.0788 9.42109 12.0788 9.2C12.0788 8.9789 11.8995 8.8 11.6779 8.8H4.93159C4.63392 8.8 4.43938 8.48723 4.57302 8.22109L4.68381 8H11.6779C11.8568 8 12.0142 7.88166 12.0635 7.70976L13.6669 2.10978C13.7013 1.98909 13.6771 1.85938 13.6015 1.75901C13.5256 1.65901 13.407 1.60002 13.2813 1.60002H3.13522L2.76021 0.290239C2.71088 0.118373 2.55354 0 2.37463 0H0.400844C0.179284 0 0 0.178906 0 0.399999C0 0.621091 0.179284 0.800024 0.400844 0.800024Z" fill="black"/>
</svg>
