<svg width="12" height="12" viewBox="0 0 12 12" fill="none" xmlns="http://www.w3.org/2000/svg">
<path d="M5.99994 0C2.68631 0 0 2.68633 0 5.99994C0 9.31343 2.68627 12 5.99986 12C9.31345 12 12 9.31343 12 5.99994C12 2.68633 9.31349 0 5.99994 0ZM8.26329 8.28676C8.02373 8.52612 7.63565 8.52612 7.39629 8.28676L6.03102 6.92149L4.60358 8.34892C4.36415 8.58827 3.97603 8.58827 3.73671 8.34892C3.49715 8.10928 3.49715 7.72128 3.73671 7.48173L5.16402 6.05442L3.83507 4.72555C3.59571 4.48592 3.59571 4.09792 3.83507 3.85844C4.07451 3.619 4.4627 3.619 4.70218 3.85844L6.03106 5.18731L7.2979 3.9204C7.53733 3.68104 7.92565 3.68096 8.16489 3.9204C8.40445 4.16004 8.40445 4.54827 8.16489 4.78751L6.89818 6.05434L8.26337 7.41961C8.50273 7.65892 8.50285 8.04724 8.26329 8.28676Z" fill="white"/>
</svg>
