<svg width="19" height="28" viewBox="0 0 19 28" fill="none" xmlns="http://www.w3.org/2000/svg">
<path d="M9.2588 0C9.2588 0.00641191 9.25239 0.00641191 9.23957 0.00641191C4.1421 0.00641191 0 4.15492 0 9.2588V13.0418H0.0192359L1.28238 10.8874V9.25239C1.28238 4.86023 4.84741 1.28238 9.23957 1.28238C13.6253 1.28238 17.1839 4.84099 17.1839 9.22674C17.1839 9.23315 17.1839 9.23957 17.1839 9.25239V10.8874L18.4407 13.0418H18.4599V9.25239C18.4727 4.15492 14.3563 0.0128238 9.2588 0Z" fill="white"/>
<path d="M15.3222 14.8179C13.7321 15.2347 11.5777 15.4655 9.24372 15.4655C9.2373 15.4655 9.23089 15.4655 9.23089 15.4655V20.9349C9.23089 21.2875 8.94236 21.5761 8.5897 21.5761C8.23705 21.5761 7.94851 21.2875 7.94851 20.9349V15.4399C7.43556 15.4206 6.98672 15.395 6.53789 15.3565V18.2675C6.53789 18.6202 6.24935 18.9087 5.8967 18.9087C5.54404 18.9087 5.25551 18.6202 5.25551 18.2675V15.2667C5.25551 15.2539 5.24268 15.2347 5.24268 15.2219C4.75538 15.1577 4.29372 15.0808 3.84489 14.991V21.6017C3.84489 21.9544 3.55635 22.2429 3.20369 22.2429C2.85104 22.2429 2.5625 21.9544 2.5625 21.6017V14.6576C2.11367 14.4973 1.63919 14.3178 1.28653 14.119L1.31218 26.0772C1.33142 26.3145 1.78666 26.8146 3.38964 27.2506C4.88362 27.6546 6.96108 27.879 9.23089 27.879C11.5007 27.879 13.5782 27.6546 15.0721 27.2506C16.6751 26.8146 17.1304 26.3145 17.1496 26.0772L17.1624 14.1126C16.6815 14.3883 16.0724 14.6191 15.3222 14.8179Z" fill="white"/>
<path d="M9.23047 10.5412C3.7034 10.5412 1.31176 11.7466 1.31176 12.3622C1.31176 12.375 1.31176 12.3814 1.31176 12.3878C1.31176 12.3878 1.31176 12.3942 1.31176 12.4007C1.40153 13.0226 3.8124 14.1768 9.23047 14.1768C14.6485 14.1768 17.0594 13.0162 17.1492 12.3942C17.1492 12.3942 17.1492 12.3878 17.1492 12.3814C17.1492 12.375 17.1492 12.3686 17.1492 12.3622C17.1492 11.753 14.7575 10.5412 9.23047 10.5412Z" fill="white"/>
</svg>
