<svg width="30" height="39" viewBox="0 0 30 39" fill="none" xmlns="http://www.w3.org/2000/svg">
<path d="M10.2249 15.9516C14.8913 17.24 19.8232 17.2117 24.4745 15.8698C25.4743 15.567 26.4396 15.1603 27.3546 14.6562C25.5682 12.0711 23.0103 10.1169 20.0466 9.07272C18.8542 10.1915 15.4666 10.2324 15.0075 10.2324C14.5484 10.2324 11.1608 10.1915 9.96839 9.07272C7.55947 9.91977 5.40822 11.3708 3.7205 13.2871C4.03429 13.4331 4.34808 13.5763 4.66119 13.723C6.44669 14.6279 8.30846 15.3736 10.2249 15.9516Z" fill="white"/>
<path d="M10.2242 19.5261C14.8907 20.8152 19.8231 20.7869 24.4745 19.4443C26.0384 18.9909 27.509 18.2623 28.8171 17.2927C28.5985 16.7864 28.352 16.2924 28.079 15.8131C27.0623 16.3806 25.9874 16.8369 24.8729 17.174C22.4303 17.9045 19.8933 18.2704 17.3439 18.26C14.8201 18.2575 12.3074 17.9242 9.87016 17.2689C7.87493 16.6715 5.93679 15.8978 4.07863 14.957C3.66933 14.7633 3.2539 14.573 2.83983 14.3826C2.46096 14.9098 2.1171 15.4613 1.81045 16.0335C2.78867 16.438 3.75256 16.8766 4.68507 17.3146C6.46285 18.2131 8.3164 18.9532 10.2242 19.5261Z" fill="white"/>
<path d="M16.3718 1.36432C16.3718 0.610826 15.761 0 15.0075 0C14.254 0 13.6432 0.610826 13.6432 1.36432V2.72864H16.3718V1.36432Z" fill="white"/>
<path d="M12.2789 6.82159C12.2789 6.44485 12.5843 6.13943 12.961 6.13943C13.3378 6.13943 13.6432 6.44485 13.6432 6.82159V8.80531C14.0586 8.84283 14.5068 8.86807 15.0075 8.86807C15.5082 8.86807 15.9564 8.84283 16.3718 8.80531V6.82159C16.3718 6.44485 16.6772 6.13943 17.054 6.13943C17.4307 6.13943 17.7361 6.44485 17.7361 6.82159V8.6068C18.223 8.53878 18.6889 8.36408 19.1005 8.09518V6.13943C19.1005 5.0092 18.1842 4.09296 17.054 4.09296H12.961C11.8308 4.09296 10.9145 5.0092 10.9145 6.13943V8.09518C11.3261 8.36408 11.792 8.53878 12.2789 8.6068V6.82159Z" fill="white"/>
<path d="M17.3473 31.9442C14.8228 31.9417 12.3095 31.6087 9.87153 30.9537C7.87845 30.3601 5.9425 29.5894 4.08682 28.6507C2.92715 28.105 1.72859 27.5476 0.512984 27.0817C2.17214 33.2652 7.57131 37.7153 13.9578 38.1632C20.3444 38.6111 26.3118 34.9582 28.8178 29.0668C27.5912 29.8444 26.2626 30.4481 24.8702 30.8609C22.4297 31.5909 19.8946 31.956 17.3473 31.9442ZM15.0075 36.8366C11.388 36.8443 7.91573 35.404 5.3645 32.8364C5.18717 32.6651 5.11605 32.4115 5.17848 32.173C5.24091 31.9345 5.42717 31.7483 5.66567 31.6858C5.90417 31.6234 6.1578 31.6945 6.32907 31.8718C8.62515 34.1826 11.75 35.479 15.0075 35.4723C15.3842 35.4723 15.6897 35.7777 15.6897 36.1544C15.6897 36.5312 15.3842 36.8366 15.0075 36.8366Z" fill="white"/>
<path d="M10.2256 25.2085C14.8916 26.4976 19.8236 26.4692 24.4745 25.1267C26.5552 24.5512 28.4467 23.4357 29.957 21.8932C29.8618 20.785 29.6442 19.6908 29.3083 18.6305C27.9522 19.5704 26.4536 20.286 24.8702 20.7499C22.4295 21.4802 19.8942 21.846 17.3466 21.8352C14.8224 21.8323 12.3093 21.4991 9.87153 20.8441C7.8856 20.2523 5.95652 19.4843 4.10728 18.5493C3.16317 18.1066 2.1911 17.6625 1.21288 17.2607C0.695224 18.4766 0.340391 19.7556 0.157579 21.0644C1.69919 21.6221 3.20883 22.2646 4.67961 22.9888C6.45985 23.8893 8.31561 24.6321 10.2256 25.2085Z" fill="white"/>
<path d="M24.8736 26.4309C22.4318 27.1618 19.8954 27.5277 17.3466 27.5169C14.8224 27.5142 12.3094 27.1812 9.87153 26.5264C7.88308 25.9295 5.95139 25.1577 4.09909 24.2201C2.77843 23.5986 1.41548 22.9656 0.0286507 22.469C0.0177362 22.7098 5.54401e-08 22.9499 5.54401e-08 23.1934C-6.64414e-05 23.9677 0.0596866 24.7408 0.178726 25.5059C1.70878 26.0599 3.20724 26.6976 4.66733 27.416C6.4506 28.3189 8.31011 29.0626 10.2242 29.6385C14.8907 30.9279 19.8231 30.8995 24.4745 29.5566C26.3775 29.0245 28.1296 28.0546 29.5907 26.7243C29.8266 25.7493 29.9637 24.7531 30 23.7507C28.4855 24.9748 26.743 25.8858 24.8736 26.4309Z" fill="white"/>
</svg>
