<svg width="30" height="21" viewBox="0 0 30 21" fill="none" xmlns="http://www.w3.org/2000/svg">
<path d="M3.35967 10.8646L3.6812 8.94806L1.44776 8.05373L1.12623 9.97032L3.35967 10.8646Z" fill="white"/>
<path d="M16.3636 18L18.06 7.78467L5.83684 2.62002L4.08873 12.8074L16.3636 18Z" fill="white"/>
<path d="M18.0784 14.1963L18.3621 12.5052L19.6935 12.9535C19.8844 13.1358 20.3698 13.2547 20.7847 12.2721L21.7276 7.11722C21.9419 6.38319 22.6676 5.05421 23.8559 5.6105C25.0442 6.16679 27.608 7.23456 28.7414 7.6989L28.3928 9.54353L23.6532 7.51747C23.3453 7.56709 22.7009 7.88367 22.5863 8.75296C22.4718 9.62226 21.8974 12.6269 21.6245 14.0206C21.3751 14.498 20.6667 15.351 19.8284 14.9444C18.9902 14.5377 18.3125 14.2762 18.0784 14.1963Z" fill="white"/>
<path fill-rule="evenodd" clip-rule="evenodd" d="M30 6.48497L29.0949 11.4144L23.699 9.10777C23.6584 10.3591 23.3924 13.2177 22.6534 14.6417C22.4798 14.9763 22.2836 15.2603 22.0787 15.5C21.4117 16.2805 20.6532 16.5916 20.2847 16.6497L17.7677 15.8154L17.3209 18.4789L16.3636 18L18.06 7.78467L5.83684 2.62002L4.08873 12.8074L3.10666 12.3874L3.1138 12.3303L0.415857 11.177C0.124187 11.0523 0.0170897 10.6038 0 10.3951C0.130608 9.38362 0.429103 7.23165 0.578221 6.71543C0.727338 6.19921 0.879842 6.15969 0.937454 6.20445L3.92707 7.48243L5.19152 0.410959C5.67123 -0.398911 5.99996 0.172555 6.10436 0.559522L6.02871 1.01048L18.3248 6.2063C19.0097 5.29086 19.2673 5.94469 19.3105 6.38603L18.581 10.9676L19.8665 11.4567L20.5501 6.91593C21.179 4.28497 22.8217 3.77889 23.5644 3.85472L30 6.48497ZM3.35967 10.8646L3.6812 8.94806L1.44776 8.05373L1.12623 9.97032L3.35967 10.8646ZM18.0784 14.1963L18.3621 12.5052L19.6935 12.9535C19.8844 13.1358 20.3698 13.2547 20.7847 12.2721L21.7276 7.11722C21.9419 6.38319 22.6676 5.05421 23.8559 5.6105C25.0442 6.16679 27.608 7.23456 28.7414 7.6989L28.3928 9.54353L23.6532 7.51747C23.3453 7.56709 22.7009 7.88367 22.5863 8.75296C22.4718 9.62226 21.8974 12.6269 21.6245 14.0206C21.3751 14.498 20.6667 15.351 19.8284 14.9444C18.9902 14.5377 18.3125 14.2762 18.0784 14.1963Z" fill="white"/>
<path d="M2.88411 14.1653C2.9786 14.689 3.31343 15.4725 3.89687 14.417L16.0741 19.6224C16.0696 19.8823 16.1426 20.425 16.471 20.517C16.7994 20.6091 17.0058 20.2019 17.0679 19.9868L17.3209 18.4789L16.3636 18L4.08873 12.8074L3.10666 12.3874L2.88411 14.1653Z" fill="white"/>
</svg>
