<svg width="30" height="25" viewBox="0 0 30 25" fill="none" xmlns="http://www.w3.org/2000/svg">
<path d="M27.0088 0H18.75C22.6337 0 25.7812 4.21664 25.7812 9.375C25.7812 14.5445 22.6271 18.75 18.75 18.75C14.8729 18.75 11.7188 14.5445 11.7188 9.375C11.7188 4.23242 14.8556 0 18.75 0H15.7588C7.04924 0 0 9.39742 0 21.0117C0 23.2109 1.3418 25 2.99121 25H14.2412C22.9508 25 30 15.6026 30 3.98828C30 1.78906 28.6582 0 27.0088 0ZM7.73438 10.625C9.93164 10.625 11.7188 13.0078 11.7188 15.9375C11.7188 18.8672 9.93164 21.25 7.73438 21.25C5.53711 21.25 3.75 18.8672 3.75 15.9375C3.75 13.0078 5.53711 10.625 7.73438 10.625Z" fill="white"/>
<path d="M18.7508 16.25C21.5938 16.25 23.9071 13.1656 23.9071 9.37498C23.9071 5.58436 21.5938 2.49998 18.7508 2.49998C15.9078 2.49998 13.5946 5.58436 13.5946 9.37498C13.5946 13.1656 15.9078 16.25 18.7508 16.25ZM18.7508 4.37498C20.8186 4.37498 22.5008 6.61795 22.5008 9.37498C22.5008 10.0656 22.0813 10.625 21.5633 10.625C21.0453 10.625 20.6258 10.0656 20.6258 9.37498C20.6258 7.99608 19.7844 6.87498 18.7508 6.87498C17.7172 6.87498 16.8758 7.99608 16.8758 9.37498C16.8758 10.7539 17.7172 11.875 18.7508 11.875C19.2688 11.875 19.6883 12.4344 19.6883 13.125C19.6883 13.8156 19.2688 14.375 18.7508 14.375C16.683 14.375 15.0008 12.132 15.0008 9.37498C15.0008 6.61795 16.683 4.37498 18.7508 4.37498Z" fill="white"/>
<path d="M7.73478 18.75C8.89787 18.75 9.84416 17.4883 9.84416 15.9375C9.84416 14.3867 8.89787 13.125 7.73478 13.125C6.5717 13.125 5.62541 14.3867 5.62541 15.9375C5.62541 17.4883 6.5717 18.75 7.73478 18.75Z" fill="white"/>
</svg>
