<svg width="30" height="32" viewBox="0 0 30 32" fill="none" xmlns="http://www.w3.org/2000/svg">
<path fill-rule="evenodd" clip-rule="evenodd" d="M15.6338 23.8356C19.8343 23.8356 23.2394 20.4055 23.2394 16.1742C23.2394 11.9429 19.8343 8.51272 15.6338 8.51272C11.4333 8.51272 8.02817 11.9429 8.02817 16.1742C8.02817 20.4055 11.4333 23.8356 15.6338 23.8356ZM15.6338 17.4511C16.3339 17.4511 16.9014 16.8794 16.9014 16.1742C16.9014 15.469 16.3339 14.8973 15.6338 14.8973C14.9337 14.8973 14.3662 15.469 14.3662 16.1742C14.3662 16.8794 14.9337 17.4511 15.6338 17.4511ZM11.831 14.046C11.831 14.5161 11.4526 14.8973 10.9859 14.8973C10.5192 14.8973 10.1408 14.5161 10.1408 14.046C10.1408 13.5758 10.5192 13.1947 10.9859 13.1947C11.4526 13.1947 11.831 13.5758 11.831 14.046ZM10.9859 19.1536C11.4526 19.1536 11.831 18.7725 11.831 18.3023C11.831 17.8322 11.4526 17.4511 10.9859 17.4511C10.5192 17.4511 10.1408 17.8322 10.1408 18.3023C10.1408 18.7725 10.5192 19.1536 10.9859 19.1536ZM16.4789 21.2818C16.4789 21.7519 16.1005 22.1331 15.6338 22.1331C15.1671 22.1331 14.7887 21.7519 14.7887 21.2818C14.7887 20.8117 15.1671 20.4305 15.6338 20.4305C16.1005 20.4305 16.4789 20.8117 16.4789 21.2818ZM20.7042 19.1536C21.1709 19.1536 21.5493 18.7725 21.5493 18.3023C21.5493 17.8322 21.1709 17.4511 20.7042 17.4511C20.2375 17.4511 19.8592 17.8322 19.8592 18.3023C19.8592 18.7725 20.2375 19.1536 20.7042 19.1536ZM21.5493 14.046C21.5493 14.5161 21.1709 14.8973 20.7042 14.8973C20.2375 14.8973 19.8592 14.5161 19.8592 14.046C19.8592 13.5758 20.2375 13.1947 20.7042 13.1947C21.1709 13.1947 21.5493 13.5758 21.5493 14.046ZM15.6338 11.9178C16.1005 11.9178 16.4789 11.5367 16.4789 11.0665C16.4789 10.5964 16.1005 10.2153 15.6338 10.2153C15.1671 10.2153 14.7887 10.5964 14.7887 11.0665C14.7887 11.5367 15.1671 11.9178 15.6338 11.9178Z" fill="white"/>
<path fill-rule="evenodd" clip-rule="evenodd" d="M30 16.387C30 24.497 23.4734 31.0714 15.4225 31.0714C7.37162 31.0714 0.84507 24.2842 0.84507 16.1742H3.38028C3.38028 22.9913 8.86637 28.5176 15.6338 28.5176C22.4012 28.5176 27.8873 22.9913 27.8873 16.1742C27.8873 9.35707 22.4012 3.83072 15.6338 3.83072V1.70254C23.6847 1.70254 30 8.27699 30 16.387Z" fill="white"/>
<path d="M7.60563 15.7485H0C0 6.38454 10.7746 0 15.2113 0V8.08708C9.92958 8.08708 7.60563 12.5563 7.60563 15.7485Z" fill="white"/>
</svg>
