<svg width="30" height="20" viewBox="0 0 30 20" fill="none" xmlns="http://www.w3.org/2000/svg">
<path d="M29.9678 16.1844L25.6821 0.470142C25.6445 0.332333 25.5761 0.213289 25.486 0.129178C25.3959 0.0450673 25.2885 -3.33093e-05 25.1786 1.84577e-08H4.82142C4.71144 -3.33093e-05 4.60412 0.0450673 4.51403 0.129178C4.42393 0.213289 4.35544 0.332333 4.31785 0.470142L0.0321363 16.1844C-0.0152962 16.3588 -0.0100549 16.5508 0.0467531 16.7201C0.103561 16.8894 0.207488 17.0226 0.336583 17.0916C0.559494 17.2105 5.8944 20 15 20C24.1056 20 29.4405 17.2105 29.6634 17.0919C29.7925 17.0229 29.8965 16.8897 29.9533 16.7203C30.0102 16.551 30.0154 16.3588 29.9678 16.1844ZM10.1786 12.8571C10.0726 12.8571 9.96907 12.8152 9.881 12.7367C9.79292 12.6582 9.72428 12.5467 9.68374 12.4162C9.6432 12.2857 9.63259 12.1421 9.65325 12.0036C9.67391 11.865 9.72492 11.7378 9.79981 11.6379L15.157 4.495C15.258 4.36489 15.3933 4.29289 15.5338 4.29452C15.6742 4.29615 15.8086 4.37127 15.9079 4.5037C16.0073 4.63614 16.0636 4.81529 16.0648 5.00257C16.066 5.18985 16.012 5.37028 15.9145 5.505L10.5573 12.6479C10.5076 12.7143 10.4486 12.767 10.3836 12.8029C10.3186 12.8388 10.2489 12.8573 10.1786 12.8571V12.8571ZM20.2002 5.505L12.7002 15.505C12.5991 15.6351 12.4638 15.7071 12.3234 15.7055C12.1829 15.7039 12.0485 15.6287 11.9492 15.4963C11.8499 15.3639 11.7935 15.1847 11.7923 14.9974C11.7911 14.8101 11.8451 14.6297 11.9427 14.495L19.4427 4.495C19.5437 4.36489 19.679 4.29289 19.8195 4.29452C19.96 4.29615 20.0943 4.37127 20.1936 4.5037C20.293 4.63614 20.3493 4.81529 20.3505 5.00257C20.3518 5.18985 20.2978 5.37028 20.2002 5.505V5.505Z" fill="white"/>
</svg>
