<?xml version="1.0"?>
<svg xmlns="http://www.w3.org/2000/svg" xmlns:xlink="http://www.w3.org/1999/xlink" xmlns:svgjs="http://svgjs.com/svgjs" version="1.1" width="512" height="512" x="0" y="0" viewBox="0 0 96 96" style="enable-background:new 0 0 512 512" xml:space="preserve" class=""><g><g xmlns="http://www.w3.org/2000/svg" id="Grill"><path d="m89 28.36h-17.79a5.94 5.94 0 0 1 -4.1-1.64l-2.91-2.72a4.88 4.88 0 0 0 -3.38-1.35h-25.64a4.88 4.88 0 0 0 -3.38 1.35l-2.91 2.75a5.94 5.94 0 0 1 -4.1 1.64h-17.74a5.61 5.61 0 0 0 -5.51 6.69l5.05 25.92a15.36 15.36 0 0 0 15.08 12.38h52.66a15.36 15.36 0 0 0 15.08-12.38l5-25.92a5.61 5.61 0 0 0 -5.41-6.72zm-44 4h6a1 1 0 0 1 0 2h-6a1 1 0 0 1 0-2zm39.5 27.64a10.38 10.38 0 0 1 -10.17 8.37h-52.66a10.39 10.39 0 0 1 -10.17-8.37l-5.06-25.91a.61.61 0 0 1 .61-.73c29 0 27.14-.13 28.18.32 2.39 1 2.84 4.31 6.08 4.31h13.38a4 4 0 0 0 3-1.37l1.64-1.89a3.94 3.94 0 0 1 3-1.37c28.47 0 26.84-.1 27.12.22s.45-1.21-4.95 26.42z" fill="#ffffff" data-original="#000000" class=""/><path d="m13.46 59.63a8.29 8.29 0 0 0 1.33 3.14v-27.41h-6.07z" fill="#ffffff" data-original="#000000" class=""/><path d="m16.79 64.8c2.52 1.84 4.85 1.58 7.22 1.58v-31h-7.22z" fill="#ffffff" data-original="#000000" class=""/><path d="m26.01 35.36h7.22v31.02h-7.22z" fill="#ffffff" data-original="#000000" class=""/><path d="m36.81 37.93-1.58-1.82v30.27h7.22v-26.38h-1.14a5.94 5.94 0 0 1 -4.5-2.07z" fill="#ffffff" data-original="#000000" class=""/><path d="m44.45 39.99h7.23v26.39h-7.23z" fill="#ffffff" data-original="#000000" class=""/><path d="m59.19 37.93a5.94 5.94 0 0 1 -4.5 2.07h-1v26.38h7.21c0-32.75 0-30.45-.06-30.35z" fill="#ffffff" data-original="#000000" class=""/><path d="m62.9 35.36h7.22v31.02h-7.22z" fill="#ffffff" data-original="#000000" class=""/><path d="m72.12 66.38c2.46 0 4.72.24 7.22-1.68v-29.34h-7.22z" fill="#ffffff" data-original="#000000" class=""/><path d="m81.34 62.57a8.13 8.13 0 0 0 1.2-3l4.73-24.26h-5.93z" fill="#ffffff" data-original="#000000" class=""/></g></g></svg>
