<svg width="30" height="11" viewBox="0 0 30 11" fill="none" xmlns="http://www.w3.org/2000/svg">
<path d="M21.8838 3.8221C21.526 3.8221 21.3151 4.02014 21.3151 4.46106V6.1543C21.3151 6.59516 21.526 6.79326 21.8838 6.79326C22.2416 6.79326 22.4589 6.59516 22.4589 6.1543V4.46106C22.4589 4.02014 22.2416 3.8221 21.8838 3.8221Z" fill="white"/>
<path d="M25.5209 3.8221C25.1631 3.8221 24.9522 4.02014 24.9522 4.46106V6.1543C24.9522 6.59516 25.1632 6.79326 25.5209 6.79326C25.8787 6.79326 26.096 6.59516 26.096 6.1543V4.46106C26.096 4.02014 25.8788 3.8221 25.5209 3.8221Z" fill="white"/>
<path d="M18.2545 3.8221C17.8966 3.8221 17.6858 4.02014 17.6858 4.46106V6.1543C17.6858 6.59516 17.8967 6.79326 18.2545 6.79326C18.6122 6.79326 18.8296 6.59516 18.8296 6.1543V4.46106C18.8296 4.02014 18.6124 3.8221 18.2545 3.8221Z" fill="white"/>
<path d="M26.9934 0H3.00656C1.34877 0 0 1.34871 0 3.0065V7.71239C0 9.37018 1.34877 10.7189 3.00656 10.7189H26.9934C28.6512 10.7189 30 9.37018 30 7.71239V3.0065C29.9999 1.34871 28.6512 0 26.9934 0ZM7.09147 0.980389C7.45247 0.980389 7.74508 1.27301 7.74508 1.634C7.74508 1.995 7.45247 2.28761 7.09147 2.28761C6.73048 2.28761 6.43786 1.995 6.43786 1.634C6.43792 1.27301 6.73053 0.980389 7.09147 0.980389ZM5.9186 7.5601L4.98573 5.97544L4.0528 7.56004C4.0081 7.6303 3.91863 7.66229 3.81638 7.66229C3.54169 7.66229 3.15187 7.44502 3.15187 7.17028C3.15187 7.11274 3.17103 7.05526 3.20941 6.99139L4.31484 5.28532L3.25411 3.58564C3.20935 3.51538 3.19019 3.45146 3.19019 3.38753C3.19019 3.11923 3.55435 2.91474 3.83554 2.91474C3.97605 2.91474 4.07196 2.96583 4.13589 3.08091L4.98567 4.56339L5.83552 3.08091C5.89944 2.96589 5.99524 2.91474 6.13587 2.91474C6.41706 2.91474 6.78122 3.11923 6.78122 3.38753C6.78122 3.45152 6.76206 3.51538 6.71729 3.58564L5.65657 5.28532L6.762 6.99139C6.80032 7.05532 6.81954 7.11274 6.81954 7.17028C6.81954 7.44502 6.42971 7.66229 6.15497 7.66229C6.05278 7.66229 5.95698 7.63036 5.9186 7.5601ZM7.09147 9.80389C6.73048 9.80389 6.43786 9.51127 6.43786 9.15027C6.43786 8.78928 6.73048 8.49666 7.09147 8.49666C7.45247 8.49666 7.74508 8.78928 7.74508 9.15027C7.74508 9.51127 7.45247 9.80389 7.09147 9.80389ZM10.5958 3.4323L9.27942 5.62399C9.26664 5.64315 9.25387 5.67509 9.25387 5.71341V7.31723C9.25387 7.52166 9.00467 7.62391 8.75541 7.62391C8.50616 7.62391 8.25707 7.52166 8.25707 7.31723V5.71341C8.25707 5.67509 8.2443 5.64315 8.23147 5.62399L6.90883 3.4323C6.896 3.40675 6.896 3.3812 6.896 3.36204C6.896 3.12562 7.29854 2.95312 7.57334 2.95312C7.73307 2.95312 7.79061 3.01704 7.86086 3.13839L8.75541 4.78054L9.64357 3.13839C9.70756 3.01704 9.77143 2.95312 9.93109 2.95312C10.2058 2.95312 10.6084 3.12568 10.6084 3.36204C10.6086 3.38115 10.6086 3.40675 10.5958 3.4323ZM13.7075 7.62397H10.9855C10.7811 7.62397 10.698 7.51534 10.698 7.362C10.698 7.25975 10.7364 7.13196 10.8067 7.01049L12.6085 3.82206H11.1261C10.9343 3.82206 10.8257 3.61757 10.8257 3.38753C10.8257 3.17665 10.9152 2.95306 11.1261 2.95306H13.5925C13.7842 2.95306 13.88 3.06169 13.88 3.21509C13.88 3.31728 13.8416 3.43868 13.7714 3.56654L11.9695 6.75497H13.7075C13.8992 6.75497 14.0079 6.985 14.0079 7.1895C14.0078 7.39393 13.8992 7.62397 13.7075 7.62397ZM19.8206 6.15432C19.8206 7.25336 19.1305 7.66229 18.2488 7.66229C17.367 7.66229 16.6832 7.25336 16.6832 6.15432V4.46108C16.6832 3.36204 17.367 2.95312 18.2488 2.95312C19.1305 2.95312 19.8206 3.36204 19.8206 4.46108V6.15432ZM20.3188 6.15432V4.46108C20.3188 3.36204 21.0025 2.95312 21.8843 2.95312C22.7661 2.95312 23.4562 3.36204 23.4562 4.46108V6.15432C23.4562 7.25336 22.7661 7.66229 21.8843 7.66229C21.0025 7.66229 20.3188 7.25342 20.3188 6.15432ZM22.9085 9.80389C22.5475 9.80389 22.2549 9.51127 22.2549 9.15027C22.2549 8.78928 22.5475 8.49666 22.9085 8.49666C23.2695 8.49666 23.5621 8.78928 23.5621 9.15027C23.562 9.51127 23.2694 9.80389 22.9085 9.80389ZM22.9085 2.28755C22.5475 2.28755 22.2549 1.99494 22.2549 1.63394C22.2549 1.27295 22.5475 0.98033 22.9085 0.98033C23.2695 0.98033 23.5621 1.27295 23.5621 1.63394C23.562 1.99494 23.2694 2.28755 22.9085 2.28755ZM27.0917 6.15432C27.0917 7.25336 26.4016 7.66229 25.5198 7.66229C24.638 7.66229 23.9543 7.25336 23.9543 6.15432V4.46108C23.9543 3.36204 24.638 2.95312 25.5198 2.95312C26.4016 2.95312 27.0917 3.36204 27.0917 4.46108V6.15432Z" fill="white"/>
</svg>
