<svg width="30" height="28" viewBox="0 0 30 28" fill="none" xmlns="http://www.w3.org/2000/svg">
<path d="M15.0469 0C15.0469 0.00641191 15.0364 0.00641191 15.0156 0.00641191C6.73149 0.00641191 0 4.15492 0 9.2588V13.0418H0.0312611L2.08405 10.8874V9.25239C2.08405 4.86023 7.87772 1.28238 15.0156 1.28238C22.1431 1.28238 27.9263 4.84099 27.9263 9.22674C27.9263 9.23315 27.9263 9.23957 27.9263 9.25239V10.8874L29.9687 13.0418H30V9.25239C30.0208 4.15492 23.331 0.0128238 15.0469 0Z" fill="white"/>
<path d="M24.9008 14.8179C22.3165 15.2347 18.8153 15.4655 15.0223 15.4655C15.0119 15.4655 15.0015 15.4655 15.0015 15.4655V20.9349C15.0015 21.2875 14.5326 21.5761 13.9595 21.5761C13.3864 21.5761 12.9175 21.2875 12.9175 20.9349V15.4399C12.0838 15.4206 11.3544 15.395 10.625 15.3565V18.2675C10.625 18.6202 10.1561 18.9087 9.58297 18.9087C9.00986 18.9087 8.54094 18.6202 8.54094 18.2675V15.2667C8.54094 15.2539 8.5201 15.2347 8.5201 15.2219C7.72816 15.1577 6.9779 15.0808 6.24848 14.991V21.6017C6.24848 21.9544 5.77957 22.2429 5.20646 22.2429C4.63334 22.2429 4.16443 21.9544 4.16443 21.6017V14.6576C3.43501 14.4973 2.66391 14.3178 2.0908 14.119L2.13248 26.0772C2.16374 26.3145 2.90358 26.8146 5.50865 27.2506C7.93657 27.6546 11.3127 27.879 15.0015 27.879C18.6903 27.879 22.0665 27.6546 24.4944 27.2506C27.0994 26.8146 27.8393 26.3145 27.8705 26.0772L27.8914 14.1126C27.1099 14.3883 26.1199 14.6191 24.9008 14.8179Z" fill="white"/>
<path d="M15.0008 10.5412C6.01855 10.5412 2.13179 11.7466 2.13179 12.3622C2.13179 12.375 2.13179 12.3814 2.13179 12.3878C2.13179 12.3878 2.13179 12.3942 2.13179 12.4007C2.27768 13.0226 6.1957 14.1768 15.0008 14.1768C23.806 14.1768 27.724 13.0162 27.8699 12.3942C27.8699 12.3942 27.8699 12.3878 27.8699 12.3814C27.8699 12.375 27.8699 12.3686 27.8699 12.3622C27.8699 11.753 23.9831 10.5412 15.0008 10.5412Z" fill="white"/>
</svg>
