<svg width="30" height="20" viewBox="0 0 30 20" fill="none" xmlns="http://www.w3.org/2000/svg">
<path d="M22.5 10.6774V8.56182C22.1485 8.53851 21.8144 8.40038 21.5491 8.16866C21.2838 7.93694 21.102 7.62447 21.0316 7.27932L20.9684 6.96432H18.787C18.9072 7.90709 19.337 8.78326 20.009 9.45529C20.6811 10.1273 21.5572 10.5572 22.5 10.6774Z" fill="white"/>
<path d="M21.2571 5.41074C21.4075 5.22629 21.597 5.07768 21.812 4.97574C22.027 4.8738 22.2621 4.82109 22.5 4.82145H23.6786C24.0107 4.81731 24.3355 4.91888 24.6061 5.11147C24.8767 5.30407 25.0791 5.57772 25.1839 5.89288H27.2845C27.1547 4.85752 26.6514 3.90515 25.8691 3.21469C25.0867 2.52424 24.0792 2.14322 23.0357 2.14322C21.9922 2.14322 20.9847 2.52424 20.2023 3.21469C19.42 3.90515 18.9167 4.85752 18.787 5.89288H20.9941C21.0532 5.71817 21.1422 5.55503 21.2571 5.41074Z" fill="white"/>
<path d="M23.5714 7.50002C23.6949 7.50005 23.8146 7.4574 23.9103 7.37931C24.006 7.30121 24.0717 7.19246 24.0964 7.07145L24.2036 6.53574C24.2194 6.4579 24.2178 6.37749 24.1988 6.30035C24.1798 6.22322 24.1439 6.15127 24.0936 6.08974C24.0433 6.0282 23.98 5.97862 23.9082 5.94457C23.8365 5.91052 23.758 5.89287 23.6786 5.89288H22.5C22.4205 5.89287 22.3421 5.91052 22.2703 5.94457C22.1985 5.97862 22.1352 6.0282 22.085 6.08974C22.0347 6.15127 21.9988 6.22322 21.9797 6.30035C21.9607 6.37749 21.9591 6.4579 21.975 6.53574L22.0821 7.07145C22.1068 7.19246 22.1726 7.30121 22.2683 7.37931C22.3639 7.4574 22.4836 7.50005 22.6071 7.50002H23.5714Z" fill="white"/>
<path d="M27.2844 6.96432H25.2102L25.1469 7.27986C25.0735 7.64377 24.8765 7.97111 24.5894 8.20648C24.3023 8.44184 23.9427 8.57078 23.5714 8.57146V10.6774C24.5142 10.5572 25.3903 10.1273 26.0624 9.45529C26.7344 8.78326 27.1642 7.90709 27.2844 6.96432Z" fill="white"/>
<path d="M0 6.4286H17.6785C17.6781 6.06877 17.714 5.70981 17.7857 5.35718H0V6.4286Z" fill="white"/>
<path d="M14.6818 13.6955C14.706 13.7621 14.7495 13.8198 14.8068 13.8613C14.8641 13.9029 14.9325 13.9263 15.0033 13.9286C15.0743 13.9269 15.1431 13.9036 15.2005 13.8617C15.258 13.8199 15.3013 13.7616 15.3247 13.6945L16.0458 11.7466C16.067 11.6898 16.0742 11.6287 16.0666 11.5685C16.0591 11.5083 16.037 11.4509 16.0024 11.4011C15.971 11.3546 15.9288 11.3166 15.8792 11.2903C15.8297 11.2641 15.7745 11.2504 15.7184 11.2506H14.2774C14.2213 11.2504 14.166 11.2641 14.1164 11.2904C14.0669 11.3168 14.0246 11.355 13.9934 11.4016C13.9588 11.4515 13.9368 11.5091 13.9293 11.5694C13.9219 11.6297 13.9292 11.6909 13.9506 11.7477L14.6818 13.6955Z" fill="white"/>
<path d="M1.07143 10.1786H9.70177C10.1079 10.18 10.504 10.3046 10.8378 10.5359C11.1716 10.7672 11.4274 11.0943 11.5714 11.474L12.3166 13.462C12.6744 14.4145 12.8575 15.4236 12.8571 16.4411V18.75C12.8571 18.8921 12.9136 19.0284 13.014 19.1288C13.1145 19.2293 13.2508 19.2857 13.3928 19.2857H16.6071C16.7492 19.2857 16.8855 19.2293 16.9859 19.1288C17.0864 19.0284 17.1428 18.8921 17.1428 18.75V16.4411C17.1423 15.4238 17.3252 14.4148 17.6828 13.4625L18.4285 11.474C18.6106 10.9943 18.9695 10.6027 19.4314 10.3795C18.5917 9.61822 18.0154 8.60994 17.7857 7.50003H0V9.10717C0 9.39133 0.112882 9.66385 0.313814 9.86478C0.514745 10.0657 0.787267 10.1786 1.07143 10.1786ZM13.1153 10.7909C13.2456 10.6024 13.4196 10.4483 13.6224 10.3416C13.8252 10.235 14.0508 10.1791 14.28 10.1786H15.7211C15.9498 10.1791 16.175 10.2349 16.3776 10.3411C16.5802 10.4473 16.7541 10.6009 16.8846 10.7888C17.0178 10.9804 17.1027 11.2014 17.132 11.4329C17.1613 11.6645 17.1341 11.8997 17.0528 12.1184L16.3318 14.0663C16.2323 14.3352 16.0542 14.5681 15.8208 14.7346C15.5873 14.9011 15.3092 14.9936 15.0225 15H14.9861C14.7003 14.9935 14.423 14.9016 14.19 14.7361C13.9569 14.5707 13.7787 14.3392 13.6784 14.0716L12.9498 12.1227C12.8677 11.9039 12.8399 11.6684 12.8688 11.4364C12.8976 11.2045 12.9822 10.983 13.1153 10.7909Z" fill="white"/>
<path d="M30 9.10717V7.50003H28.2857C28.0778 8.51224 27.5812 9.44257 26.8559 10.1786H28.9286C29.2127 10.1786 29.4853 10.0657 29.6862 9.86478C29.8871 9.66385 30 9.39133 30 9.10717Z" fill="white"/>
<path d="M30 5.35718H28.2857C28.3574 5.70981 28.3933 6.06877 28.3929 6.4286H30V5.35718Z" fill="white"/>
<path d="M30 3.86789C29.9995 3.62895 29.9191 3.39705 29.7717 3.20903C29.6242 3.02101 29.4182 2.88768 29.1862 2.83021C28.9628 2.77664 28.7105 2.71396 28.4137 2.65343C28.2834 2.63055 28.1659 2.56059 28.0837 2.45682C27.4859 1.68889 26.7201 1.06816 25.845 0.642275C24.9699 0.216395 24.0089 -0.00330611 23.0357 3.76019e-05C21.5101 0.00144192 20.0345 0.544613 18.8721 1.53271C18.7719 1.62171 18.6406 1.66754 18.5068 1.66021C17.4643 1.62432 16.3141 1.60718 15 1.60718C6.86358 1.60718 2.61162 2.37593 0.803591 2.83396C0.573077 2.89117 0.3685 3.02424 0.222752 3.21177C0.0770048 3.39929 -0.00144379 3.63039 2.01227e-05 3.86789V4.28575H18.1291C18.5454 3.3306 19.2314 2.51771 20.1029 1.9468C20.9745 1.37589 21.9938 1.07178 23.0357 1.07178C24.0776 1.07178 25.0969 1.37589 25.9685 1.9468C26.84 2.51771 27.526 3.3306 27.9423 4.28575H30V3.86789Z" fill="white"/>
</svg>
