<svg width="40" height="20" viewBox="0 0 40 20" fill="none" xmlns="http://www.w3.org/2000/svg">
<path d="M39.9571 16.1844L34.2428 0.470142C34.1927 0.332333 34.1014 0.213289 33.9813 0.129178C33.8612 0.0450673 33.7181 -3.33093e-05 33.5714 1.84577e-08H6.42856C6.28192 -3.33093e-05 6.13882 0.0450673 6.0187 0.129178C5.89858 0.213289 5.80726 0.332333 5.75713 0.470142L0.0428485 16.1844C-0.0203949 16.3588 -0.0134065 16.5508 0.0623375 16.7201C0.138081 16.8894 0.276651 17.0226 0.448777 17.0916C0.745992 17.2105 7.85921 20 20 20C32.1408 20 39.254 17.2105 39.5511 17.0919C39.7234 17.0229 39.862 16.8897 39.9378 16.7203C40.0135 16.551 40.0205 16.3588 39.9571 16.1844ZM13.5714 12.8571C13.4302 12.8571 13.2921 12.8152 13.1747 12.7367C13.0572 12.6582 12.9657 12.5467 12.9117 12.4162C12.8576 12.2857 12.8435 12.1421 12.871 12.0036C12.8986 11.865 12.9666 11.7378 13.0664 11.6379L20.2093 4.495C20.344 4.36489 20.5244 4.29289 20.7117 4.29452C20.899 4.29615 21.0781 4.37127 21.2106 4.5037C21.343 4.63614 21.4181 4.81529 21.4198 5.00257C21.4214 5.18985 21.3494 5.37028 21.2193 5.505L14.0764 12.6479C14.0102 12.7143 13.9315 12.767 13.8448 12.8029C13.7581 12.8388 13.6652 12.8573 13.5714 12.8571V12.8571ZM26.9336 5.505L16.9336 15.505C16.7988 15.6351 16.6184 15.7071 16.4311 15.7055C16.2439 15.7039 16.0647 15.6287 15.9323 15.4963C15.7998 15.3639 15.7247 15.1847 15.7231 14.9974C15.7215 14.8101 15.7935 14.6297 15.9236 14.495L25.9236 4.495C26.0583 4.36489 26.2387 4.29289 26.426 4.29452C26.6133 4.29615 26.7924 4.37127 26.9249 4.5037C27.0573 4.63614 27.1324 4.81529 27.134 5.00257C27.1357 5.18985 27.0637 5.37028 26.9336 5.505V5.505Z" fill="white"/>
</svg>
