<svg width="30" height="19" viewBox="0 0 30 19" fill="none" xmlns="http://www.w3.org/2000/svg">
<path d="M0 5.4357C0 4.96749 0.445966 4.58793 0.996094 4.58793C1.54622 4.58793 1.99219 4.96749 1.99219 5.4357V14.6115C1.99219 15.0798 1.54622 15.4593 0.996094 15.4593C0.445966 15.4593 0 15.0798 0 14.6115V5.4357Z" fill="white"/>
<path d="M17.4023 2.48501e-07C17.9525 2.68967e-07 18.3984 0.37956 18.3984 0.84777C18.3984 1.31598 17.9525 1.69554 17.4023 1.69554L10.7227 1.69554C10.1725 1.69554 9.72656 1.31598 9.72656 0.847769C9.72656 0.379559 10.1725 -2.04661e-08 10.7227 0L17.4023 2.48501e-07Z" fill="white"/>
<path d="M6.79688 2.64304H20.625V19H11.25L7.32422 14.9606H6.79688V2.64304Z" fill="white"/>
<path d="M20.625 6.68241H23.6719V18.9501H20.625V6.68241Z" fill="white"/>
<path d="M3.75 5.08661H6.79688V14.9606H3.75V5.08661Z" fill="white"/>
<path d="M1.99219 7.87927H3.75V12.0682H1.99219V7.87927Z" fill="white"/>
<path d="M16.5234 1.69554V2.64304H11.7188V1.69554L16.5234 1.69554Z" fill="white"/>
<path d="M24.7266 16.9554H23.6719V8.87664H24.7266V16.9554Z" fill="white"/>
<path d="M30 16.0079L27.8906 17.5538L26.0742 18.9501H25.4004L24.7266 18.4514V7.13123L25.2539 6.68241H26.0156L30 9.27559V16.0079Z" fill="white"/>
</svg>
