<svg width="30" height="33" viewBox="0 0 30 33" fill="none" xmlns="http://www.w3.org/2000/svg">
<path d="M27.5158 8.49991C30.8281 13.1943 30.8281 20.8055 27.5158 25.4999C26.4408 27.0235 25.149 28.0526 23.7811 28.5872L24.5958 17.4999L23.9848 12.9999L21.0178 4.99991C23.3521 4.80556 25.7323 5.97223 27.5158 8.49991Z" fill="#DDDDDD"/>
<path d="M2.48423 9.35465C-0.828078 14.0491 -0.828078 21.6602 2.48423 26.3546C3.55925 27.8782 4.85104 28.9073 6.21889 29.4419L5.40416 18.3546L6.01521 13.8546L8.98217 5.85465C6.64789 5.66029 4.26773 6.82696 2.48423 9.35465Z" fill="#DDDDDD"/>
<path d="M23.7648 10.239C23.7514 10.201 23.74 10.164 23.7241 10.127L23.0246 8.47C23.6047 8.147 24.2292 6.954 24.2292 5.73C24.2292 4.304 23.4231 3.798 22.735 3.798C22.0156 3.798 21.9321 5.008 21.9235 5.863L20.1189 1.592C19.7522 0.701 19.0569 0 18.5371 0H11.5059C10.9865 0 10.2915 0.701 9.92446 1.592L8.12022 5.863C8.11085 5.008 8.02734 3.798 7.30874 3.798C6.61987 3.798 5.8141 4.304 5.8141 5.73C5.8141 6.954 6.439 8.147 7.0191 8.47L6.31964 10.127C6.30375 10.164 6.29276 10.201 6.2789 10.239C5.53057 11.809 5.04172 14.721 5.04172 16.834V23.113C5.04172 24.637 5.28655 26.02 5.68211 27.051V29.486C5.68211 30.91 6.16769 32.071 6.7649 32.071H8.07418C8.67139 32.071 9.15656 30.912 9.15656 29.486V28.863H20.8868V29.486C20.8868 30.912 21.3715 32.071 21.9696 32.071H23.2784C23.876 32.071 24.3608 30.91 24.3608 29.486V27.051C24.7568 26.02 25.0012 24.637 25.0012 23.113V16.834C25.002 14.721 24.5132 11.809 23.7648 10.239ZM10.5872 3.49C10.841 2.971 11.2847 2.577 11.5059 2.577H18.5379C18.7591 2.577 19.2027 2.971 19.4565 3.49L21.8229 9.12H8.22124L10.5872 3.49ZM5.85361 15.884C5.85361 14.338 6.34653 13.083 6.95514 13.083C7.56334 13.083 9.5509 15.947 9.5509 17.493C9.5509 19.039 7.56334 18.681 6.95514 18.681C6.34653 18.681 5.85361 17.431 5.85361 15.884ZM8.73738 26.11L7.49287 26.115C7.14742 25.851 6.90381 25.543 6.73149 25.212C6.64432 25.045 6.57751 24.871 6.52536 24.698C6.47281 24.523 6.43452 24.351 6.40967 24.179C6.25487 23.105 6.57466 22.118 6.57466 22.118H8.69868L10.1147 26.108L8.73738 26.11ZM18.0759 26.112H11.9678C11.3311 26.112 10.8142 24.843 10.8142 23.281H19.2296C19.2296 24.845 18.7126 26.112 18.0759 26.112ZM18.344 21.349H11.6998C11.0072 21.349 10.4451 19.253 10.4451 16.668H19.5987C19.5987 19.254 19.0365 21.349 18.344 21.349ZM23.6345 24.181C23.6092 24.353 23.5709 24.525 23.5184 24.699C23.4666 24.872 23.3998 25.046 23.3122 25.213C23.1403 25.544 22.8963 25.854 22.5509 26.116L21.3064 26.111H19.9282L21.3451 22.121H23.4687C23.4687 22.121 23.7889 23.105 23.6345 24.181ZM23.0886 18.681C22.4808 18.681 20.4933 19.037 20.4933 17.493C20.4933 15.949 22.4808 13.083 23.0886 13.083C23.6972 13.083 24.1901 14.338 24.1901 15.884C24.1901 17.429 23.6972 18.681 23.0886 18.681Z" fill="white"/>
</svg>
