<svg width="30" height="12" viewBox="0 0 30 12" fill="none" xmlns="http://www.w3.org/2000/svg">
<path fill-rule="evenodd" clip-rule="evenodd" d="M21.404 0C21.8071 0 22.1136 0.554867 22.0474 1.1644L20.9604 11.1644C20.908 11.6466 20.6359 12 20.3171 12H9.38008C9.05117 12 8.77373 11.6245 8.73294 11.124L7.91772 1.12404C7.86907 0.527182 8.17258 0 8.56486 0H21.404ZM18.2609 3C18.6211 3 18.913 3.44772 18.913 4V8C18.913 8.55228 18.6211 9 18.2609 9H11.7391C11.3789 9 11.087 8.55228 11.087 8V4C11.087 3.44772 11.3789 3 11.7391 3H18.2609Z" fill="white"/>
<path d="M13.0435 4H16.9565C17.3167 4 17.6087 4.44772 17.6087 5V7C17.6087 7.55228 17.3167 8 16.9565 8H13.0435C12.6833 8 12.3913 7.55228 12.3913 7V5C12.3913 4.44772 12.6833 4 13.0435 4Z" fill="white"/>
<path fill-rule="evenodd" clip-rule="evenodd" d="M6.52174 0H0.652174C0.291988 0 0 0.447715 0 1V6C0 6.55228 0.291988 7 0.652174 7H1.30435C1.66453 7 1.95652 7.44772 1.95652 8V11C1.95652 11.5523 2.24851 12 2.6087 12H5.86957C6.22975 12 6.52174 11.5523 6.52174 11C6.52174 10.4477 6.22975 10 5.86957 10H3.91304C3.55286 10 3.26087 9.55228 3.26087 9V8C3.26087 7.44772 3.55286 7 3.91304 7H6.52174C6.88192 7 7.17391 6.55228 7.17391 6V1C7.17391 0.447715 6.88193 0 6.52174 0ZM2.6087 3.5C2.6087 4.32843 2.17071 5 1.63043 5C1.09016 5 0.652174 4.32843 0.652174 3.5C0.652174 2.67157 1.09016 2 1.63043 2C2.17071 2 2.6087 2.67157 2.6087 3.5ZM5.54348 5C6.08376 5 6.52174 4.32843 6.52174 3.5C6.52174 2.67157 6.08376 2 5.54348 2C5.0032 2 4.56522 2.67157 4.56522 3.5C4.56522 4.32843 5.0032 5 5.54348 5Z" fill="white"/>
<path fill-rule="evenodd" clip-rule="evenodd" d="M23.4783 0H29.3478C29.708 0 30 0.447715 30 1V6C30 6.55228 29.708 7 29.3478 7H28.6957C28.3355 7 28.0435 7.44772 28.0435 8V11C28.0435 11.5523 27.7515 12 27.3913 12H24.1304C23.7702 12 23.4783 11.5523 23.4783 11C23.4783 10.4477 23.7702 10 24.1304 10H26.087C26.4471 10 26.7391 9.55228 26.7391 9V8C26.7391 7.44772 26.4471 7 26.087 7H23.4783C23.1181 7 22.8261 6.55228 22.8261 6V1C22.8261 0.447715 23.1181 0 23.4783 0ZM25.4348 3.5C25.4348 4.32843 24.9968 5 24.4565 5C23.9162 5 23.4783 4.32843 23.4783 3.5C23.4783 2.67157 23.9162 2 24.4565 2C24.9968 2 25.4348 2.67157 25.4348 3.5ZM28.3696 5C28.9098 5 29.3478 4.32843 29.3478 3.5C29.3478 2.67157 28.9098 2 28.3696 2C27.8293 2 27.3913 2.67157 27.3913 3.5C27.3913 4.32843 27.8293 5 28.3696 5Z" fill="white"/>
</svg>
