<svg width="58" height="30" viewBox="0 0 58 30" fill="none" xmlns="http://www.w3.org/2000/svg">
<path fill-rule="evenodd" clip-rule="evenodd" d="M55.826 8.60004C55.826 8.60004 43.7303 -1.63472 0 0.226147C0 0.226147 4.65216 13.2522 0 30H9.30433C9.30433 20.6062 16.6584 12.9911 26.0521 12.9911C35.4459 12.9911 43.061 20.6062 43.061 30C43.061 30 44.6608 30 51.1738 29.0696C57.6868 28.1391 57.6868 16.0435 57.6868 16.0435H49.0825C47.6682 16.0435 46.5216 14.897 46.5216 13.4826L49.3129 9.53048L55.826 8.60004ZM26.0521 7.66961C20.6385 7.66961 15.4159 9.63166 11.3467 13.1942C10.96 13.5326 10.921 14.1204 11.2595 14.507C11.5982 14.8938 12.1861 14.9327 12.5725 14.5942C16.3022 11.3288 21.0894 9.53047 26.0521 9.53047C31.0295 9.53047 35.8282 11.3391 39.5641 14.6233C39.7408 14.7786 39.9599 14.8549 40.1781 14.8549C40.4364 14.8549 40.6933 14.748 40.8773 14.5388C41.2165 14.1527 41.1786 13.5648 40.7927 13.2256C36.7169 9.64271 31.4819 7.66961 26.0521 7.66961Z" fill="white"/>
</svg>
