<svg width="30" height="16" viewBox="0 0 30 16" fill="none" xmlns="http://www.w3.org/2000/svg">
<path fill-rule="evenodd" clip-rule="evenodd" d="M29.0323 4.47245C29.0323 4.47245 22.7419 -0.850134 0 0.117608C0 0.117608 2.41935 6.8918 0 15.6015H4.83871C4.83871 10.7163 8.66317 6.75602 13.5484 6.75602C18.4336 6.75602 22.3938 10.7163 22.3938 15.6015C22.3938 15.6015 23.2258 15.6015 26.6129 15.1176C30 14.6337 30 8.34342 30 8.34342H25.5253C24.7898 8.34342 24.1935 7.74716 24.1935 7.01162L25.6452 4.95632L29.0323 4.47245ZM13.5484 3.98858C10.733 3.98858 8.01702 5.00894 5.90087 6.86162C5.69976 7.03763 5.67944 7.34331 5.8555 7.54436C6.03163 7.74553 6.33738 7.76573 6.53831 7.58972C8.47796 5.89152 10.9675 4.95632 13.5484 4.95632C16.1369 4.95632 18.6324 5.8969 20.5753 7.60485C20.6672 7.68559 20.7811 7.72527 20.8946 7.72527C21.0289 7.72527 21.1625 7.66968 21.2582 7.56087C21.4346 7.36013 21.4149 7.05438 21.2142 6.87795C19.0946 5.01468 16.3721 3.98858 13.5484 3.98858Z" fill="white"/>
</svg>
