<svg width="31" height="16" viewBox="0 0 31 16" fill="none" xmlns="http://www.w3.org/2000/svg">
<path d="M7.49191 14.4875L8.26803 15.5223H9.56155L8.78544 14.4875H7.49191Z" fill="white"/>
<path d="M19.3923 7.76118C15.0022 7.76118 11.4091 11.1986 11.1403 15.5223H12.1668C12.4331 11.7683 15.5724 8.796 19.3923 8.796C23.2123 8.796 26.3516 11.7683 26.6179 15.5223H27.6446C27.3756 11.1986 23.7825 7.76118 19.3923 7.76118Z" fill="white"/>
<path d="M2.31781 14.4875L3.09393 15.5223H4.38746L3.61134 14.4875H2.31781Z" fill="white"/>
<path d="M4.9048 14.4875L5.68091 15.5223H6.97444L6.19833 14.4875H4.9048Z" fill="white"/>
<path d="M24.5665 2.06965H28.7058V3.10448H24.5665V2.06965Z" fill="white"/>
<path d="M30.258 0H17.9621C17.2856 0 16.6077 0.160175 16.0019 0.463093C15.2525 0.837509 14.4148 1.03482 13.5783 1.03482H12.666C12 1.03482 11.4303 0.613415 11.2105 0.0232431L7.69223 2.03326C3.56987 4.38966 0.954009 8.73005 0.775391 13.4527H9.30282L10.1954 14.6426C10.8732 10.1696 14.7331 6.72635 19.3923 6.72635C24.3527 6.72635 28.4089 10.6282 28.6795 15.5223H30.258C30.5437 15.5223 30.7754 15.2904 30.7754 15.0049V0.517411C30.7754 0.232178 30.5437 0 30.258 0ZM8.71922 3.83031C5.85476 5.46794 3.80735 8.26089 3.10223 11.4937L2.09166 11.2731C2.85843 7.75485 5.08749 4.71456 8.20585 2.93217L10.3397 1.71291L10.853 2.61131L8.71922 3.83031ZM29.7406 4.13929H23.5316V1.03482H29.7406V4.13929Z" fill="white"/>
</svg>
