<svg width="42" height="14" viewBox="0 0 42 14" fill="none" xmlns="http://www.w3.org/2000/svg">
<path fill-rule="evenodd" clip-rule="evenodd" d="M3 4C1.5 4 0 0 0 0L2.16563e-06 10C2.16563e-06 12 0.999809 13 3 13H9V14H10V13H32V14H33V13H39C41.5 13 42 12 42 9V2V0C42 0 40.5002 4 39 4H33V0C33 0 31 4 29.9998 4H13C10.0002 4 9 0 9 0V4H3ZM2.91406 9.32843C3.69511 10.1095 4.64486 10.4261 5.03538 10.0355C5.42591 9.64501 5.10932 8.69526 4.32828 7.91421C3.54723 7.13317 2.59748 6.81658 2.20696 7.20711C1.81643 7.59763 2.13301 8.54738 2.91406 9.32843ZM9.50195 7H33.0019C33.0019 7 33.0019 9.5 29.5 9.5H12.502C9.50391 9.5 9.50195 7 9.50195 7ZM39.0898 9.32843C38.3088 10.1095 37.359 10.4261 36.9685 10.0355C36.578 9.64501 36.8946 8.69526 37.6756 7.91421C38.4567 7.13317 39.4064 6.81658 39.797 7.20711C40.1875 7.59763 39.8709 8.54738 39.0898 9.32843Z" fill="white"/>
</svg>
