<svg width="46" height="12" viewBox="0 0 46 12" fill="none" xmlns="http://www.w3.org/2000/svg">
<path fill-rule="evenodd" clip-rule="evenodd" d="M32.8195 0C33.4375 0 33.9075 0.554867 33.8059 1.1644L32.1393 11.1644C32.0589 11.6466 31.6417 12 31.1529 12H14.3828C13.8785 12 13.4531 11.6245 13.3905 11.124L12.1405 1.12404C12.0659 0.527182 12.5313 0 13.1328 0H32.8195ZM28 3C28.5523 3 29 3.44772 29 4V8C29 8.55228 28.5523 9 28 9H18C17.4477 9 17 8.55228 17 8V4C17 3.44772 17.4477 3 18 3H28Z" fill="white"/>
<path d="M20 4H26C26.5523 4 27 4.44772 27 5V7C27 7.55228 26.5523 8 26 8H20C19.4477 8 19 7.55228 19 7V5C19 4.44772 19.4477 4 20 4Z" fill="white"/>
<path fill-rule="evenodd" clip-rule="evenodd" d="M10 0H1C0.447715 0 0 0.447715 0 1V6C0 6.55228 0.447715 7 1 7H2C2.55228 7 3 7.44772 3 8V11C3 11.5523 3.44772 12 4 12H9C9.55229 12 10 11.5523 10 11C10 10.4477 9.55229 10 9 10H6C5.44772 10 5 9.55228 5 9V8C5 7.44772 5.44772 7 6 7H10C10.5523 7 11 6.55228 11 6V1C11 0.447715 10.5523 0 10 0ZM4 3.5C4 4.32843 3.32843 5 2.5 5C1.67157 5 1 4.32843 1 3.5C1 2.67157 1.67157 2 2.5 2C3.32843 2 4 2.67157 4 3.5ZM8.5 5C9.32843 5 10 4.32843 10 3.5C10 2.67157 9.32843 2 8.5 2C7.67157 2 7 2.67157 7 3.5C7 4.32843 7.67157 5 8.5 5Z" fill="white"/>
<path fill-rule="evenodd" clip-rule="evenodd" d="M36 0H45C45.5523 0 46 0.447715 46 1V6C46 6.55228 45.5523 7 45 7H44C43.4477 7 43 7.44772 43 8V11C43 11.5523 42.5523 12 42 12H37C36.4477 12 36 11.5523 36 11C36 10.4477 36.4477 10 37 10H40C40.5523 10 41 9.55228 41 9V8C41 7.44772 40.5523 7 40 7H36C35.4477 7 35 6.55228 35 6V1C35 0.447715 35.4477 0 36 0ZM39 3.5C39 4.32843 38.3284 5 37.5 5C36.6716 5 36 4.32843 36 3.5C36 2.67157 36.6716 2 37.5 2C38.3284 2 39 2.67157 39 3.5ZM43.5 5C44.3284 5 45 4.32843 45 3.5C45 2.67157 44.3284 2 43.5 2C42.6716 2 42 2.67157 42 3.5C42 4.32843 42.6716 5 43.5 5Z" fill="white"/>
</svg>
