<svg width="30" height="14" viewBox="0 0 30 14" fill="none" xmlns="http://www.w3.org/2000/svg">
<path fill-rule="evenodd" clip-rule="evenodd" d="M2.14286 4C1.07143 4 0 0 0 0L1.54688e-06 10C1.54688e-06 12 0.714149 13 2.14286 13H6.42857V14H7.14286V13H22.8571V14H23.5714V13H27.8571C29.6429 13 30 12 30 9V2V0C30 0 28.9287 4 27.8571 4H23.5714V0C23.5714 0 22.1429 4 21.4284 4H9.28572C7.143 4 6.42857 0 6.42857 0V4H2.14286ZM2.08147 9.32843C2.63937 10.1095 3.31776 10.4261 3.5967 10.0355C3.87565 9.64501 3.64952 8.69526 3.09163 7.91421C2.53373 7.13317 1.85534 6.81658 1.5764 7.20711C1.29745 7.59763 1.52358 8.54738 2.08147 9.32843ZM6.78711 7H23.5728C23.5728 7 23.5728 9.5 21.0714 9.5H8.92997C6.7885 9.5 6.78711 7 6.78711 7ZM27.9213 9.32843C27.3634 10.1095 26.685 10.4261 26.4061 10.0355C26.1271 9.64501 26.3533 8.69526 26.9112 7.91421C27.4691 7.13317 28.1474 6.81658 28.4264 7.20711C28.7053 7.59763 28.4792 8.54738 27.9213 9.32843Z" fill="white"/>
</svg>
