<svg width="59" height="30" viewBox="0 0 59 30" fill="none" xmlns="http://www.w3.org/2000/svg">
<path d="M13.7564 28L15.2564 30H17.7564L16.2564 28H13.7564Z" fill="white"/>
<path d="M36.7563 15C28.2715 15 21.3271 21.6436 20.8076 30H22.7915C23.3061 22.7446 29.3735 17 36.7563 17C44.1391 17 50.2065 22.7446 50.7212 30H52.7055C52.1855 21.6436 45.2412 15 36.7563 15Z" fill="white"/>
<path d="M3.75642 28L5.25642 30H7.75642L6.25642 28H3.75642Z" fill="white"/>
<path d="M8.75629 28L10.2563 30H12.7563L11.2563 28H8.75629Z" fill="white"/>
<path d="M46.7564 4.00002H54.7564V6.00002H46.7564V4.00002Z" fill="white"/>
<path d="M57.7563 0H33.9922C32.6846 0 31.3745 0.30957 30.2036 0.895019C28.7554 1.61865 27.1362 2 25.5195 2H23.7563C22.4692 2 21.3682 1.18555 20.9433 0.0449218L14.1435 3.92969C6.17627 8.48388 1.12061 16.8725 0.775391 26H17.2563L18.9814 28.2998C20.2915 19.6548 27.7514 13 36.7563 13C46.3432 13 54.1826 20.541 54.7055 30H57.7563C58.3086 30 58.7563 29.5517 58.7563 29V0.999999C58.7563 0.44873 58.3086 0 57.7563 0ZM16.1284 7.40283C10.5923 10.5679 6.63525 15.9658 5.27246 22.2139L3.31933 21.7876C4.80127 14.9878 9.10937 9.11181 15.1362 5.66699L19.2602 3.31054L20.2524 5.04687L16.1284 7.40283ZM56.7563 8H44.7563V2H56.7563V8Z" fill="white"/>
</svg>
