<svg width="15" height="15" viewBox="0 0 15 15" fill="none" xmlns="http://www.w3.org/2000/svg">
<path d="M11.4065 3.21825L2.59843 12.2078L1.34683 11.0392L10.2111 2.10422L11.4065 3.21825Z" fill="white"/>
<path d="M2.44375 12.6944L3.67894 13.8493L0.322602 14.9861C0.297796 14.9949 0.271646 14.9995 0.245256 14.9998C0.207555 15.0015 0.169988 14.9943 0.13575 14.9789C0.101513 14.9635 0.0716168 14.9403 0.048605 14.9113C0.0255932 14.8822 0.0101461 14.8483 0.00357725 14.8122C-0.00299161 14.7762 -0.000487953 14.7391 0.0108753 14.7042L1.08434 11.428L2.44375 12.6944Z" fill="white"/>
<path d="M12.9346 4.64604L4.07035 13.5811L2.93361 12.5216L11.7416 3.532L12.9346 4.64604Z" fill="white"/>
<path d="M14.9995 1.80184C15.005 2.04238 14.9612 2.28159 14.8707 2.5056C14.7801 2.72961 14.6447 2.93397 14.4722 3.10685L13.2581 4.3232L11.8963 3.05001L10.5463 1.77455L11.7463 0.565028C12.0053 0.302721 12.3388 0.120978 12.7045 0.0428741C13.0701 -0.0352298 13.4514 -0.00617152 13.8 0.12636C14.1486 0.258891 14.4488 0.488916 14.6624 0.787231C14.8759 1.08555 14.9933 1.43869 14.9995 1.80184Z" fill="white"/>
</svg>
