<svg width="54" height="19" viewBox="0 0 54 19" fill="none" xmlns="http://www.w3.org/2000/svg">
<path d="M38.7904 6.77491C38.1561 6.77491 37.7823 7.12596 37.7823 7.90751V10.9089C37.7823 11.6903 38.1562 12.0415 38.7904 12.0415C39.4246 12.0415 39.8098 11.6903 39.8098 10.9089V7.90751C39.8098 7.12596 39.4247 6.77491 38.7904 6.77491Z" fill="white"/>
<path d="M45.2375 6.77491C44.6032 6.77491 44.2294 7.12596 44.2294 7.90751V10.9089C44.2294 11.6903 44.6033 12.0415 45.2375 12.0415C45.8716 12.0415 46.2569 11.6903 46.2569 10.9089V7.90751C46.2569 7.12596 45.8717 6.77491 45.2375 6.77491Z" fill="white"/>
<path d="M32.3572 6.77491C31.7229 6.77491 31.3491 7.12596 31.3491 7.90751V10.9089C31.3491 11.6903 31.723 12.0415 32.3572 12.0415C32.9914 12.0415 33.3766 11.6903 33.3766 10.9089V7.90751C33.3766 7.12596 32.9916 6.77491 32.3572 6.77491Z" fill="white"/>
<path d="M47.8475 0H5.32931C2.39077 0 0 2.39067 0 5.32921V13.6707C0 16.6092 2.39077 19 5.32931 19H47.8476C50.7861 19 53.1769 16.6092 53.1769 13.6707V5.32921C53.1768 2.39067 50.786 0 47.8475 0ZM12.5701 1.7378C13.21 1.7378 13.7286 2.25648 13.7286 2.89637C13.7286 3.53626 13.21 4.05494 12.5701 4.05494C11.9302 4.05494 11.4115 3.53626 11.4115 2.89637C11.4116 2.25648 11.9303 1.7378 12.5701 1.7378ZM10.4911 13.4008L8.83752 10.5918L7.18385 13.4007C7.10461 13.5252 6.94601 13.5819 6.76477 13.5819C6.27787 13.5819 5.58689 13.1968 5.58689 12.7098C5.58689 12.6078 5.62085 12.5059 5.68888 12.3927L7.64832 9.36856L5.76812 6.35577C5.68877 6.23124 5.65481 6.11793 5.65481 6.00461C5.65481 5.52903 6.30031 5.16656 6.79873 5.16656C7.04779 5.16656 7.21781 5.25713 7.33113 5.46111L8.83742 8.08889L10.3438 5.46111C10.4571 5.25723 10.6269 5.16656 10.8762 5.16656C11.3746 5.16656 12.0201 5.52903 12.0201 6.00461C12.0201 6.11803 11.9862 6.23124 11.9068 6.35577L10.0266 9.36856L11.9861 12.3927C12.054 12.506 12.0881 12.6078 12.0881 12.7098C12.0881 13.1968 11.3971 13.5819 10.9101 13.5819C10.7289 13.5819 10.5591 13.5253 10.4911 13.4008ZM12.5701 17.378C11.9302 17.378 11.4115 16.8593 11.4115 16.2194C11.4115 15.5795 11.9302 15.0609 12.5701 15.0609C13.21 15.0609 13.7286 15.5795 13.7286 16.2194C13.7286 16.8593 13.21 17.378 12.5701 17.378ZM18.7817 6.08396L16.4483 9.96888C16.4257 10.0028 16.4031 10.0594 16.4031 10.1274V12.9703C16.4031 13.3326 15.9613 13.5139 15.5195 13.5139C15.0777 13.5139 14.6362 13.3326 14.6362 12.9703V10.1274C14.6362 10.0594 14.6135 10.0028 14.5908 9.96888L12.2463 6.08396C12.2236 6.03868 12.2236 5.9934 12.2236 5.95943C12.2236 5.54036 12.9371 5.23459 13.4242 5.23459C13.7074 5.23459 13.8093 5.3479 13.9339 5.563L15.5195 8.4738L17.0938 5.563C17.2073 5.3479 17.3205 5.23459 17.6035 5.23459C18.0905 5.23459 18.8041 5.54046 18.8041 5.95943C18.8044 5.99329 18.8044 6.03868 18.7817 6.08396ZM24.2974 13.514H19.4726C19.1101 13.514 18.9629 13.3214 18.9629 13.0496C18.9629 12.8684 19.031 12.6418 19.1555 12.4265L22.3494 6.77485H19.7216C19.3818 6.77485 19.1892 6.41237 19.1892 6.00461C19.1892 5.63082 19.3478 5.23449 19.7216 5.23449H24.0935C24.4334 5.23449 24.6031 5.42704 24.6031 5.69895C24.6031 5.88008 24.5352 6.09528 24.4106 6.32191L21.2167 11.9736H24.2973C24.6373 11.9736 24.8298 12.3814 24.8298 12.7438C24.8297 13.1062 24.6372 13.514 24.2974 13.514ZM35.1333 10.9089C35.1333 12.857 33.9101 13.5819 32.3471 13.5819C30.7841 13.5819 29.5721 12.857 29.5721 10.9089V7.90755C29.5721 5.95943 30.7841 5.23459 32.3471 5.23459C33.9101 5.23459 35.1333 5.95943 35.1333 7.90755V10.9089ZM36.0164 10.9089V7.90755C36.0164 5.95943 37.2283 5.23459 38.7913 5.23459C40.3543 5.23459 41.5776 5.95943 41.5776 7.90755V10.9089C41.5776 12.857 40.3543 13.5819 38.7913 13.5819C37.2283 13.5819 36.0164 12.8571 36.0164 10.9089ZM40.6067 17.378C39.9668 17.378 39.4481 16.8593 39.4481 16.2194C39.4481 15.5795 39.9668 15.0609 40.6067 15.0609C41.2466 15.0609 41.7653 15.5795 41.7653 16.2194C41.7652 16.8593 41.2465 17.378 40.6067 17.378ZM40.6067 4.05483C39.9668 4.05483 39.4481 3.53615 39.4481 2.89627C39.4481 2.25638 39.9668 1.7377 40.6067 1.7377C41.2466 1.7377 41.7653 2.25638 41.7653 2.89627C41.7652 3.53615 41.2465 4.05483 40.6067 4.05483ZM48.0218 10.9089C48.0218 12.857 46.7985 13.5819 45.2355 13.5819C43.6725 13.5819 42.4605 12.857 42.4605 10.9089V7.90755C42.4605 5.95943 43.6725 5.23459 45.2355 5.23459C46.7985 5.23459 48.0218 5.95943 48.0218 7.90755V10.9089Z" fill="white"/>
</svg>
