<svg width="31" height="26" viewBox="0 0 31 26" fill="none" xmlns="http://www.w3.org/2000/svg">
<path d="M14.2185 24.631C13.6334 24.666 13.1293 24.659 13.0144 24.618C12.9203 24.584 13.1228 24.422 13.3748 24.263C13.6674 24.078 13.401 23.889 13.2599 23.793C12.7871 23.471 12.3379 23.121 11.9147 22.748C11.8102 22.656 11.5647 22.469 11.0958 22.475C10.3514 22.485 9.40976 22.51 9.29091 22.467C9.20471 22.436 9.701 22.119 10.1855 21.821C10.6061 21.562 10.4363 21.229 10.3148 21.076C9.92433 20.585 9.57301 20.068 9.25826 19.528C9.19296 19.416 8.99445 19.203 8.54387 19.197C7.83731 19.189 7.03411 19.226 6.9244 19.187C6.8382 19.155 7.46118 18.705 8.08937 18.306C8.23434 18.214 8.4642 18 8.32576 17.566C8.12855 16.941 7.90914 16.31 7.77462 15.654C7.74197 15.494 7.56566 15.172 7.0968 15.181C6.45554 15.196 5.80775 15.202 5.7098 15.167C5.62491 15.136 6.26617 14.696 6.97142 14.294C7.1621 14.187 7.46248 14.108 7.51864 13.546C7.53431 13.387 7.50558 13.227 7.50558 13.066C7.50558 12.525 7.5304 11.992 7.61137 11.469C7.68712 10.984 7.30576 10.886 7.09549 10.894C6.44901 10.919 5.79339 10.944 5.69805 10.909C5.60401 10.875 6.53782 10.36 7.44028 9.935C7.62182 9.851 7.93265 9.688 8.10243 9.25C8.33752 8.645 8.53734 8.04 8.83119 7.469C9.09631 6.953 8.55432 6.867 8.28005 6.871C7.58394 6.881 7.01713 6.909 6.90612 6.87C6.80164 6.832 7.99534 6.305 9.10807 5.951C9.36666 5.868 9.83814 5.708 10.2809 5.166C10.6152 4.758 10.9835 4.373 11.3296 3.984C11.6705 3.602 11.2943 3.551 11.0684 3.551C10.2117 3.551 9.46592 3.602 9.33662 3.554C9.21647 3.512 11.1115 2.953 12.2504 2.733C12.4985 2.685 12.8446 2.615 13.3004 2.328C13.6883 2.083 14.0553 1.82 14.4614 1.602C14.8219 1.408 14.5294 1.368 14.3648 1.366C13.4192 1.356 12.5586 1.419 12.4175 1.368C12.2817 1.319 14.8324 0.966 15.8354 0.913C16.7169 0.529 18.2202 0.215 19.1932 0C18.9411 0 18.7282 0.001 18.6459 0.006H12.9856C12.667 0.037 11.3048 -0.008 11.058 0.006C10.4167 0.059 9.97396 0.109 9.35882 0.298C8.95396 0.423 8.82205 0.822 9.09762 0.907C9.40323 1.001 10.5669 1.31 10.4245 1.365C10.307 1.41 8.7685 1.365 7.80335 1.314C7.41938 1.293 6.88653 1.267 6.66189 1.392C6.08985 1.71 6.26747 1.641 5.73462 2.052C5.52304 2.215 5.46949 2.567 5.7751 2.677C6.06896 2.781 7.49383 3.51 7.30315 3.583C7.13989 3.646 5.15344 3.753 4.6676 3.718C4.18698 3.684 3.93361 3.705 3.74555 3.91C3.2793 4.419 3.22967 4.599 2.84439 5.196C2.69159 5.432 2.70465 5.856 2.93712 5.947C3.16959 6.037 4.26665 6.437 4.93533 6.864C4.18045 6.817 2.72032 7.052 2.39381 7.052C2.06731 7.052 1.80741 7.065 1.69248 7.329C1.39863 7.999 1.34508 8.253 1.15701 8.96C1.08388 9.243 1.21709 9.53 1.50311 9.655C1.78913 9.78 3.9532 10.903 3.73249 10.894C3.36549 10.878 1.47046 11.223 1.18444 11.227C0.89842 11.231 0.711659 11.402 0.680315 11.69C0.621544 12.229 0.64897 12.229 0.64897 12.78C0.650276 12.978 0.654194 13.176 0.66203 13.371C0.673784 13.658 1.00943 13.97 1.32288 14.083C1.75125 14.239 3.94929 15.066 3.75338 15.142C3.59144 15.204 1.60367 15.392 1.39993 15.397C0.937601 15.408 0.881442 15.762 0.934989 16.051C1.07081 16.776 1.08126 16.911 1.32679 17.604C1.39863 17.812 1.63763 18 1.88316 18.063C2.12869 18.126 5.23572 19.097 5.03851 19.173C4.87525 19.236 3.01287 19.508 2.71901 19.518C2.32851 19.534 2.369 19.959 2.54792 20.268C2.90708 20.89 2.7386 20.7 3.1709 21.254C3.25971 21.371 3.65935 21.556 3.78342 21.576C4.02895 21.618 7.56305 22.378 7.36584 22.453C7.20258 22.516 5.31408 22.586 4.96406 22.601C4.61405 22.616 4.65976 23.017 4.85958 23.2C5.36762 23.663 5.24747 23.585 5.79731 23.951C6.10944 24.159 6.8369 24.142 6.88522 24.17C7.61267 24.258 10.6727 24.569 10.4872 24.641C10.324 24.704 9.19557 24.799 8.11941 24.897C7.77854 24.885 8.0528 25.248 8.29703 25.34C8.90564 25.575 9.53514 25.75 10.1712 25.86C10.196 25.864 10.2182 25.866 10.2404 25.866C10.4676 25.866 11.8912 25.97 12.142 25.97C12.4645 25.97 16.8332 25.988 18.9711 25.996C17.7252 25.72 16.0626 25.3 14.9107 24.757C14.8141 24.712 14.5659 24.609 14.2185 24.631Z" fill="white"/>
<path d="M30.5956 11.798C30.5721 11.503 30.3735 11.292 30.0927 11.311C30.0862 11.312 30.0797 11.323 30.0718 11.324C30.0314 10.964 29.9817 10.607 29.9112 10.256C29.919 10.255 29.9243 10.256 29.9295 10.254C30.175 10.177 30.3226 9.882 30.256 9.596C30.0888 8.88 29.8642 8.173 29.5925 7.497C29.4881 7.226 28.9291 7.114 28.9291 7.114C28.9291 7.114 28.6653 6.618 28.4994 6.314C28.5046 6.309 28.5125 6.311 28.5177 6.307C28.7266 6.138 28.7802 5.804 28.6339 5.561C28.2682 4.95 27.8516 4.372 27.401 3.842C27.2221 3.632 26.5482 3.654 26.543 3.662C26.4816 3.584 26.2687 3.377 26.0219 3.152C26.0284 3.143 26.0362 3.148 26.0415 3.139C26.1917 2.898 26.142 2.562 25.9357 2.39C25.4094 1.956 24.8517 1.574 24.2757 1.253C24.0433 1.126 23.035 1.239 23.035 1.239L22.7777 1.139C22.7816 1.131 22.7882 1.129 22.7895 1.123C22.86 0.838 22.7163 0.541 22.4721 0.46C21.8544 0.259 21.2183 0.118 20.5758 0.043C20.389 0.015 19.7216 0.002 19.2149 0C18.2288 0.26 17.2794 0.617 16.3808 1.065C17.248 1.144 15.2877 2.2 15.4379 1.581C14.8711 1.919 14.3317 2.296 13.8223 2.71C14.653 2.771 13.1079 4.271 12.8546 3.576C12.2029 4.222 11.6178 4.936 11.1097 5.713C11.8646 5.54 10.9543 7.442 10.4215 6.906C9.99961 7.733 9.66396 8.62 9.42365 9.563C10.1263 9.365 9.79456 11.098 9.16114 10.849C9.05144 11.56 8.99397 12.3 8.99397 13.064C8.99397 13.223 8.99658 13.381 9.00181 13.538C9.68486 13.318 10.0166 14.903 9.10759 14.917C9.22905 15.872 9.44324 16.776 9.7384 17.625C10.1537 17.312 11.2312 18.687 10.2647 18.905C10.6265 19.663 11.0588 20.371 11.5525 21.026C11.8084 20.651 13.1066 21.877 12.3661 22C12.9408 22.624 13.5781 23.188 14.2625 23.692C14.3761 23.335 15.7291 24.117 15.1989 24.325C16.3678 25.047 17.649 25.606 18.9994 25.996C19.6824 25.998 20.1343 26 20.1343 26C20.8226 25.981 21.1556 25.922 21.4417 25.859C21.6924 25.803 22.1913 25.208 22.1913 25.208C22.1913 25.208 23.0951 25.175 23.2818 25.175C23.338 25.175 23.3942 25.163 23.449 25.139C24.0446 24.872 24.6257 24.543 25.1795 24.159C25.3989 24.008 25.4694 23.678 25.3375 23.424C25.3336 23.418 25.3271 23.418 25.3258 23.412C25.5857 23.213 25.6379 23.164 25.886 22.94C25.8887 22.946 26.3092 22.98 26.4398 22.98C26.5456 22.98 26.6553 22.937 26.7402 22.85C27.2273 22.365 27.6818 21.828 28.0893 21.251C28.2499 21.022 28.2238 20.686 28.0266 20.497C28.0188 20.49 28.0096 20.494 28.0031 20.488C28.1899 20.198 28.3257 20.004 28.4942 19.694C28.4994 19.699 28.7018 19.68 28.7802 19.68C28.9408 19.68 29.0936 19.582 29.1811 19.409C29.4998 18.763 29.7688 18.08 29.987 17.379C30.0732 17.1 29.9465 16.793 29.7062 16.692C29.7022 16.691 29.6983 16.694 29.6944 16.693C29.7871 16.349 29.8616 15.998 29.9282 15.643C29.9347 15.644 29.936 15.652 29.9412 15.653C29.9687 15.658 29.9961 15.66 30.0209 15.66C30.2442 15.66 30.4388 15.475 30.478 15.215C30.5864 14.484 30.6426 13.734 30.6426 12.986C30.6413 12.586 30.6256 12.189 30.5956 11.798ZM20.197 21.263C16.6381 21.263 13.7531 17.564 13.7531 13.003C13.7531 8.44 16.6381 4.742 20.197 4.742C23.7572 4.742 26.6396 8.44 26.6396 13.003C26.6396 17.563 23.7572 21.263 20.197 21.263Z" fill="white"/>
</svg>
