<svg width="31" height="34" viewBox="0 0 31 34" fill="none" xmlns="http://www.w3.org/2000/svg">
<path d="M21.6481 30.5769C21.6481 30.8955 21.3898 31.1538 21.0712 31.1538C20.7526 31.1538 20.4943 30.8955 20.4943 30.5769C20.4943 30.2583 20.7526 30 21.0712 30C21.3898 30 21.6481 30.2583 21.6481 30.5769Z" fill="white"/>
<path d="M10.6866 18.4615C8.60906 18.4615 6.59687 17.7074 5.02075 16.3389L5.77712 15.4679C7.14365 16.6541 8.88766 17.3071 10.6872 17.3071C11.2086 17.3071 11.7492 17.2373 12.2934 17.1167C13.5481 15.4361 15.2679 14.1301 17.2657 13.387C17.7742 12.4562 18.0798 11.4317 18.1624 10.3841H15.8789V9.23021H18.1573C18.126 8.82568 18.0621 8.43102 17.9691 8.04763L15.8028 8.75132L15.4468 7.65409L17.6178 6.94899C17.4638 6.57743 17.2761 6.22446 17.0674 5.88529L15.2271 7.22196L14.5484 6.28897L16.3913 4.95061C16.1316 4.64609 15.8482 4.36326 15.5442 4.10353L14.2059 5.94642L13.2729 5.2678L14.6096 3.42745C14.271 3.21815 13.9174 3.03054 13.5459 2.87701L12.8408 5.04808L11.7435 4.69201L12.4472 2.52573C12.0624 2.4322 11.668 2.36826 11.2635 2.33699V4.61539H10.1097V2.33699C9.70515 2.36826 9.31077 2.4322 8.9271 2.52517L9.63078 4.69144L8.53356 5.04751L7.82846 2.87645C7.4569 3.03054 7.10393 3.21815 6.76476 3.42689L8.10143 5.26724L7.16844 5.94586L5.83008 4.10297C5.52556 4.3627 5.24273 4.64609 4.983 4.95005L6.82589 6.28841L6.14727 7.2214L4.30692 5.88473C4.09762 6.22333 3.91001 6.57687 3.75648 6.94843L5.92755 7.65353L5.57148 8.75075L3.4052 8.04706C3.31224 8.43102 3.24829 8.82512 3.2173 9.22964H5.49429V10.3835H3.21252C3.33646 11.9757 3.96719 13.4966 5.02582 14.7166L4.1548 15.473C2.78687 13.8974 2.03275 11.8852 2.03275 9.80769C2.03275 5.03596 5.91487 1.15385 10.6866 1.15385C15.4583 1.15385 19.3404 5.03596 19.3404 9.80769C19.3404 10.8818 19.1328 11.9469 18.7415 12.9472C19.1616 12.8563 19.5897 12.787 20.0258 12.7453C20.3309 11.7802 20.4943 10.7942 20.4943 9.80769C20.4943 4.3996 16.0947 0 10.6866 0C5.27851 0 0.878906 4.3996 0.878906 9.80769C0.878906 15.2158 5.27851 19.6154 10.6866 19.6154C10.7565 19.6154 10.8252 19.6098 10.8936 19.6061C11.057 19.1971 11.237 18.7968 11.4463 18.4137C11.192 18.4373 10.9365 18.4615 10.6866 18.4615ZM10.1097 12.7991V6.92308H11.2635V12.7985C11.9334 13.0374 12.4174 13.6721 12.4174 14.4231C12.4174 15.3772 11.6407 16.1538 10.6866 16.1538C9.73248 16.1538 8.95583 15.3772 8.95583 14.4231C8.95583 13.6721 9.43979 13.038 10.1097 12.7991Z" fill="white"/>
<path d="M11.2635 14.4231C11.2635 14.7417 11.0052 15 10.6866 15C10.368 15 10.1097 14.7417 10.1097 14.4231C10.1097 14.1045 10.368 13.8462 10.6866 13.8462C11.0052 13.8462 11.2635 14.1045 11.2635 14.4231Z" fill="white"/>
<path d="M21.0712 16.1538C17.1297 16.1538 13.889 19.2097 13.5932 23.0769H15.9113C16.1992 20.4842 18.4029 18.4615 21.0712 18.4615C22.2279 18.4615 23.2969 18.843 24.1606 19.4844L24.5626 18.2787L25.6567 18.6438L25.0821 20.3672C25.7027 21.1233 26.1176 22.0541 26.2311 23.0769H28.5492C28.2535 19.2097 25.0128 16.1538 21.0712 16.1538Z" fill="white"/>
<path d="M21.0712 13.8462C15.6631 13.8462 11.2635 18.2458 11.2635 23.6538C11.2635 29.0619 15.6631 33.4615 21.0712 33.4615C26.4793 33.4615 30.8789 29.0619 30.8789 23.6538C30.8789 18.2458 26.4793 13.8462 21.0712 13.8462ZM29.7251 24.2308H25.1097V23.6538C25.1097 22.9609 24.9336 22.309 24.6252 21.7386L22.1315 29.2194C22.5366 29.5366 22.802 30.0242 22.802 30.5769C22.802 31.531 22.0253 32.3077 21.0712 32.3077C20.1171 32.3077 19.3404 31.531 19.3404 30.5769C19.3404 29.6338 20.1002 28.867 21.0394 28.8495L23.7693 20.6585C23.0535 20.0129 22.109 19.6159 21.0712 19.6159C18.8449 19.6159 17.0328 21.4281 17.0328 23.6544V24.2313H12.4174V23.6544C12.4174 18.8827 16.2995 15.0006 21.0712 15.0006C25.8429 15.0006 29.7251 18.8827 29.7251 23.6544V24.2308Z" fill="white"/>
</svg>
