<?xml version="1.0"?>
<svg xmlns="http://www.w3.org/2000/svg" xmlns:xlink="http://www.w3.org/1999/xlink" xmlns:svgjs="http://svgjs.com/svgjs" version="1.1" width="512" height="512" x="0" y="0" viewBox="0 0 512 512" style="enable-background:new 0 0 512 512" xml:space="preserve" class=""><g><path xmlns="http://www.w3.org/2000/svg" d="m448 160h24c22.06 0 40-17.94 40-40v-80c0-22.06-17.94-40-40-40h-24c-22.06 0-40 17.94-40 40v24h-28.82c-7.29-14.24-22.12-24-39.18-24h-20.67c-3.81-22.67-23.58-40-47.33-40h-32c-23.75 0-43.52 17.33-47.33 40h-20.67c-17.06 0-31.89 9.76-39.18 24h-28.82v-24c0-22.06-17.94-40-40-40h-24c-22.06 0-40 17.94-40 40v80c0 22.06 17.94 40 40 40h24c22.06 0 40-17.94 40-40v-24h25.66c5.24 18.45 22.24 32 42.34 32h20.63c1.04 6.46 3.37 12.55 6.8 17.95l-58.74 58.74c-3 3-4.69 7.07-4.69 11.31v200h-32v-24c0-22.06-17.94-40-40-40h-24c-22.06 0-40 17.94-40 40v80c0 22.06 17.94 40 40 40h24c22.06 0 40-17.94 40-40v-24h32v48c0 8.84 7.16 16 16 16s16-7.16 16-16v-48h26.03c7.12 27.58 32.2 48 61.97 48s54.85-20.42 61.97-48h90.03v24c0 22.06 17.94 40 40 40h24c22.06 0 40-17.94 40-40v-80c0-22.06-17.94-40-40-40h-24c-22.06 0-40 17.94-40 40v24h-90.03c-5.8-22.46-23.51-40.17-45.97-45.97v-4.77c18.63-6.6 32-24.4 32-45.26v-80c0-20.86-13.37-38.66-32-45.26v-20.85l21.47-10.73c14-7.01 23.47-20.07 25.9-35.16 21.01 0 24.999.498 32.63-1.66v41.66h-16c-8.837 0-16 7.163-16 16s7.163 16 16 16h64c8.837 0 16-7.163 16-16s-7.163-16-16-16h-16v-72h24v24c0 22.06 17.94 40 40 40zm-280 62.63 56.48-56.49 15.52 7.75v20.85c-18.63 6.6-32 24.4-32 45.26v80c0 20.86 13.37 38.66 32 45.26v4.77c-22.46 5.8-40.17 23.51-45.97 45.97h-26.03z" fill="#ffffff" data-original="#000000" class=""/></g></svg>
