<?xml version="1.0"?>
<svg xmlns="http://www.w3.org/2000/svg" xmlns:xlink="http://www.w3.org/1999/xlink" xmlns:svgjs="http://svgjs.com/svgjs" version="1.1" width="512" height="512" x="0" y="0" viewBox="0 0 54 58" style="enable-background:new 0 0 512 512" xml:space="preserve" class=""><g><g xmlns="http://www.w3.org/2000/svg" id="Page-1" fill="none" fill-rule="evenodd"><g id="004---Manual-Gearbox" fill="rgb(0,0,0)" fill-rule="nonzero" transform="translate(-1 -1)"><path id="Shape" d="m22 44c4.42 0 6.65-1.25 7.586-1.994.2650905-.2097644.3993782-.5441521.353-.879-.433-3.008-3.212-4.316-4.83-4.829-1.2534321-.3898603-2.107848-1.5493379-2.109-2.862v-9.436h-2v9.436c-.0006851 1.3142168-.8566757 2.474992-2.112 2.864-1.617.513-4.4 1.821-4.83 4.829-.0464463.3343531.0874485.6683294.352.878.936.743 3.166 1.993 7.59 1.993z" fill="#ffffff" data-original="#000000"/><path id="Shape" d="m19 16.411v4.589c0 .5522847.4477153 1 1 1h4c.5522847 0 1-.4477153 1-1v-4.589c-1.9229155.7852871-4.0770845.7852871-6 0z" fill="#ffffff" data-original="#000000"/><path id="Shape" d="m42.948 57.687-4.67-14c-.13526-.4104281-.5188585-.6875387-.951-.687h-1.242c.052.088.112.166.161.257.7676579 1.5051695.4887446 3.3323935-.693 4.54-1.864 1.918-5.729 4.203-13.553 4.203s-11.692-2.285-13.556-4.2c-1.18162506-1.2080721-1.46050378-3.0354722-.693-4.541.048-.091.109-.169.16-.257h-1.244c-.43071008-.000678-.81346527.2745029-.95.683l-4.671 14c-.10146031.3056859-.04947393.6415282.13966008.9022318s.49225991.4143504.81433992.4127682h40c.3210636.0004004.6227946-.153382.8111286-.4134057s.2403646-.594663.1398714-.8995943zm-4.981-6.444c-.198.794-1.902 4.757-15.967 4.757s-15.774-3.963-15.973-4.757c-.12972141-.5339666.19570268-1.072566.72872921-1.2060974.53302654-.1335314 1.07393623.1880381 1.21127079.7200974.007 0 1.466 3.243 14.033 3.243 12.442 0 14.022-3.21 14.03-3.243.0847423-.348821.3499483-.6254598.6948844-.7248402.344936-.0993804.7166761-.0062538.9740215.2440075.2573454.2502612.3608098.6192576.2710941.9668327z" fill="#ffffff" data-original="#000000"/><circle id="Oval" cx="21.997" cy="9" r="6" fill="#ffffff" data-original="#000000"/><path id="Shape" d="m22 50c7.505 0 10.816-2.253 12.122-3.6.577495-.5813325.7213831-1.465561.358-2.2-.5946634-1.0778946-1.484021-1.9641304-2.564-2.555-.0998442.7591748-.4893267 1.4503541-1.087 1.929-1.393 1.105-4.056 2.426-8.829 2.426s-7.439-1.321-8.832-2.43c-.5979533-.4775464-.9875679-1.1682431-1.087-1.927-1.0817629.5907578-1.972604 1.477783-2.568 2.557-.36447712.7372693-.21890197 1.6247951.362 2.207 1.306 1.34 4.617 3.593 12.125 3.593z" fill="#ffffff" data-original="#000000"/><path id="Shape" d="m44 15.184v-3.184h7c.5522847 0 1-.4477153 1-1v-4.184c1.3775467-.4870363 2.2038721-1.89566623 1.9567957-3.33573306s-1.4956868-2.49269406-2.9567957-2.49269406-2.7097193 1.05262723-2.9567957 2.49269406.579249 2.84869676 1.9567957 3.33573306v3.184h-6v-3.184c1.3775467-.4870363 2.2038721-1.89566623 1.9567957-3.33573306s-1.4956868-2.49269406-2.9567957-2.49269406-2.7097193 1.05262723-2.9567957 2.49269406.579249 2.84869676 1.9567957 3.33573306v3.184h-6v-3.184c1.3775467-.4870363 2.2038721-1.89566623 1.9567957-3.33573306s-1.4956868-2.49269406-2.9567957-2.49269406-2.7097193 1.05262723-2.9567957 2.49269406.579249 2.84869676 1.9567957 3.33573306v8.368c-1.3775467.4870363-2.2038721 1.8956662-1.9567957 3.3357331.2470764 1.4400668 1.4956868 2.492694 2.9567957 2.492694s2.7097193-1.0526272 2.9567957-2.492694c.2470764-1.4400669-.579249-2.8486968-1.9567957-3.3357331v-3.184h6v3.184c-1.3775467.4870363-2.2038721 1.8956662-1.9567957 3.3357331.2470764 1.4400668 1.4956868 2.492694 2.9567957 2.492694s2.7097193-1.0526272 2.9567957-2.492694c.2470764-1.4400669-.579249-2.8486968-1.9567957-3.3357331zm7-12.184c.5522847 0 1 .44771525 1 1s-.4477153 1-1 1-1-.44771525-1-1 .4477153-1 1-1zm-8 0c.5522847 0 1 .44771525 1 1s-.4477153 1-1 1-1-.44771525-1-1 .4477153-1 1-1zm-8 0c.5522847 0 1 .44771525 1 1s-.4477153 1-1 1-1-.44771525-1-1 .4477153-1 1-1zm0 16c-.5522847 0-1-.4477153-1-1s.4477153-1 1-1 1 .4477153 1 1-.4477153 1-1 1zm8 0c-.5522847 0-1-.4477153-1-1s.4477153-1 1-1 1 .4477153 1 1-.4477153 1-1 1z" fill="#ffffff" data-original="#000000"/><path id="Shape" d="m55 17c0-1.6568542-1.3431458-3-3-3h-3c-.5522847 0-1 .4477153-1 1v7c0 .5522847.4477153 1 1 1s1-.4477153 1-1v-2h1.725c.7273142.4171875 1.2037653 1.1645618 1.275 2 0 .5522847.4477153 1 1 1s1-.4477153 1-1c-.0068982-1.008457-.389883-1.9780432-1.074-2.719.6776213-.5641589 1.0708333-1.3992767 1.074-2.281zm-5-1h2c.5522847 0 1 .4477153 1 1s-.4477153 1-1 1h-2z" fill="#ffffff" data-original="#000000"/></g></g></g></svg>
