<svg width="30" height="30" viewBox="0 0 30 30" fill="none" xmlns="http://www.w3.org/2000/svg">
<path fill-rule="evenodd" clip-rule="evenodd" d="M2.54181 9.66552H3.55853V25.9331V30H2.54181V25.9331V9.66552ZM4.57526 25.9331V30H5.59198V25.9331V9.66552H4.57526V25.9331ZM6.60871 25.9331V9.66552H7.62543V25.9331V30H6.60871V25.9331ZM8.64215 25.869V29.9359C8.47967 29.9778 8.30933 30 8.13379 30H8.64215V29.9359C9.51919 29.7102 10.1672 28.914 10.1672 27.9666V23.8997V11.699C10.1672 10.7515 9.51919 9.95532 8.64215 9.72959V9.66552H8.13379C8.30933 9.66552 8.47967 9.68777 8.64215 9.72959V25.869ZM1.52509 25.869V9.72959C1.68757 9.68777 1.85791 9.66552 2.03345 9.66552H1.52509V9.72959C0.64805 9.95532 0 10.7515 0 11.699V23.8997V27.9666C0 28.914 0.64805 29.7102 1.52509 29.9359V30H2.03345C1.85791 30 1.68757 29.9778 1.52509 29.9359V25.869Z" fill="white"/>
<path d="M10.1672 16.2742H12.2007V23.3913H10.1672V16.2742Z" fill="white"/>
<path d="M25.7231 3.60331L25.5889 3.85139L24.8589 5.19194L26.6463 6.16138L27.5105 4.57326C28.6332 4.54359 29.5192 3.60941 29.4894 2.48675C29.4597 1.3641 28.5256 0.478088 27.4029 0.507764C26.2803 0.537439 25.3943 1.47162 25.424 2.59427C25.4334 2.95108 25.5365 3.29905 25.7231 3.60331Z" fill="white"/>
<path d="M26.7624 2.75377L27.2471 1.86001L28.1408 2.34467L27.6562 3.23843L26.7624 2.75377Z" fill="white"/>
<path d="M18.4294 13.8481L22.8978 16.2722L21.9281 18.0595L17.4598 15.6354L18.4294 13.8481Z" fill="white"/>
<path d="M27.5415 6.64636L23.9667 4.70696L22.9429 6.594L26.9772 7.68698L27.5415 6.64636Z" fill="white"/>
<path d="M20.9013 12.4905L19.7697 14.5753L21.5571 15.5452L22.8499 13.162L20.9013 12.4905Z" fill="white"/>
<path d="M12.2007 18.3077H26.4348V21.3578H12.2007V18.3077Z" fill="white"/>
<path d="M21.3004 20.4982C21.6438 19.8614 21.6216 19.0898 21.2419 18.4739L21.3304 18.3077H17.8943C17.2124 19.1769 17.3644 20.4343 18.2336 21.1162C18.3305 21.1923 18.4343 21.2592 18.5435 21.3162C18.5761 21.3334 18.6106 21.3421 18.6452 21.3578H20.3919C20.7782 21.1748 21.0963 20.8738 21.3004 20.4982Z" fill="white"/>
<path d="M20.0584 18.3077L20.5876 17.3326L18.8002 16.3627L18.1806 17.5045C17.9604 17.511 17.7426 17.5526 17.5354 17.6275C17.1711 17.7609 16.8532 17.9972 16.6204 18.3077C16.5577 18.387 16.5015 18.4711 16.4521 18.5593C15.9167 19.5464 16.2826 20.7805 17.2696 21.3162C17.3021 21.3334 17.3367 21.3421 17.3712 21.3578C18.3773 21.8427 19.586 21.4201 20.0709 20.4139C20.3704 19.7924 20.3324 19.061 19.97 18.4739L20.0584 18.3077Z" fill="white"/>
<path d="M26.4348 16.2742H29.485V23.3913H26.4348V16.2742Z" fill="white"/>
<path d="M24.4014 18.3077H26.4348V21.3578H24.4014V18.3077Z" fill="white"/>
<path d="M17.7306 19.0204H18.7474V20.0371H17.7306V19.0204Z" fill="white"/>
<path d="M25.1365 14.0171C25.0911 14.017 25.046 14.0108 25.0023 13.9988L18.818 12.309C18.5485 12.2303 18.3939 11.948 18.4726 11.6785C18.5494 11.4157 18.8206 11.2608 19.0859 11.3284L25.2702 13.0177C25.5414 13.0902 25.7024 13.3689 25.6298 13.6402C25.5701 13.8633 25.3675 14.0181 25.1365 14.0171Z" fill="white"/>
<path d="M26.1588 12.187C26.1149 12.1869 26.0712 12.1812 26.0286 12.1702L19.7921 10.5226C19.5206 10.451 19.3585 10.1729 19.4301 9.9014C19.5017 9.62994 19.7799 9.46783 20.0513 9.53945L26.2884 11.187C26.5599 11.2586 26.722 11.5367 26.6505 11.8081C26.5917 12.0314 26.3897 12.1871 26.1588 12.187Z" fill="white"/>
<path d="M27.1811 10.3569C27.1387 10.3571 27.0965 10.3518 27.0555 10.3411L20.7661 8.73624C20.4944 8.66538 20.3316 8.38769 20.4025 8.11604C20.4728 7.84648 20.7469 7.68367 21.0172 7.75103L27.3067 9.35644C27.5784 9.42691 27.7416 9.70429 27.6712 9.97607C27.6133 10.1996 27.412 10.356 27.1811 10.3569Z" fill="white"/>
<path d="M28.2034 8.5273C28.1586 8.52736 28.1139 8.52139 28.0707 8.50951L21.6918 6.78108C21.4207 6.70781 21.2604 6.42866 21.3337 6.15757C21.4069 5.88649 21.6861 5.72616 21.9572 5.79943L28.3361 7.5304C28.6073 7.60297 28.7683 7.88168 28.6958 8.15289C28.6362 8.37568 28.434 8.53041 28.2034 8.52984V8.5273Z" fill="white"/>
<path d="M26.7624 2.75377L27.2471 1.86001L28.1408 2.34467L27.6562 3.23843L26.7624 2.75377Z" fill="white"/>
<path d="M19.4301 9.9014C19.3585 10.1729 19.5205 10.451 19.792 10.5226H19.7921L26.0281 12.1702C26.0706 12.1812 26.1144 12.1869 26.1583 12.187C26.439 12.1871 26.6667 11.9595 26.6668 11.6788C26.6668 11.4478 26.5112 11.2459 26.2879 11.187L20.0513 9.53945C19.7799 9.46783 19.5017 9.62987 19.4301 9.9014Z" fill="white"/>
<path d="M20.399 8.11807C20.3297 8.39011 20.494 8.66691 20.7661 8.73624L27.0555 10.3411C27.0965 10.3518 27.1387 10.3571 27.1811 10.3569C27.4618 10.3558 27.6886 10.1273 27.6875 9.84656C27.6866 9.6157 27.5302 9.41439 27.3067 9.35644L21.0172 7.75103C20.7451 7.6817 20.4684 7.84603 20.399 8.11807Z" fill="white"/>
<path d="M17.7306 19.0204H18.7474V20.0371H17.7306V19.0204Z" fill="white"/>
<path d="M24.2097 4.26011C23.9632 4.12603 23.6547 4.21703 23.5204 4.46345L22.6877 5.99718L21.9572 5.80197C21.6861 5.7287 21.4069 5.88903 21.3337 6.16011C21.2604 6.4312 21.4207 6.71035 21.6918 6.78362L28.0707 8.51205C28.1139 8.52393 28.1586 8.52991 28.2034 8.52984C28.4842 8.53054 28.7123 8.30349 28.713 8.02275C28.7136 7.79215 28.5589 7.59001 28.3361 7.5304L27.7306 7.36671L27.9884 6.89139C28.1225 6.6449 28.0315 6.33632 27.785 6.20205L27.3382 5.95956L27.8282 5.05671C29.217 4.85184 30.1767 3.55997 29.9719 2.17119C29.767 0.782406 28.4751 -0.177317 27.0864 0.0275524C25.6976 0.232422 24.7378 1.5243 24.9427 2.91308C24.9779 3.15137 25.0467 3.38344 25.1471 3.60229L24.6556 4.5026L24.2097 4.26011ZM26.1567 3.33947C25.7154 2.6221 25.9391 1.68272 26.6565 1.24139C27.374 0.800072 28.3133 1.02375 28.7546 1.74118C29.1959 2.4586 28.9722 3.39793 28.2548 3.83925C28.0256 3.98026 27.7632 4.0581 27.4942 4.0649C27.3133 4.07036 27.1489 4.17166 27.0626 4.33077L26.4435 5.47205L25.5498 4.98859L26.1695 3.8463C26.2558 3.68719 26.2509 3.49407 26.1567 3.33947ZM26.8507 6.85174L26.7205 7.09169L23.6942 6.27119L24.1691 5.3963L26.8507 6.85174Z" fill="white"/>
</svg>
