<?xml version="1.0"?>
<svg xmlns="http://www.w3.org/2000/svg" xmlns:xlink="http://www.w3.org/1999/xlink" xmlns:svgjs="http://svgjs.com/svgjs" version="1.1" width="512" height="512" x="0" y="0" viewBox="0 0 512.334 512.334" style="enable-background:new 0 0 512 512" xml:space="preserve" class=""><g><g xmlns="http://www.w3.org/2000/svg"><path d="m512.334 253.137c-2.801 1.914-5.487 4.399-8.687 7.373-8.976 8.341-21.267 19.765-44.109 19.765-22.844 0-35.135-11.424-44.11-19.765-7.877-7.321-12.632-11.74-23.687-11.74-11.054 0-15.809 4.419-23.685 11.739-8.975 8.342-21.266 19.766-44.107 19.766-22.843 0-35.133-11.424-44.107-19.766-7.876-7.32-12.63-11.739-23.684-11.739-11.053 0-15.807 4.419-23.683 11.739-8.974 8.342-21.264 19.766-44.105 19.766-22.843 0-35.134-11.424-44.107-19.766-7.876-7.32-12.63-11.739-23.683-11.739s-15.808 4.419-23.684 11.739c-8.975 8.342-21.266 19.766-44.107 19.766s-35.133-11.424-44.106-19.766c-3.198-2.972-5.883-5.456-8.683-7.37v199.613l29.951 29.951h452.432l29.951-29.951z" fill="#ffffff" data-original="#000000" class=""/><path d="m0 155.273v65.346c13.665 3.57 22.333 11.62 29.106 17.917 7.876 7.32 12.63 11.739 23.683 11.739 11.054 0 15.808-4.419 23.684-11.739 8.975-8.342 21.265-19.766 44.107-19.766s35.133 11.424 44.106 19.766c7.876 7.32 12.63 11.739 23.684 11.739 11.052 0 15.806-4.419 23.682-11.739 8.974-8.342 21.265-19.766 44.106-19.766s35.133 11.424 44.107 19.766c7.876 7.32 12.63 11.739 23.684 11.739 11.053 0 15.808-4.419 23.684-11.739 8.975-8.342 21.266-19.766 44.108-19.766 22.844 0 35.135 11.424 44.11 19.765 7.877 7.321 12.632 11.74 23.687 11.74s15.809-4.419 23.686-11.739c6.775-6.297 15.443-14.347 29.11-17.917v-65.346l-29.951-29.951h-452.432z" fill="#ffffff" data-original="#000000" class=""/><path d="m258.381 95.322h133.286v-35.692h18.877v-30h-171.04v30h18.877z" fill="#ffffff" data-original="#000000" class=""/></g></g></svg>
