<svg width="30" height="31" viewBox="0 0 30 31" fill="none" xmlns="http://www.w3.org/2000/svg">
<path fill-rule="evenodd" clip-rule="evenodd" d="M29.5405 7C30.8765 15.4 28.9838 20.1667 27.8704 21.5C17.8897 37.8349 6.2521 28.4088 1.62165 21.5814L9.08202 13.5L0.731627 6C-0.914534 4.34744 0.731627 3 0.731627 3C1.85444 2.64923 3.60741 2.17542 5.74186 1.70805C5.74186 1.70805 13.6747 9 14.5098 9.5C15.3448 10 16.5974 9 15.7623 8C14.9273 7 7.82946 1.2791 7.82946 1.2791C10.6032 0.746194 13.802 0.278328 17.0155 0.0892007C17.0155 0.0892007 25.7835 6.5 26.6185 7C27.4535 7.5 28.2886 6.5 27.4535 6C26.6185 5.5 18.6856 0.0170951 18.6856 0.0170951C19.1042 0.00585682 19.5218 0 19.9375 0C27.6199 0 29.5405 4.66667 29.5405 7ZM17.4331 19V11C13.5362 13.1667 5.57552 18.4 4.90748 22C4.76831 23.1395 5.2415 25.0348 8.24764 23.5C11.2538 21.9652 15.6238 19.8605 17.4331 19ZM19.9375 18V10C21.6071 9.2 25.6438 9 27.4535 9V14.5C26.4515 14.9 22.0253 17 19.9375 18ZM17.5358 23C17.5358 23.5523 17.162 24 16.7008 24C16.2396 24 15.8657 23.5523 15.8657 23C15.8657 22.4477 16.2396 22 16.7008 22C17.162 22 17.5358 22.4477 17.5358 23ZM26.7212 19C27.1824 19 27.5563 18.5523 27.5563 18C27.5563 17.4477 27.1824 17 26.7212 17C26.2601 17 25.8862 17.4477 25.8862 18C25.8862 18.5523 26.2601 19 26.7212 19Z" fill="white"/>
</svg>
