<svg width="12" height="12" viewBox="0 0 12 12" fill="none" xmlns="http://www.w3.org/2000/svg">
<path d="M2.84161 5.99479C2.84161 7.73915 4.26086 9.1584 6.00522 9.1584C7.74967 9.1584 9.16883 7.73915 9.16883 5.99479C9.16883 4.25034 7.74967 2.83118 6.00522 2.83118C4.26086 2.83118 2.84161 4.25034 2.84161 5.99479ZM6.37619 6.52543C6.34076 6.49 6.29169 6.45795 6.22897 6.4293C6.16626 6.40073 6.0921 6.37418 6.00623 6.34965C5.92035 6.32511 5.82697 6.29792 5.72617 6.26789C5.59259 6.22697 5.47678 6.18275 5.37863 6.13505C5.28049 6.08735 5.19937 6.03214 5.13538 5.96943C5.07129 5.90681 5.02359 5.83448 4.99228 5.75272C4.96097 5.67097 4.94531 5.57557 4.94531 5.46653C4.94531 5.314 4.97388 5.17905 5.03119 5.06186C5.08841 4.94468 5.16605 4.84589 5.26419 4.76542C5.36234 4.68512 5.47604 4.62442 5.6055 4.5835C5.62088 4.57874 5.63626 4.57425 5.65173 4.56995V4.0264H6.3555V4.55942C6.4389 4.57709 6.51956 4.59861 6.59692 4.62442C6.68683 4.65445 6.77069 4.68851 6.84833 4.7266C6.92606 4.76477 6.99756 4.80295 7.06302 4.84113L6.76868 5.39713C6.76044 5.38624 6.73187 5.36582 6.6828 5.33579C6.63373 5.30585 6.57239 5.27445 6.49878 5.24176C6.42526 5.20908 6.34479 5.18042 6.25763 5.15589C6.17038 5.13135 6.08313 5.11908 5.99597 5.11908C5.7561 5.11908 5.63617 5.19956 5.63617 5.36033C5.63617 5.4094 5.64908 5.45023 5.67508 5.48301C5.7009 5.51569 5.73907 5.54499 5.78952 5.5709C5.83987 5.59681 5.90332 5.62061 5.97958 5.6424C6.05585 5.66428 6.14447 5.68882 6.24536 5.71601C6.38434 5.75419 6.50968 5.79575 6.62146 5.8407C6.73325 5.88566 6.82791 5.9415 6.90564 6.00834C6.98328 6.07508 7.04324 6.1562 7.08545 6.25159C7.12775 6.34699 7.14881 6.46143 7.14881 6.59501C7.14881 6.75852 7.11823 6.89686 7.05689 7.00993C6.99555 7.12309 6.91443 7.21436 6.81363 7.28385C6.71274 7.35334 6.59692 7.40379 6.4661 7.4351C6.42957 7.44389 6.39267 7.45121 6.3555 7.45753V8.00172H5.65173V7.44407C5.5687 7.42896 5.48721 7.40965 5.40729 7.38603C5.30099 7.35471 5.19809 7.31727 5.09857 7.2736C4.99905 7.23002 4.90713 7.17957 4.82263 7.12235L5.11697 6.5377C5.12787 6.55143 5.1633 6.57725 5.22327 6.61542C5.28323 6.6536 5.35748 6.69178 5.44611 6.72987C5.53464 6.76814 5.63342 6.80219 5.74246 6.83213C5.8515 6.86216 5.96182 6.87708 6.07361 6.87708C6.31073 6.87708 6.42929 6.80494 6.42929 6.66038C6.42929 6.60581 6.41153 6.56086 6.37619 6.52543Z" fill="#3BFC7C"/>
<path d="M6.35714 2.14362C8.20935 2.31144 9.68857 3.79066 9.85638 5.64296H12C11.9155 4.17115 11.3025 2.79932 10.2516 1.74839C9.20068 0.697542 7.82885 0.0845033 6.35714 0V2.14362Z" fill="#3BFC7C"/>
<path d="M9.85638 6.34662C9.67803 8.31482 8.0191 9.86206 6.00521 9.86206C3.87277 9.86206 2.13794 8.12723 2.13794 5.99478C2.13794 3.98099 3.68518 2.32196 5.65338 2.14362V0C4.18167 0.0845032 2.80975 0.69754 1.75891 1.74847C0.624664 2.88263 0 4.39069 0 5.99478C0 7.59879 0.624664 9.10684 1.75891 10.2411C2.89316 11.3753 4.40121 12 6.00521 12C7.60931 12 9.11736 11.3753 10.2516 10.2411C11.3024 9.19025 11.9155 7.81833 12 6.34662H9.85638Z" fill="#3BFC7C"/>
</svg>
