<svg width="30" height="31" viewBox="0 0 30 31" fill="none" xmlns="http://www.w3.org/2000/svg">
<path d="M0 13.0631H2.6087V30.0196H0V13.0631Z" fill="white"/>
<path d="M27.3913 19.5848V18.9327C27.3913 18.7597 27.3226 18.5938 27.2003 18.4715C27.078 18.3492 26.9121 18.2805 26.7391 18.2805H24.7826V16.9761C24.7826 16.2843 24.5078 15.6207 24.0185 15.1315C23.5293 14.6423 22.8658 14.3674 22.1739 14.3674H18.913C18.9112 13.7906 18.7181 13.2306 18.3641 12.7751C18.0101 12.3196 17.5151 11.9943 16.9565 11.8501C16.9565 11.0609 17.0804 9.7631 15.6522 9.24136C15.6848 9.04571 15.6848 4.06962 15.6522 3.77614C16.6109 3.33918 16.5587 2.55005 16.8587 0.756576C16.8739 0.662618 16.8684 0.566463 16.8425 0.474863C16.8167 0.383263 16.771 0.298438 16.7089 0.226344C16.6467 0.154249 16.5696 0.0966331 16.4828 0.0575405C16.396 0.0184479 16.3017 -0.00117331 16.2065 5.42432e-05H13.813C13.7179 -0.00117331 13.6236 0.0184479 13.5368 0.0575405C13.45 0.0966331 13.3728 0.154249 13.3107 0.226344C13.2485 0.298438 13.2029 0.383263 13.177 0.474863C13.1511 0.566463 13.1456 0.662618 13.1609 0.756576C13.4283 2.36745 13.3826 3.32614 14.3674 3.77614C14.3217 4.10223 14.3348 9.07831 14.3674 9.24136C13.9789 9.37407 13.6421 9.62561 13.4045 9.96035C13.1669 10.2951 13.0406 10.6961 13.0435 11.1066V11.8501C12.4849 11.9943 11.9899 12.3196 11.6359 12.7751C11.2819 13.2306 11.0888 13.7906 11.087 14.3674H3.91304V28.7153H22.1739C22.8658 28.7153 23.5293 28.4404 24.0185 27.9512C24.5078 27.462 24.7826 26.7984 24.7826 26.1066V24.8022H26.7391C26.9121 24.8022 27.078 24.7335 27.2003 24.6112C27.3226 24.4889 27.3913 24.323 27.3913 24.1501V23.4979H30V19.5848H27.3913ZM18.913 22.1935C18.1304 22.1935 17.8109 22.1283 17.6087 22.5196C17.4065 22.9109 17.6087 23.1718 18.1239 24.0457L17.5304 24.6392L16.637 24.1501C16.5375 24.0911 16.4241 24.0596 16.3084 24.0589C16.1927 24.0581 16.079 24.0882 15.9787 24.1459C15.8785 24.2037 15.7954 24.287 15.7381 24.3875C15.6807 24.4879 15.651 24.6018 15.6522 24.7174V25.4544H14.3478C14.3478 24.6718 14.413 24.3522 14.0217 24.1501C13.6304 23.9479 13.3696 24.1501 12.4957 24.6653L11.9022 24.0718L12.3913 23.1783C12.4492 23.0807 12.4807 22.9697 12.4826 22.8562C12.4845 22.7427 12.4567 22.6307 12.402 22.5313C12.3473 22.4318 12.2677 22.3483 12.1709 22.2891C12.074 22.2299 11.9634 22.1969 11.85 22.1935H11.087V20.8892C11.8696 20.8892 12.1891 20.9544 12.3913 20.5631C12.5935 20.1718 12.3913 19.9631 11.8761 19.037L12.4696 18.4435L13.337 18.9587C13.4369 19.0247 13.5531 19.0618 13.6727 19.0661C13.7923 19.0704 13.9109 19.0417 14.0153 18.9831C14.1197 18.9245 14.2059 18.8382 14.2646 18.7339C14.3232 18.6295 14.352 18.511 14.3478 18.3914V17.6283H15.6522C15.6522 18.4109 15.587 18.7305 15.9783 18.9327C16.3696 19.1348 16.5457 18.9914 17.5043 18.4174L18.0978 19.0109L17.6087 19.9044C17.5508 20.002 17.5193 20.113 17.5174 20.2265C17.5155 20.34 17.5433 20.452 17.598 20.5515C17.6527 20.6509 17.7323 20.7344 17.8291 20.7936C17.926 20.8528 18.0366 20.8858 18.15 20.8892H18.913V22.1935Z" fill="white"/>
<path d="M15 22.8457C15.7204 22.8457 16.3043 22.2617 16.3043 21.5414C16.3043 20.821 15.7204 20.237 15 20.237C14.2796 20.237 13.6957 20.821 13.6957 21.5414C13.6957 22.2617 14.2796 22.8457 15 22.8457Z" fill="white"/>
</svg>
