<?xml version="1.0"?>
<svg xmlns="http://www.w3.org/2000/svg" xmlns:xlink="http://www.w3.org/1999/xlink" xmlns:svgjs="http://svgjs.com/svgjs" version="1.1" width="512" height="512" x="0" y="0" viewBox="0 0 64 64" style="enable-background:new 0 0 512 512" xml:space="preserve" class=""><g><g xmlns="http://www.w3.org/2000/svg"><g><g><g><path d="m61 26c-.824 0-1.664 0-2 0-7 0-10-4-23-4-8 0-17 5-17 5s-11 1-18 6v8c0 1.104.895 2 2 2h4.422c.772 1.765 2.529 3 4.578 3s3.806-1.235 4.578-3h29.844c.772 1.765 2.529 3 4.578 3s3.806-1.235 4.578-3h4.422c1.657 0 3-1.344 3-3v-12c0-1.104-.896-2-2-2z" fill="#ffffff" data-original="#d90037" class=""/></g><g><g><path d="m52 27.849c-.57-.171-1.138-.351-1.711-.534-3.402-1.085-7.258-2.315-14.289-2.315-7.105 0-16 5-16 5s15.75 0 21 0c9 0 11-2.151 11-2.151z" fill="#ffffff" data-original="#f099af" class=""/></g><g><g><circle cx="12" cy="41" fill="#ffffff" r="5" data-original="#f099af" class=""/></g><g><circle cx="51" cy="41" fill="#ffffff" r="5" data-original="#f099af" class=""/></g><g><path d="m58 32h5v-2.917c-4 0-5 2.917-5 2.917z" fill="#ffffff" data-original="#ffffff" class=""/></g><g><path d="m6 33.084h-5v2.916c4 0 5-2.916 5-2.916z" fill="#ffffff" data-original="#ffffff" class=""/></g></g></g></g></g><g fill="#780300"><path d="m61 25h-2c-2.589 0-4.641-.591-6.917-1.312l6.25-4.688h3.667c.552 0 1-.448 1-1s-.448-1-1-1h-4c-.216 0-.427.07-.6.2l-7.667 5.751c-3.219-.974-7.313-1.951-13.733-1.951-7.624 0-15.927 4.286-17.3 5.025-1.617.169-11.595 1.386-18.281 6.161-.263.188-.419.491-.419.814v8c0 1.654 1.346 3 3 3h3.812c1.04 1.791 2.973 3 5.188 3s4.149-1.209 5.188-3h28.623c1.04 1.791 2.973 3 5.188 3s4.149-1.209 5.188-3h3.813c2.206 0 4-1.794 4-4v-12c0-1.654-1.346-3-3-3zm1 6h-2.004c.464-.361 1.114-.692 2.004-.837zm-60 3h2.071c-.467.394-1.136.761-2.071.918zm10 11c-2.206 0-4-1.794-4-4s1.794-4 4-4 4 1.794 4 4-1.794 4-4 4zm39 0c-2.206 0-4-1.794-4-4s1.794-4 4-4 4 1.794 4 4-1.794 4-4 4zm9-3h-3.09c.055-.326.09-.659.09-1 0-3.309-2.691-6-6-6s-6 2.691-6 6c0 .341.035.674.09 1h-27.18c.055-.326.09-.659.09-1 0-3.309-2.691-6-6-6s-6 2.691-6 6c0 .341.035.674.09 1h-3.09c-.551 0-1-.449-1-1h2c.552 0 1-.448 1-1s-.448-1-1-1h-2v-2.064c3.841-.46 4.902-3.48 4.949-3.62.102-.305.05-.64-.138-.901s-.49-.415-.811-.415h-1.373c6.469-3.237 14.372-3.996 14.463-4.004.138-.013.273-.054.395-.122.088-.048 8.874-4.874 16.515-4.874 7.342 0 11.355 1.28 14.896 2.41 2.675.853 4.986 1.59 8.104 1.59h2c.551 0 1 .449 1 1v.146c-3.835.448-4.899 3.394-4.946 3.529-.105.305-.056.643.132.905.188.264.491.42.814.42h4v7c0 1.103-.897 2-2 2z" fill="#525252" data-original="#780300" class=""/><path d="m53 40h-1v-1c0-.552-.448-1-1-1s-1 .448-1 1v1h-1c-.552 0-1 .448-1 1s.448 1 1 1h1v1c0 .552.448 1 1 1s1-.448 1-1v-1h1c.552 0 1-.448 1-1s-.448-1-1-1z" fill="#525252" data-original="#780300" class=""/><path d="m14 40h-1v-1c0-.552-.448-1-1-1s-1 .448-1 1v1h-1c-.552 0-1 .448-1 1s.448 1 1 1h1v1c0 .552.448 1 1 1s1-.448 1-1v-1h1c.552 0 1-.448 1-1s-.448-1-1-1z" fill="#525252" data-original="#780300" class=""/><path d="m42 39h-21c-.552 0-1 .448-1 1s.448 1 1 1h21c.552 0 1-.448 1-1s-.448-1-1-1z" fill="#525252" data-original="#780300" class=""/><path d="m52.287 26.891c-.565-.169-1.127-.347-1.696-.529-3.471-1.107-7.405-2.362-14.591-2.362-7.284 0-16.118 4.919-16.49 5.128-.396.223-.592.685-.477 1.125s.512.747.967.747h21c9.171 0 11.498-2.218 11.732-2.471.235-.253.323-.609.232-.943-.089-.333-.346-.596-.677-.695zm-17.287-.843v2.952h-10.652c2.893-1.259 6.966-2.715 10.652-2.952zm6 2.952h-4v-2.99c5.804.103 9.299 1.091 12.305 2.042-1.534.47-4.121.948-8.305.948z" fill="#525252" data-original="#780300" class=""/></g></g></g></svg>
