<svg width="30" height="31" viewBox="0 0 30 31" fill="none" xmlns="http://www.w3.org/2000/svg">
<path d="M17.3274 28.7009V28.8655C17.3274 29.0241 17.2965 29.1812 17.2365 29.3277C17.1765 29.4742 17.0886 29.6074 16.9777 29.7195C16.8669 29.8317 16.7353 29.9206 16.5904 29.9813C16.4456 30.042 16.2903 30.0733 16.1336 30.0733H13.1011C12.7847 30.0724 12.4815 29.9449 12.2578 29.7186C12.0341 29.4923 11.9081 29.1856 11.9072 28.8655V28.7009C13.6963 29.0626 15.5384 29.0626 17.3274 28.7009Z" fill="white"/>
<path d="M3.18961 7.44326L2.26072 6.49065C4.29408 6.78128 4.63244 5.26357 3.18961 7.44326Z" fill="white"/>
<path d="M5.84863 4.45628C6.09799 3.8766 6.18203 3.2379 6.09123 2.61242L7.02013 3.55211C6.61356 3.83158 6.22248 4.13343 5.84863 4.45628Z" fill="white"/>
<path d="M26.1471 24.6063L24.0021 26.7763C23.8912 26.8885 23.7596 26.9775 23.6147 27.0382C23.4698 27.0989 23.3146 27.1301 23.1578 27.1301C23.0009 27.1301 22.8457 27.0989 22.7008 27.0382C22.5559 26.9775 22.4243 26.8885 22.3134 26.7763L22.1921 26.6536C23.7112 25.6327 25.0135 24.3153 26.0227 22.7786L26.144 22.9013C26.3674 23.1272 26.4932 23.4335 26.4938 23.7531C26.4944 24.0727 26.3697 24.3795 26.1471 24.6063Z" fill="white"/>
<path d="M29.4063 13.5787V16.6464C29.4063 16.805 29.3754 16.962 29.3154 17.1086C29.2554 17.2551 29.1675 17.3882 29.0566 17.5004C28.9457 17.6125 28.8141 17.7015 28.6693 17.7622C28.5244 17.8229 28.3692 17.8541 28.2124 17.8541H28.0496C28.408 16.0422 28.408 14.1764 28.0496 12.3645H28.2124C28.3696 12.3649 28.5252 12.3967 28.6703 12.4579C28.8153 12.5192 28.9471 12.6087 29.0579 12.7215C29.1688 12.8342 29.2566 12.9679 29.3164 13.115C29.3761 13.2621 29.4067 13.4197 29.4063 13.5787Z" fill="white"/>
<path d="M3.87591 23.7021H1.55846V19.2975C2.0588 20.8965 2.84423 22.3893 3.87591 23.7021Z" fill="white"/>
<path d="M7.65854 27.0411V28.0324H1.55846V24.3479H4.41219C5.35247 25.4076 6.44721 26.3158 7.65854 27.0411Z" fill="white"/>
<path d="M8.69917 29.8375V29.5146C8.69917 29.0527 8.32902 28.6783 7.87241 28.6783H1.33182C0.875214 28.6783 0.505063 29.0527 0.505063 29.5146V29.8375C0.505063 30.2994 0.875214 30.6739 1.33182 30.6739H7.87241C8.32902 30.6739 8.69917 30.2994 8.69917 29.8375Z" fill="white"/>
<path d="M26.0386 8.71878H18.8309C20.3269 9.72627 21.4219 11.2371 21.922 12.9833C22.422 14.7296 22.2946 16.5986 21.5625 18.259C20.8304 19.9193 19.5408 21.2639 17.9223 22.0542C16.3039 22.8446 14.461 23.0297 12.7205 22.5768C10.98 22.1238 9.45418 21.0621 8.41359 19.5798C7.373 18.0975 6.88482 16.2904 7.03559 14.4787C7.18637 12.6671 7.96635 10.9679 9.23728 9.68248C10.5082 8.39704 12.188 7.60834 13.9789 7.45617V1.91815C10.5629 2.07012 7.34201 3.57141 5.00826 6.09953C2.67451 8.62764 1.41404 11.9809 1.49764 15.4389C1.58124 18.8969 3.00223 22.1838 5.45535 24.5935C7.90847 27.0032 11.198 28.3434 14.6173 28.3263C24.6181 28.3263 30.8651 17.3891 26.0386 8.71878ZM8.76939 6.30336C9.31515 5.93142 9.89443 5.61246 10.4995 5.35076C10.5381 5.33365 10.5796 5.32443 10.6216 5.32362C10.6637 5.32281 10.7056 5.33043 10.7447 5.34604C10.7839 5.36164 10.8196 5.38493 10.8498 5.41456C10.8801 5.44419 10.9042 5.47957 10.9209 5.51867C10.9377 5.55787 10.9466 5.60004 10.9472 5.64276C10.9478 5.68548 10.94 5.72789 10.9243 5.76754C10.9085 5.80718 10.8852 5.84328 10.8555 5.87372C10.8259 5.90417 10.7906 5.92837 10.7517 5.94492C10.183 6.18976 9.63893 6.4893 9.12691 6.8394C9.09211 6.86315 9.05304 6.87973 9.01191 6.8882C8.97078 6.89667 8.92841 6.89687 8.88721 6.88877C8.846 6.88067 8.80678 6.86445 8.77178 6.84102C8.73678 6.81759 8.70668 6.78741 8.68321 6.75221C8.65973 6.71702 8.64334 6.67749 8.63497 6.63588C8.62659 6.59428 8.6264 6.55141 8.6344 6.50973C8.64241 6.46805 8.65845 6.42837 8.68161 6.39296C8.70477 6.35756 8.7346 6.32711 8.76939 6.30336ZM4.75055 15.1125C4.75055 15.1982 4.71692 15.2803 4.65705 15.3409C4.59719 15.4014 4.516 15.4354 4.43134 15.4354C4.34668 15.4354 4.26549 15.4014 4.20562 15.3409C4.14576 15.2803 4.11213 15.1982 4.11213 15.1125C4.11474 12.405 5.14285 9.80138 6.98501 7.83721C7.0445 7.78206 7.12243 7.75173 7.20312 7.75235C7.28381 7.75297 7.36128 7.78448 7.41993 7.84054C7.47858 7.8966 7.51407 7.97305 7.51926 8.05452C7.52444 8.13598 7.49893 8.2164 7.44787 8.27961C5.71897 10.1251 4.75384 12.57 4.75055 15.1125ZM20.2035 24.1122C18.5293 25.1727 16.5926 25.7325 14.6173 25.7268C14.5326 25.7268 14.4515 25.6928 14.3916 25.6322C14.3317 25.5717 14.2981 25.4895 14.2981 25.4039C14.2981 25.3182 14.3317 25.2361 14.3916 25.1755C14.4515 25.115 14.5326 25.081 14.6173 25.081C16.4711 25.0889 18.2894 24.5661 19.8619 23.5729C19.9335 23.5271 20.0201 23.5119 20.1027 23.5307C20.1853 23.5495 20.2571 23.6007 20.3024 23.673C20.3477 23.7454 20.3627 23.833 20.3442 23.9166C20.3256 24.0002 20.275 24.0729 20.2035 24.1187V24.1122ZM23.9382 12.7843C23.7589 12.7843 23.5836 12.7305 23.4346 12.6297C23.2855 12.529 23.1693 12.3857 23.1007 12.2182C23.0321 12.0506 23.0141 11.8662 23.0491 11.6883C23.0841 11.5104 23.1704 11.347 23.2972 11.2187C23.424 11.0905 23.5855 11.0031 23.7614 10.9678C23.9372 10.9324 24.1195 10.9505 24.2851 11.0199C24.4508 11.0894 24.5924 11.2069 24.692 11.3577C24.7916 11.5085 24.8448 11.6858 24.8448 11.8672C24.8448 11.9876 24.8213 12.1069 24.7758 12.2182C24.7302 12.3294 24.6634 12.4305 24.5792 12.5157C24.4951 12.6009 24.3951 12.6684 24.2851 12.7145C24.1752 12.7606 24.0573 12.7843 23.9382 12.7843Z" fill="white"/>
<path d="M14.6173 8.07294C13.2372 8.07295 11.888 8.48717 10.7407 9.26318C9.59337 10.0392 8.69942 11.1421 8.17199 12.4323C7.64456 13.7225 7.50737 15.142 7.77779 16.5111C8.04821 17.8802 8.71407 19.1374 9.6911 20.1235C10.6681 21.1097 11.9124 21.7804 13.2664 22.0508C14.6204 22.3212 16.0233 22.1792 17.2975 21.6427C18.5717 21.1062 19.6599 20.1993 20.4243 19.0369C21.1888 17.8744 21.5952 16.5087 21.592 15.1125C21.5861 13.2446 20.8489 11.455 19.5417 10.1357C18.2345 8.81634 16.4638 8.07464 14.6173 8.07294ZM18.9011 18.9294C18.2822 19.645 17.4982 20.1949 16.6187 20.5303C15.7392 20.8656 14.7914 20.9761 13.8596 20.8518C12.9277 20.7275 12.0406 20.3723 11.2771 19.8178C10.5136 19.2633 9.89726 18.5266 9.48286 17.6732C9.06845 16.8198 8.8688 15.876 8.90165 14.9258C8.93449 13.9756 9.19881 13.0482 9.67113 12.2262C10.1434 11.4041 10.8091 10.7128 11.6091 10.2136C12.409 9.71438 13.3185 9.42276 14.2566 9.36461C19.3799 9.07399 22.2368 15.1158 18.9011 18.9294Z" fill="white"/>
<path d="M12.1594 14.7896H9.5738C9.64452 13.6551 10.0871 12.5767 10.8315 11.7251L12.6701 13.5851C12.7696 13.6845 12.8372 13.812 12.8641 13.9508C12.8909 14.0897 12.8758 14.2335 12.8207 14.3635C12.7655 14.4935 12.673 14.6037 12.555 14.6797C12.437 14.7557 12.2992 14.794 12.1594 14.7896Z" fill="white"/>
<path d="M12.6574 16.6399L10.8155 18.5032C10.0767 17.6482 9.63984 16.569 9.5738 15.4354H12.1785C12.3156 15.4375 12.449 15.4805 12.562 15.559C12.675 15.6375 12.7626 15.748 12.8137 15.8767C12.8649 16.0053 12.8773 16.1464 12.8495 16.2822C12.8217 16.418 12.7548 16.5424 12.6574 16.6399Z" fill="white"/>
<path d="M13.1074 13.1266L11.2688 11.2666C12.1128 10.5194 13.1785 10.0775 14.2981 10.0104V12.6261C14.2992 12.7661 14.259 12.9033 14.1826 13.0201C14.1062 13.1368 13.9971 13.2279 13.8693 13.2817C13.7414 13.3354 13.6007 13.3493 13.465 13.3217C13.3293 13.2941 13.2048 13.2262 13.1074 13.1266Z" fill="white"/>
<path d="M14.2981 17.6022V20.234C13.1766 20.1624 12.1106 19.7147 11.2688 18.9617L13.1074 17.1146C13.204 17.0158 13.3273 16.9481 13.4618 16.9201C13.5964 16.8921 13.7361 16.9049 13.8634 16.9571C13.9907 17.0092 14.0999 17.0983 14.1773 17.2131C14.2546 17.3279 14.2967 17.4633 14.2981 17.6022Z" fill="white"/>
<path d="M14.6173 16.3977C14.3648 16.3977 14.1179 16.322 13.9079 16.18C13.698 16.0381 13.5343 15.8364 13.4377 15.6004C13.341 15.3643 13.3157 15.1046 13.365 14.8541C13.4143 14.6035 13.5359 14.3734 13.7144 14.1927C13.893 14.0121 14.1205 13.8891 14.3682 13.8392C14.6159 13.7894 14.8726 13.815 15.1059 13.9127C15.3392 14.0105 15.5387 14.176 15.679 14.3885C15.8193 14.6009 15.8941 14.8506 15.8941 15.1061C15.8941 15.4486 15.7596 15.7772 15.5202 16.0194C15.2807 16.2617 14.9559 16.3977 14.6173 16.3977Z" fill="white"/>
<path d="M16.1272 17.1146L17.969 18.9778C17.1257 19.7305 16.0589 20.1781 14.9365 20.2501V17.599C14.9386 17.4603 14.9811 17.3254 15.0587 17.2111C15.1363 17.0967 15.2455 17.0082 15.3727 16.9564C15.4999 16.9047 15.6393 16.8921 15.7735 16.9202C15.9078 16.9484 16.0308 17.016 16.1272 17.1146Z" fill="white"/>
<path d="M14.9365 12.6293V10.0104C16.0589 10.0825 17.1257 10.5301 17.969 11.2827L16.1272 13.146C16.0289 13.2466 15.9029 13.315 15.7657 13.3422C15.6284 13.3693 15.4863 13.354 15.3577 13.2983C15.2292 13.2425 15.1203 13.1488 15.0451 13.0295C14.97 12.9102 14.9321 12.7707 14.9365 12.6293Z" fill="white"/>
<path d="M17.0752 15.4354H19.68C19.6095 16.571 19.1669 17.6504 18.4223 18.5032L16.5964 16.6399C16.4989 16.5424 16.4321 16.418 16.4043 16.2822C16.3764 16.1464 16.3889 16.0053 16.44 15.8767C16.4912 15.748 16.5787 15.6375 16.6917 15.559C16.8048 15.4805 16.9382 15.4375 17.0752 15.4354Z" fill="white"/>
<path d="M16.5964 13.5851L18.435 11.7251C19.1795 12.5767 19.622 13.6551 19.6927 14.7896H17.0784C16.9411 14.7882 16.8072 14.7456 16.6937 14.6674C16.5803 14.5891 16.4922 14.4786 16.4407 14.3498C16.3891 14.2211 16.3764 14.0797 16.4041 13.9436C16.4318 13.8076 16.4987 13.6828 16.5964 13.5851Z" fill="white"/>
<path d="M23.1083 1.90201V8.07294H17.6626C16.5066 7.55282 15.2396 7.33624 13.9789 7.44326V1.90201H23.1083Z" fill="white"/>
<path d="M23.7467 1.90201H27.3889V8.06003H23.7467V1.90201Z" fill="white"/>
<path d="M29.1732 0.836381H28.854C28.3974 0.836381 28.0273 1.21083 28.0273 1.67274V8.2893C28.0273 8.7512 28.3974 9.12565 28.854 9.12565H29.1732C29.6299 9.12565 30 8.7512 30 8.2893V1.67274C30 1.21083 29.6299 0.836381 29.1732 0.836381Z" fill="white"/>
<path d="M4.68671 1.13992C4.30282 0.751439 3.81368 0.486846 3.28113 0.379609C2.74859 0.272372 2.19657 0.327307 1.69489 0.537468C1.19321 0.747629 0.764411 1.10357 0.46272 1.56029C0.161029 2.017 0 2.55396 0 3.10326C0 3.65255 0.161029 4.18952 0.46272 4.64623C0.764411 5.10294 1.19321 5.45888 1.69489 5.66904C2.19657 5.8792 2.74859 5.93414 3.28113 5.8269C3.81368 5.71967 4.30282 5.45507 4.68671 5.06659C4.94189 4.80894 5.14435 4.50291 5.28249 4.16602C5.42062 3.82913 5.49172 3.46798 5.49172 3.10326C5.49172 2.73853 5.42062 2.37739 5.28249 2.04049C5.14435 1.7036 4.94189 1.39757 4.68671 1.13992ZM4.04829 4.43367C3.78811 4.69718 3.45652 4.8767 3.09546 4.94952C2.7344 5.02234 2.36011 4.98519 2.01993 4.84277C1.67975 4.70034 1.38897 4.45905 1.18439 4.14941C0.979803 3.83977 0.870603 3.47569 0.870603 3.10326C0.870603 2.73082 0.979803 2.36675 1.18439 2.05711C1.38897 1.74747 1.67975 1.50617 2.01993 1.36374C2.36011 1.22132 2.7344 1.18417 3.09546 1.25699C3.45652 1.32981 3.78811 1.50933 4.04829 1.77284C4.22208 1.94656 4.3603 2.15325 4.45502 2.38109C4.54975 2.60892 4.59911 2.85342 4.6003 3.10058C4.60149 3.34774 4.55447 3.59271 4.46194 3.82146C4.3694 4.05021 4.23318 4.25825 4.06106 4.43367H4.04829Z" fill="white"/>
<path d="M1.52334 3.10326C1.52353 2.89995 1.57326 2.69983 1.66812 2.5206C1.76299 2.34137 1.90007 2.18856 2.06723 2.0757C2.23439 1.96284 2.42648 1.89341 2.62649 1.87355C2.8265 1.85369 3.02826 1.88402 3.21392 1.96184C3.39959 2.03967 3.56342 2.1626 3.69093 2.31975C3.81843 2.4769 3.90567 2.66342 3.94493 2.86281C3.98419 3.0622 3.97425 3.2683 3.916 3.46288C3.85775 3.65746 3.75299 3.83451 3.61097 3.97836C3.4406 4.15316 3.22254 4.27256 2.98471 4.32128C2.74687 4.37 2.50008 4.34583 2.2759 4.25186C2.05172 4.15789 1.86036 3.99839 1.7263 3.79377C1.59223 3.58916 1.52157 3.34873 1.52334 3.10326Z" fill="white"/>
</svg>
