<svg width="30" height="30" viewBox="0 0 30 30" fill="none" xmlns="http://www.w3.org/2000/svg">
<path d="M12.0875 10.8621C10.556 10.8621 9.31034 12.1077 9.31034 13.6392C9.31034 13.8223 9.32853 14.0059 9.36414 14.1827L10.4762 18.972C10.6401 19.6789 11.2624 20.1724 11.988 20.1724H18.0113C18.7371 20.1724 19.3587 19.6789 19.5233 18.972L20.6389 14.1683C20.6715 14.0059 20.6897 13.8228 20.6897 13.6392C20.6897 12.1077 19.444 10.8621 17.9125 10.8621H12.0875ZM19.6552 13.6392C19.6552 13.743 19.6453 13.8461 19.6276 13.9463L18.4222 19.1379H11.5778L10.3779 13.9713C10.3547 13.8466 10.3448 13.7435 10.3448 13.6392C10.3448 12.6787 11.127 11.8966 12.0875 11.8966H17.9125C18.873 11.8966 19.6552 12.6787 19.6552 13.6392Z" fill="white"/>
<path d="M5.17241 14.4828H6.2069V15.5172H5.17241V14.4828Z" fill="white"/>
<path d="M15.5172 15.5172C15.5172 15.8029 15.2856 16.0345 15 16.0345C14.7144 16.0345 14.4828 15.8029 14.4828 15.5172C14.4828 15.2316 14.7144 15 15 15C15.2856 15 15.5172 15.2316 15.5172 15.5172Z" fill="white"/>
<path d="M12.0875 12.931C11.6968 12.931 11.3793 13.2485 11.3793 13.6392C11.3793 13.6806 11.3828 13.7218 11.3902 13.7612L12.3989 18.1034H17.6006L18.6149 13.737C18.6172 13.7223 18.6207 13.6811 18.6207 13.6392C18.6207 13.2485 18.3032 12.931 17.9125 12.931H12.0875ZM15 17.069C14.1446 17.069 13.4483 16.3727 13.4483 15.5172C13.4483 14.6618 14.1446 13.9655 15 13.9655C15.8554 13.9655 16.5517 14.6618 16.5517 15.5172C16.5517 16.3732 15.8554 17.069 15 17.069Z" fill="white"/>
<path d="M9.34191 18.6563L8.3539 14.4027C8.30112 14.1436 8.27586 13.8915 8.27586 13.6392C8.27586 13.2099 8.35037 12.7992 8.4817 12.4138H3.3901C3.20422 13.247 3.10345 14.112 3.10345 15C3.10345 15.888 3.20422 16.753 3.3901 17.5862H5.41563C6.8441 17.5862 8.18595 17.9772 9.34191 18.6563ZM4.13793 15.5172V14.4828H5.17241V13.4483H6.2069V14.4828H7.24138V15.5172H6.2069V16.5517H5.17241V15.5172H4.13793Z" fill="white"/>
<path d="M15 0C6.72919 0 0 6.72919 0 15C0 23.2708 6.72919 30 15 30C23.2708 30 30 23.2708 30 15C30 6.72919 23.2708 0 15 0ZM15 27.931C7.86975 27.931 2.06897 22.1303 2.06897 15C2.06897 7.86975 7.86975 2.06897 15 2.06897C22.1303 2.06897 27.931 7.86975 27.931 15C27.931 22.1303 22.1303 27.931 15 27.931Z" fill="white"/>
<path d="M18.0113 21.2069H11.9887C11.9849 21.2069 11.9814 21.2059 11.9779 21.2059C12.5865 22.1717 12.9927 23.2837 13.1265 24.4884L13.3816 26.7839C13.9112 26.8561 14.4507 26.8966 15 26.8966C15.5493 26.8966 16.0888 26.8561 16.6184 26.7839L16.8735 24.4884C17.0073 23.2842 17.4135 22.1722 18.0221 21.2059C18.0186 21.2064 18.0151 21.2069 18.0113 21.2069Z" fill="white"/>
<path d="M26.6099 12.4138H21.5183C21.6496 12.7992 21.7241 13.2104 21.7241 13.6392C21.7241 13.891 21.6989 14.1436 21.6496 14.3875L20.6581 18.6558C21.814 17.9772 23.1559 17.5862 24.5844 17.5862H26.6099C26.7958 16.753 26.8966 15.888 26.8966 15C26.8966 14.112 26.7958 13.247 26.6099 12.4138ZM25.8621 15.5172C25.8621 16.0878 25.3981 16.5517 24.8276 16.5517H23.7931C23.2226 16.5517 22.7586 16.0878 22.7586 15.5172V14.4828C22.7586 13.9122 23.2226 13.4483 23.7931 13.4483H24.8276C25.3981 13.4483 25.8621 13.9122 25.8621 14.4828V15.5172Z" fill="white"/>
<path d="M23.7931 14.4828H24.8281V15.5172H23.7931V14.4828Z" fill="white"/>
</svg>
