<svg width="31" height="36" viewBox="0 0 31 36" fill="none" xmlns="http://www.w3.org/2000/svg">
<path d="M15.6133 0C7.32903 0 0.613281 8.0589 0.613281 18C0.613281 27.9411 7.32903 36 15.6133 36C23.8975 36 30.6133 27.9411 30.6133 18C30.6039 8.06355 23.8937 0.01125 15.6133 0ZM29.0713 22.6164L28.1318 22.2498L27.8223 23.3898L28.7658 23.7576C28.3755 25.0349 27.8574 26.2507 27.2228 27.378L26.4228 26.682L25.8348 27.6528L26.6288 28.3452C25.93 29.4155 25.1266 30.3809 24.2358 31.221L23.6588 30.2682L22.8498 30.9738L23.4298 31.9338C22.4904 32.6945 21.4775 33.3155 20.4133 33.783L20.1068 32.6508L19.1568 33.0222L19.4623 34.1496C18.3717 34.5243 17.247 34.7377 16.1133 34.785V33.6H15.1133V34.785C13.9802 34.7375 12.8562 34.5242 11.7663 34.1496L12.0718 33.0222L11.1218 32.6508L10.8133 33.783C9.74884 33.3147 8.73572 32.693 7.79628 31.9314L8.37628 30.9714L7.56728 30.2658L6.99028 31.2186C6.09884 30.3793 5.29472 29.4143 4.59528 28.3446L5.38928 27.6522L4.80128 26.6814L4.00128 27.3774C3.36853 26.2507 2.85209 25.0361 2.46328 23.76L3.40678 23.3922L3.09728 22.2522L2.15778 22.6188C1.84466 21.3102 1.66603 19.9606 1.62578 18.6H2.61328V17.4H1.62578C1.66534 16.0403 1.84316 14.6915 2.15528 13.3836L3.09478 13.7502L3.40428 12.6102L2.46328 12.24C2.85353 10.9627 3.37166 9.74692 4.00628 8.6196L4.80628 9.3156L5.39428 8.3448L4.59578 7.653C5.29522 6.58328 6.09934 5.61833 6.99078 4.779L7.56778 5.7318L8.37678 5.0262L7.79678 4.0662C8.73628 3.30653 9.74922 2.68658 10.8133 2.22L11.1198 3.3522L12.0698 2.9808L11.7643 1.8534C12.8548 1.47765 13.9795 1.2633 15.1133 1.215V2.4H16.1133V1.215C17.2463 1.26248 18.3703 1.47585 19.4603 1.8504L19.1548 2.9778L20.1048 3.3492L20.4133 2.22C21.4777 2.6883 22.4908 3.31005 23.4303 4.0716L22.8503 5.0316L23.6593 5.7372L24.2363 4.7844C25.1277 5.62373 25.9318 6.58867 26.6313 7.6584L25.8373 8.3508L26.4253 9.3216L27.2253 8.6256C27.8587 9.7512 28.376 10.9648 28.7658 12.24L27.8223 12.6078L28.1318 13.7478L29.0713 13.3812C29.3835 14.6899 29.5613 16.0395 29.6008 17.4H28.6133V18.6H29.6008C29.5612 19.9597 29.3834 21.3085 29.0713 22.6164Z" fill="white"/>
<path d="M15.6133 4.8C9.53816 4.8 4.61328 10.7098 4.61328 18C4.61328 25.2902 9.53816 31.2 15.6133 31.2C21.6884 31.2 26.6133 25.2902 26.6133 18C26.6064 10.7133 21.6855 4.80825 15.6133 4.8ZM15.6133 30C10.0904 30 5.61328 24.6275 5.61328 18C5.61328 11.3726 10.0904 6 15.6133 6C21.1362 6 25.6133 11.3726 25.6133 18C25.607 24.6242 21.1335 29.9924 15.6133 30Z" fill="white"/>
<path d="M15.6133 7.8C10.9188 7.8 7.11328 12.3667 7.11328 18C7.11328 23.6333 10.9188 28.2 15.6133 28.2C20.3077 28.2 24.1133 23.6333 24.1133 18C24.108 12.3693 20.3055 7.8063 15.6133 7.8ZM22.0428 13.3902C22.6241 14.5482 22.9785 15.8495 23.0793 17.196L19.9478 16.8924C19.6726 16.8646 19.4683 16.5744 19.4915 16.2442C19.5025 16.0877 19.5642 15.9426 19.6633 15.84L22.0428 13.3902ZM17.2828 9.2328L16.0748 12.7128C15.9685 13.0186 15.6758 13.1633 15.4209 13.0358C15.2992 12.9749 15.2025 12.8588 15.1518 12.7128L13.9438 9.2328C15.0418 8.92237 16.1848 8.92237 17.2828 9.2328ZM9.18378 13.39L11.5633 15.84C11.773 16.0556 11.7972 16.4345 11.6175 16.686C11.5317 16.8062 11.4098 16.8808 11.2783 16.8936L8.14678 17.1972C8.24753 15.8502 8.60216 14.5483 9.18378 13.39ZM13.3943 22.6044L12.6683 26.2752C11.6338 25.7393 10.7128 24.9319 9.97278 23.9124H9.97128L12.6473 21.9534C12.883 21.7807 13.1907 21.8699 13.3346 22.1527C13.4034 22.288 13.4248 22.4503 13.3943 22.6044ZM18.5583 26.2752H18.5568L17.8293 22.6044C17.7653 22.282 17.9313 21.9585 18.1999 21.8818C18.3283 21.8451 18.4636 21.8708 18.5763 21.9534L21.2523 23.9124C20.5127 24.9317 19.5922 25.7391 18.5583 26.2752ZM19.0983 20.9286C18.3911 20.4108 17.468 20.6789 17.0365 21.5276C16.8303 21.9331 16.766 22.4201 16.8578 22.8822L17.6078 26.667C16.3035 27.111 14.922 27.111 13.6178 26.667H13.6168L14.3668 22.8822C14.5584 21.9151 14.0604 20.9446 13.2544 20.7146C12.8695 20.6048 12.464 20.6819 12.1263 20.9292L9.35928 22.956C8.61216 21.6001 8.18728 20.0255 8.13028 18.4014L11.3593 18.0882C12.1849 18.007 12.7993 17.1379 12.7317 16.1471C12.6993 15.6747 12.5131 15.2366 12.2133 14.928L9.75328 12.396C10.5986 11.1269 11.7136 10.1549 12.9808 9.5826L14.2268 13.1724C14.5452 14.0901 15.4233 14.5244 16.1882 14.1422C16.5537 13.9595 16.8441 13.6109 16.9963 13.1724L18.2428 9.5826C19.5098 10.1551 20.6248 11.127 21.4703 12.396L19.0133 14.928C18.3845 15.5753 18.3122 16.7117 18.8516 17.4662C19.1091 17.8263 19.4747 18.0498 19.8688 18.0882L23.0978 18.4014C23.0408 20.0255 22.6159 21.6001 21.8688 22.956L19.0983 20.9286Z" fill="white"/>
<path d="M15.6133 15.6C14.5087 15.6 13.6133 16.6745 13.6133 18C13.6133 19.3255 14.5087 20.4 15.6133 20.4C16.7178 20.4 17.6133 19.3255 17.6133 18C17.6133 16.6745 16.7178 15.6 15.6133 15.6ZM15.6133 19.2C15.061 19.2 14.6133 18.6628 14.6133 18C14.6133 17.3372 15.061 16.8 15.6133 16.8C16.1656 16.8 16.6133 17.3372 16.6133 18C16.6133 18.6628 16.1656 19.2 15.6133 19.2Z" fill="white"/>
<path fill-rule="evenodd" clip-rule="evenodd" d="M29.0713 22.6164L28.1318 22.2498L27.8223 23.3898L28.7658 23.7576C28.3755 25.0349 27.8574 26.2507 27.2228 27.378L26.4228 26.682L25.8348 27.6528L26.6288 28.3452C25.93 29.4155 25.1266 30.3809 24.2358 31.221L23.6588 30.2682L22.8498 30.9738L23.4298 31.9338C22.4904 32.6945 21.4775 33.3155 20.4133 33.783L20.1068 32.6508L19.1568 33.0222L19.4623 34.1496C18.3717 34.5243 17.247 34.7377 16.1133 34.785V33.6H15.1133V34.785C13.9802 34.7375 12.8562 34.5242 11.7663 34.1496L12.0718 33.0222L11.1218 32.6508L10.8133 33.783C9.74884 33.3147 8.73572 32.693 7.79628 31.9314L8.37628 30.9714L7.56728 30.2658L6.99028 31.2186C6.09884 30.3793 5.29472 29.4143 4.59528 28.3446L5.38928 27.6522L4.80128 26.6814L4.00128 27.3774C3.36853 26.2507 2.85209 25.0361 2.46328 23.76L3.40678 23.3922L3.09728 22.2522L2.15778 22.6188C1.84466 21.3102 1.66603 19.9606 1.62578 18.6H2.61328V17.4H1.62578C1.66534 16.0403 1.84316 14.6915 2.15528 13.3836L3.09478 13.7502L3.40428 12.6102L2.46328 12.24C2.85353 10.9627 3.37166 9.74692 4.00628 8.6196L4.80628 9.3156L5.39428 8.3448L4.59578 7.653C5.29522 6.58328 6.09934 5.61833 6.99078 4.779L7.56778 5.7318L8.37678 5.0262L7.79678 4.0662C8.73628 3.30653 9.74922 2.68658 10.8133 2.22L11.1198 3.3522L12.0698 2.9808L11.7643 1.8534C12.8548 1.47765 13.9795 1.2633 15.1133 1.215V2.4H16.1133V1.215C17.2463 1.26248 18.3703 1.47585 19.4603 1.8504L19.1548 2.9778L20.1048 3.3492L20.4133 2.22C21.4777 2.6883 22.4908 3.31005 23.4303 4.0716L22.8503 5.0316L23.6593 5.7372L24.2363 4.7844C25.1277 5.62373 25.9318 6.58867 26.6313 7.6584L25.8373 8.3508L26.4253 9.3216L27.2253 8.6256C27.8587 9.7512 28.376 10.9648 28.7658 12.24L27.8223 12.6078L28.1318 13.7478L29.0713 13.3812C29.3835 14.6899 29.5613 16.0395 29.6008 17.4H28.6133V18.6H29.6008C29.5612 19.9597 29.3834 21.3085 29.0713 22.6164ZM4.61328 18C4.61328 10.7098 9.53816 4.8 15.6133 4.8C21.6855 4.80825 26.6064 10.7133 26.6133 18C26.6133 25.2902 21.6884 31.2 15.6133 31.2C9.53816 31.2 4.61328 25.2902 4.61328 18Z" fill="white"/>
</svg>
