<svg width="30" height="30" viewBox="0 0 30 30" fill="none" xmlns="http://www.w3.org/2000/svg">
<path d="M15 0C6.72914 0 0 6.72914 0 15C0 23.2709 6.72914 30 15 30C23.2709 30 30 23.2709 30 15C30 6.72914 23.2709 0 15 0ZM15 28.75C7.4182 28.75 1.24998 22.5818 1.24998 15C1.24998 7.4182 7.4182 1.24998 15 1.24998C22.5818 1.24998 28.75 7.4182 28.75 15C28.75 22.5818 22.5818 28.75 15 28.75Z" fill="white"/>
<path fill-rule="evenodd" clip-rule="evenodd" d="M15 28.75C7.4182 28.75 1.24998 22.5818 1.24998 15C1.24998 7.4182 7.4182 1.24998 15 1.24998C22.5818 1.24998 28.75 7.4182 28.75 15C28.75 22.5818 22.5818 28.75 15 28.75ZM3.75 15C3.75 8.79697 8.79697 3.75 15 3.75C21.203 3.75 26.25 8.79697 26.25 15C26.25 21.203 21.203 26.25 15 26.25C8.79697 26.25 3.75 21.203 3.75 15Z" fill="white"/>
<path fill-rule="evenodd" clip-rule="evenodd" d="M15 25C9.48609 25 4.99998 20.5139 4.99998 15C4.99998 9.48609 9.48609 4.99998 15 4.99998C20.5139 4.99998 25 9.48609 25 15C25 20.5139 20.5139 25 15 25ZM21.0101 8.7C22.3071 9.92801 23.1866 11.4905 23.5553 13.219C23.6139 13.4943 23.4808 13.7751 23.2305 13.9045C22.619 14.2206 21.8933 14.3738 21.1969 14.3738C20.2899 14.3738 19.4312 14.1144 18.933 13.6158C17.8735 12.5568 18.3153 10.7324 20.1165 8.73539C20.2288 8.61029 20.3875 8.53647 20.556 8.52973C20.725 8.51508 20.888 8.58463 21.0101 8.7ZM18.9331 16.3825C19.8138 15.5005 21.8201 15.3662 23.2306 16.0938C23.4809 16.2231 23.6139 16.5039 23.5553 16.7791C23.1872 18.5077 22.3071 20.0708 21.0101 21.2988C20.8942 21.4086 20.7398 21.4697 20.5805 21.4697C20.5725 21.4697 20.5639 21.4697 20.556 21.4691C20.3876 21.4624 20.2289 21.3885 20.1166 21.2634C18.3161 19.2664 17.8736 17.442 18.9331 16.3825ZM12.3358 6.71572C14.0631 6.16271 15.9369 6.16271 17.6642 6.71572C17.9382 6.80297 18.1171 7.06664 18.0976 7.35416C17.9413 9.6027 16.6102 11.2989 15 11.2989C13.3898 11.2989 12.0587 9.6027 11.9024 7.35416C11.8829 7.0667 12.0618 6.80303 12.3358 6.71572ZM15 18.75C16.6101 18.75 17.9413 20.4462 18.0974 22.6953C18.117 22.9828 17.9382 23.2464 17.6635 23.3337C16.7992 23.6102 15.9032 23.75 14.9999 23.75C14.0967 23.75 13.2006 23.6102 12.3364 23.3337C12.0618 23.2464 11.8829 22.9828 11.9024 22.6953C12.0587 20.4462 13.3899 18.75 15 18.75ZM9.44397 8.52967C9.61242 8.53641 9.77109 8.61023 9.88336 8.73527C11.6845 10.7324 12.1264 12.5567 11.0668 13.6157C10.5688 14.1144 9.71004 14.3738 8.80307 14.3738C8.10668 14.3738 7.38158 14.2206 6.76939 13.9044C6.51914 13.775 6.38607 13.4943 6.44467 13.219C6.81334 11.4905 7.69289 9.92795 8.98986 8.69994C9.11133 8.58463 9.27797 8.51625 9.44397 8.52967ZM6.76939 16.1933C8.17811 15.4657 10.1868 15.6012 11.0669 16.482C12.1258 17.541 11.6839 19.3659 9.884 21.363C9.77109 21.4881 9.61242 21.5619 9.44455 21.5687C9.436 21.5692 9.42744 21.5692 9.41953 21.5692C9.26027 21.5692 9.10582 21.5082 8.98986 21.3983C7.69283 20.1703 6.81334 18.6078 6.44467 16.8787C6.38607 16.6034 6.51914 16.3226 6.76939 16.1933ZM12.5 15C12.5 13.6212 13.6212 12.5 15 12.5C16.3788 12.5 17.5 13.6212 17.5 15C17.5 16.3788 16.3788 17.5 15 17.5C13.6212 17.5 12.5 16.3788 12.5 15Z" fill="white"/>
</svg>
