<svg width="30" height="30" viewBox="0 0 30 30" fill="none" xmlns="http://www.w3.org/2000/svg">
<path d="M15 30C23.2388 30 30 23.2388 30 15C30 6.76117 23.2388 0 15 0C6.76117 0 0 6.76117 0 15C0 23.2388 6.76117 30 15 30ZM15 5.68405C20.2446 5.68405 24.3159 10.0797 24.3159 15C24.3159 19.9226 20.2416 24.3159 15 24.3159C9.74945 24.3159 5.68405 19.9088 5.68405 15C5.68405 10.0051 9.81514 5.68405 15 5.68405Z" fill="white"/>
<path fill-rule="evenodd" clip-rule="evenodd" d="M15 5.68405C20.2446 5.68405 24.3159 10.0797 24.3159 15C24.3159 19.9226 20.2416 24.3159 15 24.3159C9.74945 24.3159 5.68405 19.9088 5.68405 15C5.68405 10.0051 9.81514 5.68405 15 5.68405ZM18.5296 16.0224C18.6246 15.6956 18.6916 15.3571 18.6916 15C18.6916 14.6429 18.6246 14.3044 18.5296 13.9776L21.9363 12.0108C22.3336 12.9286 22.5584 13.9378 22.5584 15C22.5584 16.0622 22.3336 17.0714 21.9363 17.9892L18.5296 16.0224ZM11.4704 13.9776C11.3754 14.3044 11.3084 14.6429 11.3084 15C11.3084 15.3571 11.3754 15.6956 11.4704 16.0224L8.06374 17.9892C7.66663 17.0714 7.44186 16.0622 7.44186 15C7.44186 13.9378 7.66663 12.9286 8.06374 12.0108L11.4704 13.9776ZM15.8789 7.53067C17.9883 7.77901 19.8255 8.87901 21.037 10.4997L17.6587 12.4505C17.1819 11.9536 16.5685 11.5956 15.8789 11.4258V7.53067ZM15 16.9338C13.9341 16.9338 13.0662 16.0659 13.0662 15C13.0662 13.9341 13.9341 13.0662 15 13.0662C16.0659 13.0662 16.9338 13.9341 16.9338 15C16.9338 16.0659 16.0659 16.9338 15 16.9338ZM15.8789 22.4693V18.5742C16.5685 18.4044 17.1819 18.0464 17.6587 17.5495L21.037 19.5003C19.8255 21.121 17.9883 22.221 15.8789 22.4693ZM14.1211 22.4693C12.0117 22.221 10.1745 21.121 8.96301 19.5003L12.3413 17.5495C12.8181 18.0464 13.4315 18.4044 14.1211 18.5742V22.4693ZM14.1211 7.53067V11.4258C13.4315 11.5956 12.8181 11.9536 12.3413 12.4505L8.96301 10.4997C10.1745 8.87901 12.0117 7.77901 14.1211 7.53067Z" fill="white"/>
</svg>
