<svg width="31" height="35" viewBox="0 0 31 35" fill="none" xmlns="http://www.w3.org/2000/svg">
<path d="M15.6133 0C7.329 0 0.613281 7.83501 0.613281 17.5C0.613281 27.165 7.329 35 15.6133 35C23.8976 35 30.6133 27.165 30.6133 17.5C30.6133 7.83501 23.8976 0 15.6133 0ZM11.1038 22.5107L8.86158 27.0417C7.91008 26.1273 7.08039 25.0035 6.42865 23.6865C5.77691 22.3696 5.35762 20.9694 5.15459 19.5508H9.67287C10.2517 19.5825 10.741 19.9444 11.0518 20.5725C11.3293 21.1331 11.348 21.8881 11.1038 22.5107ZM11.0519 14.4275C10.7744 14.9881 10.2233 15.3846 9.63912 15.4492H5.15465C5.35768 14.0307 5.77697 12.6305 6.42871 11.3135C7.08045 9.99646 7.91014 8.87271 8.86164 7.95833L11.1208 12.5234C11.3866 13.1242 11.3627 13.7994 11.0519 14.4275ZM15.6133 29.873C14.3098 29.873 13.0608 29.5966 11.9062 29.0925L14.1654 24.5273C14.4784 23.9584 14.9917 23.645 15.6133 23.645C16.1682 23.645 16.738 24.0036 17.0781 24.5615L19.3203 29.0925C18.1658 29.5966 16.9168 29.873 15.6133 29.873ZM12.9766 17.5C12.9766 15.8038 14.1594 14.4238 15.6133 14.4238C17.0672 14.4238 18.25 15.8038 18.25 17.5C18.25 19.1962 17.0672 20.5762 15.6133 20.5762C14.1594 20.5762 12.9766 19.1962 12.9766 17.5ZM17.0611 10.4727C16.7482 11.0416 16.2349 11.355 15.6133 11.355C15.0584 11.355 14.4886 10.9964 14.1485 10.4385L11.9062 5.90755C13.0608 5.4034 14.3098 5.12695 15.6133 5.12695C16.9168 5.12695 18.1658 5.4034 19.3203 5.90755L17.0611 10.4727ZM24.7979 23.6865C24.1462 25.0035 23.3165 26.1273 22.365 27.0417L20.1058 22.4766C19.8399 21.8759 19.8638 21.2006 20.1747 20.5725C20.4521 20.0119 21.0033 19.6154 21.5874 19.5508H26.0719C25.8689 20.9694 25.4496 22.3696 24.7979 23.6865ZM21.5537 15.4492C20.9748 15.4175 20.4856 15.0556 20.1747 14.4275C19.8973 13.8669 19.8786 13.1119 20.1227 12.4893L22.365 7.95833C23.3165 8.87271 24.1462 9.99653 24.7979 11.3135C25.4496 12.6304 25.8689 14.0306 26.072 15.4492H21.5537Z" fill="white"/>
<path d="M15.6133 16.4746C15.1287 16.4746 14.7344 16.9346 14.7344 17.5C14.7344 18.0654 15.1287 18.5254 15.6133 18.5254C16.0979 18.5254 16.4922 18.0654 16.4922 17.5C16.4922 16.9346 16.0979 16.4746 15.6133 16.4746Z" fill="white"/>
</svg>
