<svg width="30" height="30" viewBox="0 0 30 30" fill="none" xmlns="http://www.w3.org/2000/svg">
<path d="M15.807 10.2627L17.6724 6.30776C16.8018 6.0382 15.8956 5.90021 14.9842 5.89792C14.0826 5.8993 13.1863 6.03522 12.3247 6.30135L14.1897 10.2563C14.7253 10.1677 15.2721 10.17 15.807 10.2627Z" fill="white"/>
<path d="M12.8402 11.3039L13.3538 11.0055L11.3181 6.68007C10.7198 6.93911 10.1526 7.26542 9.628 7.65261L12.3602 11.5812L12.8402 11.3039Z" fill="white"/>
<path d="M11.2953 11.9331L8.80085 8.34185C7.47011 9.58281 6.54243 11.1942 6.13776 12.9679L10.4877 13.3311C10.677 12.8233 10.9499 12.3508 11.2953 11.9331Z" fill="white"/>
<path d="M15.2772 13.9684C15.1868 13.9443 15.0934 13.932 14.9998 13.932C14.4354 13.932 13.9678 14.3697 13.9307 14.9327C13.8936 15.4958 14.2996 15.991 14.8593 16.0652C15.4187 16.1391 15.9396 15.7668 16.0504 15.2134C16.1612 14.6601 15.8238 14.116 15.2788 13.9688L15.2772 13.9684Z" fill="white"/>
<path d="M18.7036 18.0732L21.1984 21.6617C22.5287 20.4217 23.4564 18.8112 23.8615 17.0384L19.5115 16.6752C19.3225 17.1832 19.0494 17.6558 18.7036 18.0732Z" fill="white"/>
<path d="M19.2854 15.5816L24.041 15.98C24.1135 15.3308 24.1158 14.6755 24.0481 14.0258L19.2854 14.4226V15.5816Z" fill="white"/>
<path d="M19.1783 12.5931C19.3115 12.8286 19.4241 13.075 19.5147 13.3299L23.8782 12.9663C23.4724 11.1901 22.5399 9.57754 21.2028 8.33979L18.7059 11.9283C18.8819 12.1361 19.0398 12.3585 19.1783 12.5931Z" fill="white"/>
<path d="M17.6418 11.5839L20.3708 7.65467C19.8437 7.27114 19.2769 6.94552 18.68 6.68327L16.6411 11.0059L17.6418 11.5839Z" fill="white"/>
<path d="M18.5061 13.6903C18.4365 13.4965 18.3504 13.3089 18.2488 13.1297C18.1435 12.9514 18.0236 12.7821 17.8904 12.6235C17.624 12.6878 17.3429 12.6476 17.1051 12.5109L16.1076 11.9315C15.8714 11.7958 15.6956 11.5752 15.6164 11.3146C15.2726 11.2558 14.9222 11.2448 14.5754 11.2812C14.5596 11.4494 14.4644 11.6 14.3193 11.6862L13.3829 12.2272L12.9254 12.4949C12.9112 12.505 12.8966 12.5139 12.8814 12.5224C12.8755 12.526 12.8686 12.5265 12.8627 12.5297L12.4658 12.7595C12.3202 12.8466 12.1405 12.8544 11.9879 12.7805C11.7821 13.0608 11.6157 13.3684 11.4939 13.6942C11.6812 13.8915 11.7853 14.1528 11.7853 14.4247V15.5816C11.7858 15.8549 11.6812 16.1176 11.4935 16.316C11.5631 16.5098 11.6491 16.6974 11.7505 16.8766C11.8563 17.056 11.9769 17.226 12.111 17.3851C12.3761 17.3212 12.6553 17.3608 12.8922 17.4958L13.8929 18.0739C14.127 18.2105 14.3008 18.4311 14.3788 18.6908C14.724 18.7503 15.0758 18.7617 15.4239 18.7251C15.4397 18.5569 15.5349 18.4066 15.68 18.3201L16.6166 17.7791L17.074 17.5114C17.0881 17.5015 17.1028 17.4924 17.1179 17.4842C17.1259 17.4798 17.1346 17.4777 17.1426 17.4734L17.5338 17.2469C17.6803 17.1642 17.8574 17.1569 18.0106 17.2269C18.2168 16.9462 18.3834 16.6384 18.5054 16.3121C18.3184 16.115 18.214 15.8535 18.214 15.5816V14.4247C18.2136 14.1517 18.3182 13.8887 18.5061 13.6903ZM17.0691 15.5576C16.8048 16.5448 15.8796 17.208 14.8595 17.1411C13.8393 17.0745 13.0082 16.2967 12.8748 15.2832C12.7411 14.27 13.3422 13.3034 14.3102 12.9748C15.2781 12.6462 16.3436 13.0469 16.8549 13.932C17.1408 14.4235 17.2179 15.0089 17.0691 15.5576Z" fill="white"/>
<path d="M17.6397 18.4251L17.1575 18.7024L16.6438 19.0008L18.6796 23.329C19.2769 23.0674 19.8434 22.7402 20.3687 22.3537L17.6397 18.4251Z" fill="white"/>
<path d="M15.0162 19.8235C14.7395 19.8205 14.4635 19.794 14.1913 19.7443L12.3291 23.6949C14.0695 24.2322 15.9313 24.2342 17.6729 23.7013L15.8098 19.7487C15.5477 19.7956 15.2824 19.8205 15.0162 19.8235Z" fill="white"/>
<path d="M18.8821 0.51739C17.6079 0.175057 16.2943 0.000915329 14.975 0C9.61979 0.0109839 4.67631 2.87436 2.00315 7.51348C-0.670005 12.1526 -0.667488 17.8645 2.00933 22.5015C5.04299 27.7544 10.9428 30.6628 16.9579 29.8713C22.9728 29.0795 27.9185 24.7434 29.4889 18.8846C30.5185 15.0427 29.9794 10.9492 27.9902 7.50455C26.0009 4.06017 22.7244 1.54668 18.8814 0.51739H18.8821ZM11.2497 1.61327C11.5454 1.61327 11.7853 1.85308 11.7853 2.14873C11.7853 2.44461 11.5454 2.68443 11.2497 2.68443C10.9537 2.68443 10.7139 2.44461 10.7139 2.14873C10.7139 1.85308 10.9537 1.61327 11.2497 1.61327ZM3.17139 9.95832C3.0558 10.2309 2.74131 10.3581 2.46894 10.2425C2.19633 10.127 2.06907 9.81255 2.18466 9.54001C3.35976 6.75993 5.41516 4.44232 8.03522 2.94301C8.48544 2.68672 8.9487 2.45445 9.42341 2.2469C9.69464 2.1286 10.0105 2.2524 10.1288 2.52379C10.2472 2.79496 10.1231 3.11074 9.85189 3.22905C9.4122 3.42058 8.98303 3.635 8.56623 3.87184C6.14965 5.25513 4.25448 7.39357 3.17139 9.95832ZM6.18445 20.0915C5.5589 19.0054 5.14118 17.8128 4.95212 16.5741C4.95212 16.5681 4.94846 16.5629 4.94846 16.5565C4.40577 13.0018 5.77611 9.424 8.55502 7.14117C8.566 7.12812 8.57791 7.11577 8.59027 7.10409C8.59782 7.09929 8.60629 7.09883 8.61384 7.09403C9.42913 6.416 10.3545 5.88259 11.3497 5.51669L11.3568 5.51119C11.3628 5.50868 11.3685 5.51119 11.374 5.50708C14.7571 4.22218 18.5681 4.82699 21.3871 7.09609C21.393 7.09998 21.3999 7.10043 21.4058 7.10409C21.4202 7.11439 21.4278 7.12995 21.4413 7.14117C23.3864 8.71507 24.6718 10.9599 25.0444 13.4338C25.0444 13.4398 25.0483 13.445 25.0483 13.4514C25.591 17.0061 24.2207 20.5839 21.4418 22.8667C21.4308 22.8798 21.4189 22.8921 21.4065 22.9038C21.399 22.9086 21.3903 22.9091 21.3829 22.9139C19.0714 24.7844 16.0565 25.5489 13.1327 25.0059C10.2089 24.4628 7.66969 22.667 6.18445 20.0915ZM27.8146 20.4663C26.6395 23.2464 24.5841 25.564 21.9641 27.0633C21.0515 27.5859 20.0838 28.0061 19.0787 28.3159C19.0277 28.3319 18.9746 28.3399 18.9213 28.3395C18.656 28.3397 18.4305 28.1459 18.3912 27.8837C18.3516 27.6214 18.5102 27.3697 18.7638 27.2919C19.6922 27.0059 20.5857 26.6178 21.4285 26.1345C23.8464 24.7519 25.7437 22.6134 26.8279 20.048C26.9028 19.8718 27.0657 19.7487 27.2559 19.7253C27.4459 19.702 27.6338 19.7816 27.7492 19.9345C27.8645 20.0873 27.8895 20.2901 27.8146 20.4663Z" fill="white"/>
<path d="M12.3563 18.424L9.67081 22.2905L11.3504 23.2578L13.357 19.0013L12.3563 18.424Z" fill="white"/>
<path d="M10.7139 14.4247L5.95829 14.0263C5.88574 14.6755 5.88345 15.3308 5.9512 15.9807L10.7139 15.5837V14.4247Z" fill="white"/>
<path d="M10.8237 17.4134C10.6905 17.1777 10.5779 16.9313 10.4873 16.6764L6.1238 17.04C6.53053 18.8162 7.46232 20.4292 8.79764 21.6693L11.2946 18.0748C11.1192 17.8679 10.9618 17.6466 10.8237 17.4134Z" fill="white"/>
</svg>
