<svg width="30" height="30" viewBox="0 0 30 30" fill="none" xmlns="http://www.w3.org/2000/svg">
<path d="M29.6099 13.947C29.1435 13.947 29.1758 13.4366 29.1347 13.1111C29.0526 12.4892 28.9294 12.3015 29.5776 12.1285L29.6832 11.9437L29.2315 10.2542C29.1817 10.0723 28.9763 10.1662 28.8502 10.2014C28.4014 10.3217 28.3017 9.8289 28.1727 9.51799L27.9908 9.10735C27.7738 8.62632 28.3692 8.52073 28.4132 8.3682V8.25381L27.5332 6.73739C27.4394 6.57607 27.2605 6.71686 27.1578 6.77845C26.7472 7.02483 26.5272 6.57607 26.316 6.30329C25.9259 5.79879 25.7294 5.71666 26.2075 5.22683V5.00098L24.9638 3.76613C24.8289 3.63121 24.6881 3.82773 24.6001 3.91279C24.2716 4.2413 23.9402 3.86293 23.6733 3.65761C23.4063 3.45229 22.9576 3.2411 23.1893 2.82753C23.2509 2.72194 23.4034 2.53422 23.2362 2.44036L21.7022 1.56042C21.5585 1.48709 21.4675 1.69828 21.4089 1.78921C21.1742 2.21158 20.7548 1.93 20.438 1.78921C19.9042 1.56629 19.6138 1.56042 19.8074 0.909269C19.8219 0.872531 19.8219 0.831614 19.8074 0.794877L19.7165 0.724482L18.027 0.272781C17.9902 0.258262 17.9493 0.258262 17.9126 0.272781L17.7894 0.566093C17.6691 1.01779 17.1852 0.859406 16.8625 0.809542C16.2348 0.727415 16.0237 0.809542 16.0237 0.126124L15.8711 0H14.1113C13.9206 0 13.9617 0.231717 13.9587 0.357841C13.9587 0.824208 13.4484 0.791944 13.1228 0.833007C12.5039 0.915135 12.3133 1.04126 12.1402 0.390106L11.9554 0.284513L10.2689 0.736214C10.087 0.786077 10.1809 0.991396 10.2161 1.12045C10.3363 1.56922 9.8377 1.67188 9.53266 1.79801L9.12495 1.97399C8.76418 2.13825 8.59112 1.82147 8.47966 1.62202L8.27141 1.56629L6.75499 2.44623C6.5966 2.54302 6.73152 2.71314 6.79605 2.82167C7.04243 3.2323 6.59366 3.45229 6.32088 3.66347C5.81639 4.05065 5.73426 4.2501 5.24443 3.772H5.01858L3.78373 5.00098V5.2151L3.93039 5.36469C4.25596 5.6932 3.88052 6.02757 3.67521 6.29155C3.46989 6.55553 3.2587 7.01017 2.84513 6.77552C2.73954 6.71392 2.55182 6.5614 2.45796 6.72859L1.57802 8.26261C1.50469 8.40634 1.71588 8.49726 1.8068 8.55592C2.22917 8.79057 1.94759 9.21001 1.8068 9.52679C1.66601 9.84357 1.57802 10.3305 1.12925 10.2102L0.818342 10.1721L0.747947 10.263L0.296246 11.9525C0.281727 11.9892 0.281727 12.0301 0.296246 12.0669L0.589558 12.1901C1.04126 12.3103 0.882871 12.7943 0.833007 13.1169C0.75088 13.7446 0.833007 13.9558 0.149589 13.9558L0 14.1054V15.8653C0 16.0559 0.231717 16.0149 0.357841 16.0178C0.824208 16.0178 0.791944 16.5282 0.833007 16.8537C0.915135 17.4756 1.03833 17.6633 0.390106 17.8363L0.284513 18.0211L0.736214 19.7106C0.786077 19.8925 0.991396 19.7986 1.11752 19.7634C1.56629 19.6431 1.66601 20.1359 1.79507 20.4468L1.99159 20.8398C2.20864 21.3209 1.61322 21.4265 1.56922 21.579V21.6934L2.44916 23.2098C2.53715 23.3711 2.72487 23.2303 2.8246 23.1688C3.23524 22.9224 3.45522 23.3711 3.66641 23.6439C4.05944 24.1484 4.25303 24.2305 3.77493 24.7204V24.9462L5.01858 26.1811C5.1535 26.316 5.29429 26.1195 5.38228 26.0344C5.71079 25.7059 6.04224 26.0843 6.30915 26.2896C6.57607 26.4949 7.02483 26.7178 6.79312 27.1197C6.73152 27.2253 6.579 27.413 6.74619 27.5068L8.28021 28.3868C8.42687 28.4601 8.51486 28.2489 8.57352 28.158C8.80817 27.7356 9.22761 28.0172 9.54439 28.158C10.131 28.3985 10.351 28.3838 10.175 29.0379C10.1605 29.0747 10.1605 29.1156 10.175 29.1523L10.2659 29.2227L11.9554 29.6744C11.9922 29.6889 12.0331 29.6889 12.0698 29.6744L12.193 29.3811C12.3133 28.9294 12.7972 29.0878 13.1199 29.1377C13.7476 29.2198 13.9587 29.1377 13.9587 29.8211L14.1083 29.9707H15.8682C16.0589 29.9707 16.0178 29.7419 16.0207 29.6128C16.0207 29.1465 16.5311 29.1787 16.8567 29.1377C17.4785 29.0555 17.6662 28.9294 17.8393 29.5806L18.0241 29.6862L19.7135 29.2345C19.8954 29.1846 19.8015 28.9793 19.7663 28.8531C19.6461 28.4044 20.1388 28.3047 20.4497 28.1756L20.8663 27.9967C21.3473 27.7796 21.4529 28.375 21.6054 28.419H21.7198L23.2362 27.5391C23.3975 27.4511 23.2567 27.2634 23.1952 27.1637C22.9488 26.753 23.3975 26.533 23.6703 26.3219C24.1748 25.9288 24.2569 25.7352 24.7468 26.2133H24.9638L26.1987 24.9462V24.7321C26.0344 24.5679 25.7675 24.3215 26.0227 24.0135L26.5624 23.3125C26.8792 22.849 27.2575 23.3389 27.4423 23.2919C27.4816 23.2816 27.5153 23.2564 27.5362 23.2215L28.4161 21.6875C28.4894 21.5438 28.2783 21.4529 28.1873 21.3942C27.765 21.1596 28.0465 20.7401 28.1873 20.4263C28.4102 19.8925 28.4161 19.6021 29.0673 19.7957C29.104 19.8102 29.1449 19.8102 29.1817 19.7957L29.2521 19.7047L29.7038 18.0153C29.7183 17.9785 29.7183 17.9376 29.7038 17.9009L29.4104 17.7777C28.9587 17.6574 29.1171 17.1734 29.167 16.8508C29.2491 16.2231 29.167 16.0119 29.8504 16.0119L30 15.8623V14.0937C29.9648 13.9089 29.736 13.947 29.6099 13.947ZM23.3858 23.3711V23.3682C18.7584 28.0144 11.2407 28.0297 6.59447 23.4024C1.94825 18.775 1.93293 11.2573 6.5603 6.61104C6.82428 6.34596 7.10073 6.09349 7.38854 5.85452L7.42961 5.81932C12.4827 1.64006 19.967 2.34841 24.1463 7.40152C28.0516 12.1234 27.7222 19.0417 23.3858 23.3711Z" fill="white"/>
<path d="M25.7939 17.0796C25.8506 16.7921 25.8956 16.4988 25.9288 16.1996L23.0192 14.9267L25.92 13.6566C25.8848 13.3633 25.8389 13.07 25.7822 12.7767L21.9574 14.475L19.9629 13.595L21.2388 11.8645L25.4067 11.3981C25.307 11.1204 25.2005 10.8457 25.087 10.5739L21.931 10.9259L23.8082 8.37701C23.6302 8.14236 23.4445 7.91555 23.2509 7.69652L20.7724 11.0579L18.6078 11.2984L18.8483 9.15722L22.2214 6.67286C22.0004 6.47729 21.7706 6.29251 21.5321 6.1185L18.9744 8.00157L19.3264 4.85139C19.0565 4.73605 18.7818 4.63141 18.5022 4.53755L18.0417 8.69378L16.2818 9.98436L15.4165 8.01037L17.1031 4.16797C16.8156 4.11129 16.5223 4.06729 16.2231 4.03598L14.9502 6.94564L13.6801 4.04478C13.3868 4.07998 13.0935 4.12596 12.8002 4.18264L14.4926 8.00743L13.6126 10.002L11.8821 8.72605L11.4187 4.55808C11.1391 4.6578 10.8634 4.76435 10.5915 4.87779L10.9435 8.03383L8.39462 6.15663C8.15997 6.33262 7.93214 6.51836 7.7112 6.71393L11.0755 9.18948L11.316 11.3541L9.17483 11.1165L6.69048 7.74345C6.49491 7.96439 6.31012 8.1942 6.13611 8.43274L8.01918 10.9904L4.87194 10.6355C4.75659 10.9054 4.65195 11.1801 4.55809 11.4597L8.7114 11.9232L10.002 13.683L8.02798 14.5483L4.18559 12.8618C4.1289 13.1492 4.08388 13.4425 4.05066 13.7417L6.96032 15.0147L4.05946 16.2847C4.09466 16.578 4.14064 16.8713 4.19732 17.1646L8.02505 15.4722L10.0196 16.3522L8.74366 18.0827L4.57569 18.5461C4.67542 18.8257 4.78299 19.1015 4.89834 19.3733L8.05438 19.0213L6.17718 21.5702C6.35317 21.8049 6.53891 22.0327 6.73447 22.2536L9.21003 18.8923L11.3747 18.6517L11.1371 20.7929L7.76106 23.2743C7.982 23.4699 8.21181 23.6547 8.45035 23.8287L11.008 21.9456L10.6531 25.0929C10.923 25.2082 11.1977 25.3129 11.4773 25.4067L11.9408 21.2564L13.7006 19.9658L14.5659 21.9398L12.8794 25.7792C13.1668 25.8359 13.4601 25.8809 13.7593 25.9142L15.0323 23.0045L16.3023 25.9054C16.5956 25.8702 16.889 25.8242 17.1823 25.7675L15.4898 21.9398L16.3698 19.9453L18.1003 21.2212L18.5667 25.3891C18.8444 25.2894 19.1191 25.1829 19.3909 25.0694L19.0389 21.9134L21.5878 23.7906C21.8225 23.6146 22.0503 23.4289 22.2712 23.2333L18.9069 20.7548L18.6664 18.5901L20.8076 18.8307L23.292 22.2038C23.4875 21.9828 23.6723 21.753 23.8463 21.5145L21.9633 18.9568L25.1134 19.3088C25.2288 19.0389 25.3334 18.7642 25.4273 18.4846L21.271 18.0241L19.9805 16.2642L21.9545 15.3989L25.7939 17.0796ZM9.86412 12.0405L11.4128 12.2135L11.5008 13.0084L10.7998 13.3017L9.86412 12.0405ZM11.4392 15.8535L11.4949 16.053L11.3424 15.9855L11.4392 15.8535ZM11.3219 14.0262L11.4744 13.9587L11.4216 14.1611L11.3219 14.0262ZM9.08977 15.0029L10.5211 14.387L10.9963 15.0293L10.5417 15.6453L9.08977 15.0029ZM11.4715 17.7777L9.89931 17.9537L10.8232 16.6983L11.5565 17.0268L11.4715 17.7777ZM17.9243 9.85823L17.7513 11.4069L16.9564 11.4949L16.6631 10.7939L17.9243 9.85823ZM17.631 12.2663L17.6134 12.4306L17.4638 12.2839L17.631 12.2663ZM15.924 11.3043L15.9914 11.4568L15.789 11.404L15.924 11.3043ZM14.9472 9.07216L15.5778 10.5035L14.9355 10.9787L14.3195 10.5241L14.9472 9.07216ZM13.9617 11.3248L14.0937 11.4216L13.8942 11.4773L13.9617 11.3248ZM13.2577 10.8056L12.938 11.5389L12.1872 11.4539L12.0112 9.8817L13.2577 10.8056ZM12.4482 12.3338L12.3015 12.4834L12.2839 12.3338H12.4482ZM12.0581 20.1007L12.2311 18.552L13.026 18.464L13.3193 19.165L12.0581 20.1007ZM12.3514 17.6809L12.369 17.5166L12.5186 17.6633L12.3514 17.6809ZM14.0585 18.6429L13.9822 18.4934L14.1846 18.5461L14.0585 18.6429ZM15.0352 20.8751L14.4046 19.4437L15.0469 18.9685L15.6629 19.4232L15.0352 20.8751ZM16.0207 18.6224L15.8712 18.5256L16.0706 18.4699L16.0207 18.6224ZM13.0043 16.9464C12.4827 16.4221 12.189 15.7132 12.1872 14.9736C12.1872 13.425 13.4426 12.1695 14.9912 12.1695C16.5398 12.1695 17.7953 13.425 17.7953 14.9736C17.7953 15.7173 17.4998 16.4305 16.974 16.9563C15.875 18.0499 14.0978 18.0454 13.0043 16.9464ZM17.6956 17.6134H17.5313L17.678 17.4638L17.6956 17.6134ZM16.713 19.1298L17.0444 18.4112L17.8041 18.4963L17.9801 20.0684L16.713 19.1298ZM18.511 12.1695L20.0831 11.9935L19.1592 13.2548L18.4259 12.9204L18.511 12.1695ZM18.5608 15.7861L18.6606 15.921L18.508 15.9885L18.5608 15.7861ZM18.4875 13.8942L18.64 13.9617L18.5432 14.0937L18.4875 13.8942ZM20.1183 17.9067L18.5696 17.7337L18.4816 16.9388L19.1827 16.6455L20.1183 17.9067ZM19.4613 15.5602L18.9861 14.9179L19.4408 14.3019L20.8927 14.9443L19.4613 15.5602Z" fill="white"/>
</svg>
