<svg width="30" height="30" viewBox="0 0 30 30" fill="none" xmlns="http://www.w3.org/2000/svg">
<path d="M30 14.1211H29.4259C29.3854 13.4419 29.2987 12.7717 29.1662 12.1141L29.7165 11.9667L29.2614 10.2687L28.714 10.4154C28.5003 9.77402 28.2414 9.14912 27.939 8.54449L28.4299 8.26113L27.551 6.73887L27.0577 7.02369C26.6864 6.465 26.2737 5.92969 25.8221 5.42086L26.2281 5.01486L24.9852 3.77191L24.5792 4.17791C24.0704 3.72633 23.5351 3.31359 22.9764 2.9424L23.2612 2.4491L21.7389 1.57025L21.4556 2.06109C20.8509 1.75869 20.226 1.49988 19.5847 1.28613L19.7313 0.738691L18.0333 0.283711L17.8859 0.833906C17.2283 0.701309 16.558 0.61459 15.8789 0.574102V0H14.1211V0.574102C13.4419 0.61459 12.7716 0.70125 12.1141 0.833789L11.9666 0.283594L10.2687 0.738633L10.4154 1.28602C9.77402 1.49977 9.14912 1.75857 8.54449 2.06098L8.26107 1.57014L6.73881 2.44904L7.02363 2.94234C6.46494 3.31359 5.92963 3.72627 5.4208 4.17785L5.0148 3.77186L3.77191 5.01486L4.17791 5.42086C3.72633 5.92969 3.31365 6.465 2.9424 7.02369L2.4491 6.73893L1.5702 8.26119L2.06104 8.54455C1.75863 9.14918 1.49982 9.77408 1.28607 10.4154L0.738691 10.2688L0.283652 11.9667L0.833906 12.1141C0.701309 12.7717 0.614648 13.4419 0.57416 14.1211H0V15.8789H0.57416C0.614648 16.5581 0.701309 17.2283 0.833848 17.8859L0.283594 18.0333L0.738633 19.7313L1.28602 19.5846C1.49977 20.226 1.75857 20.8509 2.06098 21.4555L1.57014 21.7389L2.44904 23.2611L2.94234 22.9764C3.31359 23.5351 3.72627 24.0703 4.17785 24.5792L3.77186 24.9852L5.0148 26.2281L5.4208 25.8221C5.92963 26.2737 6.46494 26.6865 7.02363 27.0577L6.73881 27.551L8.26107 28.4299L8.54449 27.939C9.14912 28.2414 9.77402 28.5002 10.4154 28.714L10.2687 29.2614L11.9666 29.7164L12.1141 29.1662C12.7716 29.2987 13.4419 29.3854 14.1211 29.4258V30H15.8789V29.4259C16.558 29.3854 17.2283 29.2987 17.8859 29.1662L18.0333 29.7164L19.7313 29.2614L19.5846 28.714C20.226 28.5002 20.8509 28.2414 21.4555 27.939L21.7389 28.4299L23.2611 27.551L22.9763 27.0577C23.535 26.6865 24.0703 26.2738 24.5791 25.8222L24.9851 26.2282L26.2281 24.9853L25.8221 24.5793C26.2737 24.0704 26.6863 23.5351 27.0576 22.9764L27.5509 23.2613L28.4298 21.739L27.939 21.4556C28.2414 20.851 28.5002 20.2261 28.7139 19.5847L29.2614 19.7314L29.7164 18.0335L29.1662 17.886C29.2987 17.2285 29.3854 16.5582 29.4258 15.879H30V14.1211ZM18.1159 15C18.1159 15.3052 18.071 15.5999 17.9889 15.8789C17.8324 16.41 17.5381 16.8823 17.1473 17.2546C16.7578 17.6258 16.2729 17.8972 15.7334 18.0279C15.498 18.085 15.2527 18.1159 15.0001 18.1159C14.6948 18.1159 14.4001 18.071 14.1212 17.9889C13.5901 17.8324 13.1178 17.5381 12.7454 17.1473C12.3743 16.7578 12.1028 16.2729 11.9721 15.7334C11.9151 15.498 11.8842 15.2527 11.8842 15.0001C11.8842 14.6948 11.929 14.4001 12.0112 14.1212C12.1676 13.5901 12.462 13.1178 12.8527 12.7454C13.2422 12.3743 13.7271 12.1028 14.2667 11.9721C14.502 11.9151 14.7474 11.8842 15 11.8842C15.2526 11.8842 15.498 11.9152 15.7333 11.9721C16.3237 12.1151 16.8486 12.4266 17.2546 12.8527C17.6258 13.2422 17.8972 13.7271 18.0279 14.2667C18.0849 14.502 18.1159 14.7474 18.1159 15ZM25.3234 14.1211H18.2801L24.3789 10.6C24.8898 11.6847 25.2179 12.8716 25.3234 14.1211ZM23.4976 9.0791L17.4012 12.5988L20.9209 6.5025C21.9236 7.20316 22.7968 8.0765 23.4976 9.0791ZM19.4 5.62113L15.8789 11.7199V4.67666C17.1284 4.78213 18.3154 5.1102 19.4 5.62113ZM14.1211 4.67666V11.7199L10.6 5.62113C11.6847 5.1102 12.8716 4.78213 14.1211 4.67666ZM9.0791 6.50244L12.5988 12.5988L6.50244 9.0791C7.20316 8.07645 8.0765 7.20316 9.0791 6.50244ZM5.62113 10.6L11.7199 14.1211H4.6766C4.78213 12.8716 5.1102 11.6847 5.62113 10.6ZM11.7199 15.8789L5.62113 19.4C5.1102 18.3154 4.78213 17.1284 4.6766 15.8789H11.7199ZM6.50244 20.9209L12.5988 17.4012L9.0791 23.4976C8.0765 22.7968 7.20316 21.9236 6.50244 20.9209ZM10.6 24.3789L14.1211 18.2801V25.3234C12.8716 25.2179 11.6847 24.8898 10.6 24.3789ZM15.8789 25.3233V18.2801L19.4 24.3789C18.3154 24.8898 17.1284 25.2179 15.8789 25.3233ZM20.9209 23.4976L17.4012 17.4012L23.4975 20.9209C22.7968 21.9235 21.9236 22.7968 20.9209 23.4976ZM24.3789 19.4L18.2801 15.8789H25.3234C25.2179 17.1284 24.8898 18.3153 24.3789 19.4Z" fill="white"/>
<path d="M15 16.3581C15.7501 16.3581 16.3581 15.7501 16.3581 15C16.3581 14.2499 15.7501 13.6419 15 13.6419C14.25 13.6419 13.6419 14.2499 13.6419 15C13.6419 15.7501 14.25 16.3581 15 16.3581Z" fill="white"/>
</svg>
