<svg width="18" height="18" viewBox="0 0 18 18" fill="none" xmlns="http://www.w3.org/2000/svg">
  <path
    d="M7.24016 11.4677C9.16408 9.17322 11.1035 6.98242 12.964 4.73072L12.7049 4.4716C10.426 6.33204 8.21313 8.27539 5.93552 10.1721C4.17872 9.57355 2.44526 8.98796 0.718263 8.38811C0.507723 8.32753 0.323146 8.19899 0.193314 8.02252C0.063482 7.84606 -0.00431186 7.63157 0.000512461 7.41254C-0.0137388 6.86581 0.269996 6.53027 0.758425 6.32946C2.43403 5.63849 4.10833 4.94752 5.78134 4.25655C9.04877 2.91088 12.3153 1.56263 15.581 0.211784C16.1304 -0.0162359 16.6576 -0.163942 17.1357 0.32967C17.6138 0.823282 17.4117 1.31172 17.1966 1.83125C15.1833 6.71123 13.173 11.5912 11.1657 16.4712C10.847 17.2485 10.4247 17.5685 9.82482 17.3651C9.51906 17.2615 9.1576 16.9764 9.04748 16.6849C8.41135 14.9722 7.8426 13.2322 7.24016 11.4677Z"
    fill="white"
  />
</svg>
