<svg width="20" height="20" viewBox="0 0 20 20" fill="none" xmlns="http://www.w3.org/2000/svg">
<path d="M17.7891 5.54687L17.707 5.59375L17.4785 5.71484L17.1641 5.87891L9.99414 9.66992L6.88867 8.02734L14.0898 4.25586L14.4062 4.0918L14.7207 3.92578L17.7891 5.54687ZM13.8828 3.48437L13.5684 3.64844L13.252 3.8125L6.05078 7.58594L2.83203 5.88086L2.51953 5.7168L2.28711 5.59375L2.20703 5.54883L10 1.43164L13.8828 3.48437ZM18.1914 6.2168V14.4492L10.3848 18.5684V10.3477L17.6055 6.53125L17.8984 6.375L18.0762 6.28125L18.1914 6.2168ZM9.60351 10.3477V18.5684L1.80859 14.4492V6.2207L1.91211 6.2793H1.91406L2.10156 6.37891L2.39453 6.5332L9.60351 10.3477Z" fill="white"/>
</svg>
