<svg width="13" height="12" viewBox="0 0 13 12" fill="none" xmlns="http://www.w3.org/2000/svg">
<g filter="url(#filter0_d_0_764)">
<path d="M8.66748 4.51422C8.66748 4.39815 8.62507 4.2977 8.54025 4.21288C8.45543 4.12806 8.35498 4.08565 8.23891 4.08565H7.38177V3.22851C7.38177 3.11244 7.33936 3.01199 7.25454 2.92717C7.16972 2.84235 7.06927 2.79994 6.9532 2.79994C6.83713 2.79994 6.73668 2.84235 6.65186 2.92717C6.56704 3.01199 6.52463 3.11244 6.52463 3.22851V4.08565H5.66748C5.55141 4.08565 5.45097 4.12806 5.36615 4.21288C5.28132 4.2977 5.23891 4.39815 5.23891 4.51422C5.23891 4.63029 5.28132 4.73074 5.36615 4.81556C5.45097 4.90038 5.55141 4.94279 5.66748 4.94279H6.52463V5.79994C6.52463 5.91601 6.56704 6.01645 6.65186 6.10127C6.73668 6.1861 6.83713 6.22851 6.9532 6.22851C7.06927 6.22851 7.16972 6.1861 7.25454 6.10127C7.33936 6.01645 7.38177 5.91601 7.38177 5.79994V4.94279H8.23891C8.35498 4.94279 8.45543 4.90038 8.54025 4.81556C8.62507 4.73074 8.66748 4.63029 8.66748 4.51422ZM4.81034 10.0856C4.81034 10.3223 4.72664 10.5243 4.55923 10.6917C4.39181 10.8591 4.18981 10.9428 3.9532 10.9428C3.71659 10.9428 3.51458 10.8591 3.34717 10.6917C3.17976 10.5243 3.09606 10.3223 3.09606 10.0856C3.09606 9.84904 3.17976 9.64703 3.34717 9.47962C3.51458 9.31221 3.71659 9.22851 3.9532 9.22851C4.18981 9.22851 4.39181 9.31221 4.55923 9.47962C4.72664 9.64703 4.81034 9.84904 4.81034 10.0856ZM10.8103 10.0856C10.8103 10.3223 10.7266 10.5243 10.5592 10.6917C10.3918 10.8591 10.1898 10.9428 9.9532 10.9428C9.71659 10.9428 9.51458 10.8591 9.34717 10.6917C9.17976 10.5243 9.09606 10.3223 9.09606 10.0856C9.09606 9.84904 9.17976 9.64703 9.34717 9.47962C9.51458 9.31221 9.71659 9.22851 9.9532 9.22851C10.1898 9.22851 10.3918 9.31221 10.5592 9.47962C10.7266 9.64703 10.8103 9.84904 10.8103 10.0856ZM11.6675 2.79994V6.22851C11.6675 6.33565 11.6318 6.43052 11.5603 6.51311C11.4889 6.59569 11.3974 6.64369 11.2858 6.65708L4.29472 7.47404C4.29918 7.50529 4.30923 7.55328 4.32485 7.61802C4.34048 7.68275 4.35387 7.7419 4.36503 7.79547C4.37619 7.84904 4.38177 7.89815 4.38177 7.94279C4.38177 8.01422 4.3282 8.15708 4.22106 8.37136H10.3818C10.4978 8.37136 10.5983 8.41377 10.6831 8.4986C10.7679 8.58342 10.8103 8.68386 10.8103 8.79994C10.8103 8.91601 10.7679 9.01645 10.6831 9.10127C10.5983 9.1861 10.4978 9.22851 10.3818 9.22851H3.52463C3.40856 9.22851 3.30811 9.1861 3.22329 9.10127C3.13847 9.01645 3.09606 8.91601 3.09606 8.79994C3.09606 8.73744 3.12061 8.64927 3.16972 8.53543C3.21882 8.42159 3.28467 8.28877 3.36726 8.13699C3.44985 7.9852 3.49561 7.90038 3.50454 7.88252L2.31927 2.37136H0.953199C0.837128 2.37136 0.736681 2.32895 0.65186 2.24413C0.567038 2.15931 0.524628 2.05886 0.524628 1.94279C0.524628 1.82672 0.567038 1.72627 0.65186 1.64145C0.736681 1.55663 0.837128 1.51422 0.953199 1.51422H2.66748C2.73891 1.51422 2.80253 1.52873 2.85833 1.55775C2.91414 1.58677 2.95878 1.62136 2.99226 1.66154C3.02574 1.70172 3.05476 1.75641 3.07931 1.82561C3.10387 1.8948 3.12061 1.95395 3.12954 2.00306C3.13847 2.05217 3.15074 2.11802 3.16637 2.20061C3.18199 2.28319 3.19204 2.34011 3.1965 2.37136H11.2389C11.355 2.37136 11.4554 2.41377 11.5403 2.4986C11.6251 2.58342 11.6675 2.68386 11.6675 2.79994Z" fill="white"/>
</g>
<defs>
<filter id="filter0_d_0_764" x="-0.675372" y="0.314221" width="13.5429" height="11.8286" filterUnits="userSpaceOnUse" color-interpolation-filters="sRGB">
<feFlood flood-opacity="0" result="BackgroundImageFix"/>
<feColorMatrix in="SourceAlpha" type="matrix" values="0 0 0 0 0 0 0 0 0 0 0 0 0 0 0 0 0 0 127 0" result="hardAlpha"/>
<feOffset/>
<feGaussianBlur stdDeviation="0.6"/>
<feComposite in2="hardAlpha" operator="out"/>
<feColorMatrix type="matrix" values="0 0 0 0 1 0 0 0 0 1 0 0 0 0 1 0 0 0 1 0"/>
<feBlend mode="normal" in2="BackgroundImageFix" result="effect1_dropShadow_0_764"/>
<feBlend mode="normal" in="SourceGraphic" in2="effect1_dropShadow_0_764" result="shape"/>
</filter>
</defs>
</svg>
