<svg width="20" height="20" viewBox="0 0 20 20" fill="none" xmlns="http://www.w3.org/2000/svg">
<path d="M16.4288 11.0714V16.4286C16.4288 16.622 16.3581 16.7894 16.2167 16.9308C16.0753 17.0722 15.9079 17.1429 15.7145 17.1429H11.4288V12.8571H8.57162V17.1429H4.28591C4.09246 17.1429 3.92505 17.0722 3.78368 16.9308C3.64231 16.7894 3.57162 16.622 3.57162 16.4286V11.0714C3.57162 11.064 3.57348 11.0528 3.5772 11.0379C3.58092 11.0231 3.58278 11.0119 3.58278 11.0045L10.0002 5.71428L16.4176 11.0045C16.425 11.0193 16.4288 11.0417 16.4288 11.0714ZM18.9176 10.3013L18.2256 11.1272C18.1661 11.1942 18.088 11.2351 17.9913 11.25H17.9578C17.8611 11.25 17.7829 11.224 17.7234 11.1719L10.0002 4.73214L2.27698 11.1719C2.18769 11.2314 2.09841 11.2574 2.00912 11.25C1.9124 11.2351 1.83427 11.1942 1.77475 11.1272L1.08278 10.3013C1.02326 10.2269 0.997218 10.1395 1.00466 10.0391C1.0121 9.93861 1.05302 9.85863 1.12743 9.7991L9.15198 3.11383C9.39008 2.92038 9.67281 2.82365 10.0002 2.82365C10.3276 2.82365 10.6103 2.92038 10.8484 3.11383L13.5716 5.39062V3.21428C13.5716 3.11011 13.6051 3.02455 13.6721 2.95758C13.739 2.89062 13.8246 2.85714 13.9288 2.85714H16.0716C16.1758 2.85714 16.2614 2.89062 16.3283 2.95758C16.3953 3.02455 16.4288 3.11011 16.4288 3.21428V7.76785L18.873 9.7991C18.9474 9.85863 18.9883 9.93861 18.9957 10.0391C19.0032 10.1395 18.9771 10.2269 18.9176 10.3013Z" fill="white"/>
</svg>
