<svg width="20" height="20" viewBox="0 0 20 20" fill="none" xmlns="http://www.w3.org/2000/svg">
<path d="M11.875 8.75H8.125C7.62772 8.75 7.15081 8.94755 6.79917 9.29918C6.44754 9.65081 6.25 10.1277 6.25 10.625V18.125C6.25 18.2908 6.31585 18.4497 6.43306 18.5669C6.55027 18.6842 6.70924 18.75 6.875 18.75H13.125C13.2908 18.75 13.4497 18.6842 13.5669 18.5669C13.6842 18.4497 13.75 18.2908 13.75 18.125V10.625C13.75 10.1277 13.5525 9.65081 13.2008 9.29918C12.8492 8.94755 12.3723 8.75 11.875 8.75ZM16.875 12.5H15V18.125C15.0013 18.3385 14.9632 18.5504 14.8875 18.75H16.875C17.3718 18.7485 17.8479 18.5505 18.1992 18.1992C18.5505 17.8479 18.7485 17.3718 18.75 16.875V14.375C18.7485 13.8782 18.5505 13.4021 18.1992 13.0508C17.8479 12.6995 17.3718 12.5015 16.875 12.5ZM5 13.125H3.125C2.62818 13.1265 2.15212 13.3245 1.80081 13.6758C1.4495 14.0271 1.25148 14.5032 1.25 15V16.875C1.25148 17.3718 1.4495 17.8479 1.80081 18.1992C2.15212 18.5505 2.62818 18.7485 3.125 18.75H5.1125C5.03681 18.5504 4.99867 18.3385 5 18.125V13.125ZM8.25 5.045L7.99312 6.62063C7.97949 6.70713 7.99033 6.79571 8.02441 6.87637C8.05849 6.95703 8.11445 7.02655 8.18597 7.07707C8.2575 7.12759 8.34172 7.1571 8.42914 7.16225C8.51655 7.16741 8.60366 7.14801 8.68062 7.10625L10 6.37813L11.3175 7.10625C11.3945 7.14801 11.4816 7.16741 11.569 7.16225C11.6564 7.1571 11.7406 7.12759 11.8122 7.07707C11.8837 7.02655 11.9396 6.95703 11.9737 6.87637C12.0078 6.79571 12.0186 6.70713 12.005 6.62063L11.75 5.045L12.835 3.93313C12.8952 3.87143 12.9371 3.79434 12.9563 3.71033C12.9755 3.62632 12.9712 3.53864 12.9438 3.45693C12.9164 3.37523 12.867 3.30265 12.8011 3.24718C12.7352 3.19171 12.6552 3.15549 12.57 3.1425L11.09 2.91688L10.4244 1.50001C10.3819 1.42486 10.3202 1.36234 10.2457 1.31885C10.1711 1.27535 10.0863 1.25243 10 1.25243C9.91368 1.25243 9.8289 1.27535 9.75434 1.31885C9.67978 1.36234 9.61811 1.42486 9.57563 1.50001L8.90938 2.91688L7.42938 3.1425C7.34418 3.15549 7.26422 3.19171 7.19827 3.24718C7.13233 3.30265 7.08295 3.37523 7.05556 3.45693C7.02817 3.53864 7.02384 3.62632 7.04304 3.71033C7.06223 3.79434 7.10422 3.87143 7.16438 3.93313L8.25 5.045Z" fill="white"/>
</svg>
