<svg width="20" height="20" viewBox="0 0 20 20" fill="none" xmlns="http://www.w3.org/2000/svg">
<rect width="20" height="20" fill="black" fill-opacity="0.35"/>
<path d="M17.4998 5H2.49984C1.99984 5 1.6665 5.33334 1.6665 5.83334V8.33334C1.6665 9.25 2.4165 10 3.33317 10C4.24984 10 4.99984 9.25 4.99984 8.33334C4.99984 9.25 5.74984 10 6.6665 10C7.58317 10 8.33317 9.25 8.33317 8.33334C8.33317 9.25 9.08317 10 9.99984 10C10.9165 10 11.6665 9.25 11.6665 8.33334C11.6665 9.25 12.4165 10 13.3332 10C14.2498 10 14.9998 9.25 14.9998 8.33334C14.9998 9.25 15.7498 10 16.6665 10C17.5832 10 18.3332 9.25 18.3332 8.33334V5.83334C18.3332 5.33334 17.9998 5 17.4998 5ZM3.58317 3.33334H16.6665C17.1665 3.33334 17.4998 3 17.4998 2.5C17.4998 2.00001 17.1665 1.66667 16.6665 1.66667H3.58317C3.08317 1.66667 2.74984 2.00001 2.74984 2.5C2.74984 3 3.1665 3.33334 3.58317 3.33334ZM14.9998 10C14.9998 10.9167 14.2498 11.6667 13.3332 11.6667C12.4165 11.6667 11.6665 10.9167 11.6665 10C11.6665 10.9167 10.9165 11.6667 9.99984 11.6667C9.08317 11.6667 8.33317 10.9167 8.33317 10C8.33317 10.9167 7.58317 11.6667 6.6665 11.6667C5.74984 11.6667 4.99984 10.9167 4.99984 10C4.99984 10.9167 4.24984 11.6667 3.33317 11.6667V17.5C3.33317 18 3.6665 18.3333 4.1665 18.3333H7.49984V15.8333C7.49984 14.4167 8.58317 13.3333 9.99984 13.3333C11.4165 13.3333 12.4998 14.4167 12.4998 15.8333V18.3333H15.8332C16.3332 18.3333 16.6665 18 16.6665 17.5V11.6667C15.7498 11.6667 14.9998 10.9167 14.9998 10Z" fill="white"/>
</svg>
