<svg width="482" height="512" viewBox="0 0 482 512" fill="none" xmlns="http://www.w3.org/2000/svg">
<path d="M376.53 271.059C376.53 345.791 315.732 406.588 241 406.588C166.268 406.588 105.471 345.791 105.471 271.059C105.471 256.909 105.471 239.987 105.471 225.882H75.353V271.059C75.353 346.741 126.372 410.731 195.824 430.443V481.882H135.588V512H346.412V481.882H286.177V430.443C355.628 410.731 406.647 346.741 406.647 271.059V225.882H376.53V271.059Z" fill="white"/>
<path d="M391.588 60.2354H421.706V150.588H391.588V60.2354Z" fill="white"/>
<path d="M451.823 30.1177H481.941V210.824H451.823V30.1177Z" fill="white"/>
<path d="M60.2942 90.3529H90.4118V180.706H60.2942V90.3529Z" fill="white"/>
<path d="M0.0588379 30.1177H30.1765V210.824H0.0588379V30.1177Z" fill="white"/>
<path d="M135.588 256C135.588 314.124 182.875 361.412 241 361.412C299.125 361.412 346.412 314.124 346.412 256H286.177V225.882H346.412V195.765H286.177V165.647H346.412V135.529H286.177V105.412H346.412C346.412 47.2877 299.124 0 241 0C182.876 0 135.588 47.2877 135.588 105.412H195.824V135.529H135.588V165.647H195.824V195.765H135.588V225.882H195.824V256H135.588Z" fill="white"/>
</svg>
