<svg width="30" height="30" viewBox="0 0 30 30" fill="none" xmlns="http://www.w3.org/2000/svg">
<path d="M10.4753 11.0665C11.3453 12.8786 12.5313 14.5769 14.0333 16.0788C15.5353 17.5808 17.2336 18.7668 19.0456 19.6368C19.2015 19.7116 19.2794 19.749 19.378 19.7778C19.7284 19.8799 20.1588 19.8066 20.4556 19.5941C20.5391 19.5343 20.6105 19.4628 20.7534 19.3199C21.1904 18.8829 21.4089 18.6644 21.6286 18.5215C22.4573 17.9828 23.5255 17.9828 24.3541 18.5215C24.5738 18.6644 24.7923 18.8829 25.2293 19.3199L25.4729 19.5635C26.1372 20.2278 26.4694 20.56 26.6498 20.9167C27.0086 21.6261 27.0086 22.464 26.6498 23.1734C26.4694 23.5301 26.1372 23.8623 25.4729 24.5266L25.2759 24.7236C24.6138 25.3857 24.2828 25.7167 23.8328 25.9695C23.3334 26.25 22.5578 26.4517 21.985 26.45C21.4688 26.4485 21.1161 26.3484 20.4105 26.1481C16.6188 25.0719 13.0408 23.0413 10.0558 20.0563C7.07085 17.0713 5.04026 13.4934 3.96404 9.70164C3.76379 8.99608 3.66366 8.6433 3.66212 8.12712C3.66042 7.55434 3.86212 6.77873 4.14264 6.27935C4.39545 5.82931 4.72647 5.49829 5.3885 4.83626L5.58554 4.63922C6.24984 3.97492 6.58199 3.64277 6.93872 3.46234C7.64817 3.1035 8.486 3.1035 9.19545 3.46233C9.55218 3.64277 9.88433 3.97492 10.5486 4.63922L10.7922 4.88281C11.2292 5.31982 11.4477 5.53832 11.5906 5.75804C12.1293 6.58665 12.1293 7.65488 11.5906 8.48349C11.4477 8.70322 11.2292 8.92172 10.7922 9.35873C10.6493 9.50162 10.5779 9.57306 10.5181 9.65658C10.3056 9.95336 10.2322 10.3837 10.3343 10.7341C10.3631 10.8327 10.4005 10.9107 10.4753 11.0665Z" stroke="white" stroke-opacity="0.5" stroke-width="2" stroke-linecap="round" stroke-linejoin="round"/>
</svg>
